<?xml version="1.0" encoding="UTF-8" standalone="no"?>
<!-- Created with Inkscape (http://www.inkscape.org/) -->

<svg
   width="210mm"
   height="297mm"
   viewBox="0 0 210 297"
   version="1.1"
   id="svg1"
   inkscape:version="1.4 (e7c3feb1, 2024-10-09)"
   sodipodi:docname="Edgecuts.svg"
   xmlns:inkscape="http://www.inkscape.org/namespaces/inkscape"
   xmlns:sodipodi="http://sodipodi.sourceforge.net/DTD/sodipodi-0.dtd"
   xmlns="http://www.w3.org/2000/svg"
   xmlns:svg="http://www.w3.org/2000/svg">
  <sodipodi:namedview
     id="namedview1"
     pagecolor="#ffffff"
     bordercolor="#000000"
     borderopacity="0.25"
     inkscape:showpageshadow="2"
     inkscape:pageopacity="0.0"
     inkscape:pagecheckerboard="0"
     inkscape:deskcolor="#d1d1d1"
     inkscape:document-units="mm"
     showgrid="true"
     inkscape:zoom="4.7279042"
     inkscape:cx="386.11189"
     inkscape:cy="402.50393"
     inkscape:window-width="1440"
     inkscape:window-height="769"
     inkscape:window-x="0"
     inkscape:window-y="25"
     inkscape:window-maximized="1"
     inkscape:current-layer="layer1">
    <inkscape:grid
       id="grid1"
       units="mm"
       originx="0"
       originy="0"
       spacingx="1"
       spacingy="0.99999986"
       empcolor="#0099e5"
       empopacity="0.30196078"
       color="#0099e5"
       opacity="0.14901961"
       empspacing="5"
       enabled="true"
       visible="true"
       dotted="false"
       snapvisiblegridlinesonly="true" />
  </sodipodi:namedview>
  <defs
     id="defs1">
    <inkscape:path-effect
       effect="fillet_chamfer"
       id="path-effect9"
       is_visible="true"
       lpeversion="1"
       nodesatellites_param="F,0,0,1,0,0.80219998,0,1 @ F,0,0,1,0,0,0,1 @ F,0,0,1,0,0,0,1 @ F,0,0,1,0,0,0,1 @ F,0,0,1,0,0,0,1 @ F,0,0,1,0,0,0,1 @ F,0,0,1,0,0,0,1 @ F,0,0,1,0,0,0,1 @ F,0,0,1,0,0,0,1 @ F,0,0,1,0,0,0,1 @ F,0,0,1,0,0,0,1 @ F,0,0,1,0,0,0,1 @ F,0,0,1,0,0,0,1 @ F,0,0,1,0,0.78244276,0,1 @ F,0,0,1,0,0.98984377,0,1 @ F,0,0,1,0,0.98984377,0,1 @ F,0,0,1,0,0.98984377,0,1"
       radius="0"
       unit="px"
       method="auto"
       mode="F"
       chamfer_steps="1"
       flexible="false"
       use_knot_distance="true"
       apply_no_radius="true"
       apply_with_radius="true"
       only_selected="false"
       hide_knots="false" />
  </defs>
  <g
     inkscape:label="Layer 1"
     inkscape:groupmode="layer"
     id="layer1">
    <path
       id="path9"
       style="fill:none;stroke:#000000;stroke-width:0.288127;stroke-opacity:1"
       transform="scale(1,-1)"
       d="m 106.98057,-107.12545 c 1.00682,-0.54703 2.26815,-1.51999 3.02539,-1.87455 1.28105,-0.59981 2.05249,-1.25961 2.99404,-1.98025 1.53932,-1.17816 3.00762,-2.51893 4,-4.02604 1.33448,-2.02666 2.53056,-4.35412 2.53056,-6.99144 L 119.46944,-183 c -0.0492,-6.03822 -3.36106,-10.98089 -9.51864,-14 -3.21763,-1.57763 -6.36061,-2.07114 -9.9508,-2 -3.280363,0.065 -7.010852,-0.0784 -9.950801,1.36313 -6.157578,3.01911 -9.472421,8.59865 -9.521619,14.63687 l -0.05516,61.00114 c -0.0027,2.63964 1.191429,4.96875 2.52758,6.99654 0.98423,1.4937 2.479455,2.8239 4,3.99427 0.766973,0.59034 1.400978,1.14002 2.299112,1.6495 0.375641,0.21309 1.009751,0.51398 1.375856,0.74311 0.664291,0.41576 1.472691,0.9946 2.180438,1.39908 0.473145,0.2704 0.894594,0.85953 0.894594,1.4062 v 12.820316 A 0.98984377,0.98984377 45 0 0 94.739844,-92 h 10.521566 a 0.98967658,0.98967658 134.99516 0 0 0.98967,-0.989844 l -0.002,-13.007956 c -8e-5,-0.44304 0.34301,-0.91648 0.73168,-1.12765 z"
       sodipodi:nodetypes="csssccsssccssscccc"
       inkscape:path-effect="#path-effect9"
       inkscape:original-d="m 106.24875,-106.8 c 1.03571,-0.31417 2.79957,-1.75161 3.75721,-2.2 1.28105,-0.59981 2.05249,-1.25961 2.99404,-1.98025 1.53932,-1.17816 3.00762,-2.51893 4,-4.02604 1.33448,-2.02666 2.53056,-4.35412 2.53056,-6.99144 L 119.46944,-183 c -0.0492,-6.03822 -3.36106,-10.98089 -9.51864,-14 -3.21763,-1.57763 -6.36061,-2.07114 -9.9508,-2 -3.280363,0.065 -7.010852,-0.0784 -9.950801,1.36313 -6.157578,3.01911 -9.472421,8.59865 -9.521619,14.63687 l -0.05516,61.00114 c -0.0027,2.63964 1.191429,4.96875 2.52758,6.99654 0.98423,1.4937 2.479455,2.8239 4,3.99427 0.950349,0.73148 1.696546,1.40054 2.994039,2.00805 0.957586,0.44836 2.720312,1.88584 3.755961,2.2 V -92 h 12.50125 z" />
  </g>
</svg>
