%TF.GenerationSoftware,KiCad,Pcbnew,8.0.6*%
%TF.CreationDate,2024-11-04T21:33:25+05:30*%
%TF.ProjectId,Berrythe,42657272-7974-4686-952e-6b696361645f,rev?*%
%TF.SameCoordinates,Original*%
%TF.FileFunction,Copper,L4,Bot*%
%TF.FilePolarity,Positive*%
%FSLAX46Y46*%
G04 Gerber Fmt 4.6, Leading zero omitted, Abs format (unit mm)*
G04 Created by KiCad (PCBNEW 8.0.6) date 2024-11-04 21:33:25*
%MOMM*%
%LPD*%
G01*
G04 APERTURE LIST*
G04 Aperture macros list*
%AMRoundRect*
0 Rectangle with rounded corners*
0 $1 Rounding radius*
0 $2 $3 $4 $5 $6 $7 $8 $9 X,Y pos of 4 corners*
0 Add a 4 corners polygon primitive as box body*
4,1,4,$2,$3,$4,$5,$6,$7,$8,$9,$2,$3,0*
0 Add four circle primitives for the rounded corners*
1,1,$1+$1,$2,$3*
1,1,$1+$1,$4,$5*
1,1,$1+$1,$6,$7*
1,1,$1+$1,$8,$9*
0 Add four rect primitives between the rounded corners*
20,1,$1+$1,$2,$3,$4,$5,0*
20,1,$1+$1,$4,$5,$6,$7,0*
20,1,$1+$1,$6,$7,$8,$9,0*
20,1,$1+$1,$8,$9,$2,$3,0*%
G04 Aperture macros list end*
%ADD10C,0.150000*%
%TA.AperFunction,NonConductor*%
%ADD11C,0.150000*%
%TD*%
%TA.AperFunction,ComponentPad*%
%ADD12C,1.932000*%
%TD*%
%TA.AperFunction,HeatsinkPad*%
%ADD13R,2.900000X1.900000*%
%TD*%
%TA.AperFunction,ComponentPad*%
%ADD14C,2.500000*%
%TD*%
%TA.AperFunction,ComponentPad*%
%ADD15O,1.150000X1.750000*%
%TD*%
%TA.AperFunction,ComponentPad*%
%ADD16C,1.000000*%
%TD*%
%TA.AperFunction,SMDPad,CuDef*%
%ADD17RoundRect,0.250000X-0.350000X-0.650000X0.350000X-0.650000X0.350000X0.650000X-0.350000X0.650000X0*%
%TD*%
%TA.AperFunction,SMDPad,CuDef*%
%ADD18RoundRect,0.150000X-0.150000X-0.625000X0.150000X-0.625000X0.150000X0.625000X-0.150000X0.625000X0*%
%TD*%
%TA.AperFunction,ComponentPad*%
%ADD19RoundRect,0.250000X-0.250000X-0.400000X0.250000X-0.400000X0.250000X0.400000X-0.250000X0.400000X0*%
%TD*%
%TA.AperFunction,ComponentPad*%
%ADD20O,1.000000X1.300000*%
%TD*%
%TA.AperFunction,ComponentPad*%
%ADD21RoundRect,0.250000X0.625000X-0.350000X0.625000X0.350000X-0.625000X0.350000X-0.625000X-0.350000X0*%
%TD*%
%TA.AperFunction,ComponentPad*%
%ADD22O,1.750000X1.200000*%
%TD*%
%TA.AperFunction,ViaPad*%
%ADD23C,0.812800*%
%TD*%
%TA.AperFunction,Conductor*%
%ADD24C,0.203200*%
%TD*%
%TA.AperFunction,Conductor*%
%ADD25C,0.500000*%
%TD*%
G04 APERTURE END LIST*
D10*
D11*
X63101316Y-155018771D02*
X63101316Y-155418771D01*
X63244173Y-154790200D02*
X63387030Y-155218771D01*
X63387030Y-155218771D02*
X63015601Y-155218771D01*
D12*
%TO.P,J4,1,Pin_1*%
%TO.N,GND*%
X96400000Y-102700000D03*
%TO.P,J4,2,Pin_2*%
%TO.N,/UART_TX*%
X98940000Y-103970000D03*
%TO.P,J4,3,Pin_3*%
%TO.N,/SWCLK*%
X96400000Y-105240000D03*
%TO.P,J4,4,Pin_4*%
%TO.N,/SWDIO*%
X98940000Y-106510000D03*
%TD*%
D13*
%TO.P,U2,9,EXP*%
%TO.N,GND*%
X74400000Y-92100000D03*
%TD*%
D14*
%TO.P,TP1,1,1*%
%TO.N,GND*%
X91100000Y-90200000D03*
%TD*%
D15*
%TO.P,J1,SH1,SHIELD*%
%TO.N,unconnected-(J1-SHIELD-PadSH1)_1*%
X86320000Y-76150000D03*
%TO.P,J1,SH2,SHIELD*%
%TO.N,unconnected-(J1-SHIELD-PadSH1)_3*%
X77680000Y-76150000D03*
%TO.P,J1,SH3,SHIELD*%
%TO.N,unconnected-(J1-SHIELD-PadSH1)_2*%
X86320000Y-72350000D03*
%TO.P,J1,SH4,SHIELD*%
%TO.N,unconnected-(J1-SHIELD-PadSH1)*%
X77680000Y-72350000D03*
%TD*%
D16*
%TO.P,SW1,1,1*%
%TO.N,Net-(R28-Pad1)*%
X92730000Y-150900000D03*
%TO.P,SW1,2,2*%
%TO.N,GND*%
X95270000Y-150900000D03*
%TD*%
D17*
%TO.P,J2,*%
%TO.N,*%
X94200000Y-124125000D03*
X97800000Y-124125000D03*
D18*
%TO.P,J2,1,Pin_1*%
%TO.N,Net-(J2-Pin_1)*%
X95500000Y-121600000D03*
%TO.P,J2,2,Pin_2*%
%TO.N,GND*%
X96500000Y-121600000D03*
%TD*%
D19*
%TO.P,J3,1,Pin_1*%
%TO.N,Net-(J2-Pin_1)*%
X95100000Y-127600000D03*
D20*
%TO.P,J3,2,Pin_2*%
%TO.N,GND*%
X96350000Y-127600000D03*
%TD*%
D21*
%TO.P,BT1,1,-*%
%TO.N,Net-(BT1--)*%
X87500000Y-91500000D03*
D22*
%TO.P,BT1,2,+*%
%TO.N,/VBAT_CHRG*%
X87500000Y-89500000D03*
%TD*%
D23*
%TO.N,/VBAT*%
X97661520Y-129161568D03*
X78343649Y-97788800D03*
X91578685Y-96213152D03*
X85000000Y-97700000D03*
X97500000Y-122499994D03*
%TO.N,GND*%
X98600000Y-125800000D03*
X80000000Y-74000000D03*
X87800000Y-85300000D03*
X65950000Y-133000000D03*
X70800000Y-88800000D03*
X76300000Y-92900000D03*
X98266318Y-118443439D03*
X100400000Y-110000000D03*
X80600000Y-90500000D03*
X94100000Y-113100000D03*
X85750000Y-96900000D03*
X82000000Y-78000000D03*
X63500000Y-160800000D03*
X77100000Y-92100000D03*
X98200000Y-116100000D03*
X72100000Y-101300000D03*
X83907191Y-89792143D03*
X97374999Y-140000000D03*
X70750000Y-142300000D03*
X69500000Y-169900000D03*
X76900000Y-167400000D03*
X97574999Y-141000000D03*
X78984000Y-97000000D03*
X93200000Y-119500000D03*
X72425228Y-92990401D03*
X99500257Y-145219202D03*
X96170367Y-142601158D03*
X82250000Y-82400000D03*
X87100000Y-80400000D03*
X71600000Y-92100000D03*
X69300000Y-93000000D03*
X100500000Y-127000000D03*
X79200000Y-93600000D03*
X70600000Y-93000000D03*
X92000000Y-152100000D03*
X91500000Y-173700000D03*
X82000000Y-73600000D03*
X84000000Y-74000000D03*
X66700000Y-163200000D03*
X85000000Y-75100000D03*
X78900000Y-88200000D03*
X100400000Y-153800000D03*
X91700000Y-94900000D03*
X70600000Y-117100000D03*
X64700000Y-118800000D03*
X74700000Y-95900000D03*
X94800000Y-99400000D03*
X77200000Y-77600000D03*
X97474999Y-139000000D03*
X76900000Y-87900000D03*
X71600000Y-165200000D03*
X91900000Y-100600000D03*
X94174999Y-139200000D03*
X89165125Y-94843962D03*
X72100000Y-139800000D03*
X96000000Y-91000000D03*
X85500000Y-91000000D03*
X91900000Y-127600000D03*
X91812800Y-115800000D03*
X72400642Y-91209600D03*
X82000000Y-79300000D03*
X79000000Y-75100000D03*
X83800000Y-91400000D03*
X70400000Y-173300000D03*
X70600000Y-91200000D03*
X69300000Y-102300000D03*
X64700000Y-109000000D03*
X89048788Y-96251576D03*
X94074999Y-140500000D03*
X70300000Y-105500000D03*
X95800000Y-139659467D03*
X72100000Y-118800000D03*
X72500000Y-167800000D03*
X76300000Y-91300000D03*
X100400000Y-99700000D03*
X98111200Y-128233136D03*
X90700000Y-167400000D03*
X78528284Y-92122077D03*
X97700000Y-94900000D03*
X85800000Y-83600000D03*
X100500000Y-147700000D03*
X100400000Y-161000000D03*
X94828435Y-154512638D03*
X93946700Y-106215217D03*
X63600000Y-150300000D03*
X63500000Y-101600000D03*
X90000000Y-169900000D03*
X83200000Y-171300000D03*
%TO.N,/3V3*%
X98800000Y-121600000D03*
X94772400Y-103927601D03*
%TO.N,/VUSB_SNS*%
X78496835Y-95934600D03*
X86300000Y-94600000D03*
%TO.N,/BLED*%
X95839372Y-154613970D03*
X70500000Y-170800000D03*
X94174999Y-137299996D03*
X72800000Y-168800000D03*
%TO.N,/GLED*%
X68500000Y-169000000D03*
X95674999Y-137000000D03*
X99350000Y-144150000D03*
X70968478Y-166275362D03*
%TO.N,/RLED*%
X67200000Y-164300000D03*
X97400000Y-137009602D03*
X71478685Y-163986848D03*
X99769898Y-146408214D03*
%TO.N,Net-(Q3-D)*%
X92700000Y-126068004D03*
X68638794Y-103071407D03*
X71711200Y-100361335D03*
X93900000Y-154100000D03*
X92500000Y-103400000D03*
%TO.N,Net-(U2-TEMP)*%
X72200000Y-95800000D03*
X69900000Y-101400000D03*
%TO.N,/SDA*%
X100125000Y-114625000D03*
X99010665Y-128705602D03*
%TO.N,/SCL*%
X99254812Y-113300000D03*
X98801590Y-126795801D03*
%TO.N,Net-(R28-Pad1)*%
X93514562Y-127314730D03*
%TD*%
D24*
%TO.N,/VBAT*%
X97661520Y-129161568D02*
X97400000Y-128900048D01*
X97400000Y-128900048D02*
X97400000Y-126200000D01*
X97500000Y-117600000D02*
X97500000Y-122499994D01*
X78343649Y-97788800D02*
X78454849Y-97900000D01*
X96895200Y-125695200D02*
X96895200Y-123104794D01*
X91578685Y-98078685D02*
X93414400Y-99914400D01*
X93200000Y-103993157D02*
X93200000Y-113300000D01*
X84800000Y-97900000D02*
X85000000Y-97700000D01*
X93414400Y-103778757D02*
X93200000Y-103993157D01*
X96895200Y-123104794D02*
X97500000Y-122499994D01*
X93200000Y-113300000D02*
X97500000Y-117600000D01*
X78454849Y-97900000D02*
X84800000Y-97900000D01*
X97400000Y-126200000D02*
X96895200Y-125695200D01*
X93414400Y-99914400D02*
X93414400Y-103778757D01*
X91578685Y-96213152D02*
X91578685Y-98078685D01*
%TO.N,/3V3*%
X98494589Y-115388800D02*
X99000008Y-115894219D01*
X94772400Y-103927601D02*
X94827601Y-103927601D01*
X98488800Y-115388800D02*
X98494589Y-115388800D01*
X94827601Y-103927601D02*
X94882000Y-103982000D01*
X99000008Y-121399992D02*
X98800000Y-121600000D01*
X94772400Y-111672400D02*
X98488800Y-115388800D01*
X94772400Y-103927601D02*
X94772400Y-111672400D01*
X99000008Y-115894219D02*
X99000008Y-121399992D01*
%TO.N,/VUSB_SNS*%
X78496835Y-95934600D02*
X78662235Y-96100000D01*
X78662235Y-96100000D02*
X84800000Y-96100000D01*
X84800000Y-96100000D02*
X86300000Y-94600000D01*
%TO.N,/BLED*%
X95839372Y-153939372D02*
X94300000Y-152400000D01*
X70800000Y-170800000D02*
X72800000Y-168800000D01*
X94300000Y-150500000D02*
X93300000Y-149500000D01*
X70500000Y-170800000D02*
X70800000Y-170800000D01*
X95839372Y-154613970D02*
X95839372Y-153939372D01*
X93300000Y-138174995D02*
X94174999Y-137299996D01*
X93300000Y-149500000D02*
X93300000Y-138174995D01*
X94300000Y-152400000D02*
X94300000Y-150500000D01*
%TO.N,/GLED*%
X99800000Y-138100000D02*
X99500000Y-137800000D01*
X70968478Y-166531522D02*
X70968478Y-166275362D01*
X99800000Y-143700000D02*
X99800000Y-138100000D01*
X96474999Y-137800000D02*
X95674999Y-137000000D01*
X99350000Y-144150000D02*
X99800000Y-143700000D01*
X99500000Y-137800000D02*
X96474999Y-137800000D01*
X68500000Y-169000000D02*
X70968478Y-166531522D01*
%TO.N,/RLED*%
X100400000Y-137500000D02*
X100400000Y-145778112D01*
X100400000Y-145778112D02*
X99769898Y-146408214D01*
X71165533Y-164300000D02*
X71478685Y-163986848D01*
X99909602Y-137009602D02*
X100400000Y-137500000D01*
X67200000Y-164300000D02*
X71165533Y-164300000D01*
X97400000Y-137009602D02*
X99909602Y-137009602D01*
%TO.N,Net-(J2-Pin_1)*%
X95100000Y-126900000D02*
X95100000Y-127600000D01*
X95500000Y-121600000D02*
X95500000Y-122022342D01*
X95500000Y-122022342D02*
X95900000Y-122422342D01*
X95900000Y-122422342D02*
X95900000Y-126100000D01*
X95900000Y-126100000D02*
X95100000Y-126900000D01*
%TO.N,Net-(Q3-D)*%
X94225762Y-127020141D02*
X93273625Y-126068004D01*
X93900000Y-154100000D02*
X93600000Y-153800000D01*
X92800000Y-149700000D02*
X92800000Y-129100000D01*
X93600000Y-153800000D02*
X93600000Y-150500000D01*
D25*
X92700000Y-126068004D02*
X92340400Y-125708404D01*
X68638794Y-103071407D02*
X68855749Y-103071407D01*
X92340400Y-125708404D02*
X92340400Y-116662627D01*
X68943942Y-103159600D02*
X69940400Y-103159600D01*
X92962800Y-114859773D02*
X92500000Y-114396973D01*
D24*
X92800000Y-129100000D02*
X94225762Y-127674238D01*
D25*
X92500000Y-114396973D02*
X92500000Y-103400000D01*
D24*
X94225762Y-127674238D02*
X94225762Y-127020141D01*
D25*
X71200000Y-100872535D02*
X71711200Y-100361335D01*
D24*
X93600000Y-150500000D02*
X92800000Y-149700000D01*
D25*
X71200000Y-101900000D02*
X71200000Y-100872535D01*
D24*
X93273625Y-126068004D02*
X92700000Y-126068004D01*
D25*
X69940400Y-103159600D02*
X71200000Y-101900000D01*
X92962800Y-116040227D02*
X92962800Y-114859773D01*
X68855749Y-103071407D02*
X68943942Y-103159600D01*
X92340400Y-116662627D02*
X92962800Y-116040227D01*
D24*
%TO.N,Net-(U2-TEMP)*%
X72200000Y-95800000D02*
X72200000Y-97300000D01*
X69900000Y-99600000D02*
X69900000Y-101400000D01*
X72200000Y-97300000D02*
X69900000Y-99600000D01*
%TO.N,/SDA*%
X99010665Y-128705602D02*
X99512790Y-128203477D01*
X100400000Y-114900000D02*
X100125000Y-114625000D01*
X99512790Y-126787210D02*
X100400000Y-125900000D01*
X99512790Y-128203477D02*
X99512790Y-126787210D01*
X100400000Y-125900000D02*
X100400000Y-114900000D01*
%TO.N,/SCL*%
X98801590Y-126795801D02*
X99993600Y-125603791D01*
X99254812Y-114854812D02*
X99254812Y-113300000D01*
X99993600Y-125603791D02*
X99993600Y-115593600D01*
X99993600Y-115593600D02*
X99254812Y-114854812D01*
%TO.N,Net-(R28-Pad1)*%
X92230001Y-128599291D02*
X92230001Y-150400001D01*
X92230001Y-150400001D02*
X92730000Y-150900000D01*
X93514562Y-127314730D02*
X92230001Y-128599291D01*
%TD*%
%TA.AperFunction,Conductor*%
%TO.N,GND*%
G36*
X87257620Y-70406930D02*
G01*
X87287846Y-70407680D01*
X87292812Y-70407926D01*
X87316574Y-70409693D01*
X87321497Y-70410182D01*
X87345037Y-70413106D01*
X87349916Y-70413835D01*
X87373197Y-70417899D01*
X87378030Y-70418865D01*
X87401039Y-70424054D01*
X87405812Y-70425253D01*
X87428514Y-70431554D01*
X87433209Y-70432982D01*
X87455560Y-70440377D01*
X87460174Y-70442029D01*
X87482115Y-70450498D01*
X87486636Y-70452372D01*
X87508153Y-70461907D01*
X87512589Y-70464004D01*
X87533602Y-70474570D01*
X87537933Y-70476881D01*
X87555009Y-70486540D01*
X87558452Y-70488487D01*
X87562652Y-70491000D01*
X87582636Y-70503632D01*
X87586700Y-70506343D01*
X87596604Y-70513306D01*
X87606046Y-70519944D01*
X87610018Y-70522885D01*
X87628720Y-70537457D01*
X87632557Y-70540602D01*
X87650572Y-70556125D01*
X87654258Y-70559463D01*
X87671639Y-70576005D01*
X87675138Y-70579504D01*
X87691682Y-70596892D01*
X87694994Y-70600551D01*
X87700391Y-70606817D01*
X87710541Y-70618602D01*
X87713682Y-70622436D01*
X87728249Y-70641139D01*
X87731191Y-70645114D01*
X87744791Y-70664467D01*
X87747524Y-70668566D01*
X87756294Y-70682447D01*
X87760115Y-70688493D01*
X87762640Y-70692714D01*
X87774242Y-70713233D01*
X87776556Y-70717570D01*
X87787126Y-70738600D01*
X87789221Y-70743035D01*
X87798744Y-70764534D01*
X87800623Y-70769070D01*
X87809080Y-70790993D01*
X87810733Y-70795612D01*
X87818132Y-70817984D01*
X87819560Y-70822683D01*
X87825855Y-70845378D01*
X87827054Y-70850153D01*
X87832236Y-70873150D01*
X87833202Y-70877986D01*
X87837259Y-70901256D01*
X87837989Y-70906148D01*
X87840912Y-70929708D01*
X87841401Y-70934650D01*
X87843159Y-70958344D01*
X87843404Y-70963310D01*
X87844150Y-70993592D01*
X87844181Y-70996085D01*
X87842193Y-83937684D01*
X87841618Y-83948410D01*
X87841027Y-83953911D01*
X87841986Y-83994310D01*
X87840754Y-84008974D01*
X87840412Y-84014620D01*
X87841928Y-84036113D01*
X87842177Y-84043196D01*
X87842176Y-84051307D01*
X87842796Y-84056018D01*
X87842876Y-84081634D01*
X87842615Y-84083710D01*
X87842616Y-84083712D01*
X87843644Y-84091167D01*
X87844558Y-84102498D01*
X87844561Y-84102638D01*
X87845167Y-84106527D01*
X87846838Y-84114316D01*
X87847626Y-84120022D01*
X87848318Y-84126672D01*
X87850897Y-84163232D01*
X87852217Y-84169697D01*
X87851624Y-84169817D01*
X87855899Y-84198994D01*
X87855794Y-84201512D01*
X87855795Y-84201515D01*
X87862881Y-84233132D01*
X87864371Y-84241378D01*
X87868801Y-84273480D01*
X87868802Y-84273483D01*
X87870615Y-84277784D01*
X87878446Y-84313227D01*
X87878562Y-84316457D01*
X87878563Y-84316462D01*
X87888524Y-84348920D01*
X87890515Y-84356430D01*
X87897939Y-84389550D01*
X87898251Y-84390146D01*
X87898967Y-84391513D01*
X87908214Y-84421931D01*
X87908399Y-84421887D01*
X87909197Y-84425166D01*
X87909853Y-84427323D01*
X87909957Y-84428289D01*
X87909958Y-84428294D01*
X87922711Y-84461202D01*
X87925080Y-84468035D01*
X87935441Y-84501795D01*
X87935443Y-84501799D01*
X87935444Y-84501802D01*
X87935446Y-84501805D01*
X87935449Y-84501811D01*
X87935517Y-84501920D01*
X87935614Y-84502174D01*
X87938185Y-84507798D01*
X87937840Y-84507955D01*
X87946613Y-84530745D01*
X87947164Y-84530572D01*
X87949151Y-84536857D01*
X87964586Y-84569890D01*
X87967242Y-84576113D01*
X87976564Y-84600165D01*
X87980419Y-84610112D01*
X87983583Y-84615894D01*
X87982928Y-84616252D01*
X87992194Y-84636174D01*
X87993044Y-84635845D01*
X87995429Y-84641995D01*
X88013388Y-84674804D01*
X88016277Y-84680505D01*
X88020887Y-84690371D01*
X88032117Y-84714404D01*
X88035664Y-84719960D01*
X88034774Y-84720527D01*
X88044353Y-84738085D01*
X88045430Y-84737591D01*
X88048183Y-84743583D01*
X88068501Y-84775879D01*
X88071594Y-84781143D01*
X88089910Y-84814604D01*
X88093802Y-84819922D01*
X88092750Y-84820691D01*
X88102562Y-84836323D01*
X88103797Y-84835666D01*
X88106898Y-84841489D01*
X88129383Y-84872969D01*
X88132669Y-84877868D01*
X88153262Y-84910600D01*
X88157475Y-84915678D01*
X88156329Y-84916628D01*
X88166380Y-84930715D01*
X88167701Y-84929912D01*
X88171124Y-84935539D01*
X88195584Y-84965939D01*
X88199065Y-84970528D01*
X88221325Y-85001693D01*
X88221757Y-85002297D01*
X88226254Y-85007113D01*
X88225070Y-85008218D01*
X88235406Y-85021063D01*
X88236757Y-85020133D01*
X88240493Y-85025554D01*
X88240495Y-85025558D01*
X88240497Y-85025560D01*
X88266736Y-85054629D01*
X88270429Y-85058960D01*
X88294992Y-85089488D01*
X88294995Y-85089490D01*
X88299762Y-85094043D01*
X88298589Y-85095270D01*
X88309314Y-85107144D01*
X88310645Y-85106111D01*
X88314683Y-85111311D01*
X88314686Y-85111314D01*
X88314687Y-85111315D01*
X88342515Y-85138820D01*
X88346460Y-85142949D01*
X88372672Y-85171987D01*
X88377693Y-85176264D01*
X88376580Y-85177569D01*
X88387866Y-85188711D01*
X88389122Y-85187614D01*
X88393461Y-85192578D01*
X88422628Y-85218240D01*
X88426879Y-85222204D01*
X88454522Y-85249526D01*
X88454528Y-85249529D01*
X88459776Y-85253508D01*
X88458771Y-85254833D01*
X88470864Y-85265450D01*
X88471988Y-85264343D01*
X88476617Y-85269040D01*
X88506892Y-85292618D01*
X88511519Y-85296448D01*
X88522939Y-85306496D01*
X88540348Y-85321814D01*
X88545818Y-85325481D01*
X88544961Y-85326758D01*
X88558204Y-85337039D01*
X88559146Y-85335988D01*
X88564058Y-85340384D01*
X88595169Y-85361624D01*
X88600244Y-85365326D01*
X88629967Y-85388476D01*
X88629968Y-85388476D01*
X88629969Y-85388477D01*
X88635649Y-85391811D01*
X88634972Y-85392963D01*
X88649817Y-85403056D01*
X88650540Y-85402132D01*
X88655738Y-85406196D01*
X88676957Y-85418701D01*
X88687348Y-85424826D01*
X88692984Y-85428405D01*
X88723305Y-85449107D01*
X88723308Y-85449108D01*
X88726443Y-85450693D01*
X88737474Y-85455670D01*
X88778870Y-85478856D01*
X88779978Y-85479487D01*
X88784786Y-85482263D01*
X88785568Y-85482719D01*
X88820857Y-85503519D01*
X88823220Y-85504498D01*
X88833879Y-85509668D01*
X88945333Y-85572095D01*
X88968464Y-85585051D01*
X88970378Y-85586151D01*
X89156750Y-85695980D01*
X89158725Y-85697176D01*
X89470335Y-85891078D01*
X89551274Y-85941443D01*
X89553360Y-85942777D01*
X90176491Y-86352157D01*
X90362618Y-86474437D01*
X90362796Y-86474554D01*
X90707353Y-86701963D01*
X90716729Y-86708967D01*
X90717058Y-86709244D01*
X90759180Y-86736180D01*
X90760326Y-86736924D01*
X90801976Y-86764414D01*
X90801986Y-86764417D01*
X90802338Y-86764589D01*
X90812564Y-86770318D01*
X91086540Y-86945522D01*
X91095305Y-86952678D01*
X91095624Y-86952276D01*
X91100794Y-86956364D01*
X91100796Y-86956365D01*
X91100799Y-86956368D01*
X91140148Y-86979858D01*
X91142664Y-86981413D01*
X91178527Y-87004347D01*
X91181281Y-87006108D01*
X91187251Y-87008904D01*
X91187033Y-87009367D01*
X91197359Y-87014011D01*
X91434542Y-87155603D01*
X91442461Y-87160330D01*
X91452455Y-87167923D01*
X91452596Y-87167732D01*
X91457925Y-87171621D01*
X91469281Y-87177817D01*
X91496343Y-87192583D01*
X91499672Y-87194484D01*
X91537272Y-87216930D01*
X91537274Y-87216930D01*
X91537275Y-87216931D01*
X91543333Y-87219545D01*
X91543238Y-87219763D01*
X91554849Y-87224508D01*
X91567460Y-87231389D01*
X91613278Y-87256390D01*
X91623457Y-87263525D01*
X91623605Y-87263307D01*
X91629067Y-87266984D01*
X91629071Y-87266987D01*
X91668424Y-87286562D01*
X91671768Y-87288305D01*
X91710378Y-87309373D01*
X91710383Y-87309374D01*
X91716534Y-87311750D01*
X91716438Y-87311997D01*
X91728115Y-87316254D01*
X91771195Y-87337683D01*
X91780098Y-87342794D01*
X91780801Y-87343133D01*
X91780803Y-87343135D01*
X91826425Y-87365162D01*
X91827423Y-87365652D01*
X91873394Y-87388520D01*
X91882914Y-87392435D01*
X92057955Y-87476948D01*
X92060117Y-87478024D01*
X92272724Y-87587043D01*
X92274846Y-87588163D01*
X92477807Y-87698426D01*
X92479861Y-87699573D01*
X92646930Y-87795463D01*
X92674323Y-87811185D01*
X92676274Y-87812334D01*
X92863303Y-87925371D01*
X92865073Y-87926467D01*
X93042460Y-88038937D01*
X93043913Y-88039858D01*
X93046341Y-88041447D01*
X93127722Y-88096407D01*
X93395882Y-88277507D01*
X93398506Y-88279341D01*
X93733828Y-88521684D01*
X93735592Y-88522988D01*
X93957681Y-88690988D01*
X94067530Y-88774083D01*
X94068306Y-88774676D01*
X94223527Y-88894586D01*
X94749910Y-89301223D01*
X94750487Y-89301673D01*
X95097765Y-89574005D01*
X95302342Y-89734433D01*
X95316801Y-89745771D01*
X95318837Y-89747411D01*
X95731673Y-90088962D01*
X95869509Y-90202998D01*
X95871833Y-90204980D01*
X96406775Y-90675685D01*
X96408621Y-90677352D01*
X96665620Y-90915500D01*
X96666934Y-90916740D01*
X96905211Y-91146024D01*
X96919282Y-91159564D01*
X96920711Y-91160968D01*
X96936547Y-91176833D01*
X97166276Y-91406995D01*
X97167793Y-91408548D01*
X97180348Y-91421681D01*
X97361426Y-91611104D01*
X97405971Y-91657701D01*
X97407541Y-91659382D01*
X97547254Y-91812455D01*
X97637810Y-91911670D01*
X97639459Y-91913522D01*
X97861213Y-92168850D01*
X97862924Y-92170873D01*
X98075596Y-92429178D01*
X98077361Y-92431384D01*
X98280418Y-92692632D01*
X98282229Y-92695036D01*
X98374326Y-92821141D01*
X98475082Y-92959101D01*
X98476931Y-92961720D01*
X98659223Y-93228793D01*
X98661042Y-93231554D01*
X99144596Y-93992570D01*
X99146085Y-93994987D01*
X99218647Y-94116636D01*
X99375306Y-94379275D01*
X99376725Y-94381653D01*
X99377851Y-94383592D01*
X99379604Y-94386686D01*
X99601211Y-94777850D01*
X99602428Y-94780062D01*
X99815963Y-95180059D01*
X99817249Y-95182550D01*
X100019504Y-95588243D01*
X100020839Y-95591029D01*
X100210326Y-96002269D01*
X100211689Y-96005361D01*
X100387060Y-96422261D01*
X100388422Y-96425672D01*
X100548200Y-96848019D01*
X100549531Y-96851758D01*
X100692375Y-97279629D01*
X100693639Y-97283701D01*
X100818180Y-97717084D01*
X100819338Y-97721486D01*
X100864523Y-97910556D01*
X100914308Y-98118878D01*
X100924238Y-98160426D01*
X100925245Y-98165142D01*
X100952608Y-98310099D01*
X101009164Y-98609708D01*
X101009981Y-98614731D01*
X101071593Y-99065057D01*
X101072176Y-99070352D01*
X101110148Y-99526698D01*
X101110455Y-99532221D01*
X101123616Y-100001768D01*
X101123655Y-100004688D01*
X101067329Y-156217608D01*
X101048057Y-156276720D01*
X100997720Y-156313214D01*
X100935546Y-156313152D01*
X100895594Y-156288642D01*
X100702198Y-156095246D01*
X100702190Y-156095239D01*
X100478230Y-155916636D01*
X100478226Y-155916633D01*
X100406489Y-155871558D01*
X100235669Y-155764225D01*
X99977572Y-155639932D01*
X99707182Y-155545318D01*
X99707181Y-155545317D01*
X99707179Y-155545317D01*
X99427907Y-155481576D01*
X99427905Y-155481575D01*
X99427898Y-155481574D01*
X99427893Y-155481573D01*
X99427891Y-155481573D01*
X99143233Y-155449500D01*
X98856767Y-155449500D01*
X98572108Y-155481573D01*
X98572103Y-155481573D01*
X98572102Y-155481574D01*
X98572098Y-155481574D01*
X98572092Y-155481576D01*
X98292820Y-155545317D01*
X98157623Y-155592625D01*
X98022428Y-155639932D01*
X98022426Y-155639933D01*
X97764333Y-155764224D01*
X97521773Y-155916633D01*
X97521769Y-155916636D01*
X97297809Y-156095239D01*
X97297801Y-156095246D01*
X97095246Y-156297801D01*
X97095239Y-156297809D01*
X96916636Y-156521769D01*
X96916633Y-156521773D01*
X96764224Y-156764333D01*
X96639933Y-157022426D01*
X96545317Y-157292820D01*
X96481576Y-157572092D01*
X96481574Y-157572102D01*
X96449500Y-157856767D01*
X96449500Y-158143233D01*
X96481574Y-158427898D01*
X96545318Y-158707182D01*
X96639932Y-158977572D01*
X96764225Y-159235669D01*
X96871558Y-159406489D01*
X96916633Y-159478226D01*
X96916636Y-159478230D01*
X97082892Y-159686708D01*
X97095243Y-159702195D01*
X97297805Y-159904757D01*
X97521773Y-160083366D01*
X97764331Y-160235775D01*
X98022428Y-160360068D01*
X98292818Y-160454682D01*
X98572102Y-160518426D01*
X98856767Y-160550500D01*
X99143233Y-160550500D01*
X99427898Y-160518426D01*
X99707182Y-160454682D01*
X99977572Y-160360068D01*
X100235669Y-160235775D01*
X100478227Y-160083366D01*
X100702195Y-159904757D01*
X100892019Y-159714932D01*
X100947414Y-159686708D01*
X101008823Y-159696434D01*
X101052787Y-159740397D01*
X101063752Y-159786170D01*
X101062548Y-160989111D01*
X101062458Y-160993263D01*
X101016294Y-162084157D01*
X101015750Y-162091181D01*
X100896577Y-163147574D01*
X100895506Y-163154741D01*
X100703824Y-164182518D01*
X100702199Y-164189744D01*
X100438716Y-165188126D01*
X100436527Y-165195320D01*
X100101847Y-166163605D01*
X100099103Y-166170668D01*
X99693758Y-167108080D01*
X99690490Y-167114920D01*
X99214866Y-168020766D01*
X99211121Y-168027293D01*
X98665562Y-168900733D01*
X98661403Y-168906875D01*
X98046173Y-169747029D01*
X98041675Y-169752728D01*
X97357001Y-170558619D01*
X97352242Y-170563838D01*
X96598307Y-171334427D01*
X96593366Y-171339145D01*
X95770413Y-172073248D01*
X95765365Y-172077463D01*
X94873649Y-172773846D01*
X94868561Y-172777569D01*
X93908365Y-173434941D01*
X93903293Y-173438194D01*
X92874970Y-174055207D01*
X92869964Y-174058020D01*
X91771574Y-174634525D01*
X91767616Y-174636493D01*
X91182822Y-174911372D01*
X91179755Y-174912751D01*
X90593892Y-175164580D01*
X90590739Y-175165873D01*
X90005445Y-175394298D01*
X90002230Y-175395490D01*
X89416638Y-175601326D01*
X89413386Y-175602407D01*
X88826624Y-175786452D01*
X88823361Y-175787415D01*
X88234511Y-175950463D01*
X88231266Y-175951304D01*
X87639403Y-176094135D01*
X87636202Y-176094852D01*
X87040486Y-176218209D01*
X87037356Y-176218806D01*
X86436797Y-176323450D01*
X86433762Y-176323931D01*
X85827595Y-176410568D01*
X85824677Y-176410942D01*
X85211909Y-176480308D01*
X85209126Y-176480583D01*
X84589073Y-176533366D01*
X84586440Y-176533556D01*
X83958073Y-176570474D01*
X83955673Y-176570585D01*
X83318265Y-176592332D01*
X83316010Y-176592384D01*
X82668798Y-176599659D01*
X82666674Y-176599660D01*
X82005329Y-176593132D01*
X82004820Y-176593126D01*
X79485277Y-176555514D01*
X79483498Y-176555471D01*
X78206944Y-176513818D01*
X78203556Y-176513651D01*
X76933068Y-176429236D01*
X76929451Y-176428930D01*
X76472338Y-176381947D01*
X76307099Y-176364964D01*
X76304098Y-176364609D01*
X76219331Y-176353306D01*
X75687321Y-176282363D01*
X75683839Y-176281837D01*
X75077047Y-176179193D01*
X75073083Y-176178440D01*
X74478183Y-176053083D01*
X74473732Y-176052039D01*
X73892556Y-175901699D01*
X73887625Y-175900289D01*
X73321875Y-175722728D01*
X73316493Y-175720869D01*
X72767817Y-175513891D01*
X72762033Y-175511502D01*
X72227566Y-175270935D01*
X72223111Y-175268796D01*
X71672711Y-174987780D01*
X71669806Y-174986237D01*
X71132174Y-174689188D01*
X71129293Y-174687533D01*
X70608403Y-174376851D01*
X70605551Y-174375085D01*
X70101347Y-174051093D01*
X70098532Y-174049217D01*
X69611089Y-173712314D01*
X69608318Y-173710328D01*
X69137703Y-173360910D01*
X69134981Y-173358816D01*
X68935452Y-173199825D01*
X68681186Y-172997218D01*
X68678538Y-172995032D01*
X68241657Y-172621665D01*
X68239053Y-172619361D01*
X67819137Y-172234604D01*
X67816602Y-172232199D01*
X67555921Y-171976132D01*
X67413675Y-171836404D01*
X67411221Y-171833908D01*
X67025339Y-171427447D01*
X67022958Y-171424850D01*
X66654131Y-171008046D01*
X66651836Y-171005358D01*
X66603808Y-170947079D01*
X66482595Y-170799996D01*
X69885419Y-170799996D01*
X69885419Y-170800003D01*
X69903276Y-170947073D01*
X69903277Y-170947075D01*
X69903277Y-170947076D01*
X69903278Y-170947079D01*
X69926400Y-171008046D01*
X69955816Y-171085610D01*
X69955816Y-171085611D01*
X70039979Y-171207542D01*
X70039980Y-171207543D01*
X70150878Y-171305790D01*
X70282063Y-171374641D01*
X70282064Y-171374641D01*
X70282067Y-171374643D01*
X70425920Y-171410100D01*
X70425924Y-171410100D01*
X70574076Y-171410100D01*
X70574080Y-171410100D01*
X70717933Y-171374643D01*
X70849122Y-171305790D01*
X70960020Y-171207543D01*
X70971868Y-171190377D01*
X70975245Y-171185772D01*
X71406290Y-170632083D01*
X71407113Y-170630560D01*
X71408496Y-170628706D01*
X71408568Y-170628597D01*
X71408574Y-170628601D01*
X71424453Y-170607304D01*
X72388919Y-169642839D01*
X72421745Y-169620954D01*
X73024168Y-169372899D01*
X73030719Y-169368540D01*
X73039662Y-169363237D01*
X73149122Y-169305790D01*
X73260020Y-169207543D01*
X73344184Y-169085610D01*
X73396722Y-168947079D01*
X73402350Y-168900733D01*
X73414581Y-168800003D01*
X73414581Y-168799996D01*
X73396723Y-168652926D01*
X73396722Y-168652924D01*
X73396722Y-168652921D01*
X73344184Y-168514390D01*
X73330253Y-168494208D01*
X73260020Y-168392457D01*
X73260016Y-168392453D01*
X73149121Y-168294209D01*
X73017935Y-168225358D01*
X73017937Y-168225358D01*
X72874080Y-168189900D01*
X72725920Y-168189900D01*
X72725919Y-168189900D01*
X72582063Y-168225358D01*
X72450878Y-168294209D01*
X72339983Y-168392453D01*
X72339979Y-168392457D01*
X72255816Y-168514389D01*
X72255813Y-168514393D01*
X72243714Y-168546297D01*
X72233418Y-168566332D01*
X72227101Y-168575828D01*
X72227101Y-168575830D01*
X71979044Y-169178252D01*
X71957156Y-169211083D01*
X71046207Y-170122032D01*
X70990809Y-170150258D01*
X70981974Y-170151260D01*
X70496552Y-170184644D01*
X70487867Y-170186838D01*
X70463236Y-170189900D01*
X70425919Y-170189900D01*
X70282063Y-170225358D01*
X70150878Y-170294209D01*
X70039983Y-170392453D01*
X70039979Y-170392457D01*
X69955816Y-170514388D01*
X69955816Y-170514389D01*
X69903277Y-170652924D01*
X69903276Y-170652926D01*
X69885419Y-170799996D01*
X66482595Y-170799996D01*
X66300190Y-170578660D01*
X66297988Y-170575889D01*
X66157369Y-170392457D01*
X65963517Y-170139586D01*
X65961413Y-170136739D01*
X65683929Y-169747029D01*
X65644189Y-169691216D01*
X65642184Y-169688291D01*
X65590572Y-169610099D01*
X65342282Y-169233937D01*
X65340380Y-169230941D01*
X65332905Y-169218696D01*
X65199405Y-168999996D01*
X67885419Y-168999996D01*
X67885419Y-169000003D01*
X67903276Y-169147073D01*
X67903277Y-169147075D01*
X67903277Y-169147076D01*
X67903278Y-169147079D01*
X67955815Y-169285608D01*
X67955816Y-169285610D01*
X67955816Y-169285611D01*
X68016067Y-169372899D01*
X68039980Y-169407543D01*
X68150878Y-169505790D01*
X68282063Y-169574641D01*
X68282064Y-169574641D01*
X68282067Y-169574643D01*
X68425920Y-169610100D01*
X68425924Y-169610100D01*
X68574076Y-169610100D01*
X68574080Y-169610100D01*
X68717933Y-169574643D01*
X68849122Y-169505790D01*
X68960020Y-169407543D01*
X69044184Y-169285610D01*
X69056286Y-169253699D01*
X69066585Y-169233659D01*
X69072899Y-169224168D01*
X69320954Y-168621745D01*
X69342839Y-168588919D01*
X70735359Y-167196398D01*
X70755911Y-167180576D01*
X70757822Y-167179463D01*
X70757837Y-167179457D01*
X71283242Y-166800322D01*
X71295348Y-166792830D01*
X71317600Y-166781152D01*
X71348049Y-166754174D01*
X71355883Y-166747904D01*
X71366851Y-166739991D01*
X71379830Y-166729822D01*
X71381237Y-166728627D01*
X71384817Y-166725516D01*
X71385762Y-166724189D01*
X71400953Y-166707306D01*
X71428498Y-166682905D01*
X71512662Y-166560972D01*
X71565200Y-166422441D01*
X71577288Y-166322892D01*
X71583059Y-166275365D01*
X71583059Y-166275358D01*
X71565201Y-166128288D01*
X71565200Y-166128286D01*
X71565200Y-166128283D01*
X71512662Y-165989752D01*
X71428498Y-165867819D01*
X71428494Y-165867815D01*
X71317599Y-165769571D01*
X71186413Y-165700720D01*
X71186415Y-165700720D01*
X71042558Y-165665262D01*
X70894398Y-165665262D01*
X70894397Y-165665262D01*
X70750541Y-165700720D01*
X70619356Y-165769571D01*
X70508461Y-165867815D01*
X70508457Y-165867819D01*
X70424294Y-165989750D01*
X70424294Y-165989751D01*
X70371755Y-166128286D01*
X70371755Y-166128287D01*
X70358398Y-166238287D01*
X70354911Y-166253621D01*
X70354931Y-166253626D01*
X70353973Y-166257748D01*
X70353823Y-166258410D01*
X70353812Y-166258440D01*
X70353811Y-166258444D01*
X70289592Y-166749180D01*
X70262869Y-166805318D01*
X70260978Y-166807261D01*
X68911083Y-168157156D01*
X68878252Y-168179044D01*
X68275825Y-168427103D01*
X68269267Y-168431465D01*
X68260312Y-168436773D01*
X68150880Y-168494208D01*
X68150879Y-168494209D01*
X68039983Y-168592453D01*
X68039979Y-168592457D01*
X67955816Y-168714388D01*
X67955816Y-168714389D01*
X67903277Y-168852924D01*
X67903276Y-168852926D01*
X67885419Y-168999996D01*
X65199405Y-168999996D01*
X65057845Y-168768093D01*
X65056045Y-168765024D01*
X64964926Y-168603144D01*
X64790919Y-168294007D01*
X64789239Y-168290895D01*
X64755342Y-168225357D01*
X64541604Y-167812102D01*
X64540030Y-167808922D01*
X64392813Y-167497816D01*
X64309932Y-167322670D01*
X64308479Y-167319451D01*
X64250189Y-167184116D01*
X64096035Y-166826206D01*
X64094692Y-166822931D01*
X64079169Y-166783083D01*
X63899899Y-166322882D01*
X63898678Y-166319574D01*
X63877308Y-166258444D01*
X63721672Y-165813247D01*
X63720585Y-165809956D01*
X63561385Y-165297555D01*
X63560404Y-165294190D01*
X63485675Y-165020200D01*
X63419121Y-164776184D01*
X63418276Y-164772857D01*
X63306857Y-164299996D01*
X66585419Y-164299996D01*
X66585419Y-164300003D01*
X66603276Y-164447073D01*
X66603277Y-164447075D01*
X66603277Y-164447076D01*
X66603278Y-164447079D01*
X66646668Y-164561489D01*
X66655816Y-164585610D01*
X66655816Y-164585611D01*
X66674748Y-164613038D01*
X66739980Y-164707543D01*
X66850878Y-164805790D01*
X66982063Y-164874641D01*
X66982064Y-164874641D01*
X66982067Y-164874643D01*
X67125920Y-164910100D01*
X67125924Y-164910100D01*
X67274076Y-164910100D01*
X67274080Y-164910100D01*
X67417933Y-164874643D01*
X67421423Y-164872810D01*
X67442005Y-164865510D01*
X67441866Y-164865054D01*
X67446583Y-164863612D01*
X67446589Y-164863611D01*
X68047966Y-164613038D01*
X68086658Y-164605300D01*
X70774718Y-164605300D01*
X70793134Y-164606999D01*
X70809992Y-164610139D01*
X70809993Y-164610138D01*
X70809994Y-164610139D01*
X71205069Y-164605308D01*
X71206299Y-164605300D01*
X71240791Y-164605300D01*
X71246670Y-164604798D01*
X71469708Y-164602072D01*
X71484234Y-164599053D01*
X71504705Y-164596948D01*
X71552761Y-164596948D01*
X71552765Y-164596948D01*
X71696618Y-164561491D01*
X71827807Y-164492638D01*
X71938705Y-164394391D01*
X72022869Y-164272458D01*
X72075407Y-164133927D01*
X72092313Y-163994700D01*
X72093266Y-163986851D01*
X72093266Y-163986844D01*
X72075408Y-163839774D01*
X72075407Y-163839772D01*
X72075407Y-163839769D01*
X72022869Y-163701238D01*
X71938705Y-163579305D01*
X71938701Y-163579301D01*
X71827806Y-163481057D01*
X71696620Y-163412206D01*
X71696622Y-163412206D01*
X71552765Y-163376748D01*
X71404605Y-163376748D01*
X71404604Y-163376748D01*
X71260748Y-163412206D01*
X71129563Y-163481057D01*
X71018665Y-163579305D01*
X71018662Y-163579308D01*
X71009881Y-163592029D01*
X71005910Y-163597391D01*
X70720993Y-163956614D01*
X70669195Y-163991003D01*
X70642175Y-163994700D01*
X68086660Y-163994700D01*
X68047968Y-163986962D01*
X67446585Y-163736386D01*
X67441865Y-163734944D01*
X67442003Y-163734492D01*
X67421432Y-163727193D01*
X67417934Y-163725357D01*
X67274082Y-163689900D01*
X67274080Y-163689900D01*
X67125920Y-163689900D01*
X67125919Y-163689900D01*
X66982063Y-163725358D01*
X66850878Y-163794209D01*
X66739983Y-163892453D01*
X66739979Y-163892457D01*
X66655816Y-164014388D01*
X66655816Y-164014389D01*
X66655816Y-164014390D01*
X66610482Y-164133927D01*
X66603277Y-164152924D01*
X66603276Y-164152926D01*
X66585419Y-164299996D01*
X63306857Y-164299996D01*
X63294958Y-164249496D01*
X63294233Y-164246157D01*
X63188980Y-163717888D01*
X63188363Y-163714480D01*
X63184344Y-163689900D01*
X63101259Y-163181691D01*
X63100759Y-163178260D01*
X63049965Y-162782298D01*
X63031873Y-162641266D01*
X63031495Y-162637858D01*
X62980905Y-162096965D01*
X62980649Y-162093600D01*
X62948446Y-161549269D01*
X62948303Y-161545858D01*
X62936168Y-161062207D01*
X62934503Y-160995870D01*
X62934473Y-160993589D01*
X62933379Y-159783291D01*
X62952538Y-159724143D01*
X63002805Y-159687553D01*
X63064980Y-159687497D01*
X63105114Y-159712066D01*
X63297805Y-159904757D01*
X63521773Y-160083366D01*
X63764331Y-160235775D01*
X64022428Y-160360068D01*
X64292818Y-160454682D01*
X64572102Y-160518426D01*
X64856767Y-160550500D01*
X65143233Y-160550500D01*
X65427898Y-160518426D01*
X65707182Y-160454682D01*
X65977572Y-160360068D01*
X66235669Y-160235775D01*
X66478227Y-160083366D01*
X66702195Y-159904757D01*
X66904757Y-159702195D01*
X67083366Y-159478227D01*
X67235775Y-159235669D01*
X67360068Y-158977572D01*
X67454682Y-158707182D01*
X67518426Y-158427898D01*
X67550500Y-158143233D01*
X67550500Y-157856767D01*
X67518426Y-157572102D01*
X67454682Y-157292818D01*
X67360068Y-157022428D01*
X67235775Y-156764331D01*
X67083366Y-156521773D01*
X66904757Y-156297805D01*
X66702195Y-156095243D01*
X66702190Y-156095239D01*
X66478230Y-155916636D01*
X66478226Y-155916633D01*
X66406489Y-155871558D01*
X66235669Y-155764225D01*
X65977572Y-155639932D01*
X65707182Y-155545318D01*
X65707181Y-155545317D01*
X65707179Y-155545317D01*
X65427907Y-155481576D01*
X65427905Y-155481575D01*
X65427898Y-155481574D01*
X65427893Y-155481573D01*
X65427891Y-155481573D01*
X65143233Y-155449500D01*
X64856767Y-155449500D01*
X64572108Y-155481573D01*
X64572103Y-155481573D01*
X64572102Y-155481574D01*
X64572098Y-155481574D01*
X64572092Y-155481576D01*
X64292820Y-155545317D01*
X64157623Y-155592625D01*
X64022428Y-155639932D01*
X64022426Y-155639933D01*
X64022420Y-155639935D01*
X63894248Y-155701660D01*
X63832637Y-155710005D01*
X63777887Y-155680543D01*
X63750910Y-155624526D01*
X63750000Y-155611022D01*
X63750000Y-151500000D01*
X63026399Y-151500000D01*
X62967268Y-151480787D01*
X62930723Y-151430487D01*
X62925799Y-151399491D01*
X62882097Y-103071403D01*
X68024213Y-103071403D01*
X68024213Y-103071410D01*
X68042070Y-103218480D01*
X68042071Y-103218482D01*
X68042071Y-103218483D01*
X68042072Y-103218486D01*
X68079624Y-103317501D01*
X68094610Y-103357017D01*
X68094610Y-103357018D01*
X68178773Y-103478949D01*
X68178777Y-103478953D01*
X68255676Y-103547079D01*
X68289672Y-103577197D01*
X68420857Y-103646048D01*
X68420858Y-103646048D01*
X68420861Y-103646050D01*
X68564714Y-103681507D01*
X68635401Y-103681507D01*
X68646522Y-103682123D01*
X68650615Y-103682579D01*
X68669292Y-103684657D01*
X68669293Y-103684657D01*
X68669294Y-103684656D01*
X68669296Y-103684657D01*
X68698829Y-103682124D01*
X68701733Y-103681875D01*
X68710329Y-103681507D01*
X68712873Y-103681507D01*
X68712874Y-103681507D01*
X68712874Y-103681506D01*
X68718919Y-103680772D01*
X68718926Y-103680833D01*
X68724368Y-103679932D01*
X69441186Y-103618454D01*
X69447784Y-103616694D01*
X69473699Y-103613300D01*
X70000129Y-103613300D01*
X70000131Y-103613300D01*
X70115522Y-103582381D01*
X70130214Y-103573897D01*
X70153388Y-103560519D01*
X70153389Y-103560518D01*
X70218978Y-103522651D01*
X71563050Y-102178578D01*
X71622781Y-102075122D01*
X71622781Y-102075119D01*
X71622783Y-102075117D01*
X71637593Y-102019844D01*
X71637593Y-102019842D01*
X71649704Y-101974643D01*
X71653700Y-101959731D01*
X71653700Y-101149369D01*
X71672913Y-101090238D01*
X71706407Y-101060901D01*
X71833664Y-100992012D01*
X71853959Y-100979475D01*
X71856147Y-100977944D01*
X71861305Y-100973875D01*
X71876838Y-100963797D01*
X71953106Y-100923770D01*
X71953111Y-100923766D01*
X71953599Y-100923510D01*
X71960166Y-100919689D01*
X72060322Y-100867125D01*
X72171220Y-100768878D01*
X72255384Y-100646945D01*
X72307922Y-100508414D01*
X72314042Y-100458013D01*
X72325781Y-100361338D01*
X72325781Y-100361331D01*
X72307923Y-100214261D01*
X72307922Y-100214259D01*
X72307922Y-100214256D01*
X72255384Y-100075725D01*
X72236049Y-100047714D01*
X72171220Y-99953792D01*
X72171216Y-99953788D01*
X72060321Y-99855544D01*
X71929135Y-99786693D01*
X71929137Y-99786693D01*
X71785280Y-99751235D01*
X71637120Y-99751235D01*
X71637119Y-99751235D01*
X71493263Y-99786693D01*
X71362078Y-99855544D01*
X71251183Y-99953788D01*
X71251179Y-99953792D01*
X71167016Y-100075723D01*
X71167013Y-100075729D01*
X71160179Y-100093749D01*
X71147386Y-100116349D01*
X71147571Y-100116467D01*
X71145415Y-100119833D01*
X71145119Y-100120356D01*
X71144911Y-100120619D01*
X71144904Y-100120629D01*
X70980123Y-100443829D01*
X70961634Y-100469269D01*
X70836951Y-100593953D01*
X70836951Y-100593954D01*
X70836949Y-100593956D01*
X70836949Y-100593957D01*
X70810417Y-100639913D01*
X70796943Y-100663249D01*
X70777217Y-100697415D01*
X70777217Y-100697416D01*
X70746300Y-100812799D01*
X70746300Y-101670401D01*
X70727087Y-101729532D01*
X70716835Y-101741536D01*
X69781936Y-102676435D01*
X69726538Y-102704661D01*
X69710801Y-102705900D01*
X69495533Y-102705900D01*
X69477391Y-102704251D01*
X69421064Y-102693924D01*
X69414562Y-102693662D01*
X69414560Y-102693662D01*
X69414556Y-102693662D01*
X69356216Y-102699557D01*
X69354072Y-102699928D01*
X69336927Y-102701400D01*
X69263478Y-102701400D01*
X69239399Y-102698476D01*
X69205899Y-102690217D01*
X69205893Y-102690217D01*
X69168474Y-102680994D01*
X69145797Y-102672393D01*
X69112653Y-102654997D01*
X69112587Y-102654963D01*
X69081116Y-102638445D01*
X69061161Y-102624671D01*
X68986769Y-102558765D01*
X68969736Y-102546496D01*
X68952706Y-102534229D01*
X68952704Y-102534228D01*
X68952705Y-102534228D01*
X68948672Y-102531900D01*
X68948662Y-102531895D01*
X68910441Y-102514693D01*
X68910429Y-102514689D01*
X68866491Y-102500015D01*
X68866493Y-102500007D01*
X68860108Y-102498046D01*
X68856728Y-102496764D01*
X68712876Y-102461307D01*
X68712874Y-102461307D01*
X68564714Y-102461307D01*
X68564713Y-102461307D01*
X68420857Y-102496765D01*
X68289672Y-102565616D01*
X68178777Y-102663860D01*
X68178773Y-102663864D01*
X68094610Y-102785795D01*
X68094610Y-102785796D01*
X68042071Y-102924331D01*
X68042070Y-102924333D01*
X68024213Y-103071403D01*
X62882097Y-103071403D01*
X62880586Y-101399996D01*
X69285419Y-101399996D01*
X69285419Y-101400003D01*
X69303276Y-101547073D01*
X69303277Y-101547075D01*
X69303277Y-101547076D01*
X69303278Y-101547079D01*
X69350048Y-101670401D01*
X69355816Y-101685610D01*
X69355816Y-101685611D01*
X69437337Y-101803714D01*
X69439980Y-101807543D01*
X69550878Y-101905790D01*
X69682063Y-101974641D01*
X69682064Y-101974641D01*
X69682067Y-101974643D01*
X69825920Y-102010100D01*
X69825924Y-102010100D01*
X69974076Y-102010100D01*
X69974080Y-102010100D01*
X70117933Y-101974643D01*
X70249122Y-101905790D01*
X70360020Y-101807543D01*
X70444184Y-101685610D01*
X70496722Y-101547079D01*
X70514581Y-101400000D01*
X70509496Y-101358124D01*
X70496723Y-101252926D01*
X70496722Y-101252923D01*
X70496722Y-101252921D01*
X70471764Y-101187115D01*
X70467207Y-101171294D01*
X70463611Y-101153410D01*
X70213038Y-100552031D01*
X70205300Y-100513339D01*
X70205300Y-99768129D01*
X70224513Y-99708998D01*
X70234765Y-99696994D01*
X70485331Y-99446428D01*
X72593100Y-99446428D01*
X72593100Y-166553571D01*
X72620831Y-166657060D01*
X72673275Y-166747895D01*
X72674399Y-166749842D01*
X72750158Y-166825601D01*
X72750160Y-166825602D01*
X72842939Y-166879168D01*
X72842943Y-166879170D01*
X72946431Y-166906900D01*
X91053569Y-166906900D01*
X91157057Y-166879170D01*
X91249842Y-166825601D01*
X91325601Y-166749842D01*
X91379170Y-166657057D01*
X91406900Y-166553569D01*
X91406900Y-99446431D01*
X91379170Y-99342943D01*
X91325601Y-99250158D01*
X91249842Y-99174399D01*
X91249839Y-99174397D01*
X91157060Y-99120831D01*
X91157057Y-99120830D01*
X91129331Y-99113400D01*
X91053571Y-99093100D01*
X91053569Y-99093100D01*
X73053569Y-99093100D01*
X72946431Y-99093100D01*
X72946428Y-99093100D01*
X72842939Y-99120831D01*
X72750160Y-99174397D01*
X72750159Y-99174398D01*
X72750158Y-99174399D01*
X72674399Y-99250158D01*
X72674398Y-99250159D01*
X72674397Y-99250160D01*
X72620831Y-99342939D01*
X72593100Y-99446428D01*
X70485331Y-99446428D01*
X71322581Y-98609178D01*
X72142963Y-97788796D01*
X77729068Y-97788796D01*
X77729068Y-97788803D01*
X77746925Y-97935873D01*
X77746926Y-97935875D01*
X77746926Y-97935876D01*
X77746927Y-97935879D01*
X77768444Y-97992615D01*
X77799465Y-98074410D01*
X77799465Y-98074411D01*
X77883628Y-98196342D01*
X77883632Y-98196346D01*
X77898438Y-98209463D01*
X77994527Y-98294590D01*
X78125712Y-98363441D01*
X78125713Y-98363441D01*
X78125716Y-98363443D01*
X78269569Y-98398900D01*
X78269573Y-98398900D01*
X78417725Y-98398900D01*
X78417729Y-98398900D01*
X78553359Y-98365469D01*
X78559599Y-98364223D01*
X78560749Y-98363928D01*
X78560755Y-98363928D01*
X79167868Y-98208444D01*
X79192826Y-98205300D01*
X84199468Y-98205300D01*
X84224108Y-98209463D01*
X84224329Y-98208548D01*
X84229126Y-98209704D01*
X84229138Y-98209708D01*
X84889928Y-98301778D01*
X84900083Y-98303731D01*
X84925920Y-98310100D01*
X84942675Y-98310100D01*
X84956556Y-98311062D01*
X84957916Y-98311252D01*
X84971026Y-98312627D01*
X84972025Y-98312732D01*
X84973218Y-98312815D01*
X84973602Y-98312843D01*
X84976074Y-98313002D01*
X84985178Y-98311478D01*
X85001778Y-98310100D01*
X85074076Y-98310100D01*
X85074080Y-98310100D01*
X85217933Y-98274643D01*
X85349122Y-98205790D01*
X85460020Y-98107543D01*
X85544184Y-97985610D01*
X85596722Y-97847079D01*
X85612241Y-97719275D01*
X85614581Y-97700003D01*
X85614581Y-97699996D01*
X85596723Y-97552926D01*
X85596722Y-97552924D01*
X85596722Y-97552921D01*
X85544184Y-97414390D01*
X85521313Y-97381256D01*
X85460020Y-97292457D01*
X85460016Y-97292453D01*
X85349121Y-97194209D01*
X85217935Y-97125358D01*
X85217937Y-97125358D01*
X85074080Y-97089900D01*
X84925920Y-97089900D01*
X84925919Y-97089900D01*
X84782063Y-97125358D01*
X84650878Y-97194209D01*
X84597231Y-97241736D01*
X84578441Y-97254889D01*
X84571155Y-97258836D01*
X84571152Y-97258838D01*
X84571151Y-97258839D01*
X84203841Y-97563708D01*
X84194441Y-97571510D01*
X84136670Y-97594491D01*
X84130191Y-97594700D01*
X79229013Y-97594700D01*
X79176860Y-97580126D01*
X79054513Y-97505953D01*
X78868426Y-97393138D01*
X78862854Y-97389878D01*
X78862189Y-97389503D01*
X78856654Y-97386488D01*
X78765115Y-97338445D01*
X78745155Y-97324667D01*
X78737677Y-97318042D01*
X78737664Y-97318031D01*
X78737645Y-97318014D01*
X78723084Y-97306237D01*
X78721395Y-97304992D01*
X78720914Y-97304670D01*
X78711425Y-97298315D01*
X78700689Y-97290025D01*
X78692773Y-97283012D01*
X78692771Y-97283010D01*
X78683344Y-97278062D01*
X78650834Y-97260998D01*
X78645436Y-97257949D01*
X78619006Y-97241926D01*
X78613459Y-97238842D01*
X78605276Y-97234293D01*
X78603716Y-97233501D01*
X78603507Y-97233397D01*
X78600230Y-97231772D01*
X78594691Y-97229791D01*
X78594871Y-97229287D01*
X78579674Y-97223652D01*
X78561582Y-97214157D01*
X78561579Y-97214156D01*
X78417731Y-97178700D01*
X78417729Y-97178700D01*
X78269569Y-97178700D01*
X78269568Y-97178700D01*
X78125712Y-97214158D01*
X77994527Y-97283009D01*
X77883632Y-97381253D01*
X77883629Y-97381256D01*
X77883629Y-97381257D01*
X77875428Y-97393138D01*
X77799465Y-97503188D01*
X77799465Y-97503189D01*
X77746926Y-97641724D01*
X77746925Y-97641726D01*
X77729068Y-97788796D01*
X72142963Y-97788796D01*
X72444300Y-97487459D01*
X72484494Y-97417842D01*
X72494297Y-97381257D01*
X72505300Y-97340193D01*
X72505300Y-96686659D01*
X72513038Y-96647967D01*
X72763611Y-96046589D01*
X72767209Y-96028696D01*
X72771769Y-96012873D01*
X72796722Y-95947079D01*
X72798237Y-95934603D01*
X72798238Y-95934596D01*
X77882254Y-95934596D01*
X77882254Y-95934603D01*
X77900111Y-96081673D01*
X77900112Y-96081675D01*
X77900112Y-96081676D01*
X77900113Y-96081679D01*
X77949973Y-96213148D01*
X77952651Y-96220210D01*
X77952651Y-96220211D01*
X78036814Y-96342142D01*
X78036818Y-96342146D01*
X78147713Y-96440390D01*
X78278898Y-96509241D01*
X78278899Y-96509241D01*
X78278902Y-96509243D01*
X78422755Y-96544700D01*
X78422759Y-96544700D01*
X78570912Y-96544700D01*
X78570915Y-96544700D01*
X78642397Y-96527080D01*
X78648663Y-96525746D01*
X79015754Y-96459740D01*
X79299405Y-96408737D01*
X79300220Y-96408526D01*
X79301464Y-96408367D01*
X79303167Y-96408061D01*
X79303182Y-96408147D01*
X79325490Y-96405300D01*
X84840191Y-96405300D01*
X84840193Y-96405300D01*
X84917841Y-96384494D01*
X84941239Y-96370985D01*
X84987459Y-96344300D01*
X85118611Y-96213148D01*
X90964104Y-96213148D01*
X90964104Y-96213155D01*
X90981962Y-96360230D01*
X91006914Y-96426025D01*
X91011475Y-96441855D01*
X91015072Y-96459737D01*
X91015074Y-96459744D01*
X91063389Y-96575700D01*
X91235855Y-96989620D01*
X91265647Y-97061119D01*
X91273385Y-97099811D01*
X91273385Y-98118880D01*
X91284275Y-98159520D01*
X91290553Y-98182949D01*
X91294191Y-98196526D01*
X91334385Y-98266144D01*
X91334387Y-98266146D01*
X93079635Y-100011394D01*
X93107861Y-100066792D01*
X93109100Y-100082529D01*
X93109100Y-102901006D01*
X93089887Y-102960137D01*
X93039587Y-102996682D01*
X92977413Y-102996682D01*
X92941790Y-102976307D01*
X92923538Y-102960137D01*
X92849122Y-102894210D01*
X92717935Y-102825358D01*
X92717937Y-102825358D01*
X92574080Y-102789900D01*
X92425920Y-102789900D01*
X92425919Y-102789900D01*
X92282063Y-102825358D01*
X92150878Y-102894209D01*
X92039983Y-102992453D01*
X92039979Y-102992457D01*
X91955816Y-103114388D01*
X91955816Y-103114389D01*
X91903277Y-103252924D01*
X91903276Y-103252926D01*
X91885419Y-103399995D01*
X91885419Y-103400000D01*
X91890586Y-103442566D01*
X91890994Y-103449662D01*
X91891331Y-103453321D01*
X91892198Y-103457829D01*
X91893273Y-103464694D01*
X91903277Y-103547077D01*
X91903278Y-103547083D01*
X91912567Y-103571576D01*
X91917292Y-103588238D01*
X91954293Y-103780527D01*
X92032784Y-104188440D01*
X92043942Y-104246423D01*
X92043514Y-104246505D01*
X92046300Y-104267448D01*
X92046300Y-114456708D01*
X92077217Y-114572091D01*
X92077217Y-114572092D01*
X92077219Y-114572095D01*
X92090270Y-114594700D01*
X92136949Y-114675551D01*
X92479636Y-115018238D01*
X92507861Y-115073634D01*
X92509100Y-115089371D01*
X92509100Y-115810628D01*
X92489887Y-115869759D01*
X92479635Y-115881763D01*
X91977349Y-116384049D01*
X91939481Y-116449637D01*
X91939480Y-116449637D01*
X91917618Y-116487503D01*
X91917618Y-116487504D01*
X91886700Y-116602891D01*
X91886700Y-125768139D01*
X91917617Y-125883522D01*
X91917617Y-125883523D01*
X91917619Y-125883526D01*
X91932379Y-125909091D01*
X91977349Y-125986982D01*
X91977352Y-125986985D01*
X92046477Y-126056111D01*
X92072070Y-126099605D01*
X92099772Y-126196550D01*
X92102908Y-126212047D01*
X92103275Y-126215070D01*
X92103280Y-126215090D01*
X92109042Y-126230284D01*
X92111706Y-126238310D01*
X92120277Y-126268303D01*
X92123783Y-126279393D01*
X92124225Y-126280664D01*
X92124227Y-126280669D01*
X92124230Y-126280675D01*
X92128949Y-126288222D01*
X92137715Y-126305885D01*
X92155816Y-126353614D01*
X92155816Y-126353615D01*
X92239979Y-126475546D01*
X92239980Y-126475547D01*
X92350878Y-126573794D01*
X92482063Y-126642645D01*
X92482064Y-126642645D01*
X92482067Y-126642647D01*
X92625920Y-126678104D01*
X92625924Y-126678104D01*
X92774077Y-126678104D01*
X92774080Y-126678104D01*
X92911409Y-126644253D01*
X92916803Y-126643165D01*
X92918069Y-126642834D01*
X92918076Y-126642834D01*
X93189606Y-126571971D01*
X93251669Y-126575630D01*
X93299731Y-126615071D01*
X93315432Y-126675230D01*
X93292773Y-126733129D01*
X93261758Y-126758387D01*
X93165442Y-126808938D01*
X93165441Y-126808939D01*
X93054545Y-126907183D01*
X93054541Y-126907187D01*
X92970378Y-127029119D01*
X92970375Y-127029123D01*
X92958276Y-127061027D01*
X92947980Y-127081062D01*
X92941663Y-127090558D01*
X92941663Y-127090560D01*
X92693606Y-127692981D01*
X92671718Y-127725812D01*
X91985701Y-128411832D01*
X91945507Y-128481448D01*
X91924701Y-128559095D01*
X91924701Y-150119901D01*
X91924463Y-150126823D01*
X91923084Y-150146815D01*
X91923084Y-150146817D01*
X91923885Y-150153067D01*
X91924701Y-150165854D01*
X91924701Y-150440196D01*
X91945508Y-150517844D01*
X91967694Y-150556271D01*
X91980356Y-150593785D01*
X92021687Y-150916336D01*
X92022544Y-150920369D01*
X92022510Y-150920376D01*
X92025122Y-150932871D01*
X92041728Y-151069637D01*
X92041729Y-151069639D01*
X92041729Y-151069640D01*
X92041730Y-151069643D01*
X92102329Y-151229427D01*
X92102329Y-151229428D01*
X92199404Y-151370065D01*
X92199408Y-151370069D01*
X92327314Y-151483385D01*
X92327315Y-151483386D01*
X92327317Y-151483387D01*
X92478628Y-151562801D01*
X92478629Y-151562801D01*
X92478632Y-151562803D01*
X92644555Y-151603700D01*
X92644559Y-151603700D01*
X92815441Y-151603700D01*
X92815445Y-151603700D01*
X92981368Y-151562803D01*
X93132683Y-151483387D01*
X93132688Y-151483382D01*
X93136954Y-151480439D01*
X93196532Y-151462661D01*
X93255181Y-151483298D01*
X93290500Y-151534467D01*
X93294700Y-151563232D01*
X93294700Y-153386746D01*
X93292627Y-153407062D01*
X93289624Y-153421623D01*
X93284986Y-154086850D01*
X93284992Y-154086907D01*
X93285419Y-154096169D01*
X93285419Y-154100006D01*
X93303276Y-154247073D01*
X93303277Y-154247075D01*
X93303277Y-154247076D01*
X93303278Y-154247079D01*
X93334104Y-154328360D01*
X93355816Y-154385610D01*
X93355816Y-154385611D01*
X93411919Y-154466890D01*
X93439980Y-154507543D01*
X93550878Y-154605790D01*
X93682063Y-154674641D01*
X93682064Y-154674641D01*
X93682067Y-154674643D01*
X93825920Y-154710100D01*
X93825924Y-154710100D01*
X93974076Y-154710100D01*
X93974080Y-154710100D01*
X94117933Y-154674643D01*
X94249122Y-154605790D01*
X94360020Y-154507543D01*
X94444184Y-154385610D01*
X94496722Y-154247079D01*
X94496723Y-154247073D01*
X94514581Y-154100003D01*
X94514581Y-154099996D01*
X94496723Y-153952926D01*
X94496722Y-153952924D01*
X94496722Y-153952921D01*
X94444184Y-153814390D01*
X94437163Y-153804219D01*
X94401059Y-153751913D01*
X94360020Y-153692457D01*
X94330929Y-153666684D01*
X94319682Y-153654968D01*
X94316754Y-153651378D01*
X94310356Y-153643532D01*
X94295641Y-153631380D01*
X93941841Y-153339196D01*
X93908482Y-153286729D01*
X93905300Y-153261628D01*
X93905300Y-152679928D01*
X93924513Y-152620797D01*
X93974813Y-152584252D01*
X94036987Y-152584252D01*
X94077032Y-152608791D01*
X95099620Y-153631380D01*
X95382959Y-153914719D01*
X95411185Y-153970117D01*
X95405931Y-154021410D01*
X95273071Y-154373054D01*
X95273059Y-154373085D01*
X95272702Y-154374027D01*
X95272700Y-154374036D01*
X95269923Y-154389907D01*
X95264892Y-154408239D01*
X95242649Y-154466890D01*
X95224791Y-154613966D01*
X95224791Y-154613973D01*
X95242648Y-154761043D01*
X95242649Y-154761045D01*
X95242649Y-154761046D01*
X95242650Y-154761049D01*
X95295188Y-154899580D01*
X95295188Y-154899581D01*
X95379351Y-155021512D01*
X95379352Y-155021513D01*
X95490250Y-155119760D01*
X95621435Y-155188611D01*
X95621436Y-155188611D01*
X95621439Y-155188613D01*
X95765292Y-155224070D01*
X95765296Y-155224070D01*
X95913448Y-155224070D01*
X95913452Y-155224070D01*
X96057305Y-155188613D01*
X96188494Y-155119760D01*
X96299392Y-155021513D01*
X96383556Y-154899580D01*
X96436094Y-154761049D01*
X96436095Y-154761043D01*
X96453953Y-154613973D01*
X96453953Y-154613966D01*
X96436095Y-154466896D01*
X96436094Y-154466894D01*
X96436094Y-154466891D01*
X96383556Y-154328360D01*
X96383554Y-154328356D01*
X96366616Y-154303819D01*
X96362499Y-154297337D01*
X96158356Y-153947063D01*
X96147129Y-153905503D01*
X96145532Y-153905714D01*
X96144671Y-153899174D01*
X96123867Y-153821534D01*
X96123867Y-153821533D01*
X96119743Y-153814390D01*
X96113871Y-153804219D01*
X96113870Y-153804217D01*
X96083675Y-153751915D01*
X95986427Y-153654667D01*
X95980165Y-153647798D01*
X95974917Y-153641478D01*
X95973066Y-153639762D01*
X95963140Y-153631380D01*
X94634765Y-152303005D01*
X94606539Y-152247607D01*
X94605300Y-152231870D01*
X94605300Y-150459808D01*
X94605299Y-150459802D01*
X94584496Y-150382165D01*
X94584495Y-150382162D01*
X94584494Y-150382159D01*
X94574817Y-150365399D01*
X94544303Y-150312543D01*
X93634765Y-149403005D01*
X93606539Y-149347607D01*
X93605300Y-149331870D01*
X93605300Y-138343123D01*
X93624513Y-138283992D01*
X93634760Y-138271993D01*
X93763918Y-138142834D01*
X93796744Y-138120950D01*
X94399167Y-137872895D01*
X94405718Y-137868536D01*
X94414661Y-137863233D01*
X94524121Y-137805786D01*
X94635019Y-137707539D01*
X94719183Y-137585606D01*
X94771721Y-137447075D01*
X94771722Y-137447069D01*
X94789580Y-137299999D01*
X94789580Y-137299992D01*
X94771722Y-137152922D01*
X94771721Y-137152920D01*
X94771721Y-137152917D01*
X94719183Y-137014386D01*
X94709250Y-136999996D01*
X95060418Y-136999996D01*
X95060418Y-137000003D01*
X95078275Y-137147073D01*
X95078276Y-137147075D01*
X95078276Y-137147076D01*
X95078277Y-137147079D01*
X95081919Y-137156681D01*
X95130815Y-137285610D01*
X95130815Y-137285611D01*
X95214978Y-137407542D01*
X95214982Y-137407546D01*
X95325874Y-137505788D01*
X95325875Y-137505788D01*
X95325877Y-137505790D01*
X95344388Y-137515505D01*
X95435313Y-137563226D01*
X95444281Y-137568543D01*
X95450825Y-137572896D01*
X95450830Y-137572899D01*
X96040603Y-137815747D01*
X96053249Y-137820954D01*
X96086081Y-137842842D01*
X96287542Y-138044303D01*
X96340398Y-138074817D01*
X96357158Y-138084494D01*
X96357161Y-138084495D01*
X96357164Y-138084496D01*
X96434801Y-138105299D01*
X96434803Y-138105299D01*
X96434806Y-138105300D01*
X99331871Y-138105300D01*
X99391002Y-138124513D01*
X99403006Y-138134765D01*
X99465235Y-138196994D01*
X99493461Y-138252392D01*
X99494700Y-138268129D01*
X99494700Y-143329599D01*
X99475487Y-143388730D01*
X99438944Y-143419651D01*
X99111205Y-143582857D01*
X99101956Y-143589754D01*
X99088571Y-143598183D01*
X99000886Y-143644204D01*
X99000877Y-143644210D01*
X98889983Y-143742453D01*
X98889979Y-143742457D01*
X98805816Y-143864388D01*
X98805816Y-143864389D01*
X98753277Y-144002924D01*
X98753276Y-144002926D01*
X98735419Y-144149996D01*
X98735419Y-144150003D01*
X98753276Y-144297073D01*
X98753277Y-144297075D01*
X98753277Y-144297076D01*
X98753278Y-144297079D01*
X98799963Y-144420176D01*
X98805816Y-144435610D01*
X98805816Y-144435611D01*
X98805819Y-144435615D01*
X98889980Y-144557543D01*
X99000878Y-144655790D01*
X99132063Y-144724641D01*
X99132064Y-144724641D01*
X99132067Y-144724643D01*
X99275920Y-144760100D01*
X99275924Y-144760100D01*
X99424076Y-144760100D01*
X99424080Y-144760100D01*
X99567933Y-144724643D01*
X99699122Y-144655790D01*
X99810020Y-144557543D01*
X99894184Y-144435610D01*
X99900037Y-144420175D01*
X99938969Y-144371700D01*
X99998959Y-144355365D01*
X100057093Y-144377412D01*
X100091166Y-144429419D01*
X100094700Y-144455848D01*
X100094700Y-145541896D01*
X100075487Y-145601027D01*
X100032404Y-145634919D01*
X99545723Y-145835317D01*
X99539165Y-145839679D01*
X99530210Y-145844987D01*
X99420778Y-145902422D01*
X99420777Y-145902423D01*
X99309881Y-146000667D01*
X99309877Y-146000671D01*
X99225714Y-146122602D01*
X99225714Y-146122603D01*
X99173175Y-146261138D01*
X99173174Y-146261140D01*
X99155317Y-146408210D01*
X99155317Y-146408217D01*
X99173174Y-146555287D01*
X99173175Y-146555289D01*
X99173175Y-146555290D01*
X99173176Y-146555293D01*
X99225713Y-146693822D01*
X99225714Y-146693824D01*
X99225714Y-146693825D01*
X99309877Y-146815756D01*
X99309878Y-146815757D01*
X99420776Y-146914004D01*
X99551961Y-146982855D01*
X99551962Y-146982855D01*
X99551965Y-146982857D01*
X99695818Y-147018314D01*
X99695822Y-147018314D01*
X99843974Y-147018314D01*
X99843978Y-147018314D01*
X99987831Y-146982857D01*
X100119020Y-146914004D01*
X100229918Y-146815757D01*
X100314082Y-146693824D01*
X100326184Y-146661913D01*
X100336483Y-146641873D01*
X100342797Y-146632382D01*
X100590851Y-146029963D01*
X100612740Y-145997131D01*
X100644301Y-145965571D01*
X100684494Y-145895953D01*
X100688656Y-145880419D01*
X100699573Y-145839679D01*
X100705299Y-145818310D01*
X100705300Y-145818304D01*
X100705300Y-137459808D01*
X100705299Y-137459802D01*
X100684496Y-137382165D01*
X100684495Y-137382162D01*
X100684494Y-137382159D01*
X100672111Y-137360711D01*
X100644303Y-137312543D01*
X100644302Y-137312542D01*
X100617370Y-137285610D01*
X100097061Y-136765302D01*
X100049508Y-136737847D01*
X100027440Y-136725106D01*
X100023283Y-136723993D01*
X100023278Y-136723990D01*
X100023278Y-136723992D01*
X99949797Y-136704302D01*
X99949795Y-136704302D01*
X98286660Y-136704302D01*
X98247968Y-136696564D01*
X97646585Y-136445988D01*
X97641865Y-136444546D01*
X97642003Y-136444094D01*
X97621432Y-136436795D01*
X97617934Y-136434959D01*
X97474082Y-136399502D01*
X97474080Y-136399502D01*
X97325920Y-136399502D01*
X97325919Y-136399502D01*
X97182063Y-136434960D01*
X97050878Y-136503811D01*
X96939983Y-136602055D01*
X96939979Y-136602059D01*
X96855816Y-136723990D01*
X96855816Y-136723991D01*
X96855299Y-136725354D01*
X96806919Y-136852924D01*
X96803277Y-136862526D01*
X96803276Y-136862528D01*
X96785419Y-137009598D01*
X96785419Y-137009605D01*
X96803276Y-137156675D01*
X96803277Y-137156677D01*
X96803277Y-137156678D01*
X96803278Y-137156681D01*
X96855816Y-137295212D01*
X96884628Y-137336954D01*
X96902407Y-137396530D01*
X96881771Y-137455180D01*
X96830603Y-137490499D01*
X96801836Y-137494700D01*
X96643129Y-137494700D01*
X96583998Y-137475487D01*
X96571994Y-137465235D01*
X96517841Y-137411082D01*
X96495953Y-137378250D01*
X96472620Y-137321584D01*
X96247898Y-136775831D01*
X96241580Y-136766333D01*
X96231280Y-136746289D01*
X96223341Y-136725354D01*
X96219183Y-136714390D01*
X96135019Y-136592457D01*
X96135015Y-136592453D01*
X96024120Y-136494209D01*
X95892934Y-136425358D01*
X95892936Y-136425358D01*
X95749079Y-136389900D01*
X95600919Y-136389900D01*
X95600918Y-136389900D01*
X95457062Y-136425358D01*
X95325877Y-136494209D01*
X95214982Y-136592453D01*
X95214978Y-136592457D01*
X95130815Y-136714388D01*
X95130815Y-136714389D01*
X95078276Y-136852924D01*
X95078275Y-136852926D01*
X95060418Y-136999996D01*
X94709250Y-136999996D01*
X94635019Y-136892453D01*
X94635015Y-136892449D01*
X94524120Y-136794205D01*
X94392934Y-136725354D01*
X94392936Y-136725354D01*
X94249079Y-136689896D01*
X94100919Y-136689896D01*
X94100918Y-136689896D01*
X93957062Y-136725354D01*
X93825877Y-136794205D01*
X93714982Y-136892449D01*
X93714978Y-136892453D01*
X93630815Y-137014385D01*
X93630812Y-137014389D01*
X93618713Y-137046293D01*
X93608417Y-137066328D01*
X93602100Y-137075824D01*
X93602100Y-137075826D01*
X93354043Y-137678248D01*
X93332156Y-137711078D01*
X93277036Y-137766199D01*
X93221638Y-137794426D01*
X93160229Y-137784701D01*
X93116265Y-137740737D01*
X93105300Y-137695065D01*
X93105300Y-129268128D01*
X93124513Y-129208997D01*
X93134759Y-129196999D01*
X94246377Y-128085380D01*
X94301775Y-128057155D01*
X94363183Y-128066881D01*
X94407147Y-128110845D01*
X94412466Y-128123289D01*
X94413237Y-128125491D01*
X94444346Y-128214395D01*
X94499916Y-128289690D01*
X94525562Y-128324438D01*
X94635605Y-128405654D01*
X94764699Y-128450826D01*
X94795347Y-128453700D01*
X95404652Y-128453699D01*
X95435301Y-128450826D01*
X95564395Y-128405654D01*
X95674438Y-128324438D01*
X95755654Y-128214395D01*
X95800826Y-128085301D01*
X95803700Y-128054653D01*
X95803699Y-127145348D01*
X95800826Y-127114699D01*
X95789763Y-127083084D01*
X95784629Y-127059985D01*
X95784329Y-127057019D01*
X95784329Y-127057012D01*
X95726234Y-126769073D01*
X95733373Y-126707313D01*
X95753709Y-126678048D01*
X96144301Y-126287459D01*
X96184494Y-126217841D01*
X96190199Y-126196550D01*
X96195150Y-126178074D01*
X96195150Y-126178071D01*
X96196671Y-126172394D01*
X96205300Y-126140193D01*
X96205300Y-122382149D01*
X96184494Y-122304501D01*
X96184494Y-122304500D01*
X96164058Y-122269105D01*
X96152527Y-122238499D01*
X96006960Y-121509051D01*
X96006025Y-121504621D01*
X96005913Y-121504089D01*
X96005995Y-121504071D01*
X96003699Y-121483109D01*
X96003699Y-120941430D01*
X95993683Y-120872683D01*
X95993683Y-120872681D01*
X95993680Y-120872675D01*
X95941840Y-120766633D01*
X95941839Y-120766632D01*
X95941839Y-120766631D01*
X95858369Y-120683161D01*
X95858367Y-120683160D01*
X95858366Y-120683159D01*
X95752324Y-120631318D01*
X95752321Y-120631317D01*
X95683569Y-120621300D01*
X95316430Y-120621300D01*
X95316430Y-120621301D01*
X95247683Y-120631316D01*
X95247676Y-120631318D01*
X95141633Y-120683159D01*
X95058159Y-120766633D01*
X95006318Y-120872675D01*
X95006317Y-120872678D01*
X94996300Y-120941430D01*
X94996300Y-122258569D01*
X95006316Y-122327316D01*
X95006318Y-122327323D01*
X95058159Y-122433366D01*
X95058160Y-122433367D01*
X95058161Y-122433369D01*
X95141631Y-122516839D01*
X95141632Y-122516839D01*
X95141633Y-122516840D01*
X95247675Y-122568681D01*
X95247678Y-122568682D01*
X95247679Y-122568682D01*
X95247681Y-122568683D01*
X95316431Y-122578700D01*
X95409024Y-122578699D01*
X95459787Y-122592445D01*
X95544862Y-122642167D01*
X95586219Y-122688592D01*
X95594700Y-122729021D01*
X95594700Y-125931870D01*
X95575487Y-125991001D01*
X95565235Y-126003005D01*
X95233479Y-126334760D01*
X95212269Y-126350244D01*
X95212406Y-126350455D01*
X95208690Y-126352857D01*
X95208429Y-126353048D01*
X95208262Y-126353133D01*
X95208251Y-126353141D01*
X94681194Y-126772452D01*
X94651795Y-126788680D01*
X94635604Y-126794346D01*
X94587957Y-126829512D01*
X94528971Y-126849166D01*
X94469698Y-126830396D01*
X94457084Y-126819704D01*
X93634299Y-125996919D01*
X93631426Y-125993925D01*
X93626550Y-125988629D01*
X93623668Y-125986058D01*
X93619507Y-125982127D01*
X93461086Y-125823706D01*
X93461084Y-125823704D01*
X93391466Y-125783510D01*
X93391465Y-125783509D01*
X93391464Y-125783509D01*
X93386428Y-125782160D01*
X93386423Y-125782157D01*
X93386423Y-125782158D01*
X93365626Y-125776586D01*
X93336775Y-125768855D01*
X93303521Y-125752953D01*
X93126457Y-125623771D01*
X93116523Y-125615494D01*
X92825473Y-125339463D01*
X92795790Y-125284832D01*
X92794100Y-125266470D01*
X92794100Y-123420352D01*
X93396300Y-123420352D01*
X93396300Y-124829644D01*
X93396301Y-124829655D01*
X93399173Y-124860298D01*
X93399173Y-124860300D01*
X93399174Y-124860301D01*
X93444346Y-124989395D01*
X93525562Y-125099438D01*
X93635605Y-125180654D01*
X93764699Y-125225826D01*
X93795347Y-125228700D01*
X94604652Y-125228699D01*
X94635301Y-125225826D01*
X94764395Y-125180654D01*
X94874438Y-125099438D01*
X94955654Y-124989395D01*
X95000826Y-124860301D01*
X95003700Y-124829653D01*
X95003699Y-123420348D01*
X95000826Y-123389699D01*
X94955654Y-123260605D01*
X94874438Y-123150562D01*
X94764395Y-123069346D01*
X94635301Y-123024174D01*
X94604653Y-123021300D01*
X94604647Y-123021300D01*
X93795355Y-123021300D01*
X93795344Y-123021301D01*
X93764701Y-123024173D01*
X93635604Y-123069346D01*
X93525562Y-123150561D01*
X93525561Y-123150562D01*
X93444346Y-123260604D01*
X93444346Y-123260605D01*
X93399174Y-123389699D01*
X93396301Y-123420344D01*
X93396300Y-123420352D01*
X92794100Y-123420352D01*
X92794100Y-116892226D01*
X92813313Y-116833095D01*
X92823565Y-116821091D01*
X93041765Y-116602891D01*
X93325851Y-116318805D01*
X93385582Y-116215348D01*
X93385582Y-116215345D01*
X93385584Y-116215343D01*
X93416498Y-116099963D01*
X93416500Y-116099955D01*
X93416500Y-114800043D01*
X93416499Y-114800037D01*
X93385582Y-114684654D01*
X93385580Y-114684649D01*
X93345660Y-114615506D01*
X93345659Y-114615504D01*
X93325852Y-114581197D01*
X93325852Y-114581196D01*
X92983165Y-114238509D01*
X92954939Y-114183111D01*
X92953700Y-114167374D01*
X92953700Y-113728329D01*
X92972913Y-113669198D01*
X93023213Y-113632653D01*
X93085387Y-113632653D01*
X93125435Y-113657194D01*
X97165235Y-117696994D01*
X97193461Y-117752392D01*
X97194700Y-117768129D01*
X97194700Y-121613333D01*
X97186962Y-121652025D01*
X96936386Y-122253409D01*
X96935655Y-122255801D01*
X96928275Y-122273616D01*
X96927104Y-122275817D01*
X96927101Y-122275823D01*
X96927101Y-122275824D01*
X96895358Y-122352915D01*
X96679044Y-122878247D01*
X96657159Y-122911075D01*
X96650899Y-122917335D01*
X96610707Y-122986949D01*
X96589900Y-123064598D01*
X96589900Y-125735395D01*
X96602793Y-125783509D01*
X96604867Y-125791249D01*
X96610706Y-125813041D01*
X96650900Y-125882659D01*
X96650902Y-125882661D01*
X97065235Y-126296994D01*
X97093461Y-126352392D01*
X97094700Y-126368129D01*
X97094700Y-128415740D01*
X97091394Y-128441320D01*
X97089416Y-128448841D01*
X97047560Y-129136490D01*
X97047275Y-129142627D01*
X97047253Y-129143317D01*
X97046939Y-129156664D01*
X97046939Y-129161573D01*
X97064796Y-129308641D01*
X97064797Y-129308643D01*
X97064797Y-129308644D01*
X97064798Y-129308647D01*
X97067474Y-129315702D01*
X97117336Y-129447178D01*
X97117336Y-129447179D01*
X97201499Y-129569110D01*
X97201500Y-129569111D01*
X97312398Y-129667358D01*
X97443583Y-129736209D01*
X97443584Y-129736209D01*
X97443587Y-129736211D01*
X97587440Y-129771668D01*
X97587444Y-129771668D01*
X97735596Y-129771668D01*
X97735600Y-129771668D01*
X97879453Y-129736211D01*
X98010642Y-129667358D01*
X98121540Y-129569111D01*
X98205704Y-129447178D01*
X98258242Y-129308647D01*
X98271800Y-129196993D01*
X98276101Y-129161571D01*
X98276101Y-129161564D01*
X98258243Y-129014494D01*
X98258242Y-129014492D01*
X98258242Y-129014489D01*
X98205704Y-128875958D01*
X98161074Y-128811301D01*
X98121544Y-128754030D01*
X98121542Y-128754028D01*
X98121540Y-128754025D01*
X98103907Y-128738403D01*
X98088523Y-128721246D01*
X98083696Y-128714430D01*
X98074372Y-128705598D01*
X98005433Y-128640299D01*
X98005428Y-128640295D01*
X98005424Y-128640291D01*
X97983302Y-128622053D01*
X97983293Y-128622046D01*
X97983286Y-128622040D01*
X97980687Y-128620182D01*
X97970215Y-128613732D01*
X97956304Y-128605165D01*
X97956299Y-128605162D01*
X97892315Y-128571580D01*
X97872357Y-128557804D01*
X97817682Y-128509366D01*
X97801600Y-128491213D01*
X97772350Y-128448837D01*
X97748156Y-128413785D01*
X97741490Y-128402656D01*
X97737966Y-128395804D01*
X97735073Y-128391460D01*
X97734632Y-128390936D01*
X97728955Y-128384196D01*
X97705558Y-128326592D01*
X97705300Y-128319390D01*
X97705300Y-126795797D01*
X98187009Y-126795797D01*
X98187009Y-126795804D01*
X98204866Y-126942874D01*
X98204867Y-126942876D01*
X98204867Y-126942877D01*
X98204868Y-126942880D01*
X98237574Y-127029119D01*
X98257406Y-127081411D01*
X98257406Y-127081412D01*
X98301538Y-127145348D01*
X98341570Y-127203344D01*
X98452468Y-127301591D01*
X98583653Y-127370442D01*
X98583654Y-127370442D01*
X98583657Y-127370444D01*
X98727510Y-127405901D01*
X98727514Y-127405901D01*
X98875666Y-127405901D01*
X98875670Y-127405901D01*
X99019523Y-127370444D01*
X99060139Y-127349126D01*
X99121425Y-127338660D01*
X99177160Y-127366214D01*
X99206054Y-127421267D01*
X99207490Y-127438204D01*
X99207490Y-127891723D01*
X99188277Y-127950854D01*
X99145249Y-127984723D01*
X98786374Y-128132745D01*
X98786370Y-128132747D01*
X98779816Y-128137116D01*
X98770776Y-128142482D01*
X98661543Y-128199812D01*
X98661542Y-128199813D01*
X98550648Y-128298055D01*
X98550644Y-128298059D01*
X98466481Y-128419990D01*
X98466481Y-128419991D01*
X98413942Y-128558526D01*
X98413941Y-128558528D01*
X98396084Y-128705598D01*
X98396084Y-128705605D01*
X98413941Y-128852675D01*
X98413942Y-128852677D01*
X98413942Y-128852678D01*
X98413943Y-128852681D01*
X98436645Y-128912541D01*
X98466481Y-128991212D01*
X98466481Y-128991213D01*
X98550644Y-129113144D01*
X98550648Y-129113148D01*
X98605309Y-129161573D01*
X98661543Y-129211392D01*
X98792728Y-129280243D01*
X98792729Y-129280243D01*
X98792732Y-129280245D01*
X98936585Y-129315702D01*
X98936589Y-129315702D01*
X99084741Y-129315702D01*
X99084745Y-129315702D01*
X99228598Y-129280245D01*
X99359787Y-129211392D01*
X99470685Y-129113145D01*
X99554849Y-128991212D01*
X99574838Y-128938502D01*
X99580037Y-128927021D01*
X99589731Y-128908761D01*
X99602434Y-128866443D01*
X99604712Y-128859732D01*
X99607387Y-128852681D01*
X99607388Y-128852675D01*
X99608843Y-128846774D01*
X99608964Y-128846803D01*
X99610420Y-128839844D01*
X99636183Y-128754030D01*
X99732791Y-128432224D01*
X99753941Y-128396830D01*
X99753076Y-128396166D01*
X99757086Y-128390939D01*
X99757090Y-128390936D01*
X99797284Y-128321318D01*
X99797801Y-128319390D01*
X99805759Y-128289690D01*
X99805759Y-128289689D01*
X99818089Y-128243672D01*
X99818090Y-128243669D01*
X99818090Y-128135627D01*
X99818602Y-128125491D01*
X99818734Y-128124186D01*
X99818506Y-128117403D01*
X99818553Y-128117401D01*
X99818090Y-128111909D01*
X99818090Y-126955339D01*
X99837303Y-126896208D01*
X99847555Y-126884204D01*
X100221570Y-126510189D01*
X100644300Y-126087459D01*
X100684494Y-126017842D01*
X100694275Y-125981337D01*
X100694276Y-125981336D01*
X100694275Y-125981336D01*
X100705300Y-125940193D01*
X100705300Y-115358472D01*
X100708153Y-115334684D01*
X100710588Y-115324677D01*
X100710588Y-115324673D01*
X100739395Y-114646031D01*
X100739524Y-114642121D01*
X100739659Y-114636404D01*
X100739674Y-114636404D01*
X100739783Y-114631088D01*
X100739581Y-114631088D01*
X100739581Y-114624997D01*
X100721723Y-114477926D01*
X100721722Y-114477924D01*
X100721722Y-114477921D01*
X100669184Y-114339390D01*
X100585020Y-114217457D01*
X100585016Y-114217453D01*
X100474121Y-114119209D01*
X100342935Y-114050358D01*
X100342937Y-114050358D01*
X100199080Y-114014900D01*
X100050920Y-114014900D01*
X100050919Y-114014900D01*
X99907063Y-114050358D01*
X99771787Y-114121357D01*
X99710500Y-114131824D01*
X99654766Y-114104269D01*
X99625872Y-114049217D01*
X99632174Y-113993588D01*
X99818423Y-113546589D01*
X99822021Y-113528696D01*
X99826581Y-113512873D01*
X99851534Y-113447079D01*
X99869393Y-113300000D01*
X99851534Y-113152921D01*
X99798996Y-113014390D01*
X99714832Y-112892457D01*
X99714828Y-112892453D01*
X99603933Y-112794209D01*
X99472747Y-112725358D01*
X99472749Y-112725358D01*
X99328892Y-112689900D01*
X99180732Y-112689900D01*
X99180731Y-112689900D01*
X99036875Y-112725358D01*
X98905690Y-112794209D01*
X98794795Y-112892453D01*
X98794791Y-112892457D01*
X98710628Y-113014388D01*
X98710628Y-113014389D01*
X98658089Y-113152924D01*
X98658088Y-113152926D01*
X98640231Y-113299996D01*
X98640231Y-113300003D01*
X98658089Y-113447078D01*
X98683041Y-113512873D01*
X98687602Y-113528703D01*
X98691200Y-113546589D01*
X98935047Y-114131824D01*
X98941774Y-114147967D01*
X98949512Y-114186659D01*
X98949512Y-114895007D01*
X98956077Y-114919506D01*
X98970315Y-114972648D01*
X98970316Y-114972650D01*
X98970318Y-114972653D01*
X99010512Y-115042271D01*
X99010514Y-115042273D01*
X99658835Y-115690594D01*
X99687061Y-115745992D01*
X99688300Y-115761729D01*
X99688300Y-125435661D01*
X99669087Y-125494792D01*
X99658835Y-125506796D01*
X99212672Y-125952958D01*
X99179841Y-125974846D01*
X99075423Y-126017842D01*
X98906354Y-126087459D01*
X98893072Y-126092928D01*
X98862053Y-126108849D01*
X98862052Y-126108850D01*
X98858767Y-126110899D01*
X98835359Y-126128381D01*
X98821916Y-126136854D01*
X98754199Y-126172394D01*
X98731524Y-126180994D01*
X98634499Y-126204909D01*
X98629970Y-126205915D01*
X98628301Y-126206245D01*
X98628284Y-126206249D01*
X98627201Y-126206576D01*
X98622349Y-126207906D01*
X98598538Y-126213795D01*
X98597020Y-126215104D01*
X98591641Y-126217048D01*
X98591681Y-126217160D01*
X98589376Y-126217979D01*
X98585167Y-126219710D01*
X98585136Y-126219724D01*
X98577421Y-126222900D01*
X98577416Y-126222903D01*
X98570848Y-126227271D01*
X98561899Y-126232575D01*
X98452476Y-126290005D01*
X98452467Y-126290011D01*
X98341573Y-126388254D01*
X98341569Y-126388258D01*
X98257406Y-126510189D01*
X98257406Y-126510190D01*
X98232588Y-126575630D01*
X98206976Y-126643165D01*
X98204867Y-126648725D01*
X98204866Y-126648727D01*
X98187009Y-126795797D01*
X97705300Y-126795797D01*
X97705300Y-126159808D01*
X97705299Y-126159804D01*
X97700044Y-126140192D01*
X97684494Y-126082159D01*
X97678313Y-126071454D01*
X97644300Y-126012541D01*
X97229965Y-125598206D01*
X97201739Y-125542808D01*
X97200500Y-125527071D01*
X97200500Y-125310152D01*
X97219713Y-125251021D01*
X97270013Y-125214476D01*
X97332187Y-125214476D01*
X97334297Y-125215188D01*
X97364699Y-125225826D01*
X97395347Y-125228700D01*
X98204652Y-125228699D01*
X98235301Y-125225826D01*
X98364395Y-125180654D01*
X98474438Y-125099438D01*
X98555654Y-124989395D01*
X98600826Y-124860301D01*
X98603700Y-124829653D01*
X98603699Y-123420348D01*
X98600826Y-123389699D01*
X98555654Y-123260605D01*
X98474438Y-123150562D01*
X98364395Y-123069346D01*
X98235301Y-123024174D01*
X98204653Y-123021300D01*
X98204647Y-123021300D01*
X98073172Y-123021300D01*
X98014041Y-123002087D01*
X97977496Y-122951787D01*
X97977496Y-122889613D01*
X97990380Y-122863553D01*
X98044183Y-122785605D01*
X98044184Y-122785604D01*
X98096722Y-122647073D01*
X98105024Y-122578700D01*
X98114581Y-122499997D01*
X98114581Y-122499990D01*
X98096723Y-122352920D01*
X98096722Y-122352917D01*
X98096722Y-122352915D01*
X98071764Y-122287109D01*
X98067207Y-122271288D01*
X98063611Y-122253404D01*
X97813038Y-121652025D01*
X97805300Y-121613333D01*
X97805300Y-117559808D01*
X97805299Y-117559804D01*
X97784494Y-117482159D01*
X97784494Y-117482158D01*
X97744299Y-117412540D01*
X93534765Y-113203006D01*
X93506539Y-113147608D01*
X93505300Y-113131871D01*
X93505300Y-104161286D01*
X93524513Y-104102155D01*
X93534765Y-104090151D01*
X93554616Y-104070300D01*
X93658700Y-103966216D01*
X93680997Y-103927597D01*
X94157819Y-103927597D01*
X94157819Y-103927604D01*
X94175677Y-104074679D01*
X94200629Y-104140474D01*
X94205190Y-104156304D01*
X94208787Y-104174186D01*
X94208789Y-104174193D01*
X94459362Y-104775568D01*
X94467100Y-104814260D01*
X94467100Y-111712595D01*
X94487906Y-111790242D01*
X94504218Y-111818495D01*
X94528100Y-111859859D01*
X94528102Y-111859861D01*
X98301342Y-115633101D01*
X98303568Y-115634386D01*
X98324402Y-115650372D01*
X98665243Y-115991213D01*
X98693469Y-116046611D01*
X98694708Y-116062348D01*
X98694708Y-120730193D01*
X98675495Y-120789324D01*
X98671517Y-120794444D01*
X98358834Y-121171157D01*
X98357452Y-121173150D01*
X98341522Y-121191089D01*
X98339987Y-121192449D01*
X98339978Y-121192458D01*
X98255816Y-121314388D01*
X98255816Y-121314389D01*
X98203277Y-121452924D01*
X98203276Y-121452926D01*
X98185419Y-121599996D01*
X98185419Y-121600003D01*
X98203276Y-121747073D01*
X98203277Y-121747075D01*
X98203277Y-121747076D01*
X98203278Y-121747079D01*
X98255816Y-121885610D01*
X98255816Y-121885611D01*
X98339979Y-122007542D01*
X98339980Y-122007543D01*
X98450878Y-122105790D01*
X98582063Y-122174641D01*
X98582064Y-122174641D01*
X98582067Y-122174643D01*
X98725920Y-122210100D01*
X98725924Y-122210100D01*
X98874076Y-122210100D01*
X98874080Y-122210100D01*
X99017933Y-122174643D01*
X99149122Y-122105790D01*
X99260020Y-122007543D01*
X99344184Y-121885610D01*
X99396722Y-121747079D01*
X99414581Y-121600000D01*
X99411762Y-121576795D01*
X99411198Y-121558841D01*
X99411252Y-121557918D01*
X99397511Y-121459293D01*
X99397282Y-121457537D01*
X99396722Y-121452921D01*
X99396721Y-121452918D01*
X99396341Y-121449788D01*
X99395780Y-121446870D01*
X99309716Y-120829145D01*
X99309714Y-120829138D01*
X99308831Y-120825174D01*
X99309150Y-120825102D01*
X99305308Y-120799690D01*
X99305308Y-115854027D01*
X99305307Y-115854023D01*
X99284502Y-115776378D01*
X99284502Y-115776377D01*
X99244307Y-115706759D01*
X98682046Y-115144498D01*
X98679816Y-115143211D01*
X98658986Y-115127227D01*
X95107165Y-111575406D01*
X95078939Y-111520008D01*
X95077700Y-111504271D01*
X95077700Y-108791649D01*
X95096913Y-108732518D01*
X95147213Y-108695973D01*
X95209387Y-108695973D01*
X95249435Y-108720514D01*
X95418321Y-108889400D01*
X95610211Y-109028816D01*
X95610215Y-109028819D01*
X95821546Y-109136497D01*
X95821548Y-109136498D01*
X96047123Y-109209792D01*
X96047126Y-109209792D01*
X96047133Y-109209795D01*
X96047138Y-109209795D01*
X96047139Y-109209796D01*
X96281397Y-109246899D01*
X96281402Y-109246900D01*
X96281404Y-109246900D01*
X96518598Y-109246900D01*
X96518602Y-109246899D01*
X96752867Y-109209795D01*
X96978449Y-109136499D01*
X97189788Y-109028817D01*
X97381680Y-108889399D01*
X97549399Y-108721680D01*
X97688817Y-108529788D01*
X97796499Y-108318449D01*
X97869795Y-108092867D01*
X97906900Y-107858596D01*
X97906900Y-107621404D01*
X97897421Y-107561559D01*
X97869796Y-107387139D01*
X97869795Y-107387138D01*
X97869795Y-107387133D01*
X97869792Y-107387123D01*
X97853474Y-107336900D01*
X97853474Y-107274726D01*
X97890019Y-107224426D01*
X97949150Y-107205213D01*
X98008281Y-107224426D01*
X98029431Y-107245189D01*
X98071875Y-107301396D01*
X98232068Y-107447432D01*
X98232072Y-107447435D01*
X98232078Y-107447440D01*
X98416386Y-107561558D01*
X98618525Y-107639867D01*
X98782618Y-107670541D01*
X98831610Y-107679700D01*
X98831611Y-107679700D01*
X99048390Y-107679700D01*
X99088223Y-107672253D01*
X99261475Y-107639867D01*
X99463614Y-107561558D01*
X99647922Y-107447440D01*
X99808122Y-107301398D01*
X99938759Y-107128406D01*
X100035385Y-106934355D01*
X100094709Y-106725853D01*
X100114711Y-106510000D01*
X100094709Y-106294147D01*
X100035385Y-106085645D01*
X99938759Y-105891594D01*
X99808122Y-105718602D01*
X99808121Y-105718601D01*
X99647931Y-105572567D01*
X99647926Y-105572563D01*
X99647922Y-105572560D01*
X99463614Y-105458442D01*
X99463610Y-105458440D01*
X99261476Y-105380133D01*
X99048387Y-105340299D01*
X99046999Y-105340171D01*
X99046461Y-105339939D01*
X99043816Y-105339445D01*
X99043927Y-105338848D01*
X98989892Y-105315586D01*
X98958142Y-105262130D01*
X98963877Y-105200221D01*
X99004906Y-105153506D01*
X99043870Y-105140845D01*
X99043816Y-105140555D01*
X99046049Y-105140137D01*
X99046999Y-105139829D01*
X99048387Y-105139700D01*
X99048389Y-105139700D01*
X99261475Y-105099867D01*
X99463614Y-105021558D01*
X99647922Y-104907440D01*
X99808122Y-104761398D01*
X99938759Y-104588406D01*
X100035385Y-104394355D01*
X100094709Y-104185853D01*
X100114711Y-103970000D01*
X100094709Y-103754147D01*
X100035385Y-103545645D01*
X99938759Y-103351594D01*
X99808122Y-103178602D01*
X99749370Y-103125043D01*
X99718617Y-103071010D01*
X99725496Y-103009218D01*
X99766845Y-102963578D01*
X99772805Y-102960137D01*
X99890337Y-102892280D01*
X100067852Y-102756069D01*
X100226069Y-102597852D01*
X100362280Y-102420337D01*
X100474156Y-102226562D01*
X100536885Y-102075123D01*
X100559778Y-102019856D01*
X100559785Y-102019835D01*
X100617691Y-101803726D01*
X100617694Y-101803712D01*
X100646900Y-101581877D01*
X100646900Y-101358122D01*
X100623369Y-101179393D01*
X100617694Y-101136286D01*
X100605140Y-101089434D01*
X100559785Y-100920164D01*
X100559778Y-100920143D01*
X100474156Y-100713438D01*
X100362285Y-100519671D01*
X100362283Y-100519668D01*
X100362280Y-100519663D01*
X100226069Y-100342148D01*
X100067852Y-100183931D01*
X99890337Y-100047720D01*
X99890332Y-100047717D01*
X99890328Y-100047714D01*
X99696561Y-99935843D01*
X99489856Y-99850221D01*
X99489835Y-99850214D01*
X99273726Y-99792308D01*
X99273712Y-99792305D01*
X99051877Y-99763100D01*
X99051876Y-99763100D01*
X98828124Y-99763100D01*
X98828123Y-99763100D01*
X98606287Y-99792305D01*
X98606273Y-99792308D01*
X98390164Y-99850214D01*
X98390143Y-99850221D01*
X98183438Y-99935843D01*
X97989671Y-100047714D01*
X97812147Y-100183931D01*
X97653931Y-100342147D01*
X97517714Y-100519671D01*
X97405843Y-100713438D01*
X97320221Y-100920143D01*
X97320214Y-100920164D01*
X97262308Y-101136273D01*
X97262305Y-101136287D01*
X97233100Y-101358122D01*
X97233100Y-101581877D01*
X97262305Y-101803712D01*
X97262308Y-101803726D01*
X97320214Y-102019835D01*
X97320221Y-102019856D01*
X97405843Y-102226561D01*
X97517714Y-102420328D01*
X97517717Y-102420332D01*
X97517720Y-102420337D01*
X97653931Y-102597852D01*
X97812148Y-102756069D01*
X97989663Y-102892280D01*
X97989668Y-102892283D01*
X97989671Y-102892285D01*
X98113154Y-102963578D01*
X98154757Y-103009782D01*
X98161256Y-103071616D01*
X98130628Y-103125044D01*
X98071878Y-103178601D01*
X97941239Y-103351597D01*
X97941238Y-103351598D01*
X97844616Y-103545641D01*
X97844615Y-103545642D01*
X97785290Y-103754150D01*
X97785290Y-103754151D01*
X97765289Y-103970000D01*
X97785290Y-104185848D01*
X97785290Y-104185849D01*
X97844615Y-104394357D01*
X97844616Y-104394358D01*
X97941238Y-104588401D01*
X97941239Y-104588402D01*
X97941241Y-104588406D01*
X98071878Y-104761398D01*
X98232068Y-104907432D01*
X98232072Y-104907435D01*
X98232078Y-104907440D01*
X98416386Y-105021558D01*
X98618525Y-105099867D01*
X98831611Y-105139700D01*
X98833001Y-105139829D01*
X98833538Y-105140060D01*
X98836184Y-105140555D01*
X98836072Y-105141151D01*
X98890108Y-105164415D01*
X98921857Y-105217872D01*
X98916122Y-105279781D01*
X98875092Y-105326495D01*
X98836129Y-105339154D01*
X98836184Y-105339445D01*
X98833950Y-105339862D01*
X98833001Y-105340171D01*
X98831611Y-105340299D01*
X98618523Y-105380133D01*
X98416389Y-105458440D01*
X98416385Y-105458442D01*
X98361651Y-105492332D01*
X98232078Y-105572560D01*
X98232077Y-105572561D01*
X98232068Y-105572567D01*
X98071878Y-105718601D01*
X97941239Y-105891597D01*
X97941238Y-105891598D01*
X97844616Y-106085641D01*
X97844615Y-106085642D01*
X97785290Y-106294150D01*
X97785290Y-106294151D01*
X97765289Y-106510000D01*
X97785290Y-106725848D01*
X97785291Y-106725852D01*
X97797116Y-106767415D01*
X97794818Y-106829547D01*
X97756438Y-106878461D01*
X97696637Y-106895475D01*
X97638257Y-106874090D01*
X97618969Y-106854075D01*
X97601148Y-106829547D01*
X97549399Y-106758320D01*
X97381680Y-106590601D01*
X97381678Y-106590599D01*
X97189788Y-106451183D01*
X97189784Y-106451180D01*
X97061540Y-106385837D01*
X97017576Y-106341874D01*
X97007850Y-106280465D01*
X97036076Y-106225067D01*
X97054247Y-106210673D01*
X97107922Y-106177440D01*
X97268122Y-106031398D01*
X97398759Y-105858406D01*
X97495385Y-105664355D01*
X97554709Y-105455853D01*
X97574711Y-105240000D01*
X97554709Y-105024147D01*
X97495385Y-104815645D01*
X97398759Y-104621594D01*
X97268122Y-104448602D01*
X97268121Y-104448601D01*
X97107931Y-104302567D01*
X97107926Y-104302563D01*
X97107922Y-104302560D01*
X96923614Y-104188442D01*
X96923610Y-104188440D01*
X96721476Y-104110133D01*
X96508390Y-104070300D01*
X96508389Y-104070300D01*
X96291611Y-104070300D01*
X96291610Y-104070300D01*
X96078523Y-104110133D01*
X95876389Y-104188440D01*
X95876385Y-104188442D01*
X95782743Y-104246423D01*
X95692078Y-104302560D01*
X95692077Y-104302561D01*
X95692068Y-104302567D01*
X95531878Y-104448601D01*
X95401239Y-104621597D01*
X95401238Y-104621598D01*
X95304616Y-104815641D01*
X95304615Y-104815642D01*
X95275060Y-104919521D01*
X95240398Y-104971137D01*
X95182018Y-104992522D01*
X95122217Y-104975508D01*
X95083838Y-104926592D01*
X95077700Y-104891991D01*
X95077700Y-104814260D01*
X95085438Y-104775568D01*
X95149592Y-104621597D01*
X95336011Y-104174190D01*
X95339609Y-104156297D01*
X95344169Y-104140474D01*
X95369122Y-104074680D01*
X95381833Y-103970000D01*
X95386981Y-103927604D01*
X95386981Y-103927597D01*
X95369123Y-103780527D01*
X95369122Y-103780525D01*
X95369122Y-103780522D01*
X95316584Y-103641991D01*
X95299123Y-103616695D01*
X95232420Y-103520058D01*
X95232416Y-103520054D01*
X95121521Y-103421810D01*
X94990335Y-103352959D01*
X94990337Y-103352959D01*
X94846480Y-103317501D01*
X94698320Y-103317501D01*
X94698319Y-103317501D01*
X94554463Y-103352959D01*
X94423278Y-103421810D01*
X94312383Y-103520054D01*
X94312379Y-103520058D01*
X94228216Y-103641989D01*
X94228216Y-103641990D01*
X94175677Y-103780525D01*
X94175676Y-103780527D01*
X94157819Y-103927597D01*
X93680997Y-103927597D01*
X93698894Y-103896599D01*
X93707586Y-103864159D01*
X93719700Y-103818950D01*
X93719700Y-99874207D01*
X93698894Y-99796559D01*
X93698894Y-99796558D01*
X93658700Y-99726941D01*
X91913450Y-97981691D01*
X91885224Y-97926293D01*
X91883985Y-97910556D01*
X91883985Y-97099811D01*
X91891723Y-97061119D01*
X91900394Y-97040309D01*
X92142296Y-96459741D01*
X92145894Y-96441848D01*
X92150454Y-96426025D01*
X92175407Y-96360231D01*
X92175408Y-96360225D01*
X92193266Y-96213155D01*
X92193266Y-96213148D01*
X92175408Y-96066078D01*
X92175407Y-96066076D01*
X92175407Y-96066073D01*
X92171878Y-96056767D01*
X92449500Y-96056767D01*
X92449500Y-96343233D01*
X92458595Y-96423952D01*
X92481573Y-96627891D01*
X92481576Y-96627907D01*
X92532239Y-96849881D01*
X92545318Y-96907182D01*
X92639932Y-97177572D01*
X92764225Y-97435669D01*
X92854993Y-97580126D01*
X92916633Y-97678226D01*
X92916636Y-97678230D01*
X93051286Y-97847075D01*
X93095243Y-97902195D01*
X93297805Y-98104757D01*
X93521773Y-98283366D01*
X93764331Y-98435775D01*
X94022428Y-98560068D01*
X94292818Y-98654682D01*
X94572102Y-98718426D01*
X94856767Y-98750500D01*
X95143233Y-98750500D01*
X95427898Y-98718426D01*
X95707182Y-98654682D01*
X95977572Y-98560068D01*
X96235669Y-98435775D01*
X96478227Y-98283366D01*
X96702195Y-98104757D01*
X96904757Y-97902195D01*
X97083366Y-97678227D01*
X97235775Y-97435669D01*
X97360068Y-97177572D01*
X97454682Y-96907182D01*
X97518426Y-96627898D01*
X97550500Y-96343233D01*
X97550500Y-96056767D01*
X97518426Y-95772102D01*
X97454682Y-95492818D01*
X97360068Y-95222428D01*
X97235775Y-94964331D01*
X97083366Y-94721773D01*
X96904757Y-94497805D01*
X96702195Y-94295243D01*
X96478227Y-94116634D01*
X96478226Y-94116633D01*
X96406489Y-94071558D01*
X96235669Y-93964225D01*
X95977572Y-93839932D01*
X95707182Y-93745318D01*
X95707181Y-93745317D01*
X95707179Y-93745317D01*
X95427907Y-93681576D01*
X95427905Y-93681575D01*
X95427898Y-93681574D01*
X95427893Y-93681573D01*
X95427891Y-93681573D01*
X95143233Y-93649500D01*
X94856767Y-93649500D01*
X94572108Y-93681573D01*
X94572103Y-93681573D01*
X94572102Y-93681574D01*
X94572098Y-93681574D01*
X94572092Y-93681576D01*
X94292820Y-93745317D01*
X94157623Y-93792625D01*
X94022428Y-93839932D01*
X93764331Y-93964225D01*
X93724824Y-93989049D01*
X93521773Y-94116633D01*
X93521769Y-94116636D01*
X93297809Y-94295239D01*
X93297801Y-94295246D01*
X93095246Y-94497801D01*
X93095239Y-94497809D01*
X92916636Y-94721769D01*
X92916633Y-94721773D01*
X92813688Y-94885611D01*
X92764225Y-94964331D01*
X92639932Y-95222428D01*
X92614815Y-95294209D01*
X92545317Y-95492820D01*
X92481576Y-95772092D01*
X92481573Y-95772108D01*
X92455733Y-96001445D01*
X92449500Y-96056767D01*
X92171878Y-96056767D01*
X92122869Y-95927542D01*
X92038705Y-95805609D01*
X92038701Y-95805605D01*
X91927806Y-95707361D01*
X91796620Y-95638510D01*
X91796622Y-95638510D01*
X91652765Y-95603052D01*
X91504605Y-95603052D01*
X91504604Y-95603052D01*
X91360748Y-95638510D01*
X91229563Y-95707361D01*
X91118668Y-95805605D01*
X91118664Y-95805609D01*
X91034501Y-95927540D01*
X91034501Y-95927541D01*
X90981962Y-96066076D01*
X90981961Y-96066078D01*
X90964104Y-96213148D01*
X85118611Y-96213148D01*
X85888919Y-95442838D01*
X85921745Y-95420954D01*
X86524168Y-95172899D01*
X86530719Y-95168540D01*
X86539662Y-95163237D01*
X86649122Y-95105790D01*
X86760020Y-95007543D01*
X86844184Y-94885610D01*
X86896722Y-94747079D01*
X86899795Y-94721773D01*
X86914581Y-94600003D01*
X86914581Y-94599996D01*
X86896723Y-94452926D01*
X86896722Y-94452924D01*
X86896722Y-94452921D01*
X86844184Y-94314390D01*
X86760020Y-94192457D01*
X86760016Y-94192453D01*
X86649121Y-94094209D01*
X86517935Y-94025358D01*
X86517937Y-94025358D01*
X86465259Y-94012374D01*
X86374080Y-93989900D01*
X86225920Y-93989900D01*
X86225919Y-93989900D01*
X86082063Y-94025358D01*
X85950878Y-94094209D01*
X85839983Y-94192453D01*
X85839979Y-94192457D01*
X85755816Y-94314389D01*
X85755813Y-94314393D01*
X85743714Y-94346297D01*
X85733418Y-94366332D01*
X85727101Y-94375828D01*
X85727101Y-94375830D01*
X85479044Y-94978252D01*
X85457156Y-95011083D01*
X84703006Y-95765235D01*
X84647608Y-95793461D01*
X84631871Y-95794700D01*
X79378785Y-95794700D01*
X79320017Y-95775750D01*
X78914184Y-95483648D01*
X78914181Y-95483646D01*
X78914179Y-95483645D01*
X78911017Y-95482045D01*
X78889718Y-95467579D01*
X78845957Y-95428810D01*
X78845956Y-95428809D01*
X78714770Y-95359958D01*
X78714772Y-95359958D01*
X78570915Y-95324500D01*
X78422755Y-95324500D01*
X78422754Y-95324500D01*
X78278898Y-95359958D01*
X78147713Y-95428809D01*
X78036818Y-95527053D01*
X78036814Y-95527057D01*
X77952651Y-95648988D01*
X77952651Y-95648989D01*
X77923836Y-95724969D01*
X77905965Y-95772092D01*
X77900112Y-95787524D01*
X77900111Y-95787526D01*
X77882254Y-95934596D01*
X72798238Y-95934596D01*
X72814581Y-95800003D01*
X72814581Y-95799996D01*
X72796723Y-95652926D01*
X72796722Y-95652924D01*
X72796722Y-95652921D01*
X72744184Y-95514390D01*
X72729295Y-95492820D01*
X72660020Y-95392457D01*
X72660016Y-95392453D01*
X72549121Y-95294209D01*
X72417935Y-95225358D01*
X72417937Y-95225358D01*
X72274080Y-95189900D01*
X72125920Y-95189900D01*
X72125919Y-95189900D01*
X71982063Y-95225358D01*
X71850878Y-95294209D01*
X71739983Y-95392453D01*
X71739979Y-95392457D01*
X71655816Y-95514388D01*
X71655816Y-95514389D01*
X71603277Y-95652924D01*
X71603276Y-95652926D01*
X71585419Y-95799996D01*
X71585419Y-95800003D01*
X71603277Y-95947078D01*
X71628229Y-96012873D01*
X71632790Y-96028703D01*
X71636387Y-96046585D01*
X71636389Y-96046592D01*
X71651006Y-96081673D01*
X71878603Y-96627907D01*
X71886962Y-96647967D01*
X71894700Y-96686659D01*
X71894700Y-97131871D01*
X71875487Y-97191002D01*
X71865235Y-97203006D01*
X69655701Y-99412539D01*
X69655700Y-99412541D01*
X69643347Y-99433937D01*
X69643346Y-99433937D01*
X69615507Y-99482156D01*
X69594700Y-99559804D01*
X69594700Y-100513339D01*
X69586961Y-100552031D01*
X69343529Y-101136273D01*
X69336389Y-101153408D01*
X69336387Y-101153414D01*
X69332787Y-101171306D01*
X69328227Y-101187132D01*
X69303277Y-101252920D01*
X69285419Y-101399996D01*
X62880586Y-101399996D01*
X62879325Y-100005528D01*
X62879362Y-100002742D01*
X62879389Y-100001768D01*
X62892055Y-99532484D01*
X62892356Y-99526971D01*
X62929881Y-99070224D01*
X62930449Y-99064999D01*
X62991651Y-98614192D01*
X62992463Y-98609178D01*
X63006437Y-98534738D01*
X63075992Y-98164214D01*
X63076982Y-98159561D01*
X63181518Y-97720254D01*
X63182660Y-97715894D01*
X63306890Y-97282120D01*
X63308147Y-97278062D01*
X63313828Y-97260998D01*
X63450697Y-96849881D01*
X63451989Y-96846237D01*
X63611566Y-96423463D01*
X63612889Y-96420144D01*
X63765464Y-96056767D01*
X66249500Y-96056767D01*
X66249500Y-96343233D01*
X66258595Y-96423952D01*
X66281573Y-96627891D01*
X66281576Y-96627907D01*
X66332239Y-96849881D01*
X66345318Y-96907182D01*
X66439932Y-97177572D01*
X66564225Y-97435669D01*
X66654993Y-97580126D01*
X66716633Y-97678226D01*
X66716636Y-97678230D01*
X66851286Y-97847075D01*
X66895243Y-97902195D01*
X67097805Y-98104757D01*
X67321773Y-98283366D01*
X67564331Y-98435775D01*
X67822428Y-98560068D01*
X68092818Y-98654682D01*
X68372102Y-98718426D01*
X68656767Y-98750500D01*
X68943233Y-98750500D01*
X69227898Y-98718426D01*
X69507182Y-98654682D01*
X69777572Y-98560068D01*
X70035669Y-98435775D01*
X70278227Y-98283366D01*
X70502195Y-98104757D01*
X70704757Y-97902195D01*
X70883366Y-97678227D01*
X71035775Y-97435669D01*
X71160068Y-97177572D01*
X71254682Y-96907182D01*
X71318426Y-96627898D01*
X71350500Y-96343233D01*
X71350500Y-96056767D01*
X71318426Y-95772102D01*
X71254682Y-95492818D01*
X71160068Y-95222428D01*
X71035775Y-94964331D01*
X70883366Y-94721773D01*
X70704757Y-94497805D01*
X70502195Y-94295243D01*
X70278227Y-94116634D01*
X70278226Y-94116633D01*
X70206489Y-94071558D01*
X70035669Y-93964225D01*
X69777572Y-93839932D01*
X69507182Y-93745318D01*
X69507181Y-93745317D01*
X69507179Y-93745317D01*
X69227907Y-93681576D01*
X69227905Y-93681575D01*
X69227898Y-93681574D01*
X69227893Y-93681573D01*
X69227891Y-93681573D01*
X68943233Y-93649500D01*
X68656767Y-93649500D01*
X68372108Y-93681573D01*
X68372103Y-93681573D01*
X68372102Y-93681574D01*
X68372098Y-93681574D01*
X68372092Y-93681576D01*
X68092820Y-93745317D01*
X67957623Y-93792625D01*
X67822428Y-93839932D01*
X67564331Y-93964225D01*
X67524824Y-93989049D01*
X67321773Y-94116633D01*
X67321769Y-94116636D01*
X67097809Y-94295239D01*
X67097801Y-94295246D01*
X66895246Y-94497801D01*
X66895239Y-94497809D01*
X66716636Y-94721769D01*
X66716633Y-94721773D01*
X66613688Y-94885611D01*
X66564225Y-94964331D01*
X66439932Y-95222428D01*
X66414815Y-95294209D01*
X66345317Y-95492820D01*
X66281576Y-95772092D01*
X66281573Y-95772108D01*
X66255733Y-96001445D01*
X66249500Y-96056767D01*
X63765464Y-96056767D01*
X63788035Y-96003011D01*
X63789392Y-95999925D01*
X63978776Y-95588310D01*
X63980054Y-95585640D01*
X64182251Y-95179615D01*
X64183512Y-95177170D01*
X64397018Y-94776919D01*
X64398175Y-94774813D01*
X64621642Y-94380192D01*
X64622741Y-94378304D01*
X64853442Y-93991485D01*
X64854924Y-93989077D01*
X65338794Y-93227838D01*
X65340625Y-93225064D01*
X65521356Y-92961055D01*
X65523307Y-92958306D01*
X65622551Y-92823311D01*
X65715259Y-92697206D01*
X65717103Y-92694779D01*
X65919904Y-92436293D01*
X65921692Y-92434081D01*
X66134753Y-92178214D01*
X66136410Y-92176279D01*
X66358986Y-91923209D01*
X66360558Y-91921465D01*
X66592020Y-91671216D01*
X66593478Y-91669676D01*
X66833051Y-91422409D01*
X66834501Y-91420945D01*
X67081423Y-91176788D01*
X67082763Y-91175489D01*
X67167080Y-91095352D01*
X86421300Y-91095352D01*
X86421300Y-91904644D01*
X86421301Y-91904655D01*
X86424173Y-91935298D01*
X86469346Y-92064395D01*
X86547179Y-92169855D01*
X86550562Y-92174438D01*
X86660605Y-92255654D01*
X86789699Y-92300826D01*
X86820347Y-92303700D01*
X88179652Y-92303699D01*
X88210301Y-92300826D01*
X88339395Y-92255654D01*
X88449438Y-92174438D01*
X88530654Y-92064395D01*
X88575826Y-91935301D01*
X88578700Y-91904653D01*
X88578699Y-91095348D01*
X88575826Y-91064699D01*
X88530654Y-90935605D01*
X88449438Y-90825562D01*
X88430425Y-90811530D01*
X88339395Y-90744346D01*
X88210301Y-90699174D01*
X88179653Y-90696300D01*
X88179647Y-90696300D01*
X86820355Y-90696300D01*
X86820344Y-90696301D01*
X86789701Y-90699173D01*
X86660604Y-90744346D01*
X86550562Y-90825561D01*
X86550561Y-90825562D01*
X86469346Y-90935604D01*
X86469346Y-90935605D01*
X86424174Y-91064699D01*
X86421301Y-91095344D01*
X86421300Y-91095352D01*
X67167080Y-91095352D01*
X67336533Y-90934301D01*
X67337795Y-90933123D01*
X67596008Y-90696522D01*
X67597797Y-90694923D01*
X68134070Y-90227137D01*
X68136127Y-90225393D01*
X68686208Y-89772155D01*
X68687917Y-89770779D01*
X69133243Y-89420842D01*
X86421300Y-89420842D01*
X86421300Y-89579157D01*
X86452186Y-89734433D01*
X86512768Y-89880691D01*
X86512772Y-89880699D01*
X86600723Y-90012327D01*
X86712672Y-90124276D01*
X86844300Y-90212227D01*
X86844302Y-90212228D01*
X86844305Y-90212230D01*
X86880398Y-90227180D01*
X86990566Y-90272813D01*
X86990567Y-90272813D01*
X86990569Y-90272814D01*
X87145842Y-90303700D01*
X87145843Y-90303700D01*
X87854157Y-90303700D01*
X87854158Y-90303700D01*
X88009431Y-90272814D01*
X88155695Y-90212230D01*
X88287329Y-90124275D01*
X88399275Y-90012329D01*
X88487230Y-89880695D01*
X88547814Y-89734431D01*
X88578700Y-89579158D01*
X88578700Y-89420842D01*
X88547814Y-89265569D01*
X88487230Y-89119305D01*
X88477241Y-89104356D01*
X88399276Y-88987672D01*
X88287327Y-88875723D01*
X88155699Y-88787772D01*
X88155691Y-88787768D01*
X88009433Y-88727186D01*
X87905915Y-88706595D01*
X87854158Y-88696300D01*
X87145842Y-88696300D01*
X87107023Y-88704021D01*
X86990566Y-88727186D01*
X86844308Y-88787768D01*
X86844300Y-88787772D01*
X86712672Y-88875723D01*
X86712671Y-88875725D01*
X86600725Y-88987671D01*
X86600723Y-88987672D01*
X86512772Y-89119300D01*
X86512768Y-89119308D01*
X86452186Y-89265566D01*
X86421300Y-89420842D01*
X69133243Y-89420842D01*
X69250873Y-89328408D01*
X69251109Y-89328321D01*
X69251062Y-89328260D01*
X69805692Y-88894586D01*
X69805697Y-88894592D01*
X69805721Y-88894562D01*
X70076016Y-88683394D01*
X70076704Y-88682862D01*
X70343376Y-88479378D01*
X70344784Y-88478326D01*
X70614232Y-88280920D01*
X70616319Y-88279432D01*
X70895480Y-88086187D01*
X70897394Y-88084896D01*
X71038990Y-87991804D01*
X71040375Y-87990910D01*
X71187477Y-87897871D01*
X71188972Y-87896945D01*
X71340652Y-87804927D01*
X71342209Y-87804003D01*
X71498502Y-87713292D01*
X71500379Y-87712230D01*
X71643832Y-87633201D01*
X71645084Y-87632524D01*
X71809911Y-87545198D01*
X71810166Y-87545065D01*
X72124756Y-87381823D01*
X72127583Y-87380579D01*
X72131788Y-87378378D01*
X72131790Y-87378378D01*
X72178727Y-87353818D01*
X72225574Y-87329510D01*
X72225576Y-87329507D01*
X72229808Y-87327312D01*
X72232422Y-87325723D01*
X72313437Y-87283333D01*
X72321544Y-87279698D01*
X72322866Y-87278988D01*
X72322870Y-87278988D01*
X72367857Y-87254864D01*
X72368679Y-87254428D01*
X72413900Y-87230769D01*
X72413901Y-87230768D01*
X72415239Y-87230068D01*
X72422791Y-87225408D01*
X72497928Y-87185119D01*
X72508249Y-87180318D01*
X72510212Y-87179535D01*
X72510226Y-87179532D01*
X72553145Y-87155527D01*
X72554487Y-87154791D01*
X72597857Y-87131538D01*
X72597868Y-87131527D01*
X72599594Y-87130288D01*
X72609193Y-87124181D01*
X72672949Y-87088523D01*
X72683136Y-87084302D01*
X72682905Y-87083766D01*
X72688957Y-87081149D01*
X72688963Y-87081148D01*
X72728644Y-87057422D01*
X72731129Y-87055985D01*
X72771512Y-87033401D01*
X72771515Y-87033397D01*
X72776801Y-87029456D01*
X72777150Y-87029924D01*
X72785897Y-87023192D01*
X72832811Y-86995144D01*
X72842880Y-86990624D01*
X72842634Y-86990097D01*
X72848610Y-86987306D01*
X72848611Y-86987305D01*
X72848615Y-86987304D01*
X72887624Y-86962421D01*
X72890031Y-86960935D01*
X72929744Y-86937193D01*
X72929748Y-86937188D01*
X72934920Y-86933094D01*
X72935283Y-86933552D01*
X72943825Y-86926574D01*
X73098746Y-86827760D01*
X73107916Y-86822652D01*
X73108467Y-86822290D01*
X73108470Y-86822290D01*
X73150763Y-86794590D01*
X73151688Y-86793992D01*
X73194328Y-86766796D01*
X73194330Y-86766793D01*
X73194878Y-86766444D01*
X73203290Y-86760189D01*
X73369188Y-86651537D01*
X73373887Y-86648865D01*
X73420142Y-86618169D01*
X73420468Y-86617953D01*
X73464126Y-86589362D01*
X73464127Y-86589360D01*
X73466997Y-86587481D01*
X73471275Y-86584237D01*
X73973104Y-86251224D01*
X73973407Y-86251026D01*
X74186787Y-86110791D01*
X74251092Y-86068528D01*
X74251746Y-86068103D01*
X74526349Y-85891494D01*
X74527564Y-85890724D01*
X74795649Y-85724187D01*
X74797511Y-85723059D01*
X75010702Y-85597195D01*
X75020625Y-85592058D01*
X75023585Y-85590728D01*
X75023592Y-85590726D01*
X75064980Y-85565169D01*
X75066483Y-85564262D01*
X75108396Y-85539519D01*
X75108396Y-85539518D01*
X75114077Y-85536165D01*
X75114235Y-85536434D01*
X75129589Y-85527845D01*
X75129583Y-85527834D01*
X75130079Y-85527571D01*
X75134556Y-85525067D01*
X75135411Y-85524749D01*
X75135410Y-85524749D01*
X75135414Y-85524748D01*
X75165735Y-85503205D01*
X75171141Y-85499622D01*
X75202767Y-85480095D01*
X75202770Y-85480093D01*
X75202769Y-85480093D01*
X75202772Y-85480092D01*
X75205072Y-85477651D01*
X75220017Y-85464640D01*
X75223636Y-85462069D01*
X75241181Y-85452088D01*
X75243373Y-85451119D01*
X75273069Y-85427175D01*
X75277943Y-85423485D01*
X75309019Y-85401408D01*
X75310547Y-85399560D01*
X75324903Y-85385384D01*
X75328672Y-85382345D01*
X75345811Y-85371199D01*
X75347328Y-85370420D01*
X75376116Y-85344310D01*
X75380503Y-85340557D01*
X75410749Y-85316173D01*
X75411741Y-85314813D01*
X75425421Y-85299593D01*
X75429388Y-85295995D01*
X75446013Y-85283777D01*
X75447078Y-85283152D01*
X75448122Y-85282092D01*
X75474633Y-85255178D01*
X75478721Y-85251254D01*
X75507823Y-85224862D01*
X75508489Y-85223827D01*
X75521395Y-85207705D01*
X75525545Y-85203492D01*
X75541532Y-85190308D01*
X75542362Y-85189757D01*
X75568506Y-85160096D01*
X75572256Y-85156071D01*
X75600019Y-85127889D01*
X75600512Y-85127018D01*
X75612541Y-85110140D01*
X75616834Y-85105269D01*
X75632080Y-85091210D01*
X75632850Y-85090636D01*
X75657345Y-85059544D01*
X75660876Y-85055306D01*
X75687042Y-85025624D01*
X75687463Y-85024773D01*
X75698552Y-85007239D01*
X75702927Y-85001686D01*
X75717331Y-84986841D01*
X75718189Y-84986123D01*
X75740799Y-84953869D01*
X75744137Y-84949378D01*
X75768528Y-84918421D01*
X75768971Y-84917387D01*
X75779038Y-84899321D01*
X75783416Y-84893077D01*
X75796861Y-84877553D01*
X75797942Y-84876537D01*
X75818497Y-84843318D01*
X75821651Y-84838533D01*
X75844060Y-84806570D01*
X75844565Y-84805182D01*
X75853530Y-84786707D01*
X75857847Y-84779731D01*
X75870235Y-84763616D01*
X75871637Y-84762132D01*
X75889920Y-84728235D01*
X75892888Y-84723106D01*
X75913147Y-84690371D01*
X75913737Y-84688408D01*
X75921522Y-84669652D01*
X75925715Y-84661880D01*
X75936930Y-84645291D01*
X75938726Y-84643134D01*
X75954529Y-84608877D01*
X75957325Y-84603283D01*
X75975243Y-84570069D01*
X75975892Y-84567331D01*
X75982433Y-84548395D01*
X75984591Y-84543718D01*
X75993934Y-84528082D01*
X75995187Y-84525863D01*
X75995187Y-84525862D01*
X75995189Y-84525860D01*
X76010557Y-84487721D01*
X76012503Y-84483217D01*
X76015735Y-84476211D01*
X76017745Y-84471852D01*
X76019857Y-84467551D01*
X76022281Y-84462895D01*
X76022285Y-84462890D01*
X76022353Y-84462701D01*
X76025543Y-84454952D01*
X76029720Y-84445901D01*
X76029720Y-84445898D01*
X76031218Y-84441077D01*
X76033924Y-84430888D01*
X76034868Y-84428294D01*
X76037645Y-84420659D01*
X76038847Y-84417522D01*
X76041158Y-84411786D01*
X76044696Y-84404981D01*
X76044464Y-84404871D01*
X76047297Y-84398920D01*
X76047301Y-84398914D01*
X76050151Y-84390120D01*
X76052530Y-84383569D01*
X76055637Y-84375861D01*
X76055638Y-84375856D01*
X76057283Y-84369475D01*
X76057562Y-84369547D01*
X76059143Y-84362380D01*
X76061072Y-84356430D01*
X76062177Y-84353214D01*
X76064438Y-84346998D01*
X76067729Y-84340080D01*
X76067527Y-84339993D01*
X76070140Y-84333940D01*
X76070144Y-84333935D01*
X76072550Y-84325459D01*
X76074776Y-84318574D01*
X76077448Y-84311233D01*
X76077448Y-84311228D01*
X76078875Y-84304787D01*
X76079126Y-84304842D01*
X76080443Y-84297668D01*
X76082240Y-84291343D01*
X76083299Y-84287863D01*
X76085451Y-84281223D01*
X76088477Y-84274204D01*
X76088307Y-84274138D01*
X76090689Y-84267988D01*
X76090691Y-84267985D01*
X76092658Y-84259895D01*
X76094704Y-84252675D01*
X76096952Y-84245744D01*
X76096952Y-84245742D01*
X76098149Y-84239258D01*
X76098366Y-84239298D01*
X76099411Y-84232129D01*
X76101077Y-84225284D01*
X76102042Y-84221625D01*
X76104078Y-84214456D01*
X76106815Y-84207376D01*
X76106681Y-84207330D01*
X76108814Y-84201096D01*
X76108819Y-84201087D01*
X76110352Y-84193483D01*
X76112197Y-84185870D01*
X76112627Y-84184357D01*
X76114034Y-84179406D01*
X76114034Y-84179396D01*
X76114993Y-84172875D01*
X76115173Y-84172901D01*
X76115937Y-84165785D01*
X76117420Y-84158430D01*
X76118284Y-84154542D01*
X76120179Y-84146750D01*
X76122611Y-84139632D01*
X76122513Y-84139603D01*
X76124388Y-84133281D01*
X76124391Y-84133277D01*
X76125515Y-84126207D01*
X76127115Y-84118235D01*
X76128568Y-84112266D01*
X76128568Y-84112261D01*
X76129278Y-84105699D01*
X76129421Y-84105714D01*
X76129895Y-84098672D01*
X76129910Y-84098573D01*
X76131165Y-84090684D01*
X76131892Y-84086655D01*
X76133615Y-84078113D01*
X76135724Y-84070989D01*
X76135662Y-84070974D01*
X76137264Y-84064584D01*
X76137267Y-84064578D01*
X76138013Y-84058103D01*
X76139334Y-84049749D01*
X76140420Y-84044367D01*
X76140419Y-84044358D01*
X76140868Y-84037783D01*
X76140977Y-84037790D01*
X76141157Y-84030845D01*
X76142158Y-84022168D01*
X76142736Y-84017947D01*
X76144220Y-84008614D01*
X76145991Y-84001534D01*
X76145965Y-84001529D01*
X76147283Y-83995061D01*
X76147283Y-83995059D01*
X76147284Y-83995057D01*
X76147693Y-83989239D01*
X76148694Y-83980494D01*
X76148801Y-83979821D01*
X76149448Y-83975756D01*
X76149447Y-83975748D01*
X76149625Y-83969153D01*
X76149698Y-83969154D01*
X76149582Y-83962367D01*
X76150249Y-83952885D01*
X76150661Y-83948452D01*
X76151831Y-83938303D01*
X76153282Y-83931157D01*
X76154278Y-83924772D01*
X76154277Y-83924772D01*
X76154279Y-83924769D01*
X76154400Y-83919660D01*
X76155033Y-83910542D01*
X76155502Y-83906483D01*
X76155500Y-83906476D01*
X76155396Y-83899885D01*
X76155435Y-83899884D01*
X76155028Y-83893288D01*
X76155274Y-83882957D01*
X76155489Y-83878354D01*
X76155878Y-83872826D01*
X76156491Y-83866770D01*
X76156890Y-83863737D01*
X76156892Y-83863734D01*
X76156892Y-83861954D01*
X76157140Y-83854895D01*
X76158424Y-83836639D01*
X76158156Y-83832239D01*
X76156892Y-83819071D01*
X76156892Y-83816194D01*
X76156921Y-83813799D01*
X76158052Y-83766296D01*
X76157468Y-83760861D01*
X76156892Y-83750113D01*
X76156892Y-75773305D01*
X76901300Y-75773305D01*
X76901300Y-76526694D01*
X76931225Y-76677140D01*
X76989923Y-76818849D01*
X76989924Y-76818852D01*
X76989925Y-76818853D01*
X77075144Y-76946392D01*
X77183608Y-77054856D01*
X77311147Y-77140075D01*
X77382004Y-77169425D01*
X77452859Y-77198774D01*
X77452860Y-77198774D01*
X77452862Y-77198775D01*
X77603305Y-77228700D01*
X77603306Y-77228700D01*
X77756694Y-77228700D01*
X77756695Y-77228700D01*
X77907138Y-77198775D01*
X78048853Y-77140075D01*
X78176392Y-77054856D01*
X78284856Y-76946392D01*
X78370075Y-76818853D01*
X78428775Y-76677138D01*
X78458700Y-76526695D01*
X78458700Y-75773305D01*
X85541300Y-75773305D01*
X85541300Y-76526694D01*
X85571225Y-76677140D01*
X85629923Y-76818849D01*
X85629924Y-76818852D01*
X85629925Y-76818853D01*
X85715144Y-76946392D01*
X85823608Y-77054856D01*
X85951147Y-77140075D01*
X86022004Y-77169425D01*
X86092859Y-77198774D01*
X86092860Y-77198774D01*
X86092862Y-77198775D01*
X86243305Y-77228700D01*
X86243306Y-77228700D01*
X86396694Y-77228700D01*
X86396695Y-77228700D01*
X86547138Y-77198775D01*
X86688853Y-77140075D01*
X86816392Y-77054856D01*
X86924856Y-76946392D01*
X87010075Y-76818853D01*
X87068775Y-76677138D01*
X87098700Y-76526695D01*
X87098700Y-75773305D01*
X87068775Y-75622862D01*
X87010075Y-75481147D01*
X86924856Y-75353608D01*
X86816392Y-75245144D01*
X86688853Y-75159925D01*
X86688854Y-75159925D01*
X86688852Y-75159924D01*
X86688849Y-75159923D01*
X86547140Y-75101225D01*
X86446842Y-75081275D01*
X86396695Y-75071300D01*
X86243305Y-75071300D01*
X86205694Y-75078781D01*
X86092859Y-75101225D01*
X85951150Y-75159923D01*
X85951147Y-75159924D01*
X85823606Y-75245145D01*
X85715145Y-75353606D01*
X85629924Y-75481147D01*
X85629923Y-75481150D01*
X85571225Y-75622859D01*
X85541300Y-75773305D01*
X78458700Y-75773305D01*
X78428775Y-75622862D01*
X78370075Y-75481147D01*
X78284856Y-75353608D01*
X78176392Y-75245144D01*
X78048853Y-75159925D01*
X78048854Y-75159925D01*
X78048852Y-75159924D01*
X78048849Y-75159923D01*
X77907140Y-75101225D01*
X77806842Y-75081275D01*
X77756695Y-75071300D01*
X77603305Y-75071300D01*
X77565694Y-75078781D01*
X77452859Y-75101225D01*
X77311150Y-75159923D01*
X77311147Y-75159924D01*
X77183606Y-75245145D01*
X77075145Y-75353606D01*
X76989924Y-75481147D01*
X76989923Y-75481150D01*
X76931225Y-75622859D01*
X76901300Y-75773305D01*
X76156892Y-75773305D01*
X76156892Y-71973305D01*
X76901300Y-71973305D01*
X76901300Y-72726694D01*
X76931225Y-72877140D01*
X76989923Y-73018849D01*
X76989924Y-73018852D01*
X76989925Y-73018853D01*
X77075144Y-73146392D01*
X77183608Y-73254856D01*
X77311147Y-73340075D01*
X77382004Y-73369425D01*
X77452859Y-73398774D01*
X77452860Y-73398774D01*
X77452862Y-73398775D01*
X77603305Y-73428700D01*
X77603306Y-73428700D01*
X77756694Y-73428700D01*
X77756695Y-73428700D01*
X77907138Y-73398775D01*
X78048853Y-73340075D01*
X78176392Y-73254856D01*
X78284856Y-73146392D01*
X78370075Y-73018853D01*
X78428775Y-72877138D01*
X78458700Y-72726695D01*
X78458700Y-71973305D01*
X85541300Y-71973305D01*
X85541300Y-72726694D01*
X85571225Y-72877140D01*
X85629923Y-73018849D01*
X85629924Y-73018852D01*
X85629925Y-73018853D01*
X85715144Y-73146392D01*
X85823608Y-73254856D01*
X85951147Y-73340075D01*
X86022004Y-73369425D01*
X86092859Y-73398774D01*
X86092860Y-73398774D01*
X86092862Y-73398775D01*
X86243305Y-73428700D01*
X86243306Y-73428700D01*
X86396694Y-73428700D01*
X86396695Y-73428700D01*
X86547138Y-73398775D01*
X86688853Y-73340075D01*
X86816392Y-73254856D01*
X86924856Y-73146392D01*
X87010075Y-73018853D01*
X87068775Y-72877138D01*
X87098700Y-72726695D01*
X87098700Y-71973305D01*
X87068775Y-71822862D01*
X87010075Y-71681147D01*
X86924856Y-71553608D01*
X86816392Y-71445144D01*
X86688853Y-71359925D01*
X86688854Y-71359925D01*
X86688852Y-71359924D01*
X86688849Y-71359923D01*
X86547140Y-71301225D01*
X86446842Y-71281275D01*
X86396695Y-71271300D01*
X86243305Y-71271300D01*
X86205694Y-71278781D01*
X86092859Y-71301225D01*
X85951150Y-71359923D01*
X85951147Y-71359924D01*
X85823606Y-71445145D01*
X85715145Y-71553606D01*
X85629924Y-71681147D01*
X85629923Y-71681150D01*
X85571225Y-71822859D01*
X85541300Y-71973305D01*
X78458700Y-71973305D01*
X78428775Y-71822862D01*
X78370075Y-71681147D01*
X78284856Y-71553608D01*
X78176392Y-71445144D01*
X78048853Y-71359925D01*
X78048854Y-71359925D01*
X78048852Y-71359924D01*
X78048849Y-71359923D01*
X77907140Y-71301225D01*
X77806842Y-71281275D01*
X77756695Y-71271300D01*
X77603305Y-71271300D01*
X77565694Y-71278781D01*
X77452859Y-71301225D01*
X77311150Y-71359923D01*
X77311147Y-71359924D01*
X77183606Y-71445145D01*
X77075145Y-71553606D01*
X76989924Y-71681147D01*
X76989923Y-71681150D01*
X76931225Y-71822859D01*
X76901300Y-71973305D01*
X76156892Y-71973305D01*
X76156892Y-70996135D01*
X76156923Y-70993643D01*
X76157656Y-70964062D01*
X76157672Y-70963404D01*
X76157918Y-70958439D01*
X76159685Y-70934688D01*
X76160175Y-70929753D01*
X76163097Y-70906225D01*
X76163827Y-70901332D01*
X76163840Y-70901256D01*
X76167895Y-70878014D01*
X76168853Y-70873221D01*
X76174056Y-70850153D01*
X76175248Y-70845410D01*
X76175257Y-70845378D01*
X76181555Y-70822681D01*
X76182968Y-70818034D01*
X76190386Y-70795612D01*
X76192013Y-70791073D01*
X76200505Y-70769070D01*
X76202358Y-70764594D01*
X76211922Y-70743009D01*
X76213985Y-70738642D01*
X76224586Y-70717557D01*
X76226865Y-70713287D01*
X76238500Y-70692714D01*
X76240986Y-70688558D01*
X76253632Y-70668549D01*
X76256338Y-70664494D01*
X76269957Y-70645118D01*
X76272862Y-70641191D01*
X76287492Y-70622410D01*
X76290597Y-70618623D01*
X76290615Y-70618602D01*
X76306155Y-70600563D01*
X76309464Y-70596909D01*
X76326020Y-70579513D01*
X76329528Y-70576005D01*
X76346910Y-70559463D01*
X76350551Y-70556165D01*
X76368620Y-70540599D01*
X76372414Y-70537489D01*
X76391187Y-70522865D01*
X76395094Y-70519973D01*
X76414494Y-70506337D01*
X76418500Y-70503665D01*
X76438565Y-70490986D01*
X76442722Y-70488500D01*
X76442745Y-70488487D01*
X76463259Y-70476883D01*
X76467554Y-70474591D01*
X76488637Y-70463992D01*
X76493021Y-70461920D01*
X76514573Y-70452372D01*
X76519068Y-70450511D01*
X76533176Y-70445065D01*
X76541047Y-70442027D01*
X76545635Y-70440383D01*
X76568009Y-70432982D01*
X76572685Y-70431560D01*
X76595429Y-70425248D01*
X76600152Y-70424061D01*
X76623219Y-70418860D01*
X76628008Y-70417903D01*
X76651339Y-70413832D01*
X76656197Y-70413108D01*
X76679778Y-70410179D01*
X76684688Y-70409692D01*
X76708434Y-70407924D01*
X76713374Y-70407679D01*
X76740305Y-70407013D01*
X76743624Y-70406931D01*
X76746112Y-70406900D01*
X87255128Y-70406900D01*
X87257620Y-70406930D01*
G37*
%TD.AperFunction*%
%TD*%
%TA.AperFunction,Conductor*%
%TO.N,/VBAT*%
G36*
X97504985Y-128453735D02*
G01*
X97561369Y-128507143D01*
X97564262Y-128511487D01*
X97567016Y-128518746D01*
X97567017Y-128518748D01*
X97651176Y-128640674D01*
X97651177Y-128640675D01*
X97651180Y-128640679D01*
X97762078Y-128738926D01*
X97859315Y-128789960D01*
X97861914Y-128791818D01*
X97940175Y-128865947D01*
X97943825Y-128874124D01*
X97940623Y-128882487D01*
X97940417Y-128882700D01*
X97664961Y-129159115D01*
X97656693Y-129162556D01*
X97656644Y-129162556D01*
X97267522Y-129161598D01*
X97259258Y-129158151D01*
X97255851Y-129149869D01*
X97255872Y-129149208D01*
X97297731Y-128461517D01*
X97301654Y-128453468D01*
X97309409Y-128450529D01*
X97496939Y-128450529D01*
X97504985Y-128453735D01*
G37*
%TD.AperFunction*%
%TD*%
%TA.AperFunction,Conductor*%
%TO.N,/VBAT*%
G36*
X97602073Y-121690621D02*
G01*
X97604600Y-121694394D01*
X97870965Y-122333673D01*
X97870984Y-122342628D01*
X97864667Y-122348972D01*
X97504502Y-122499117D01*
X97495547Y-122499137D01*
X97495516Y-122499124D01*
X97495498Y-122499117D01*
X97135332Y-122348972D01*
X97129014Y-122342626D01*
X97129034Y-122333673D01*
X97395400Y-121694394D01*
X97401745Y-121688075D01*
X97406200Y-121687194D01*
X97593800Y-121687194D01*
X97602073Y-121690621D01*
G37*
%TD.AperFunction*%
%TD*%
%TA.AperFunction,Conductor*%
%TO.N,/VBAT*%
G36*
X97496196Y-122497430D02*
G01*
X97502542Y-122503748D01*
X97502563Y-122503797D01*
X97651070Y-122864641D01*
X97651049Y-122873596D01*
X97644705Y-122879913D01*
X97004318Y-123143602D01*
X96995363Y-123143583D01*
X96991590Y-123141056D01*
X96858937Y-123008403D01*
X96855510Y-123000130D01*
X96856390Y-122995679D01*
X97120081Y-122355286D01*
X97126399Y-122348943D01*
X97135352Y-122348923D01*
X97496196Y-122497430D01*
G37*
%TD.AperFunction*%
%TD*%
%TA.AperFunction,Conductor*%
%TO.N,/VBAT*%
G36*
X84720171Y-97420145D02*
G01*
X84997547Y-97696559D01*
X85000988Y-97704826D01*
X85000988Y-97704875D01*
X85000032Y-98092990D01*
X84996585Y-98101255D01*
X84988303Y-98104661D01*
X84986717Y-98104549D01*
X84257939Y-98003005D01*
X84250218Y-97998469D01*
X84247854Y-97991417D01*
X84247854Y-97803893D01*
X84251281Y-97795620D01*
X84252072Y-97794898D01*
X84704442Y-97419429D01*
X84712994Y-97416783D01*
X84720171Y-97420145D01*
G37*
%TD.AperFunction*%
%TD*%
%TA.AperFunction,Conductor*%
%TO.N,/VBAT*%
G36*
X78509239Y-97419592D02*
G01*
X78510799Y-97420384D01*
X78597564Y-97472985D01*
X78599253Y-97474230D01*
X78631156Y-97502493D01*
X78634878Y-97505790D01*
X78647084Y-97512196D01*
X78759634Y-97571267D01*
X78760263Y-97571622D01*
X78946319Y-97684418D01*
X79128696Y-97794984D01*
X79133994Y-97802203D01*
X79134330Y-97804989D01*
X79134330Y-97992518D01*
X79130903Y-98000791D01*
X79125533Y-98003852D01*
X78508978Y-98161753D01*
X78500113Y-98160486D01*
X78495277Y-98154922D01*
X78344524Y-97793300D01*
X78344504Y-97784350D01*
X78493938Y-97425888D01*
X78500284Y-97419571D01*
X78509239Y-97419592D01*
G37*
%TD.AperFunction*%
%TD*%
%TA.AperFunction,Conductor*%
%TO.N,/VBAT*%
G36*
X91943352Y-96364173D02*
G01*
X91949670Y-96370519D01*
X91949650Y-96379472D01*
X91683285Y-97018752D01*
X91676940Y-97025071D01*
X91672485Y-97025952D01*
X91484885Y-97025952D01*
X91476612Y-97022525D01*
X91474085Y-97018752D01*
X91207719Y-96379472D01*
X91207700Y-96370517D01*
X91214015Y-96364174D01*
X91574184Y-96214027D01*
X91583134Y-96214007D01*
X91943352Y-96364173D01*
G37*
%TD.AperFunction*%
%TD*%
%TA.AperFunction,Conductor*%
%TO.N,/3V3*%
G36*
X95137067Y-104078622D02*
G01*
X95143385Y-104084968D01*
X95143365Y-104093921D01*
X94877000Y-104733201D01*
X94870655Y-104739520D01*
X94866200Y-104740401D01*
X94678600Y-104740401D01*
X94670327Y-104736974D01*
X94667800Y-104733201D01*
X94401434Y-104093921D01*
X94401415Y-104084966D01*
X94407730Y-104078623D01*
X94767899Y-103928476D01*
X94776849Y-103928456D01*
X95137067Y-104078622D01*
G37*
%TD.AperFunction*%
%TD*%
%TA.AperFunction,Conductor*%
%TO.N,/3V3*%
G36*
X99099698Y-120851286D02*
G01*
X99103013Y-120857944D01*
X99204549Y-121586717D01*
X99202297Y-121595384D01*
X99194576Y-121599920D01*
X99192990Y-121600032D01*
X98804875Y-121600988D01*
X98796594Y-121597582D01*
X98520146Y-121320172D01*
X98516734Y-121311893D01*
X98519430Y-121304441D01*
X98894899Y-120852085D01*
X98902820Y-120847909D01*
X98903902Y-120847859D01*
X99091425Y-120847859D01*
X99099698Y-120851286D01*
G37*
%TD.AperFunction*%
%TD*%
%TA.AperFunction,Conductor*%
%TO.N,/VUSB_SNS*%
G36*
X78792262Y-95653032D02*
G01*
X79267235Y-95994898D01*
X79271948Y-96002512D01*
X79272100Y-96004394D01*
X79272100Y-96191816D01*
X79268673Y-96200089D01*
X79262471Y-96203331D01*
X78510571Y-96338530D01*
X78501822Y-96336622D01*
X78496985Y-96329086D01*
X78496800Y-96327051D01*
X78495846Y-95939472D01*
X78499252Y-95931194D01*
X78777170Y-95654240D01*
X78785448Y-95650829D01*
X78792262Y-95653032D01*
G37*
%TD.AperFunction*%
%TD*%
%TA.AperFunction,Conductor*%
%TO.N,/VUSB_SNS*%
G36*
X86296196Y-94597436D02*
G01*
X86302542Y-94603754D01*
X86302563Y-94603803D01*
X86451070Y-94964647D01*
X86451049Y-94973602D01*
X86444705Y-94979919D01*
X85804318Y-95243608D01*
X85795363Y-95243589D01*
X85791590Y-95241062D01*
X85658937Y-95108409D01*
X85655510Y-95100136D01*
X85656390Y-95095685D01*
X85920081Y-94455292D01*
X85926399Y-94448949D01*
X85935352Y-94448929D01*
X86296196Y-94597436D01*
G37*
%TD.AperFunction*%
%TD*%
%TA.AperFunction,Conductor*%
%TO.N,/BLED*%
G36*
X71107450Y-170355259D02*
G01*
X71108037Y-170355807D01*
X71240650Y-170488420D01*
X71244077Y-170496693D01*
X71241609Y-170503880D01*
X70795485Y-171076940D01*
X70787699Y-171081363D01*
X70779066Y-171078985D01*
X70778000Y-171078046D01*
X70502748Y-170804145D01*
X70499301Y-170795881D01*
X70499301Y-170795832D01*
X70499823Y-170495727D01*
X70499981Y-170404502D01*
X70503422Y-170396235D01*
X70510875Y-170392852D01*
X71098961Y-170352408D01*
X71107450Y-170355259D01*
G37*
%TD.AperFunction*%
%TD*%
%TA.AperFunction,Conductor*%
%TO.N,/BLED*%
G36*
X72796196Y-168797436D02*
G01*
X72802542Y-168803754D01*
X72802563Y-168803803D01*
X72951070Y-169164647D01*
X72951049Y-169173602D01*
X72944705Y-169179919D01*
X72304318Y-169443608D01*
X72295363Y-169443589D01*
X72291590Y-169441062D01*
X72158937Y-169308409D01*
X72155510Y-169300136D01*
X72156390Y-169295685D01*
X72420081Y-168655292D01*
X72426399Y-168648949D01*
X72435352Y-168648929D01*
X72796196Y-168797436D01*
G37*
%TD.AperFunction*%
%TD*%
%TA.AperFunction,Conductor*%
%TO.N,/BLED*%
G36*
X95819300Y-153780543D02*
G01*
X95821136Y-153782925D01*
X96208107Y-154446899D01*
X96209312Y-154455772D01*
X96203889Y-154462899D01*
X96202500Y-154463589D01*
X95844572Y-154612803D01*
X95835617Y-154612824D01*
X95835582Y-154612809D01*
X95474367Y-154462791D01*
X95468041Y-154456453D01*
X95467910Y-154447851D01*
X95468270Y-154446899D01*
X95668918Y-153915843D01*
X95671586Y-153911711D01*
X95802755Y-153780542D01*
X95811027Y-153777116D01*
X95819300Y-153780543D01*
G37*
%TD.AperFunction*%
%TD*%
%TA.AperFunction,Conductor*%
%TO.N,/BLED*%
G36*
X94171195Y-137297432D02*
G01*
X94177541Y-137303750D01*
X94177562Y-137303799D01*
X94326069Y-137664643D01*
X94326048Y-137673598D01*
X94319704Y-137679915D01*
X93679317Y-137943604D01*
X93670362Y-137943585D01*
X93666589Y-137941058D01*
X93533936Y-137808405D01*
X93530509Y-137800132D01*
X93531389Y-137795681D01*
X93795080Y-137155288D01*
X93801398Y-137148945D01*
X93810351Y-137148925D01*
X94171195Y-137297432D01*
G37*
%TD.AperFunction*%
%TD*%
%TA.AperFunction,Conductor*%
%TO.N,/GLED*%
G36*
X96048601Y-136848950D02*
G01*
X96054918Y-136855294D01*
X96318607Y-137495681D01*
X96318588Y-137504636D01*
X96316061Y-137508409D01*
X96183408Y-137641062D01*
X96175135Y-137644489D01*
X96170680Y-137643608D01*
X95530293Y-137379919D01*
X95523948Y-137373600D01*
X95523928Y-137364647D01*
X95672436Y-137003801D01*
X95678753Y-136997457D01*
X96039646Y-136848929D01*
X96048601Y-136848950D01*
G37*
%TD.AperFunction*%
%TD*%
%TA.AperFunction,Conductor*%
%TO.N,/GLED*%
G36*
X99895244Y-143527023D02*
G01*
X99898671Y-143535296D01*
X99898385Y-143537867D01*
X99728511Y-144291997D01*
X99723350Y-144299315D01*
X99714526Y-144300840D01*
X99712644Y-144300246D01*
X99354501Y-144152852D01*
X99348155Y-144146534D01*
X99198640Y-143784612D01*
X99198649Y-143775658D01*
X99204237Y-143769674D01*
X99695936Y-143524822D01*
X99701151Y-143523596D01*
X99886971Y-143523596D01*
X99895244Y-143527023D01*
G37*
%TD.AperFunction*%
%TD*%
%TA.AperFunction,Conductor*%
%TO.N,/GLED*%
G36*
X69004636Y-168356410D02*
G01*
X69008409Y-168358937D01*
X69141062Y-168491590D01*
X69144489Y-168499863D01*
X69143608Y-168504318D01*
X68879919Y-169144705D01*
X68873600Y-169151050D01*
X68864647Y-169151070D01*
X68503803Y-169002563D01*
X68497457Y-168996245D01*
X68497436Y-168996196D01*
X68348929Y-168635352D01*
X68348950Y-168626397D01*
X68355292Y-168620081D01*
X68995683Y-168356391D01*
X69004636Y-168356410D01*
G37*
%TD.AperFunction*%
%TD*%
%TA.AperFunction,Conductor*%
%TO.N,/GLED*%
G36*
X70972587Y-166278074D02*
G01*
X70972621Y-166278108D01*
X70972623Y-166278110D01*
X71246175Y-166553011D01*
X71249582Y-166561293D01*
X71246135Y-166569557D01*
X71244728Y-166570752D01*
X70635714Y-167010218D01*
X70627000Y-167012280D01*
X70620595Y-167009003D01*
X70488029Y-166876437D01*
X70484602Y-166868164D01*
X70484700Y-166866661D01*
X70560748Y-166285523D01*
X70565218Y-166277767D01*
X70572327Y-166275344D01*
X70964311Y-166274663D01*
X70972587Y-166278074D01*
G37*
%TD.AperFunction*%
%TD*%
%TA.AperFunction,Conductor*%
%TO.N,/RLED*%
G36*
X100274534Y-145764624D02*
G01*
X100278307Y-145767151D01*
X100410960Y-145899804D01*
X100414387Y-145908077D01*
X100413506Y-145912532D01*
X100149817Y-146552919D01*
X100143498Y-146559264D01*
X100134545Y-146559284D01*
X99773701Y-146410777D01*
X99767355Y-146404459D01*
X99767334Y-146404410D01*
X99618827Y-146043566D01*
X99618848Y-146034611D01*
X99625190Y-146028295D01*
X100265581Y-145764605D01*
X100274534Y-145764624D01*
G37*
%TD.AperFunction*%
%TD*%
%TA.AperFunction,Conductor*%
%TO.N,/RLED*%
G36*
X71199611Y-163707851D02*
G01*
X71200599Y-163708730D01*
X71476232Y-163983407D01*
X71479673Y-163991674D01*
X71479673Y-163991723D01*
X71478713Y-164381718D01*
X71475266Y-164389982D01*
X71467156Y-164393388D01*
X70807440Y-164401455D01*
X70799126Y-164398130D01*
X70795598Y-164389899D01*
X70795597Y-164389756D01*
X70795597Y-164202477D01*
X70798130Y-164195206D01*
X71183174Y-163709746D01*
X71190999Y-163705395D01*
X71199611Y-163707851D01*
G37*
%TD.AperFunction*%
%TD*%
%TA.AperFunction,Conductor*%
%TO.N,/RLED*%
G36*
X67366320Y-163929034D02*
G01*
X68005600Y-164195400D01*
X68011919Y-164201745D01*
X68012800Y-164206200D01*
X68012800Y-164393799D01*
X68009373Y-164402072D01*
X68005600Y-164404599D01*
X67366320Y-164670965D01*
X67357365Y-164670984D01*
X67351021Y-164664667D01*
X67200875Y-164304500D01*
X67200855Y-164295550D01*
X67351022Y-163935330D01*
X67357367Y-163929014D01*
X67366320Y-163929034D01*
G37*
%TD.AperFunction*%
%TD*%
%TA.AperFunction,Conductor*%
%TO.N,/RLED*%
G36*
X97566320Y-136638636D02*
G01*
X98205600Y-136905002D01*
X98211919Y-136911347D01*
X98212800Y-136915802D01*
X98212800Y-137103401D01*
X98209373Y-137111674D01*
X98205600Y-137114201D01*
X97566320Y-137380567D01*
X97557365Y-137380586D01*
X97551021Y-137374269D01*
X97400875Y-137014102D01*
X97400855Y-137005152D01*
X97551022Y-136644932D01*
X97557367Y-136638616D01*
X97566320Y-136638636D01*
G37*
%TD.AperFunction*%
%TD*%
%TA.AperFunction,Conductor*%
%TO.N,Net-(J2-Pin_1)*%
G36*
X95353740Y-126517344D02*
G01*
X95487542Y-126651146D01*
X95490738Y-126657105D01*
X95579751Y-127098288D01*
X95578028Y-127107076D01*
X95576679Y-127108750D01*
X95110671Y-127588981D01*
X95102450Y-127592532D01*
X95094126Y-127589230D01*
X95091856Y-127586159D01*
X94982719Y-127372681D01*
X94778682Y-126973572D01*
X94777969Y-126964648D01*
X94781815Y-126959094D01*
X95338185Y-126516460D01*
X95346790Y-126513992D01*
X95353740Y-126517344D01*
G37*
%TD.AperFunction*%
%TD*%
%TA.AperFunction,Conductor*%
%TO.N,Net-(J2-Pin_1)*%
G36*
X95797292Y-121542436D02*
G01*
X95802289Y-121549867D01*
X95802295Y-121549894D01*
X95998808Y-122534628D01*
X95997066Y-122543412D01*
X95989624Y-122548392D01*
X95987334Y-122548618D01*
X95801568Y-122548618D01*
X95795664Y-122547019D01*
X95789492Y-122543412D01*
X95760556Y-122526500D01*
X95507124Y-122378380D01*
X95501711Y-122371247D01*
X95501328Y-122368299D01*
X95500016Y-121608587D01*
X95503429Y-121600310D01*
X95509398Y-121597101D01*
X95788505Y-121540716D01*
X95797292Y-121542436D01*
G37*
%TD.AperFunction*%
%TD*%
%TA.AperFunction,Conductor*%
%TO.N,Net-(Q3-D)*%
G36*
X93704843Y-153414142D02*
G01*
X93705679Y-153414833D01*
X94177462Y-153804451D01*
X94181659Y-153812361D01*
X94179033Y-153820922D01*
X94178300Y-153821731D01*
X93903441Y-154097547D01*
X93895173Y-154100988D01*
X93895124Y-154100988D01*
X93505352Y-154100028D01*
X93497087Y-154096581D01*
X93493681Y-154088300D01*
X93498319Y-153423081D01*
X93501804Y-153414833D01*
X93510019Y-153411464D01*
X93697394Y-153411464D01*
X93704843Y-153414142D01*
G37*
%TD.AperFunction*%
%TD*%
%TA.AperFunction,Conductor*%
%TO.N,Net-(Q3-D)*%
G36*
X92593785Y-125407365D02*
G01*
X92606127Y-125419070D01*
X92978665Y-125772382D01*
X92982310Y-125780561D01*
X92979103Y-125788922D01*
X92978902Y-125789130D01*
X92701660Y-126067338D01*
X92697825Y-126069899D01*
X92336641Y-126218544D01*
X92327686Y-126218523D01*
X92321368Y-126212177D01*
X92320938Y-126210939D01*
X92094662Y-125419070D01*
X92095684Y-125410173D01*
X92102697Y-125404605D01*
X92105912Y-125404155D01*
X92585735Y-125404155D01*
X92593785Y-125407365D01*
G37*
%TD.AperFunction*%
%TD*%
%TA.AperFunction,Conductor*%
%TO.N,Net-(Q3-D)*%
G36*
X68844333Y-102712646D02*
G01*
X68848373Y-102714978D01*
X68950878Y-102805790D01*
X69016472Y-102840216D01*
X69082066Y-102874643D01*
X69153993Y-102892371D01*
X69225920Y-102910100D01*
X69225921Y-102910100D01*
X69374079Y-102910100D01*
X69374080Y-102910100D01*
X69406159Y-102902193D01*
X69412661Y-102902455D01*
X69426058Y-102906930D01*
X69432820Y-102912801D01*
X69434052Y-102918027D01*
X69434052Y-103398860D01*
X69430625Y-103407133D01*
X69423352Y-103410517D01*
X68651462Y-103476720D01*
X68642926Y-103474013D01*
X68638805Y-103466063D01*
X68638762Y-103465109D01*
X68637799Y-103073758D01*
X68638698Y-103069236D01*
X68790131Y-102705982D01*
X68796477Y-102699665D01*
X68804632Y-102699387D01*
X68844333Y-102712646D01*
G37*
%TD.AperFunction*%
%TD*%
%TA.AperFunction,Conductor*%
%TO.N,Net-(Q3-D)*%
G36*
X92892269Y-103399965D02*
G01*
X92900533Y-103403412D01*
X92903940Y-103411694D01*
X92903729Y-103413876D01*
X92751826Y-104203311D01*
X92746898Y-104210787D01*
X92740337Y-104212800D01*
X92259663Y-104212800D01*
X92251390Y-104209373D01*
X92248174Y-104203311D01*
X92096270Y-103413876D01*
X92098072Y-103405104D01*
X92105548Y-103400176D01*
X92107727Y-103399965D01*
X92500000Y-103399000D01*
X92892269Y-103399965D01*
G37*
%TD.AperFunction*%
%TD*%
%TA.AperFunction,Conductor*%
%TO.N,Net-(Q3-D)*%
G36*
X71345709Y-100209916D02*
G01*
X71706698Y-100358482D01*
X71713044Y-100364800D01*
X71713059Y-100364835D01*
X71861496Y-100724148D01*
X71861487Y-100733103D01*
X71856119Y-100738975D01*
X71750877Y-100794210D01*
X71736497Y-100806948D01*
X71734309Y-100808479D01*
X71452606Y-100960978D01*
X71447036Y-100962389D01*
X70969097Y-100962389D01*
X70960824Y-100958962D01*
X70957397Y-100950689D01*
X70958674Y-100945375D01*
X71330835Y-100215421D01*
X71337644Y-100209609D01*
X71345709Y-100209916D01*
G37*
%TD.AperFunction*%
%TD*%
%TA.AperFunction,Conductor*%
%TO.N,Net-(Q3-D)*%
G36*
X92995435Y-125786521D02*
G01*
X93282428Y-125995905D01*
X93503544Y-126157226D01*
X93508208Y-126164871D01*
X93506100Y-126173574D01*
X93504921Y-126174951D01*
X93373151Y-126306721D01*
X93367832Y-126309769D01*
X92865376Y-126440897D01*
X92856506Y-126439670D01*
X92851617Y-126434064D01*
X92743431Y-126173574D01*
X92702301Y-126074542D01*
X92702293Y-126065588D01*
X92704851Y-126061765D01*
X92980289Y-125787680D01*
X92988569Y-125784274D01*
X92995435Y-125786521D01*
G37*
%TD.AperFunction*%
%TD*%
%TA.AperFunction,Conductor*%
%TO.N,Net-(U2-TEMP)*%
G36*
X72564667Y-95951021D02*
G01*
X72570985Y-95957367D01*
X72570965Y-95966320D01*
X72304600Y-96605600D01*
X72298255Y-96611919D01*
X72293800Y-96612800D01*
X72106200Y-96612800D01*
X72097927Y-96609373D01*
X72095400Y-96605600D01*
X71829034Y-95966320D01*
X71829015Y-95957365D01*
X71835330Y-95951022D01*
X72195499Y-95800875D01*
X72204449Y-95800855D01*
X72564667Y-95951021D01*
G37*
%TD.AperFunction*%
%TD*%
%TA.AperFunction,Conductor*%
%TO.N,Net-(U2-TEMP)*%
G36*
X70002073Y-100590627D02*
G01*
X70004600Y-100594400D01*
X70270965Y-101233679D01*
X70270984Y-101242634D01*
X70264667Y-101248978D01*
X69904502Y-101399123D01*
X69895547Y-101399143D01*
X69895516Y-101399130D01*
X69895498Y-101399123D01*
X69535332Y-101248978D01*
X69529014Y-101242632D01*
X69529034Y-101233679D01*
X69795400Y-100594400D01*
X69801745Y-100588081D01*
X69806200Y-100587200D01*
X69993800Y-100587200D01*
X70002073Y-100590627D01*
G37*
%TD.AperFunction*%
%TD*%
%TA.AperFunction,Conductor*%
%TO.N,/SDA*%
G36*
X99606935Y-128104216D02*
G01*
X99610362Y-128112489D01*
X99609868Y-128115853D01*
X99389844Y-128848753D01*
X99384183Y-128855692D01*
X99375274Y-128856595D01*
X99374185Y-128856209D01*
X99015166Y-128708454D01*
X99008820Y-128702136D01*
X98859611Y-128340954D01*
X98859620Y-128332001D01*
X98865956Y-128325676D01*
X99382824Y-128112489D01*
X99409047Y-128101673D01*
X99413508Y-128100789D01*
X99598662Y-128100789D01*
X99606935Y-128104216D01*
G37*
%TD.AperFunction*%
%TD*%
%TA.AperFunction,Conductor*%
%TO.N,/SDA*%
G36*
X100519223Y-114624970D02*
G01*
X100527488Y-114628417D01*
X100530894Y-114636699D01*
X100530883Y-114637166D01*
X100502076Y-115315828D01*
X100498302Y-115323949D01*
X100490387Y-115327032D01*
X100302890Y-115327032D01*
X100295063Y-115324029D01*
X99846783Y-114920603D01*
X99842926Y-114912521D01*
X99845913Y-114904079D01*
X99846307Y-114903662D01*
X100121561Y-114627450D01*
X100129823Y-114624011D01*
X100519223Y-114624970D01*
G37*
%TD.AperFunction*%
%TD*%
%TA.AperFunction,Conductor*%
%TO.N,/SCL*%
G36*
X99306226Y-126152211D02*
G01*
X99309999Y-126154738D01*
X99442652Y-126287391D01*
X99446079Y-126295664D01*
X99445198Y-126300119D01*
X99360041Y-126506926D01*
X99357495Y-126510744D01*
X99268491Y-126599749D01*
X99268487Y-126599754D01*
X99228296Y-126669366D01*
X99228294Y-126669370D01*
X99207490Y-126747014D01*
X99207490Y-126875094D01*
X99206609Y-126879549D01*
X99181509Y-126940506D01*
X99175190Y-126946851D01*
X99166237Y-126946871D01*
X98805393Y-126798364D01*
X98799047Y-126792046D01*
X98799026Y-126791997D01*
X98748558Y-126669370D01*
X98650519Y-126431153D01*
X98650540Y-126422198D01*
X98656884Y-126415881D01*
X98664488Y-126412750D01*
X98668787Y-126410981D01*
X98673241Y-126410100D01*
X98674079Y-126410100D01*
X98674080Y-126410100D01*
X98817933Y-126374643D01*
X98949122Y-126305790D01*
X98969249Y-126287958D01*
X98972536Y-126285907D01*
X99297273Y-126152192D01*
X99306226Y-126152211D01*
G37*
%TD.AperFunction*%
%TD*%
%TA.AperFunction,Conductor*%
%TO.N,/SCL*%
G36*
X99619479Y-113451021D02*
G01*
X99625797Y-113457367D01*
X99625777Y-113466320D01*
X99359412Y-114105600D01*
X99353067Y-114111919D01*
X99348612Y-114112800D01*
X99161012Y-114112800D01*
X99152739Y-114109373D01*
X99150212Y-114105600D01*
X98883846Y-113466320D01*
X98883827Y-113457365D01*
X98890142Y-113451022D01*
X99250311Y-113300875D01*
X99259261Y-113300855D01*
X99619479Y-113451021D01*
G37*
%TD.AperFunction*%
%TD*%
%TA.AperFunction,Conductor*%
%TO.N,Net-(R28-Pad1)*%
G36*
X92334268Y-150108602D02*
G01*
X92912290Y-150432980D01*
X92917828Y-150440017D01*
X92917377Y-150447652D01*
X92732995Y-150893753D01*
X92726668Y-150900090D01*
X92722159Y-150900984D01*
X92240275Y-150900020D01*
X92232008Y-150896577D01*
X92228694Y-150889809D01*
X92130091Y-150120293D01*
X92132438Y-150111651D01*
X92140209Y-150107201D01*
X92141696Y-150107106D01*
X92328543Y-150107106D01*
X92334268Y-150108602D01*
G37*
%TD.AperFunction*%
%TD*%
%TA.AperFunction,Conductor*%
%TO.N,Net-(R28-Pad1)*%
G36*
X93510758Y-127312166D02*
G01*
X93517104Y-127318484D01*
X93517125Y-127318533D01*
X93665632Y-127679377D01*
X93665611Y-127688332D01*
X93659267Y-127694649D01*
X93018880Y-127958338D01*
X93009925Y-127958319D01*
X93006152Y-127955792D01*
X92873499Y-127823139D01*
X92870072Y-127814866D01*
X92870952Y-127810415D01*
X93134643Y-127170022D01*
X93140961Y-127163679D01*
X93149914Y-127163659D01*
X93510758Y-127312166D01*
G37*
%TD.AperFunction*%
%TD*%
M02*
