M48
; DRILL file {KiCad 8.0.6} date 2024-11-04T21:33:30+0530
; FORMAT={-:-/ absolute / metric / decimal}
; #@! TF.CreationDate,2024-11-04T21:33:30+05:30
; #@! TF.GenerationSoftware,Kicad,Pcbnew,8.0.6
; #@! TF.FileFunction,Plated,1,4,PTH
FMAT,2
METRIC
; #@! TA.AperFunction,Plated,PTH,ViaDrill
T1C0.406
; #@! TA.AperFunction,Plated,PTH,ComponentDrill
T2C0.500
; #@! TA.AperFunction,Plated,PTH,ComponentDrill
T3C0.650
; #@! TA.AperFunction,Plated,PTH,ComponentDrill
T4C0.750
; #@! TA.AperFunction,Plated,PTH,ComponentDrill
T5C1.200
; #@! TA.AperFunction,Plated,PTH,ComponentDrill
T6C1.500
%
G90
G05
T1
X63.5Y-101.6
X63.5Y-160.8
X63.6Y-150.3
X64.7Y-109.0
X64.7Y-118.8
X65.95Y-133.0
X66.7Y-163.2
X67.2Y-164.3
X68.5Y-169.0
X68.639Y-103.071
X69.3Y-93.0
X69.3Y-102.3
X69.5Y-169.9
X69.9Y-101.4
X70.3Y-105.5
X70.4Y-173.3
X70.5Y-170.8
X70.6Y-91.2
X70.6Y-93.0
X70.6Y-117.1
X70.75Y-142.3
X70.8Y-88.8
X70.968Y-166.275
X71.479Y-163.987
X71.6Y-92.1
X71.6Y-165.2
X71.711Y-100.361
X72.1Y-101.3
X72.1Y-118.8
X72.1Y-139.8
X72.2Y-95.8
X72.401Y-91.21
X72.425Y-92.99
X72.5Y-167.8
X72.8Y-168.8
X74.7Y-95.9
X76.3Y-91.3
X76.3Y-92.9
X76.9Y-87.9
X76.9Y-167.4
X77.1Y-92.1
X77.2Y-77.6
X78.344Y-97.789
X78.497Y-95.935
X78.528Y-92.122
X78.9Y-88.2
X78.984Y-97.0
X79.0Y-75.1
X79.2Y-93.6
X80.0Y-74.0
X80.6Y-90.5
X82.0Y-73.6
X82.0Y-78.0
X82.0Y-79.3
X82.25Y-82.4
X83.2Y-171.3
X83.8Y-91.4
X83.907Y-89.792
X84.0Y-74.0
X85.0Y-75.1
X85.0Y-97.7
X85.5Y-91.0
X85.75Y-96.9
X85.8Y-83.6
X86.3Y-94.6
X87.1Y-80.4
X87.8Y-85.3
X89.049Y-96.252
X89.165Y-94.844
X90.0Y-169.9
X90.7Y-167.4
X91.5Y-173.7
X91.579Y-96.213
X91.7Y-94.9
X91.813Y-115.8
X91.9Y-100.6
X91.9Y-127.6
X92.0Y-152.1
X92.5Y-103.4
X92.7Y-126.068
X93.2Y-119.5
X93.515Y-127.315
X93.9Y-154.1
X93.947Y-106.215
X94.075Y-140.5
X94.1Y-113.1
X94.175Y-137.3
X94.175Y-139.2
X94.772Y-103.928
X94.8Y-99.4
X94.828Y-154.513
X95.675Y-137.0
X95.8Y-139.659
X95.839Y-154.614
X96.0Y-91.0
X96.17Y-142.601
X97.375Y-140.0
X97.4Y-137.01
X97.475Y-139.0
X97.5Y-122.5
X97.575Y-141.0
X97.662Y-129.162
X97.7Y-94.9
X98.111Y-128.233
X98.2Y-116.1
X98.266Y-118.443
X98.6Y-125.8
X98.8Y-121.6
X98.802Y-126.796
X99.011Y-128.706
X99.255Y-113.3
X99.35Y-144.15
X99.5Y-145.219
X99.77Y-146.408
X100.125Y-114.625
X100.4Y-99.7
X100.4Y-110.0
X100.4Y-153.8
X100.4Y-161.0
X100.5Y-127.0
X100.5Y-147.7
T2
X92.73Y-150.9
X95.1Y-127.6
X95.27Y-150.9
X96.35Y-127.6
T4
X87.5Y-89.5
X87.5Y-91.5
T5
X91.1Y-90.2
T6
X96.4Y-102.7
X96.4Y-105.24
X98.94Y-103.97
X98.94Y-106.51
T3
G00X77.68Y-72.65
M15
G01X77.68Y-72.05
M16
G05
G00X77.68Y-76.45
M15
G01X77.68Y-75.85
M16
G05
G00X86.32Y-72.65
M15
G01X86.32Y-72.05
M16
G05
G00X86.32Y-76.45
M15
G01X86.32Y-75.85
M16
G05
M30
