%TF.GenerationSoftware,KiCad,Pcbnew,8.0.6*%
%TF.CreationDate,2024-11-04T21:33:26+05:30*%
%TF.ProjectId,Berrythe,42657272-7974-4686-952e-6b696361645f,rev?*%
%TF.SameCoordinates,Original*%
%TF.FileFunction,Soldermask,Top*%
%TF.FilePolarity,Negative*%
%FSLAX46Y46*%
G04 Gerber Fmt 4.6, Leading zero omitted, Abs format (unit mm)*
G04 Created by KiCad (PCBNEW 8.0.6) date 2024-11-04 21:33:26*
%MOMM*%
%LPD*%
G01*
G04 APERTURE LIST*
G04 Aperture macros list*
%AMRoundRect*
0 Rectangle with rounded corners*
0 $1 Rounding radius*
0 $2 $3 $4 $5 $6 $7 $8 $9 X,Y pos of 4 corners*
0 Add a 4 corners polygon primitive as box body*
4,1,4,$2,$3,$4,$5,$6,$7,$8,$9,$2,$3,0*
0 Add four circle primitives for the rounded corners*
1,1,$1+$1,$2,$3*
1,1,$1+$1,$4,$5*
1,1,$1+$1,$6,$7*
1,1,$1+$1,$8,$9*
0 Add four rect primitives between the rounded corners*
20,1,$1+$1,$2,$3,$4,$5,0*
20,1,$1+$1,$4,$5,$6,$7,0*
20,1,$1+$1,$6,$7,$8,$9,0*
20,1,$1+$1,$8,$9,$2,$3,0*%
G04 Aperture macros list end*
%ADD10C,2.200000*%
%ADD11C,2.600000*%
%ADD12C,2.136000*%
%ADD13R,2.200000X2.200000*%
%ADD14R,1.250000X2.200000*%
%ADD15RoundRect,0.135000X0.185000X-0.135000X0.185000X0.135000X-0.185000X0.135000X-0.185000X-0.135000X0*%
%ADD16RoundRect,0.135000X-0.135000X-0.185000X0.135000X-0.185000X0.135000X0.185000X-0.135000X0.185000X0*%
%ADD17R,1.100000X2.000000*%
%ADD18RoundRect,0.100000X0.100000X-0.637500X0.100000X0.637500X-0.100000X0.637500X-0.100000X-0.637500X0*%
%ADD19RoundRect,0.140000X0.140000X0.170000X-0.140000X0.170000X-0.140000X-0.170000X0.140000X-0.170000X0*%
%ADD20RoundRect,0.250000X-0.262500X-0.450000X0.262500X-0.450000X0.262500X0.450000X-0.262500X0.450000X0*%
%ADD21RoundRect,0.070000X-0.355000X0.070000X-0.355000X-0.070000X0.355000X-0.070000X0.355000X0.070000X0*%
%ADD22RoundRect,0.070000X-0.305000X0.070000X-0.305000X-0.070000X0.305000X-0.070000X0.305000X0.070000X0*%
%ADD23RoundRect,0.135000X-0.185000X0.135000X-0.185000X-0.135000X0.185000X-0.135000X0.185000X0.135000X0*%
%ADD24C,2.700000*%
%ADD25RoundRect,0.140000X-0.140000X-0.170000X0.140000X-0.170000X0.140000X0.170000X-0.140000X0.170000X0*%
%ADD26RoundRect,0.150000X0.587500X0.150000X-0.587500X0.150000X-0.587500X-0.150000X0.587500X-0.150000X0*%
%ADD27RoundRect,0.250000X-0.450000X0.262500X-0.450000X-0.262500X0.450000X-0.262500X0.450000X0.262500X0*%
%ADD28RoundRect,0.218750X-0.218750X-0.256250X0.218750X-0.256250X0.218750X0.256250X-0.218750X0.256250X0*%
%ADD29RoundRect,0.135000X0.135000X0.185000X-0.135000X0.185000X-0.135000X-0.185000X0.135000X-0.185000X0*%
%ADD30R,1.000000X1.000000*%
%ADD31R,0.302473X0.931065*%
%ADD32R,2.400000X1.500000*%
%ADD33RoundRect,0.150000X0.150000X-0.825000X0.150000X0.825000X-0.150000X0.825000X-0.150000X-0.825000X0*%
%ADD34R,3.300000X2.410000*%
%ADD35RoundRect,0.250000X0.450000X-0.262500X0.450000X0.262500X-0.450000X0.262500X-0.450000X-0.262500X0*%
%ADD36RoundRect,0.250000X-0.475000X0.250000X-0.475000X-0.250000X0.475000X-0.250000X0.475000X0.250000X0*%
%ADD37RoundRect,0.140000X-0.170000X0.140000X-0.170000X-0.140000X0.170000X-0.140000X0.170000X0.140000X0*%
%ADD38C,2.500000*%
%ADD39RoundRect,0.150000X-0.150000X0.587500X-0.150000X-0.587500X0.150000X-0.587500X0.150000X0.587500X0*%
%ADD40RoundRect,0.250000X0.262500X0.450000X-0.262500X0.450000X-0.262500X-0.450000X0.262500X-0.450000X0*%
%ADD41RoundRect,0.250000X0.475000X-0.250000X0.475000X0.250000X-0.475000X0.250000X-0.475000X-0.250000X0*%
%ADD42RoundRect,0.150000X-0.587500X-0.150000X0.587500X-0.150000X0.587500X0.150000X-0.587500X0.150000X0*%
%ADD43RoundRect,0.250000X-0.625000X0.312500X-0.625000X-0.312500X0.625000X-0.312500X0.625000X0.312500X0*%
%ADD44RoundRect,0.102000X0.350000X0.600000X-0.350000X0.600000X-0.350000X-0.600000X0.350000X-0.600000X0*%
%ADD45RoundRect,0.102000X0.380000X0.600000X-0.380000X0.600000X-0.380000X-0.600000X0.380000X-0.600000X0*%
%ADD46RoundRect,0.102000X0.400000X0.600000X-0.400000X0.600000X-0.400000X-0.600000X0.400000X-0.600000X0*%
%ADD47O,1.354000X1.954000*%
%ADD48RoundRect,0.200000X-0.200000X-0.275000X0.200000X-0.275000X0.200000X0.275000X-0.200000X0.275000X0*%
%ADD49RoundRect,0.218750X0.218750X0.256250X-0.218750X0.256250X-0.218750X-0.256250X0.218750X-0.256250X0*%
%ADD50C,1.000000*%
%ADD51RoundRect,0.150000X-0.512500X-0.150000X0.512500X-0.150000X0.512500X0.150000X-0.512500X0.150000X0*%
%ADD52RoundRect,0.125000X0.125000X0.225000X-0.125000X0.225000X-0.125000X-0.225000X0.125000X-0.225000X0*%
%ADD53RoundRect,0.250000X-0.250000X-0.400000X0.250000X-0.400000X0.250000X0.400000X-0.250000X0.400000X0*%
%ADD54O,1.000000X1.300000*%
%ADD55RoundRect,0.250000X0.625000X-0.350000X0.625000X0.350000X-0.625000X0.350000X-0.625000X-0.350000X0*%
%ADD56O,1.750000X1.200000*%
G04 APERTURE END LIST*
D10*
%TO.C,J4*%
X96400000Y-107740000D03*
D11*
X98940000Y-101470000D03*
D12*
X96400000Y-102700000D03*
X98940000Y-103970000D03*
X96400000Y-105240000D03*
X98940000Y-106510000D03*
%TD*%
D13*
%TO.C,D5*%
X67100000Y-121000000D03*
D14*
X69375000Y-121000000D03*
%TD*%
D15*
%TO.C,R4*%
X84600000Y-92010000D03*
X84600000Y-90990000D03*
%TD*%
D16*
%TO.C,R10*%
X79915000Y-78800000D03*
X80935000Y-78800000D03*
%TD*%
D13*
%TO.C,D8*%
X95100000Y-145000000D03*
D14*
X97375000Y-145000000D03*
%TD*%
D17*
%TO.C,D9*%
X66300000Y-135400000D03*
X68000000Y-135400000D03*
X69700000Y-135400000D03*
X69700000Y-130600000D03*
X68000000Y-130600000D03*
X66300000Y-130600000D03*
%TD*%
D15*
%TO.C,R14*%
X96900000Y-124610000D03*
X96900000Y-123590000D03*
%TD*%
D18*
%TO.C,U4*%
X94275000Y-117262500D03*
X94925000Y-117262500D03*
X95575000Y-117262500D03*
X96225000Y-117262500D03*
X96875000Y-117262500D03*
X97525000Y-117262500D03*
X98175000Y-117262500D03*
X98825000Y-117262500D03*
X99475000Y-117262500D03*
X100125000Y-117262500D03*
X100125000Y-111537500D03*
X99475000Y-111537500D03*
X98825000Y-111537500D03*
X98175000Y-111537500D03*
X97525000Y-111537500D03*
X96875000Y-111537500D03*
X96225000Y-111537500D03*
X95575000Y-111537500D03*
X94925000Y-111537500D03*
X94275000Y-111537500D03*
%TD*%
D16*
%TO.C,R13*%
X98700000Y-119800000D03*
X99720000Y-119800000D03*
%TD*%
D19*
%TO.C,C13*%
X93180000Y-114200000D03*
X92220000Y-114200000D03*
%TD*%
D16*
%TO.C,R6*%
X83090000Y-81600000D03*
X84110000Y-81600000D03*
%TD*%
D15*
%TO.C,R12*%
X70300000Y-104810000D03*
X70300000Y-103790000D03*
%TD*%
D20*
%TO.C,R16*%
X80387500Y-94000000D03*
X82212500Y-94000000D03*
%TD*%
D21*
%TO.C,U1*%
X80600000Y-83650000D03*
D22*
X80550000Y-84150000D03*
X80550000Y-84650000D03*
X81700000Y-84650000D03*
X81700000Y-84150000D03*
X81700000Y-83650000D03*
%TD*%
D15*
%TO.C,R29*%
X95900000Y-124610000D03*
X95900000Y-123590000D03*
%TD*%
D23*
%TO.C,R36*%
X84600000Y-88990000D03*
X84600000Y-90010000D03*
%TD*%
D24*
%TO.C,H3*%
X65000000Y-158000000D03*
%TD*%
D25*
%TO.C,C5*%
X94620000Y-142300000D03*
X95580000Y-142300000D03*
%TD*%
D26*
%TO.C,Q2*%
X82800000Y-87950000D03*
X82800000Y-86050000D03*
X80925000Y-87000000D03*
%TD*%
D27*
%TO.C,R39*%
X98800000Y-137487500D03*
X98800000Y-139312500D03*
%TD*%
D28*
%TO.C,D2*%
X79612500Y-80300000D03*
X81187500Y-80300000D03*
%TD*%
D17*
%TO.C,D10*%
X94300000Y-135400000D03*
X96000000Y-135400000D03*
X97700000Y-135400000D03*
X97700000Y-130600000D03*
X96000000Y-130600000D03*
X94300000Y-130600000D03*
%TD*%
D29*
%TO.C,R9*%
X74210000Y-96300000D03*
X73190000Y-96300000D03*
%TD*%
D15*
%TO.C,R7*%
X69000000Y-101110000D03*
X69000000Y-100090000D03*
%TD*%
D25*
%TO.C,C8*%
X96820000Y-118800000D03*
X97780000Y-118800000D03*
%TD*%
D27*
%TO.C,R38*%
X69700000Y-137687500D03*
X69700000Y-139512500D03*
%TD*%
D19*
%TO.C,C7*%
X99717500Y-118800000D03*
X98757500Y-118800000D03*
%TD*%
D13*
%TO.C,D4*%
X81100000Y-169000000D03*
D14*
X83375000Y-169000000D03*
%TD*%
D30*
%TO.C,TP3*%
X99950000Y-130650000D03*
%TD*%
D19*
%TO.C,C11*%
X94000000Y-118800000D03*
X93040000Y-118800000D03*
%TD*%
D16*
%TO.C,R24*%
X93090000Y-109900000D03*
X94110000Y-109900000D03*
%TD*%
D31*
%TO.C,U3*%
X94825001Y-141150000D03*
X95474999Y-141150000D03*
X96125001Y-141150000D03*
X96774999Y-141150000D03*
X96774999Y-138168934D03*
X96125001Y-138168934D03*
X95474999Y-138168934D03*
X94825001Y-138168934D03*
D32*
X95800000Y-139659467D03*
%TD*%
D29*
%TO.C,R8*%
X80910000Y-81600000D03*
X79890000Y-81600000D03*
%TD*%
%TO.C,R33*%
X93910000Y-128200000D03*
X92890000Y-128200000D03*
%TD*%
D30*
%TO.C,TP2*%
X99500000Y-133500000D03*
%TD*%
D33*
%TO.C,U2*%
X72495000Y-94575000D03*
X73765000Y-94575000D03*
X75035000Y-94575000D03*
X76305000Y-94575000D03*
X76305000Y-89625000D03*
X75035000Y-89625000D03*
X73765000Y-89625000D03*
X72495000Y-89625000D03*
D34*
X74400000Y-92100000D03*
%TD*%
D35*
%TO.C,R18*%
X67100000Y-125512500D03*
X67100000Y-123687500D03*
%TD*%
D16*
%TO.C,R25*%
X92790000Y-108900000D03*
X93810000Y-108900000D03*
%TD*%
D24*
%TO.C,H1*%
X68800000Y-96200000D03*
%TD*%
D19*
%TO.C,C14*%
X76080000Y-96300000D03*
X75120000Y-96300000D03*
%TD*%
D15*
%TO.C,R15*%
X97900000Y-124610000D03*
X97900000Y-123590000D03*
%TD*%
D36*
%TO.C,C6*%
X99500000Y-123150000D03*
X99500000Y-125050000D03*
%TD*%
D24*
%TO.C,H4*%
X95000000Y-96200000D03*
%TD*%
D37*
%TO.C,C3*%
X82825000Y-83770000D03*
X82825000Y-84730000D03*
%TD*%
D29*
%TO.C,R2*%
X85010000Y-83700000D03*
X83990000Y-83700000D03*
%TD*%
D19*
%TO.C,C10*%
X90680000Y-94350000D03*
X89720000Y-94350000D03*
%TD*%
D38*
%TO.C,TP1*%
X91100000Y-90200000D03*
%TD*%
D39*
%TO.C,Q3*%
X94000000Y-102062500D03*
X92100000Y-102062500D03*
X93050000Y-103937500D03*
%TD*%
D35*
%TO.C,R19*%
X67100000Y-149412500D03*
X67100000Y-147587500D03*
%TD*%
D37*
%TO.C,C12*%
X93175000Y-112320000D03*
X93175000Y-113280000D03*
%TD*%
D15*
%TO.C,R28*%
X94900000Y-124610000D03*
X94900000Y-123590000D03*
%TD*%
D23*
%TO.C,R35*%
X93700000Y-106890000D03*
X93700000Y-107910000D03*
%TD*%
D13*
%TO.C,D6*%
X67100000Y-145000000D03*
D14*
X69375000Y-145000000D03*
%TD*%
D40*
%TO.C,R21*%
X97800000Y-147600000D03*
X95975000Y-147600000D03*
%TD*%
D41*
%TO.C,C2*%
X78165000Y-94825000D03*
X78165000Y-92925000D03*
%TD*%
D37*
%TO.C,C9*%
X86400000Y-95570000D03*
X86400000Y-96530000D03*
%TD*%
D42*
%TO.C,Q1*%
X80925000Y-89550000D03*
X80925000Y-91450000D03*
X82800000Y-90500000D03*
%TD*%
D41*
%TO.C,C4*%
X93174999Y-141700000D03*
X93174999Y-139800000D03*
%TD*%
D15*
%TO.C,R5*%
X84300000Y-87410000D03*
X84300000Y-86390000D03*
%TD*%
D43*
%TO.C,R1*%
X77500000Y-79537500D03*
X77500000Y-82462500D03*
%TD*%
D36*
%TO.C,C1*%
X78165000Y-89375000D03*
X78165000Y-91275000D03*
%TD*%
D44*
%TO.C,J1*%
X82500000Y-76230000D03*
D45*
X80480000Y-76230000D03*
D46*
X79250000Y-76230000D03*
D44*
X81500000Y-76230000D03*
D45*
X83520000Y-76230000D03*
D46*
X84750000Y-76230000D03*
D47*
X86320000Y-76150000D03*
X77680000Y-76150000D03*
X86320000Y-72350000D03*
X77680000Y-72350000D03*
%TD*%
D15*
%TO.C,R30*%
X91600000Y-97710000D03*
X91600000Y-96690000D03*
%TD*%
%TO.C,R34*%
X92200000Y-113310000D03*
X92200000Y-112290000D03*
%TD*%
D48*
%TO.C,TH1*%
X70375000Y-102500000D03*
X72025000Y-102500000D03*
%TD*%
D16*
%TO.C,R3*%
X86490000Y-86800000D03*
X87510000Y-86800000D03*
%TD*%
D29*
%TO.C,R27*%
X95910000Y-118800000D03*
X94890000Y-118800000D03*
%TD*%
D13*
%TO.C,D7*%
X95100000Y-121000000D03*
D14*
X97375000Y-121000000D03*
%TD*%
D23*
%TO.C,R26*%
X94000000Y-99390000D03*
X94000000Y-100410000D03*
%TD*%
%TO.C,R37*%
X85000000Y-93990000D03*
X85000000Y-95010000D03*
%TD*%
D16*
%TO.C,R22*%
X98490000Y-142400000D03*
X99510000Y-142400000D03*
%TD*%
D24*
%TO.C,H2*%
X99000000Y-158000000D03*
%TD*%
D49*
%TO.C,D1*%
X84387500Y-80300000D03*
X82812500Y-80300000D03*
%TD*%
D29*
%TO.C,R11*%
X84110000Y-78800000D03*
X83090000Y-78800000D03*
%TD*%
D50*
%TO.C,SW1*%
X92730000Y-150900000D03*
X95270000Y-150900000D03*
%TD*%
D29*
%TO.C,R31*%
X78010000Y-96300000D03*
X76990000Y-96300000D03*
%TD*%
D51*
%TO.C,U5*%
X87862500Y-95600000D03*
X87862500Y-96550000D03*
X87862500Y-97500000D03*
X90137500Y-97500000D03*
X90137500Y-95600000D03*
%TD*%
D52*
%TO.C,D11*%
X78800000Y-78000000D03*
X78000000Y-78000000D03*
%TD*%
D35*
%TO.C,R20*%
X93400000Y-125312500D03*
X93400000Y-123487500D03*
%TD*%
D15*
%TO.C,R32*%
X93100000Y-117820000D03*
X93100000Y-116800000D03*
%TD*%
D13*
%TO.C,D3*%
X81100000Y-97000000D03*
D14*
X83375000Y-97000000D03*
%TD*%
D35*
%TO.C,R17*%
X78700000Y-172212500D03*
X78700000Y-170387500D03*
%TD*%
D16*
%TO.C,R23*%
X98490000Y-141400000D03*
X99510000Y-141400000D03*
%TD*%
D53*
%TO.C,J3*%
X95100000Y-127600000D03*
D54*
X96350000Y-127600000D03*
%TD*%
D55*
%TO.C,BT1*%
X87500000Y-91500000D03*
D56*
X87500000Y-89500000D03*
%TD*%
M02*
