%TF.GenerationSoftware,KiCad,Pcbnew,8.0.6*%
%TF.CreationDate,2024-11-04T21:33:26+05:30*%
%TF.ProjectId,Berrythe,42657272-7974-4686-952e-6b696361645f,rev?*%
%TF.SameCoordinates,Original*%
%TF.FileFunction,Legend,Bot*%
%TF.FilePolarity,Positive*%
%FSLAX46Y46*%
G04 Gerber Fmt 4.6, Leading zero omitted, Abs format (unit mm)*
G04 Created by KiCad (PCBNEW 8.0.6) date 2024-11-04 21:33:26*
%MOMM*%
%LPD*%
G01*
G04 APERTURE LIST*
%ADD10C,0.180000*%
%ADD11C,0.120000*%
G04 APERTURE END LIST*
D10*
X96359999Y-119371482D02*
X96359999Y-119928625D01*
X96359999Y-119928625D02*
X96397142Y-120040054D01*
X96397142Y-120040054D02*
X96471428Y-120114340D01*
X96471428Y-120114340D02*
X96582856Y-120151482D01*
X96582856Y-120151482D02*
X96657142Y-120151482D01*
X96025713Y-119445768D02*
X95988570Y-119408625D01*
X95988570Y-119408625D02*
X95914285Y-119371482D01*
X95914285Y-119371482D02*
X95728570Y-119371482D01*
X95728570Y-119371482D02*
X95654285Y-119408625D01*
X95654285Y-119408625D02*
X95617142Y-119445768D01*
X95617142Y-119445768D02*
X95579999Y-119520054D01*
X95579999Y-119520054D02*
X95579999Y-119594340D01*
X95579999Y-119594340D02*
X95617142Y-119705768D01*
X95617142Y-119705768D02*
X96062856Y-120151482D01*
X96062856Y-120151482D02*
X95579999Y-120151482D01*
X95979999Y-130421482D02*
X95979999Y-130978625D01*
X95979999Y-130978625D02*
X96017142Y-131090054D01*
X96017142Y-131090054D02*
X96091428Y-131164340D01*
X96091428Y-131164340D02*
X96202856Y-131201482D01*
X96202856Y-131201482D02*
X96277142Y-131201482D01*
X95682856Y-130421482D02*
X95199999Y-130421482D01*
X95199999Y-130421482D02*
X95459999Y-130718625D01*
X95459999Y-130718625D02*
X95348570Y-130718625D01*
X95348570Y-130718625D02*
X95274285Y-130755768D01*
X95274285Y-130755768D02*
X95237142Y-130792911D01*
X95237142Y-130792911D02*
X95199999Y-130867197D01*
X95199999Y-130867197D02*
X95199999Y-131052911D01*
X95199999Y-131052911D02*
X95237142Y-131127197D01*
X95237142Y-131127197D02*
X95274285Y-131164340D01*
X95274285Y-131164340D02*
X95348570Y-131201482D01*
X95348570Y-131201482D02*
X95571427Y-131201482D01*
X95571427Y-131201482D02*
X95645713Y-131164340D01*
X95645713Y-131164340D02*
X95682856Y-131127197D01*
X85612856Y-86342911D02*
X85501428Y-86380054D01*
X85501428Y-86380054D02*
X85464285Y-86417197D01*
X85464285Y-86417197D02*
X85427142Y-86491482D01*
X85427142Y-86491482D02*
X85427142Y-86602911D01*
X85427142Y-86602911D02*
X85464285Y-86677197D01*
X85464285Y-86677197D02*
X85501428Y-86714340D01*
X85501428Y-86714340D02*
X85575713Y-86751482D01*
X85575713Y-86751482D02*
X85872856Y-86751482D01*
X85872856Y-86751482D02*
X85872856Y-85971482D01*
X85872856Y-85971482D02*
X85612856Y-85971482D01*
X85612856Y-85971482D02*
X85538571Y-86008625D01*
X85538571Y-86008625D02*
X85501428Y-86045768D01*
X85501428Y-86045768D02*
X85464285Y-86120054D01*
X85464285Y-86120054D02*
X85464285Y-86194340D01*
X85464285Y-86194340D02*
X85501428Y-86268625D01*
X85501428Y-86268625D02*
X85538571Y-86305768D01*
X85538571Y-86305768D02*
X85612856Y-86342911D01*
X85612856Y-86342911D02*
X85872856Y-86342911D01*
X85204285Y-85971482D02*
X84758571Y-85971482D01*
X84981428Y-86751482D02*
X84981428Y-85971482D01*
X84089999Y-86751482D02*
X84535713Y-86751482D01*
X84312856Y-86751482D02*
X84312856Y-85971482D01*
X84312856Y-85971482D02*
X84387142Y-86082911D01*
X84387142Y-86082911D02*
X84461427Y-86157197D01*
X84461427Y-86157197D02*
X84535713Y-86194340D01*
D11*
%TO.C,J2*%
X93890000Y-121665000D02*
X93890000Y-122965000D01*
X94940000Y-120825000D02*
X94940000Y-121665000D01*
X94940000Y-121665000D02*
X93890000Y-121665000D01*
X96940000Y-124885000D02*
X95060000Y-124885000D01*
X97060000Y-121665000D02*
X98110000Y-121665000D01*
X98110000Y-121665000D02*
X98110000Y-122965000D01*
%TO.C,J3*%
X93200000Y-127050000D02*
X93200000Y-126050000D01*
X93490000Y-126340000D02*
X93490000Y-129760000D01*
X93490000Y-129760000D02*
X97960000Y-129760000D01*
X93800000Y-127600000D02*
X94000000Y-127600000D01*
X93800000Y-128400000D02*
X93800000Y-127600000D01*
X94000000Y-126850000D02*
X95725000Y-126850000D01*
X94000000Y-127600000D02*
X94000000Y-126850000D01*
X94000000Y-128400000D02*
X93800000Y-128400000D01*
X94000000Y-129250000D02*
X94000000Y-128400000D01*
X94200000Y-126050000D02*
X93200000Y-126050000D01*
X95725000Y-129250000D02*
X94000000Y-129250000D01*
X95725000Y-129250000D02*
X97450000Y-129250000D01*
X97450000Y-126850000D02*
X95725000Y-126850000D01*
X97450000Y-127600000D02*
X97450000Y-126850000D01*
X97450000Y-128400000D02*
X97650000Y-128400000D01*
X97450000Y-129250000D02*
X97450000Y-128400000D01*
X97650000Y-127600000D02*
X97450000Y-127600000D01*
X97650000Y-128400000D02*
X97650000Y-127600000D01*
X97960000Y-126340000D02*
X93490000Y-126340000D01*
X97960000Y-129760000D02*
X97960000Y-126340000D01*
%TO.C,BT1*%
X81140000Y-87440000D02*
X81140000Y-93560000D01*
X81140000Y-90000000D02*
X85500000Y-90000000D01*
X81140000Y-91800000D02*
X83400000Y-91800000D01*
X81140000Y-92300000D02*
X83400000Y-92300000D01*
X81140000Y-93560000D02*
X88960000Y-93560000D01*
X83400000Y-88200000D02*
X85000000Y-88200000D01*
X83400000Y-89200000D02*
X83400000Y-88200000D01*
X83400000Y-91800000D02*
X83400000Y-92800000D01*
X83400000Y-92800000D02*
X85000000Y-92800000D01*
X85000000Y-88200000D02*
X85000000Y-89200000D01*
X85000000Y-89200000D02*
X83400000Y-89200000D01*
X85000000Y-91800000D02*
X83400000Y-91800000D01*
X85000000Y-92800000D02*
X85000000Y-91800000D01*
X85500000Y-90000000D02*
X85500000Y-91000000D01*
X85500000Y-91000000D02*
X81140000Y-91000000D01*
X87360000Y-88360000D02*
X87360000Y-87440000D01*
X87360000Y-88360000D02*
X88960000Y-88360000D01*
X87360000Y-88640000D02*
X87360000Y-88360000D01*
X87360000Y-92640000D02*
X87360000Y-92360000D01*
X87360000Y-92640000D02*
X87360000Y-93560000D01*
X88575000Y-92360000D02*
X87360000Y-92360000D01*
X88960000Y-87440000D02*
X81140000Y-87440000D01*
X88960000Y-88360000D02*
X88960000Y-87440000D01*
X88960000Y-92640000D02*
X87360000Y-92640000D01*
X88960000Y-93560000D02*
X88960000Y-92640000D01*
%TD*%
M02*
