%TF.GenerationSoftware,KiCad,Pcbnew,8.0.6*%
%TF.CreationDate,2024-11-04T21:33:26+05:30*%
%TF.ProjectId,Berrythe,42657272-7974-4686-952e-6b696361645f,rev?*%
%TF.SameCoordinates,Original*%
%TF.FileFunction,Legend,Top*%
%TF.FilePolarity,Positive*%
%FSLAX46Y46*%
G04 Gerber Fmt 4.6, Leading zero omitted, Abs format (unit mm)*
G04 Created by KiCad (PCBNEW 8.0.6) date 2024-11-04 21:33:26*
%MOMM*%
%LPD*%
G01*
G04 APERTURE LIST*
%ADD10C,0.100000*%
%ADD11C,0.200000*%
%ADD12C,0.152000*%
%ADD13C,0.120000*%
%ADD14C,0.150000*%
%ADD15C,0.127000*%
%ADD16C,0.000000*%
G04 APERTURE END LIST*
D10*
X91600000Y-120100000D02*
X93500000Y-120100000D01*
X93500000Y-120600000D01*
X91600000Y-120600000D01*
X91600000Y-120100000D01*
X93900000Y-119400000D02*
X93700000Y-119400000D01*
X93300000Y-120000000D02*
X93900000Y-119400000D01*
X93900000Y-119400000D02*
X93900000Y-119600000D01*
X92550000Y-120100000D02*
X92550000Y-120600000D01*
D11*
X97633465Y-167450627D02*
X97681084Y-167307770D01*
X97681084Y-167307770D02*
X97728703Y-167260151D01*
X97728703Y-167260151D02*
X97823941Y-167212532D01*
X97823941Y-167212532D02*
X97966798Y-167212532D01*
X97966798Y-167212532D02*
X98062036Y-167260151D01*
X98062036Y-167260151D02*
X98109656Y-167307770D01*
X98109656Y-167307770D02*
X98157275Y-167403008D01*
X98157275Y-167403008D02*
X98157275Y-167783960D01*
X98157275Y-167783960D02*
X97157275Y-167783960D01*
X97157275Y-167783960D02*
X97157275Y-167450627D01*
X97157275Y-167450627D02*
X97204894Y-167355389D01*
X97204894Y-167355389D02*
X97252513Y-167307770D01*
X97252513Y-167307770D02*
X97347751Y-167260151D01*
X97347751Y-167260151D02*
X97442989Y-167260151D01*
X97442989Y-167260151D02*
X97538227Y-167307770D01*
X97538227Y-167307770D02*
X97585846Y-167355389D01*
X97585846Y-167355389D02*
X97633465Y-167450627D01*
X97633465Y-167450627D02*
X97633465Y-167783960D01*
X98109656Y-166403008D02*
X98157275Y-166498246D01*
X98157275Y-166498246D02*
X98157275Y-166688722D01*
X98157275Y-166688722D02*
X98109656Y-166783960D01*
X98109656Y-166783960D02*
X98014417Y-166831579D01*
X98014417Y-166831579D02*
X97633465Y-166831579D01*
X97633465Y-166831579D02*
X97538227Y-166783960D01*
X97538227Y-166783960D02*
X97490608Y-166688722D01*
X97490608Y-166688722D02*
X97490608Y-166498246D01*
X97490608Y-166498246D02*
X97538227Y-166403008D01*
X97538227Y-166403008D02*
X97633465Y-166355389D01*
X97633465Y-166355389D02*
X97728703Y-166355389D01*
X97728703Y-166355389D02*
X97823941Y-166831579D01*
X98157275Y-165926817D02*
X97490608Y-165926817D01*
X97681084Y-165926817D02*
X97585846Y-165879198D01*
X97585846Y-165879198D02*
X97538227Y-165831579D01*
X97538227Y-165831579D02*
X97490608Y-165736341D01*
X97490608Y-165736341D02*
X97490608Y-165641103D01*
X98157275Y-165307769D02*
X97490608Y-165307769D01*
X97681084Y-165307769D02*
X97585846Y-165260150D01*
X97585846Y-165260150D02*
X97538227Y-165212531D01*
X97538227Y-165212531D02*
X97490608Y-165117293D01*
X97490608Y-165117293D02*
X97490608Y-165022055D01*
X97490608Y-164783959D02*
X98157275Y-164545864D01*
X97490608Y-164307769D02*
X98157275Y-164545864D01*
X98157275Y-164545864D02*
X98395370Y-164641102D01*
X98395370Y-164641102D02*
X98442989Y-164688721D01*
X98442989Y-164688721D02*
X98490608Y-164783959D01*
X97490608Y-164069673D02*
X97490608Y-163688721D01*
X97157275Y-163926816D02*
X98014417Y-163926816D01*
X98014417Y-163926816D02*
X98109656Y-163879197D01*
X98109656Y-163879197D02*
X98157275Y-163783959D01*
X98157275Y-163783959D02*
X98157275Y-163688721D01*
X98157275Y-163355387D02*
X97157275Y-163355387D01*
X98157275Y-162926816D02*
X97633465Y-162926816D01*
X97633465Y-162926816D02*
X97538227Y-162974435D01*
X97538227Y-162974435D02*
X97490608Y-163069673D01*
X97490608Y-163069673D02*
X97490608Y-163212530D01*
X97490608Y-163212530D02*
X97538227Y-163307768D01*
X97538227Y-163307768D02*
X97585846Y-163355387D01*
X98109656Y-162069673D02*
X98157275Y-162164911D01*
X98157275Y-162164911D02*
X98157275Y-162355387D01*
X98157275Y-162355387D02*
X98109656Y-162450625D01*
X98109656Y-162450625D02*
X98014417Y-162498244D01*
X98014417Y-162498244D02*
X97633465Y-162498244D01*
X97633465Y-162498244D02*
X97538227Y-162450625D01*
X97538227Y-162450625D02*
X97490608Y-162355387D01*
X97490608Y-162355387D02*
X97490608Y-162164911D01*
X97490608Y-162164911D02*
X97538227Y-162069673D01*
X97538227Y-162069673D02*
X97633465Y-162022054D01*
X97633465Y-162022054D02*
X97728703Y-162022054D01*
X97728703Y-162022054D02*
X97823941Y-162498244D01*
X98767219Y-164974434D02*
X99767219Y-164641101D01*
X99767219Y-164641101D02*
X98767219Y-164307768D01*
X99767219Y-163450625D02*
X99767219Y-164022053D01*
X99767219Y-163736339D02*
X98767219Y-163736339D01*
X98767219Y-163736339D02*
X98910076Y-163831577D01*
X98910076Y-163831577D02*
X99005314Y-163926815D01*
X99005314Y-163926815D02*
X99052933Y-164022053D01*
X99671980Y-163022053D02*
X99719600Y-162974434D01*
X99719600Y-162974434D02*
X99767219Y-163022053D01*
X99767219Y-163022053D02*
X99719600Y-163069672D01*
X99719600Y-163069672D02*
X99671980Y-163022053D01*
X99671980Y-163022053D02*
X99767219Y-163022053D01*
X98767219Y-162355387D02*
X98767219Y-162260149D01*
X98767219Y-162260149D02*
X98814838Y-162164911D01*
X98814838Y-162164911D02*
X98862457Y-162117292D01*
X98862457Y-162117292D02*
X98957695Y-162069673D01*
X98957695Y-162069673D02*
X99148171Y-162022054D01*
X99148171Y-162022054D02*
X99386266Y-162022054D01*
X99386266Y-162022054D02*
X99576742Y-162069673D01*
X99576742Y-162069673D02*
X99671980Y-162117292D01*
X99671980Y-162117292D02*
X99719600Y-162164911D01*
X99719600Y-162164911D02*
X99767219Y-162260149D01*
X99767219Y-162260149D02*
X99767219Y-162355387D01*
X99767219Y-162355387D02*
X99719600Y-162450625D01*
X99719600Y-162450625D02*
X99671980Y-162498244D01*
X99671980Y-162498244D02*
X99576742Y-162545863D01*
X99576742Y-162545863D02*
X99386266Y-162593482D01*
X99386266Y-162593482D02*
X99148171Y-162593482D01*
X99148171Y-162593482D02*
X98957695Y-162545863D01*
X98957695Y-162545863D02*
X98862457Y-162498244D01*
X98862457Y-162498244D02*
X98814838Y-162450625D01*
X98814838Y-162450625D02*
X98767219Y-162355387D01*
D12*
X96396666Y-100664293D02*
X96396666Y-101100007D01*
X96396666Y-101100007D02*
X96367619Y-101187150D01*
X96367619Y-101187150D02*
X96309523Y-101245246D01*
X96309523Y-101245246D02*
X96222381Y-101274293D01*
X96222381Y-101274293D02*
X96164285Y-101274293D01*
X96948571Y-100867626D02*
X96948571Y-101274293D01*
X96803333Y-100635246D02*
X96658095Y-101070960D01*
X96658095Y-101070960D02*
X97035714Y-101070960D01*
X70149762Y-121274293D02*
X70149762Y-120664293D01*
X70149762Y-120664293D02*
X70295000Y-120664293D01*
X70295000Y-120664293D02*
X70382143Y-120693341D01*
X70382143Y-120693341D02*
X70440238Y-120751436D01*
X70440238Y-120751436D02*
X70469285Y-120809531D01*
X70469285Y-120809531D02*
X70498333Y-120925722D01*
X70498333Y-120925722D02*
X70498333Y-121012865D01*
X70498333Y-121012865D02*
X70469285Y-121129055D01*
X70469285Y-121129055D02*
X70440238Y-121187150D01*
X70440238Y-121187150D02*
X70382143Y-121245246D01*
X70382143Y-121245246D02*
X70295000Y-121274293D01*
X70295000Y-121274293D02*
X70149762Y-121274293D01*
X71050238Y-120664293D02*
X70759762Y-120664293D01*
X70759762Y-120664293D02*
X70730714Y-120954769D01*
X70730714Y-120954769D02*
X70759762Y-120925722D01*
X70759762Y-120925722D02*
X70817857Y-120896674D01*
X70817857Y-120896674D02*
X70963095Y-120896674D01*
X70963095Y-120896674D02*
X71021190Y-120925722D01*
X71021190Y-120925722D02*
X71050238Y-120954769D01*
X71050238Y-120954769D02*
X71079285Y-121012865D01*
X71079285Y-121012865D02*
X71079285Y-121158103D01*
X71079285Y-121158103D02*
X71050238Y-121216198D01*
X71050238Y-121216198D02*
X71021190Y-121245246D01*
X71021190Y-121245246D02*
X70963095Y-121274293D01*
X70963095Y-121274293D02*
X70817857Y-121274293D01*
X70817857Y-121274293D02*
X70759762Y-121245246D01*
X70759762Y-121245246D02*
X70730714Y-121216198D01*
X85498333Y-92374293D02*
X85295000Y-92083817D01*
X85149762Y-92374293D02*
X85149762Y-91764293D01*
X85149762Y-91764293D02*
X85382143Y-91764293D01*
X85382143Y-91764293D02*
X85440238Y-91793341D01*
X85440238Y-91793341D02*
X85469285Y-91822388D01*
X85469285Y-91822388D02*
X85498333Y-91880484D01*
X85498333Y-91880484D02*
X85498333Y-91967626D01*
X85498333Y-91967626D02*
X85469285Y-92025722D01*
X85469285Y-92025722D02*
X85440238Y-92054769D01*
X85440238Y-92054769D02*
X85382143Y-92083817D01*
X85382143Y-92083817D02*
X85149762Y-92083817D01*
X86021190Y-91967626D02*
X86021190Y-92374293D01*
X85875952Y-91735246D02*
X85730714Y-92170960D01*
X85730714Y-92170960D02*
X86108333Y-92170960D01*
X80007857Y-78174293D02*
X79804524Y-77883817D01*
X79659286Y-78174293D02*
X79659286Y-77564293D01*
X79659286Y-77564293D02*
X79891667Y-77564293D01*
X79891667Y-77564293D02*
X79949762Y-77593341D01*
X79949762Y-77593341D02*
X79978809Y-77622388D01*
X79978809Y-77622388D02*
X80007857Y-77680484D01*
X80007857Y-77680484D02*
X80007857Y-77767626D01*
X80007857Y-77767626D02*
X79978809Y-77825722D01*
X79978809Y-77825722D02*
X79949762Y-77854769D01*
X79949762Y-77854769D02*
X79891667Y-77883817D01*
X79891667Y-77883817D02*
X79659286Y-77883817D01*
X80588809Y-78174293D02*
X80240238Y-78174293D01*
X80414524Y-78174293D02*
X80414524Y-77564293D01*
X80414524Y-77564293D02*
X80356428Y-77651436D01*
X80356428Y-77651436D02*
X80298333Y-77709531D01*
X80298333Y-77709531D02*
X80240238Y-77738579D01*
X80966428Y-77564293D02*
X81024523Y-77564293D01*
X81024523Y-77564293D02*
X81082619Y-77593341D01*
X81082619Y-77593341D02*
X81111666Y-77622388D01*
X81111666Y-77622388D02*
X81140714Y-77680484D01*
X81140714Y-77680484D02*
X81169761Y-77796674D01*
X81169761Y-77796674D02*
X81169761Y-77941912D01*
X81169761Y-77941912D02*
X81140714Y-78058103D01*
X81140714Y-78058103D02*
X81111666Y-78116198D01*
X81111666Y-78116198D02*
X81082619Y-78145246D01*
X81082619Y-78145246D02*
X81024523Y-78174293D01*
X81024523Y-78174293D02*
X80966428Y-78174293D01*
X80966428Y-78174293D02*
X80908333Y-78145246D01*
X80908333Y-78145246D02*
X80879285Y-78116198D01*
X80879285Y-78116198D02*
X80850238Y-78058103D01*
X80850238Y-78058103D02*
X80821190Y-77941912D01*
X80821190Y-77941912D02*
X80821190Y-77796674D01*
X80821190Y-77796674D02*
X80850238Y-77680484D01*
X80850238Y-77680484D02*
X80879285Y-77622388D01*
X80879285Y-77622388D02*
X80908333Y-77593341D01*
X80908333Y-77593341D02*
X80966428Y-77564293D01*
X92649762Y-145374293D02*
X92649762Y-144764293D01*
X92649762Y-144764293D02*
X92795000Y-144764293D01*
X92795000Y-144764293D02*
X92882143Y-144793341D01*
X92882143Y-144793341D02*
X92940238Y-144851436D01*
X92940238Y-144851436D02*
X92969285Y-144909531D01*
X92969285Y-144909531D02*
X92998333Y-145025722D01*
X92998333Y-145025722D02*
X92998333Y-145112865D01*
X92998333Y-145112865D02*
X92969285Y-145229055D01*
X92969285Y-145229055D02*
X92940238Y-145287150D01*
X92940238Y-145287150D02*
X92882143Y-145345246D01*
X92882143Y-145345246D02*
X92795000Y-145374293D01*
X92795000Y-145374293D02*
X92649762Y-145374293D01*
X93346904Y-145025722D02*
X93288809Y-144996674D01*
X93288809Y-144996674D02*
X93259762Y-144967626D01*
X93259762Y-144967626D02*
X93230714Y-144909531D01*
X93230714Y-144909531D02*
X93230714Y-144880484D01*
X93230714Y-144880484D02*
X93259762Y-144822388D01*
X93259762Y-144822388D02*
X93288809Y-144793341D01*
X93288809Y-144793341D02*
X93346904Y-144764293D01*
X93346904Y-144764293D02*
X93463095Y-144764293D01*
X93463095Y-144764293D02*
X93521190Y-144793341D01*
X93521190Y-144793341D02*
X93550238Y-144822388D01*
X93550238Y-144822388D02*
X93579285Y-144880484D01*
X93579285Y-144880484D02*
X93579285Y-144909531D01*
X93579285Y-144909531D02*
X93550238Y-144967626D01*
X93550238Y-144967626D02*
X93521190Y-144996674D01*
X93521190Y-144996674D02*
X93463095Y-145025722D01*
X93463095Y-145025722D02*
X93346904Y-145025722D01*
X93346904Y-145025722D02*
X93288809Y-145054769D01*
X93288809Y-145054769D02*
X93259762Y-145083817D01*
X93259762Y-145083817D02*
X93230714Y-145141912D01*
X93230714Y-145141912D02*
X93230714Y-145258103D01*
X93230714Y-145258103D02*
X93259762Y-145316198D01*
X93259762Y-145316198D02*
X93288809Y-145345246D01*
X93288809Y-145345246D02*
X93346904Y-145374293D01*
X93346904Y-145374293D02*
X93463095Y-145374293D01*
X93463095Y-145374293D02*
X93521190Y-145345246D01*
X93521190Y-145345246D02*
X93550238Y-145316198D01*
X93550238Y-145316198D02*
X93579285Y-145258103D01*
X93579285Y-145258103D02*
X93579285Y-145141912D01*
X93579285Y-145141912D02*
X93550238Y-145083817D01*
X93550238Y-145083817D02*
X93521190Y-145054769D01*
X93521190Y-145054769D02*
X93463095Y-145025722D01*
X64049762Y-133274293D02*
X64049762Y-132664293D01*
X64049762Y-132664293D02*
X64195000Y-132664293D01*
X64195000Y-132664293D02*
X64282143Y-132693341D01*
X64282143Y-132693341D02*
X64340238Y-132751436D01*
X64340238Y-132751436D02*
X64369285Y-132809531D01*
X64369285Y-132809531D02*
X64398333Y-132925722D01*
X64398333Y-132925722D02*
X64398333Y-133012865D01*
X64398333Y-133012865D02*
X64369285Y-133129055D01*
X64369285Y-133129055D02*
X64340238Y-133187150D01*
X64340238Y-133187150D02*
X64282143Y-133245246D01*
X64282143Y-133245246D02*
X64195000Y-133274293D01*
X64195000Y-133274293D02*
X64049762Y-133274293D01*
X64688809Y-133274293D02*
X64805000Y-133274293D01*
X64805000Y-133274293D02*
X64863095Y-133245246D01*
X64863095Y-133245246D02*
X64892143Y-133216198D01*
X64892143Y-133216198D02*
X64950238Y-133129055D01*
X64950238Y-133129055D02*
X64979285Y-133012865D01*
X64979285Y-133012865D02*
X64979285Y-132780484D01*
X64979285Y-132780484D02*
X64950238Y-132722388D01*
X64950238Y-132722388D02*
X64921190Y-132693341D01*
X64921190Y-132693341D02*
X64863095Y-132664293D01*
X64863095Y-132664293D02*
X64746904Y-132664293D01*
X64746904Y-132664293D02*
X64688809Y-132693341D01*
X64688809Y-132693341D02*
X64659762Y-132722388D01*
X64659762Y-132722388D02*
X64630714Y-132780484D01*
X64630714Y-132780484D02*
X64630714Y-132925722D01*
X64630714Y-132925722D02*
X64659762Y-132983817D01*
X64659762Y-132983817D02*
X64688809Y-133012865D01*
X64688809Y-133012865D02*
X64746904Y-133041912D01*
X64746904Y-133041912D02*
X64863095Y-133041912D01*
X64863095Y-133041912D02*
X64921190Y-133012865D01*
X64921190Y-133012865D02*
X64950238Y-132983817D01*
X64950238Y-132983817D02*
X64979285Y-132925722D01*
X97274293Y-126292142D02*
X96983817Y-126495475D01*
X97274293Y-126640713D02*
X96664293Y-126640713D01*
X96664293Y-126640713D02*
X96664293Y-126408332D01*
X96664293Y-126408332D02*
X96693341Y-126350237D01*
X96693341Y-126350237D02*
X96722388Y-126321190D01*
X96722388Y-126321190D02*
X96780484Y-126292142D01*
X96780484Y-126292142D02*
X96867626Y-126292142D01*
X96867626Y-126292142D02*
X96925722Y-126321190D01*
X96925722Y-126321190D02*
X96954769Y-126350237D01*
X96954769Y-126350237D02*
X96983817Y-126408332D01*
X96983817Y-126408332D02*
X96983817Y-126640713D01*
X97274293Y-125711190D02*
X97274293Y-126059761D01*
X97274293Y-125885475D02*
X96664293Y-125885475D01*
X96664293Y-125885475D02*
X96751436Y-125943571D01*
X96751436Y-125943571D02*
X96809531Y-126001666D01*
X96809531Y-126001666D02*
X96838579Y-126059761D01*
X96867626Y-125188333D02*
X97274293Y-125188333D01*
X96635246Y-125333571D02*
X97070960Y-125478809D01*
X97070960Y-125478809D02*
X97070960Y-125101190D01*
X97735238Y-109764293D02*
X97735238Y-110258103D01*
X97735238Y-110258103D02*
X97764285Y-110316198D01*
X97764285Y-110316198D02*
X97793333Y-110345246D01*
X97793333Y-110345246D02*
X97851428Y-110374293D01*
X97851428Y-110374293D02*
X97967619Y-110374293D01*
X97967619Y-110374293D02*
X98025714Y-110345246D01*
X98025714Y-110345246D02*
X98054761Y-110316198D01*
X98054761Y-110316198D02*
X98083809Y-110258103D01*
X98083809Y-110258103D02*
X98083809Y-109764293D01*
X98635714Y-109967626D02*
X98635714Y-110374293D01*
X98490476Y-109735246D02*
X98345238Y-110170960D01*
X98345238Y-110170960D02*
X98722857Y-110170960D01*
X98907857Y-120974293D02*
X98704524Y-120683817D01*
X98559286Y-120974293D02*
X98559286Y-120364293D01*
X98559286Y-120364293D02*
X98791667Y-120364293D01*
X98791667Y-120364293D02*
X98849762Y-120393341D01*
X98849762Y-120393341D02*
X98878809Y-120422388D01*
X98878809Y-120422388D02*
X98907857Y-120480484D01*
X98907857Y-120480484D02*
X98907857Y-120567626D01*
X98907857Y-120567626D02*
X98878809Y-120625722D01*
X98878809Y-120625722D02*
X98849762Y-120654769D01*
X98849762Y-120654769D02*
X98791667Y-120683817D01*
X98791667Y-120683817D02*
X98559286Y-120683817D01*
X99488809Y-120974293D02*
X99140238Y-120974293D01*
X99314524Y-120974293D02*
X99314524Y-120364293D01*
X99314524Y-120364293D02*
X99256428Y-120451436D01*
X99256428Y-120451436D02*
X99198333Y-120509531D01*
X99198333Y-120509531D02*
X99140238Y-120538579D01*
X99692142Y-120364293D02*
X100069761Y-120364293D01*
X100069761Y-120364293D02*
X99866428Y-120596674D01*
X99866428Y-120596674D02*
X99953571Y-120596674D01*
X99953571Y-120596674D02*
X100011666Y-120625722D01*
X100011666Y-120625722D02*
X100040714Y-120654769D01*
X100040714Y-120654769D02*
X100069761Y-120712865D01*
X100069761Y-120712865D02*
X100069761Y-120858103D01*
X100069761Y-120858103D02*
X100040714Y-120916198D01*
X100040714Y-120916198D02*
X100011666Y-120945246D01*
X100011666Y-120945246D02*
X99953571Y-120974293D01*
X99953571Y-120974293D02*
X99779285Y-120974293D01*
X99779285Y-120974293D02*
X99721190Y-120945246D01*
X99721190Y-120945246D02*
X99692142Y-120916198D01*
X92307857Y-115316198D02*
X92278809Y-115345246D01*
X92278809Y-115345246D02*
X92191667Y-115374293D01*
X92191667Y-115374293D02*
X92133571Y-115374293D01*
X92133571Y-115374293D02*
X92046428Y-115345246D01*
X92046428Y-115345246D02*
X91988333Y-115287150D01*
X91988333Y-115287150D02*
X91959286Y-115229055D01*
X91959286Y-115229055D02*
X91930238Y-115112865D01*
X91930238Y-115112865D02*
X91930238Y-115025722D01*
X91930238Y-115025722D02*
X91959286Y-114909531D01*
X91959286Y-114909531D02*
X91988333Y-114851436D01*
X91988333Y-114851436D02*
X92046428Y-114793341D01*
X92046428Y-114793341D02*
X92133571Y-114764293D01*
X92133571Y-114764293D02*
X92191667Y-114764293D01*
X92191667Y-114764293D02*
X92278809Y-114793341D01*
X92278809Y-114793341D02*
X92307857Y-114822388D01*
X92888809Y-115374293D02*
X92540238Y-115374293D01*
X92714524Y-115374293D02*
X92714524Y-114764293D01*
X92714524Y-114764293D02*
X92656428Y-114851436D01*
X92656428Y-114851436D02*
X92598333Y-114909531D01*
X92598333Y-114909531D02*
X92540238Y-114938579D01*
X93092142Y-114764293D02*
X93469761Y-114764293D01*
X93469761Y-114764293D02*
X93266428Y-114996674D01*
X93266428Y-114996674D02*
X93353571Y-114996674D01*
X93353571Y-114996674D02*
X93411666Y-115025722D01*
X93411666Y-115025722D02*
X93440714Y-115054769D01*
X93440714Y-115054769D02*
X93469761Y-115112865D01*
X93469761Y-115112865D02*
X93469761Y-115258103D01*
X93469761Y-115258103D02*
X93440714Y-115316198D01*
X93440714Y-115316198D02*
X93411666Y-115345246D01*
X93411666Y-115345246D02*
X93353571Y-115374293D01*
X93353571Y-115374293D02*
X93179285Y-115374293D01*
X93179285Y-115374293D02*
X93121190Y-115345246D01*
X93121190Y-115345246D02*
X93092142Y-115316198D01*
X84998333Y-81874293D02*
X84795000Y-81583817D01*
X84649762Y-81874293D02*
X84649762Y-81264293D01*
X84649762Y-81264293D02*
X84882143Y-81264293D01*
X84882143Y-81264293D02*
X84940238Y-81293341D01*
X84940238Y-81293341D02*
X84969285Y-81322388D01*
X84969285Y-81322388D02*
X84998333Y-81380484D01*
X84998333Y-81380484D02*
X84998333Y-81467626D01*
X84998333Y-81467626D02*
X84969285Y-81525722D01*
X84969285Y-81525722D02*
X84940238Y-81554769D01*
X84940238Y-81554769D02*
X84882143Y-81583817D01*
X84882143Y-81583817D02*
X84649762Y-81583817D01*
X85521190Y-81264293D02*
X85405000Y-81264293D01*
X85405000Y-81264293D02*
X85346904Y-81293341D01*
X85346904Y-81293341D02*
X85317857Y-81322388D01*
X85317857Y-81322388D02*
X85259762Y-81409531D01*
X85259762Y-81409531D02*
X85230714Y-81525722D01*
X85230714Y-81525722D02*
X85230714Y-81758103D01*
X85230714Y-81758103D02*
X85259762Y-81816198D01*
X85259762Y-81816198D02*
X85288809Y-81845246D01*
X85288809Y-81845246D02*
X85346904Y-81874293D01*
X85346904Y-81874293D02*
X85463095Y-81874293D01*
X85463095Y-81874293D02*
X85521190Y-81845246D01*
X85521190Y-81845246D02*
X85550238Y-81816198D01*
X85550238Y-81816198D02*
X85579285Y-81758103D01*
X85579285Y-81758103D02*
X85579285Y-81612865D01*
X85579285Y-81612865D02*
X85550238Y-81554769D01*
X85550238Y-81554769D02*
X85521190Y-81525722D01*
X85521190Y-81525722D02*
X85463095Y-81496674D01*
X85463095Y-81496674D02*
X85346904Y-81496674D01*
X85346904Y-81496674D02*
X85288809Y-81525722D01*
X85288809Y-81525722D02*
X85259762Y-81554769D01*
X85259762Y-81554769D02*
X85230714Y-81612865D01*
X71307857Y-104574293D02*
X71104524Y-104283817D01*
X70959286Y-104574293D02*
X70959286Y-103964293D01*
X70959286Y-103964293D02*
X71191667Y-103964293D01*
X71191667Y-103964293D02*
X71249762Y-103993341D01*
X71249762Y-103993341D02*
X71278809Y-104022388D01*
X71278809Y-104022388D02*
X71307857Y-104080484D01*
X71307857Y-104080484D02*
X71307857Y-104167626D01*
X71307857Y-104167626D02*
X71278809Y-104225722D01*
X71278809Y-104225722D02*
X71249762Y-104254769D01*
X71249762Y-104254769D02*
X71191667Y-104283817D01*
X71191667Y-104283817D02*
X70959286Y-104283817D01*
X71888809Y-104574293D02*
X71540238Y-104574293D01*
X71714524Y-104574293D02*
X71714524Y-103964293D01*
X71714524Y-103964293D02*
X71656428Y-104051436D01*
X71656428Y-104051436D02*
X71598333Y-104109531D01*
X71598333Y-104109531D02*
X71540238Y-104138579D01*
X72121190Y-104022388D02*
X72150238Y-103993341D01*
X72150238Y-103993341D02*
X72208333Y-103964293D01*
X72208333Y-103964293D02*
X72353571Y-103964293D01*
X72353571Y-103964293D02*
X72411666Y-103993341D01*
X72411666Y-103993341D02*
X72440714Y-104022388D01*
X72440714Y-104022388D02*
X72469761Y-104080484D01*
X72469761Y-104080484D02*
X72469761Y-104138579D01*
X72469761Y-104138579D02*
X72440714Y-104225722D01*
X72440714Y-104225722D02*
X72092142Y-104574293D01*
X72092142Y-104574293D02*
X72469761Y-104574293D01*
X81007857Y-93074293D02*
X80804524Y-92783817D01*
X80659286Y-93074293D02*
X80659286Y-92464293D01*
X80659286Y-92464293D02*
X80891667Y-92464293D01*
X80891667Y-92464293D02*
X80949762Y-92493341D01*
X80949762Y-92493341D02*
X80978809Y-92522388D01*
X80978809Y-92522388D02*
X81007857Y-92580484D01*
X81007857Y-92580484D02*
X81007857Y-92667626D01*
X81007857Y-92667626D02*
X80978809Y-92725722D01*
X80978809Y-92725722D02*
X80949762Y-92754769D01*
X80949762Y-92754769D02*
X80891667Y-92783817D01*
X80891667Y-92783817D02*
X80659286Y-92783817D01*
X81588809Y-93074293D02*
X81240238Y-93074293D01*
X81414524Y-93074293D02*
X81414524Y-92464293D01*
X81414524Y-92464293D02*
X81356428Y-92551436D01*
X81356428Y-92551436D02*
X81298333Y-92609531D01*
X81298333Y-92609531D02*
X81240238Y-92638579D01*
X82111666Y-92464293D02*
X81995476Y-92464293D01*
X81995476Y-92464293D02*
X81937380Y-92493341D01*
X81937380Y-92493341D02*
X81908333Y-92522388D01*
X81908333Y-92522388D02*
X81850238Y-92609531D01*
X81850238Y-92609531D02*
X81821190Y-92725722D01*
X81821190Y-92725722D02*
X81821190Y-92958103D01*
X81821190Y-92958103D02*
X81850238Y-93016198D01*
X81850238Y-93016198D02*
X81879285Y-93045246D01*
X81879285Y-93045246D02*
X81937380Y-93074293D01*
X81937380Y-93074293D02*
X82053571Y-93074293D01*
X82053571Y-93074293D02*
X82111666Y-93045246D01*
X82111666Y-93045246D02*
X82140714Y-93016198D01*
X82140714Y-93016198D02*
X82169761Y-92958103D01*
X82169761Y-92958103D02*
X82169761Y-92812865D01*
X82169761Y-92812865D02*
X82140714Y-92754769D01*
X82140714Y-92754769D02*
X82111666Y-92725722D01*
X82111666Y-92725722D02*
X82053571Y-92696674D01*
X82053571Y-92696674D02*
X81937380Y-92696674D01*
X81937380Y-92696674D02*
X81879285Y-92725722D01*
X81879285Y-92725722D02*
X81850238Y-92754769D01*
X81850238Y-92754769D02*
X81821190Y-92812865D01*
X78935238Y-84164293D02*
X78935238Y-84658103D01*
X78935238Y-84658103D02*
X78964285Y-84716198D01*
X78964285Y-84716198D02*
X78993333Y-84745246D01*
X78993333Y-84745246D02*
X79051428Y-84774293D01*
X79051428Y-84774293D02*
X79167619Y-84774293D01*
X79167619Y-84774293D02*
X79225714Y-84745246D01*
X79225714Y-84745246D02*
X79254761Y-84716198D01*
X79254761Y-84716198D02*
X79283809Y-84658103D01*
X79283809Y-84658103D02*
X79283809Y-84164293D01*
X79893809Y-84774293D02*
X79545238Y-84774293D01*
X79719524Y-84774293D02*
X79719524Y-84164293D01*
X79719524Y-84164293D02*
X79661428Y-84251436D01*
X79661428Y-84251436D02*
X79603333Y-84309531D01*
X79603333Y-84309531D02*
X79545238Y-84338579D01*
X96274293Y-126292142D02*
X95983817Y-126495475D01*
X96274293Y-126640713D02*
X95664293Y-126640713D01*
X95664293Y-126640713D02*
X95664293Y-126408332D01*
X95664293Y-126408332D02*
X95693341Y-126350237D01*
X95693341Y-126350237D02*
X95722388Y-126321190D01*
X95722388Y-126321190D02*
X95780484Y-126292142D01*
X95780484Y-126292142D02*
X95867626Y-126292142D01*
X95867626Y-126292142D02*
X95925722Y-126321190D01*
X95925722Y-126321190D02*
X95954769Y-126350237D01*
X95954769Y-126350237D02*
X95983817Y-126408332D01*
X95983817Y-126408332D02*
X95983817Y-126640713D01*
X95722388Y-126059761D02*
X95693341Y-126030713D01*
X95693341Y-126030713D02*
X95664293Y-125972618D01*
X95664293Y-125972618D02*
X95664293Y-125827380D01*
X95664293Y-125827380D02*
X95693341Y-125769285D01*
X95693341Y-125769285D02*
X95722388Y-125740237D01*
X95722388Y-125740237D02*
X95780484Y-125711190D01*
X95780484Y-125711190D02*
X95838579Y-125711190D01*
X95838579Y-125711190D02*
X95925722Y-125740237D01*
X95925722Y-125740237D02*
X96274293Y-126088809D01*
X96274293Y-126088809D02*
X96274293Y-125711190D01*
X96274293Y-125420714D02*
X96274293Y-125304523D01*
X96274293Y-125304523D02*
X96245246Y-125246428D01*
X96245246Y-125246428D02*
X96216198Y-125217380D01*
X96216198Y-125217380D02*
X96129055Y-125159285D01*
X96129055Y-125159285D02*
X96012865Y-125130238D01*
X96012865Y-125130238D02*
X95780484Y-125130238D01*
X95780484Y-125130238D02*
X95722388Y-125159285D01*
X95722388Y-125159285D02*
X95693341Y-125188333D01*
X95693341Y-125188333D02*
X95664293Y-125246428D01*
X95664293Y-125246428D02*
X95664293Y-125362619D01*
X95664293Y-125362619D02*
X95693341Y-125420714D01*
X95693341Y-125420714D02*
X95722388Y-125449761D01*
X95722388Y-125449761D02*
X95780484Y-125478809D01*
X95780484Y-125478809D02*
X95925722Y-125478809D01*
X95925722Y-125478809D02*
X95983817Y-125449761D01*
X95983817Y-125449761D02*
X96012865Y-125420714D01*
X96012865Y-125420714D02*
X96041912Y-125362619D01*
X96041912Y-125362619D02*
X96041912Y-125246428D01*
X96041912Y-125246428D02*
X96012865Y-125188333D01*
X96012865Y-125188333D02*
X95983817Y-125159285D01*
X95983817Y-125159285D02*
X95925722Y-125130238D01*
X85377857Y-89074293D02*
X85174524Y-88783817D01*
X85029286Y-89074293D02*
X85029286Y-88464293D01*
X85029286Y-88464293D02*
X85261667Y-88464293D01*
X85261667Y-88464293D02*
X85319762Y-88493341D01*
X85319762Y-88493341D02*
X85348809Y-88522388D01*
X85348809Y-88522388D02*
X85377857Y-88580484D01*
X85377857Y-88580484D02*
X85377857Y-88667626D01*
X85377857Y-88667626D02*
X85348809Y-88725722D01*
X85348809Y-88725722D02*
X85319762Y-88754769D01*
X85319762Y-88754769D02*
X85261667Y-88783817D01*
X85261667Y-88783817D02*
X85029286Y-88783817D01*
X85581190Y-88464293D02*
X85958809Y-88464293D01*
X85958809Y-88464293D02*
X85755476Y-88696674D01*
X85755476Y-88696674D02*
X85842619Y-88696674D01*
X85842619Y-88696674D02*
X85900714Y-88725722D01*
X85900714Y-88725722D02*
X85929762Y-88754769D01*
X85929762Y-88754769D02*
X85958809Y-88812865D01*
X85958809Y-88812865D02*
X85958809Y-88958103D01*
X85958809Y-88958103D02*
X85929762Y-89016198D01*
X85929762Y-89016198D02*
X85900714Y-89045246D01*
X85900714Y-89045246D02*
X85842619Y-89074293D01*
X85842619Y-89074293D02*
X85668333Y-89074293D01*
X85668333Y-89074293D02*
X85610238Y-89045246D01*
X85610238Y-89045246D02*
X85581190Y-89016198D01*
X86481666Y-88464293D02*
X86365476Y-88464293D01*
X86365476Y-88464293D02*
X86307380Y-88493341D01*
X86307380Y-88493341D02*
X86278333Y-88522388D01*
X86278333Y-88522388D02*
X86220238Y-88609531D01*
X86220238Y-88609531D02*
X86191190Y-88725722D01*
X86191190Y-88725722D02*
X86191190Y-88958103D01*
X86191190Y-88958103D02*
X86220238Y-89016198D01*
X86220238Y-89016198D02*
X86249285Y-89045246D01*
X86249285Y-89045246D02*
X86307380Y-89074293D01*
X86307380Y-89074293D02*
X86423571Y-89074293D01*
X86423571Y-89074293D02*
X86481666Y-89045246D01*
X86481666Y-89045246D02*
X86510714Y-89016198D01*
X86510714Y-89016198D02*
X86539761Y-88958103D01*
X86539761Y-88958103D02*
X86539761Y-88812865D01*
X86539761Y-88812865D02*
X86510714Y-88754769D01*
X86510714Y-88754769D02*
X86481666Y-88725722D01*
X86481666Y-88725722D02*
X86423571Y-88696674D01*
X86423571Y-88696674D02*
X86307380Y-88696674D01*
X86307380Y-88696674D02*
X86249285Y-88725722D01*
X86249285Y-88725722D02*
X86220238Y-88754769D01*
X86220238Y-88754769D02*
X86191190Y-88812865D01*
X96698333Y-142516198D02*
X96669285Y-142545246D01*
X96669285Y-142545246D02*
X96582143Y-142574293D01*
X96582143Y-142574293D02*
X96524047Y-142574293D01*
X96524047Y-142574293D02*
X96436904Y-142545246D01*
X96436904Y-142545246D02*
X96378809Y-142487150D01*
X96378809Y-142487150D02*
X96349762Y-142429055D01*
X96349762Y-142429055D02*
X96320714Y-142312865D01*
X96320714Y-142312865D02*
X96320714Y-142225722D01*
X96320714Y-142225722D02*
X96349762Y-142109531D01*
X96349762Y-142109531D02*
X96378809Y-142051436D01*
X96378809Y-142051436D02*
X96436904Y-141993341D01*
X96436904Y-141993341D02*
X96524047Y-141964293D01*
X96524047Y-141964293D02*
X96582143Y-141964293D01*
X96582143Y-141964293D02*
X96669285Y-141993341D01*
X96669285Y-141993341D02*
X96698333Y-142022388D01*
X97250238Y-141964293D02*
X96959762Y-141964293D01*
X96959762Y-141964293D02*
X96930714Y-142254769D01*
X96930714Y-142254769D02*
X96959762Y-142225722D01*
X96959762Y-142225722D02*
X97017857Y-142196674D01*
X97017857Y-142196674D02*
X97163095Y-142196674D01*
X97163095Y-142196674D02*
X97221190Y-142225722D01*
X97221190Y-142225722D02*
X97250238Y-142254769D01*
X97250238Y-142254769D02*
X97279285Y-142312865D01*
X97279285Y-142312865D02*
X97279285Y-142458103D01*
X97279285Y-142458103D02*
X97250238Y-142516198D01*
X97250238Y-142516198D02*
X97221190Y-142545246D01*
X97221190Y-142545246D02*
X97163095Y-142574293D01*
X97163095Y-142574293D02*
X97017857Y-142574293D01*
X97017857Y-142574293D02*
X96959762Y-142545246D01*
X96959762Y-142545246D02*
X96930714Y-142516198D01*
X83441904Y-92732388D02*
X83383809Y-92703341D01*
X83383809Y-92703341D02*
X83325714Y-92645246D01*
X83325714Y-92645246D02*
X83238571Y-92558103D01*
X83238571Y-92558103D02*
X83180476Y-92529055D01*
X83180476Y-92529055D02*
X83122380Y-92529055D01*
X83151428Y-92674293D02*
X83093333Y-92645246D01*
X83093333Y-92645246D02*
X83035238Y-92587150D01*
X83035238Y-92587150D02*
X83006190Y-92470960D01*
X83006190Y-92470960D02*
X83006190Y-92267626D01*
X83006190Y-92267626D02*
X83035238Y-92151436D01*
X83035238Y-92151436D02*
X83093333Y-92093341D01*
X83093333Y-92093341D02*
X83151428Y-92064293D01*
X83151428Y-92064293D02*
X83267619Y-92064293D01*
X83267619Y-92064293D02*
X83325714Y-92093341D01*
X83325714Y-92093341D02*
X83383809Y-92151436D01*
X83383809Y-92151436D02*
X83412857Y-92267626D01*
X83412857Y-92267626D02*
X83412857Y-92470960D01*
X83412857Y-92470960D02*
X83383809Y-92587150D01*
X83383809Y-92587150D02*
X83325714Y-92645246D01*
X83325714Y-92645246D02*
X83267619Y-92674293D01*
X83267619Y-92674293D02*
X83151428Y-92674293D01*
X83645238Y-92122388D02*
X83674286Y-92093341D01*
X83674286Y-92093341D02*
X83732381Y-92064293D01*
X83732381Y-92064293D02*
X83877619Y-92064293D01*
X83877619Y-92064293D02*
X83935714Y-92093341D01*
X83935714Y-92093341D02*
X83964762Y-92122388D01*
X83964762Y-92122388D02*
X83993809Y-92180484D01*
X83993809Y-92180484D02*
X83993809Y-92238579D01*
X83993809Y-92238579D02*
X83964762Y-92325722D01*
X83964762Y-92325722D02*
X83616190Y-92674293D01*
X83616190Y-92674293D02*
X83993809Y-92674293D01*
X99507857Y-136874293D02*
X99304524Y-136583817D01*
X99159286Y-136874293D02*
X99159286Y-136264293D01*
X99159286Y-136264293D02*
X99391667Y-136264293D01*
X99391667Y-136264293D02*
X99449762Y-136293341D01*
X99449762Y-136293341D02*
X99478809Y-136322388D01*
X99478809Y-136322388D02*
X99507857Y-136380484D01*
X99507857Y-136380484D02*
X99507857Y-136467626D01*
X99507857Y-136467626D02*
X99478809Y-136525722D01*
X99478809Y-136525722D02*
X99449762Y-136554769D01*
X99449762Y-136554769D02*
X99391667Y-136583817D01*
X99391667Y-136583817D02*
X99159286Y-136583817D01*
X99711190Y-136264293D02*
X100088809Y-136264293D01*
X100088809Y-136264293D02*
X99885476Y-136496674D01*
X99885476Y-136496674D02*
X99972619Y-136496674D01*
X99972619Y-136496674D02*
X100030714Y-136525722D01*
X100030714Y-136525722D02*
X100059762Y-136554769D01*
X100059762Y-136554769D02*
X100088809Y-136612865D01*
X100088809Y-136612865D02*
X100088809Y-136758103D01*
X100088809Y-136758103D02*
X100059762Y-136816198D01*
X100059762Y-136816198D02*
X100030714Y-136845246D01*
X100030714Y-136845246D02*
X99972619Y-136874293D01*
X99972619Y-136874293D02*
X99798333Y-136874293D01*
X99798333Y-136874293D02*
X99740238Y-136845246D01*
X99740238Y-136845246D02*
X99711190Y-136816198D01*
X100379285Y-136874293D02*
X100495476Y-136874293D01*
X100495476Y-136874293D02*
X100553571Y-136845246D01*
X100553571Y-136845246D02*
X100582619Y-136816198D01*
X100582619Y-136816198D02*
X100640714Y-136729055D01*
X100640714Y-136729055D02*
X100669761Y-136612865D01*
X100669761Y-136612865D02*
X100669761Y-136380484D01*
X100669761Y-136380484D02*
X100640714Y-136322388D01*
X100640714Y-136322388D02*
X100611666Y-136293341D01*
X100611666Y-136293341D02*
X100553571Y-136264293D01*
X100553571Y-136264293D02*
X100437380Y-136264293D01*
X100437380Y-136264293D02*
X100379285Y-136293341D01*
X100379285Y-136293341D02*
X100350238Y-136322388D01*
X100350238Y-136322388D02*
X100321190Y-136380484D01*
X100321190Y-136380484D02*
X100321190Y-136525722D01*
X100321190Y-136525722D02*
X100350238Y-136583817D01*
X100350238Y-136583817D02*
X100379285Y-136612865D01*
X100379285Y-136612865D02*
X100437380Y-136641912D01*
X100437380Y-136641912D02*
X100553571Y-136641912D01*
X100553571Y-136641912D02*
X100611666Y-136612865D01*
X100611666Y-136612865D02*
X100640714Y-136583817D01*
X100640714Y-136583817D02*
X100669761Y-136525722D01*
X78549762Y-79374293D02*
X78549762Y-78764293D01*
X78549762Y-78764293D02*
X78695000Y-78764293D01*
X78695000Y-78764293D02*
X78782143Y-78793341D01*
X78782143Y-78793341D02*
X78840238Y-78851436D01*
X78840238Y-78851436D02*
X78869285Y-78909531D01*
X78869285Y-78909531D02*
X78898333Y-79025722D01*
X78898333Y-79025722D02*
X78898333Y-79112865D01*
X78898333Y-79112865D02*
X78869285Y-79229055D01*
X78869285Y-79229055D02*
X78840238Y-79287150D01*
X78840238Y-79287150D02*
X78782143Y-79345246D01*
X78782143Y-79345246D02*
X78695000Y-79374293D01*
X78695000Y-79374293D02*
X78549762Y-79374293D01*
X79130714Y-78822388D02*
X79159762Y-78793341D01*
X79159762Y-78793341D02*
X79217857Y-78764293D01*
X79217857Y-78764293D02*
X79363095Y-78764293D01*
X79363095Y-78764293D02*
X79421190Y-78793341D01*
X79421190Y-78793341D02*
X79450238Y-78822388D01*
X79450238Y-78822388D02*
X79479285Y-78880484D01*
X79479285Y-78880484D02*
X79479285Y-78938579D01*
X79479285Y-78938579D02*
X79450238Y-79025722D01*
X79450238Y-79025722D02*
X79101666Y-79374293D01*
X79101666Y-79374293D02*
X79479285Y-79374293D01*
X98959286Y-135274293D02*
X98959286Y-134664293D01*
X98959286Y-134664293D02*
X99104524Y-134664293D01*
X99104524Y-134664293D02*
X99191667Y-134693341D01*
X99191667Y-134693341D02*
X99249762Y-134751436D01*
X99249762Y-134751436D02*
X99278809Y-134809531D01*
X99278809Y-134809531D02*
X99307857Y-134925722D01*
X99307857Y-134925722D02*
X99307857Y-135012865D01*
X99307857Y-135012865D02*
X99278809Y-135129055D01*
X99278809Y-135129055D02*
X99249762Y-135187150D01*
X99249762Y-135187150D02*
X99191667Y-135245246D01*
X99191667Y-135245246D02*
X99104524Y-135274293D01*
X99104524Y-135274293D02*
X98959286Y-135274293D01*
X99888809Y-135274293D02*
X99540238Y-135274293D01*
X99714524Y-135274293D02*
X99714524Y-134664293D01*
X99714524Y-134664293D02*
X99656428Y-134751436D01*
X99656428Y-134751436D02*
X99598333Y-134809531D01*
X99598333Y-134809531D02*
X99540238Y-134838579D01*
X100266428Y-134664293D02*
X100324523Y-134664293D01*
X100324523Y-134664293D02*
X100382619Y-134693341D01*
X100382619Y-134693341D02*
X100411666Y-134722388D01*
X100411666Y-134722388D02*
X100440714Y-134780484D01*
X100440714Y-134780484D02*
X100469761Y-134896674D01*
X100469761Y-134896674D02*
X100469761Y-135041912D01*
X100469761Y-135041912D02*
X100440714Y-135158103D01*
X100440714Y-135158103D02*
X100411666Y-135216198D01*
X100411666Y-135216198D02*
X100382619Y-135245246D01*
X100382619Y-135245246D02*
X100324523Y-135274293D01*
X100324523Y-135274293D02*
X100266428Y-135274293D01*
X100266428Y-135274293D02*
X100208333Y-135245246D01*
X100208333Y-135245246D02*
X100179285Y-135216198D01*
X100179285Y-135216198D02*
X100150238Y-135158103D01*
X100150238Y-135158103D02*
X100121190Y-135041912D01*
X100121190Y-135041912D02*
X100121190Y-134896674D01*
X100121190Y-134896674D02*
X100150238Y-134780484D01*
X100150238Y-134780484D02*
X100179285Y-134722388D01*
X100179285Y-134722388D02*
X100208333Y-134693341D01*
X100208333Y-134693341D02*
X100266428Y-134664293D01*
X73598333Y-97474293D02*
X73395000Y-97183817D01*
X73249762Y-97474293D02*
X73249762Y-96864293D01*
X73249762Y-96864293D02*
X73482143Y-96864293D01*
X73482143Y-96864293D02*
X73540238Y-96893341D01*
X73540238Y-96893341D02*
X73569285Y-96922388D01*
X73569285Y-96922388D02*
X73598333Y-96980484D01*
X73598333Y-96980484D02*
X73598333Y-97067626D01*
X73598333Y-97067626D02*
X73569285Y-97125722D01*
X73569285Y-97125722D02*
X73540238Y-97154769D01*
X73540238Y-97154769D02*
X73482143Y-97183817D01*
X73482143Y-97183817D02*
X73249762Y-97183817D01*
X73888809Y-97474293D02*
X74005000Y-97474293D01*
X74005000Y-97474293D02*
X74063095Y-97445246D01*
X74063095Y-97445246D02*
X74092143Y-97416198D01*
X74092143Y-97416198D02*
X74150238Y-97329055D01*
X74150238Y-97329055D02*
X74179285Y-97212865D01*
X74179285Y-97212865D02*
X74179285Y-96980484D01*
X74179285Y-96980484D02*
X74150238Y-96922388D01*
X74150238Y-96922388D02*
X74121190Y-96893341D01*
X74121190Y-96893341D02*
X74063095Y-96864293D01*
X74063095Y-96864293D02*
X73946904Y-96864293D01*
X73946904Y-96864293D02*
X73888809Y-96893341D01*
X73888809Y-96893341D02*
X73859762Y-96922388D01*
X73859762Y-96922388D02*
X73830714Y-96980484D01*
X73830714Y-96980484D02*
X73830714Y-97125722D01*
X73830714Y-97125722D02*
X73859762Y-97183817D01*
X73859762Y-97183817D02*
X73888809Y-97212865D01*
X73888809Y-97212865D02*
X73946904Y-97241912D01*
X73946904Y-97241912D02*
X74063095Y-97241912D01*
X74063095Y-97241912D02*
X74121190Y-97212865D01*
X74121190Y-97212865D02*
X74150238Y-97183817D01*
X74150238Y-97183817D02*
X74179285Y-97125722D01*
X67698333Y-100874293D02*
X67495000Y-100583817D01*
X67349762Y-100874293D02*
X67349762Y-100264293D01*
X67349762Y-100264293D02*
X67582143Y-100264293D01*
X67582143Y-100264293D02*
X67640238Y-100293341D01*
X67640238Y-100293341D02*
X67669285Y-100322388D01*
X67669285Y-100322388D02*
X67698333Y-100380484D01*
X67698333Y-100380484D02*
X67698333Y-100467626D01*
X67698333Y-100467626D02*
X67669285Y-100525722D01*
X67669285Y-100525722D02*
X67640238Y-100554769D01*
X67640238Y-100554769D02*
X67582143Y-100583817D01*
X67582143Y-100583817D02*
X67349762Y-100583817D01*
X67901666Y-100264293D02*
X68308333Y-100264293D01*
X68308333Y-100264293D02*
X68046904Y-100874293D01*
X93316198Y-121401666D02*
X93345246Y-121430714D01*
X93345246Y-121430714D02*
X93374293Y-121517856D01*
X93374293Y-121517856D02*
X93374293Y-121575952D01*
X93374293Y-121575952D02*
X93345246Y-121663095D01*
X93345246Y-121663095D02*
X93287150Y-121721190D01*
X93287150Y-121721190D02*
X93229055Y-121750237D01*
X93229055Y-121750237D02*
X93112865Y-121779285D01*
X93112865Y-121779285D02*
X93025722Y-121779285D01*
X93025722Y-121779285D02*
X92909531Y-121750237D01*
X92909531Y-121750237D02*
X92851436Y-121721190D01*
X92851436Y-121721190D02*
X92793341Y-121663095D01*
X92793341Y-121663095D02*
X92764293Y-121575952D01*
X92764293Y-121575952D02*
X92764293Y-121517856D01*
X92764293Y-121517856D02*
X92793341Y-121430714D01*
X92793341Y-121430714D02*
X92822388Y-121401666D01*
X93025722Y-121053095D02*
X92996674Y-121111190D01*
X92996674Y-121111190D02*
X92967626Y-121140237D01*
X92967626Y-121140237D02*
X92909531Y-121169285D01*
X92909531Y-121169285D02*
X92880484Y-121169285D01*
X92880484Y-121169285D02*
X92822388Y-121140237D01*
X92822388Y-121140237D02*
X92793341Y-121111190D01*
X92793341Y-121111190D02*
X92764293Y-121053095D01*
X92764293Y-121053095D02*
X92764293Y-120936904D01*
X92764293Y-120936904D02*
X92793341Y-120878809D01*
X92793341Y-120878809D02*
X92822388Y-120849761D01*
X92822388Y-120849761D02*
X92880484Y-120820714D01*
X92880484Y-120820714D02*
X92909531Y-120820714D01*
X92909531Y-120820714D02*
X92967626Y-120849761D01*
X92967626Y-120849761D02*
X92996674Y-120878809D01*
X92996674Y-120878809D02*
X93025722Y-120936904D01*
X93025722Y-120936904D02*
X93025722Y-121053095D01*
X93025722Y-121053095D02*
X93054769Y-121111190D01*
X93054769Y-121111190D02*
X93083817Y-121140237D01*
X93083817Y-121140237D02*
X93141912Y-121169285D01*
X93141912Y-121169285D02*
X93258103Y-121169285D01*
X93258103Y-121169285D02*
X93316198Y-121140237D01*
X93316198Y-121140237D02*
X93345246Y-121111190D01*
X93345246Y-121111190D02*
X93374293Y-121053095D01*
X93374293Y-121053095D02*
X93374293Y-120936904D01*
X93374293Y-120936904D02*
X93345246Y-120878809D01*
X93345246Y-120878809D02*
X93316198Y-120849761D01*
X93316198Y-120849761D02*
X93258103Y-120820714D01*
X93258103Y-120820714D02*
X93141912Y-120820714D01*
X93141912Y-120820714D02*
X93083817Y-120849761D01*
X93083817Y-120849761D02*
X93054769Y-120878809D01*
X93054769Y-120878809D02*
X93025722Y-120936904D01*
X71007857Y-138874293D02*
X70804524Y-138583817D01*
X70659286Y-138874293D02*
X70659286Y-138264293D01*
X70659286Y-138264293D02*
X70891667Y-138264293D01*
X70891667Y-138264293D02*
X70949762Y-138293341D01*
X70949762Y-138293341D02*
X70978809Y-138322388D01*
X70978809Y-138322388D02*
X71007857Y-138380484D01*
X71007857Y-138380484D02*
X71007857Y-138467626D01*
X71007857Y-138467626D02*
X70978809Y-138525722D01*
X70978809Y-138525722D02*
X70949762Y-138554769D01*
X70949762Y-138554769D02*
X70891667Y-138583817D01*
X70891667Y-138583817D02*
X70659286Y-138583817D01*
X71211190Y-138264293D02*
X71588809Y-138264293D01*
X71588809Y-138264293D02*
X71385476Y-138496674D01*
X71385476Y-138496674D02*
X71472619Y-138496674D01*
X71472619Y-138496674D02*
X71530714Y-138525722D01*
X71530714Y-138525722D02*
X71559762Y-138554769D01*
X71559762Y-138554769D02*
X71588809Y-138612865D01*
X71588809Y-138612865D02*
X71588809Y-138758103D01*
X71588809Y-138758103D02*
X71559762Y-138816198D01*
X71559762Y-138816198D02*
X71530714Y-138845246D01*
X71530714Y-138845246D02*
X71472619Y-138874293D01*
X71472619Y-138874293D02*
X71298333Y-138874293D01*
X71298333Y-138874293D02*
X71240238Y-138845246D01*
X71240238Y-138845246D02*
X71211190Y-138816198D01*
X71937380Y-138525722D02*
X71879285Y-138496674D01*
X71879285Y-138496674D02*
X71850238Y-138467626D01*
X71850238Y-138467626D02*
X71821190Y-138409531D01*
X71821190Y-138409531D02*
X71821190Y-138380484D01*
X71821190Y-138380484D02*
X71850238Y-138322388D01*
X71850238Y-138322388D02*
X71879285Y-138293341D01*
X71879285Y-138293341D02*
X71937380Y-138264293D01*
X71937380Y-138264293D02*
X72053571Y-138264293D01*
X72053571Y-138264293D02*
X72111666Y-138293341D01*
X72111666Y-138293341D02*
X72140714Y-138322388D01*
X72140714Y-138322388D02*
X72169761Y-138380484D01*
X72169761Y-138380484D02*
X72169761Y-138409531D01*
X72169761Y-138409531D02*
X72140714Y-138467626D01*
X72140714Y-138467626D02*
X72111666Y-138496674D01*
X72111666Y-138496674D02*
X72053571Y-138525722D01*
X72053571Y-138525722D02*
X71937380Y-138525722D01*
X71937380Y-138525722D02*
X71879285Y-138554769D01*
X71879285Y-138554769D02*
X71850238Y-138583817D01*
X71850238Y-138583817D02*
X71821190Y-138641912D01*
X71821190Y-138641912D02*
X71821190Y-138758103D01*
X71821190Y-138758103D02*
X71850238Y-138816198D01*
X71850238Y-138816198D02*
X71879285Y-138845246D01*
X71879285Y-138845246D02*
X71937380Y-138874293D01*
X71937380Y-138874293D02*
X72053571Y-138874293D01*
X72053571Y-138874293D02*
X72111666Y-138845246D01*
X72111666Y-138845246D02*
X72140714Y-138816198D01*
X72140714Y-138816198D02*
X72169761Y-138758103D01*
X72169761Y-138758103D02*
X72169761Y-138641912D01*
X72169761Y-138641912D02*
X72140714Y-138583817D01*
X72140714Y-138583817D02*
X72111666Y-138554769D01*
X72111666Y-138554769D02*
X72053571Y-138525722D01*
X100498333Y-119116198D02*
X100469285Y-119145246D01*
X100469285Y-119145246D02*
X100382143Y-119174293D01*
X100382143Y-119174293D02*
X100324047Y-119174293D01*
X100324047Y-119174293D02*
X100236904Y-119145246D01*
X100236904Y-119145246D02*
X100178809Y-119087150D01*
X100178809Y-119087150D02*
X100149762Y-119029055D01*
X100149762Y-119029055D02*
X100120714Y-118912865D01*
X100120714Y-118912865D02*
X100120714Y-118825722D01*
X100120714Y-118825722D02*
X100149762Y-118709531D01*
X100149762Y-118709531D02*
X100178809Y-118651436D01*
X100178809Y-118651436D02*
X100236904Y-118593341D01*
X100236904Y-118593341D02*
X100324047Y-118564293D01*
X100324047Y-118564293D02*
X100382143Y-118564293D01*
X100382143Y-118564293D02*
X100469285Y-118593341D01*
X100469285Y-118593341D02*
X100498333Y-118622388D01*
X100701666Y-118564293D02*
X101108333Y-118564293D01*
X101108333Y-118564293D02*
X100846904Y-119174293D01*
X84549762Y-169274293D02*
X84549762Y-168664293D01*
X84549762Y-168664293D02*
X84695000Y-168664293D01*
X84695000Y-168664293D02*
X84782143Y-168693341D01*
X84782143Y-168693341D02*
X84840238Y-168751436D01*
X84840238Y-168751436D02*
X84869285Y-168809531D01*
X84869285Y-168809531D02*
X84898333Y-168925722D01*
X84898333Y-168925722D02*
X84898333Y-169012865D01*
X84898333Y-169012865D02*
X84869285Y-169129055D01*
X84869285Y-169129055D02*
X84840238Y-169187150D01*
X84840238Y-169187150D02*
X84782143Y-169245246D01*
X84782143Y-169245246D02*
X84695000Y-169274293D01*
X84695000Y-169274293D02*
X84549762Y-169274293D01*
X85421190Y-168867626D02*
X85421190Y-169274293D01*
X85275952Y-168635246D02*
X85130714Y-169070960D01*
X85130714Y-169070960D02*
X85508333Y-169070960D01*
X99223809Y-129995246D02*
X99310952Y-130024293D01*
X99310952Y-130024293D02*
X99456190Y-130024293D01*
X99456190Y-130024293D02*
X99514285Y-129995246D01*
X99514285Y-129995246D02*
X99543333Y-129966198D01*
X99543333Y-129966198D02*
X99572380Y-129908103D01*
X99572380Y-129908103D02*
X99572380Y-129850007D01*
X99572380Y-129850007D02*
X99543333Y-129791912D01*
X99543333Y-129791912D02*
X99514285Y-129762865D01*
X99514285Y-129762865D02*
X99456190Y-129733817D01*
X99456190Y-129733817D02*
X99339999Y-129704769D01*
X99339999Y-129704769D02*
X99281904Y-129675722D01*
X99281904Y-129675722D02*
X99252857Y-129646674D01*
X99252857Y-129646674D02*
X99223809Y-129588579D01*
X99223809Y-129588579D02*
X99223809Y-129530484D01*
X99223809Y-129530484D02*
X99252857Y-129472388D01*
X99252857Y-129472388D02*
X99281904Y-129443341D01*
X99281904Y-129443341D02*
X99339999Y-129414293D01*
X99339999Y-129414293D02*
X99485238Y-129414293D01*
X99485238Y-129414293D02*
X99572380Y-129443341D01*
X100182380Y-129966198D02*
X100153332Y-129995246D01*
X100153332Y-129995246D02*
X100066190Y-130024293D01*
X100066190Y-130024293D02*
X100008094Y-130024293D01*
X100008094Y-130024293D02*
X99920951Y-129995246D01*
X99920951Y-129995246D02*
X99862856Y-129937150D01*
X99862856Y-129937150D02*
X99833809Y-129879055D01*
X99833809Y-129879055D02*
X99804761Y-129762865D01*
X99804761Y-129762865D02*
X99804761Y-129675722D01*
X99804761Y-129675722D02*
X99833809Y-129559531D01*
X99833809Y-129559531D02*
X99862856Y-129501436D01*
X99862856Y-129501436D02*
X99920951Y-129443341D01*
X99920951Y-129443341D02*
X100008094Y-129414293D01*
X100008094Y-129414293D02*
X100066190Y-129414293D01*
X100066190Y-129414293D02*
X100153332Y-129443341D01*
X100153332Y-129443341D02*
X100182380Y-129472388D01*
X100734285Y-130024293D02*
X100443809Y-130024293D01*
X100443809Y-130024293D02*
X100443809Y-129414293D01*
X91507857Y-119016198D02*
X91478809Y-119045246D01*
X91478809Y-119045246D02*
X91391667Y-119074293D01*
X91391667Y-119074293D02*
X91333571Y-119074293D01*
X91333571Y-119074293D02*
X91246428Y-119045246D01*
X91246428Y-119045246D02*
X91188333Y-118987150D01*
X91188333Y-118987150D02*
X91159286Y-118929055D01*
X91159286Y-118929055D02*
X91130238Y-118812865D01*
X91130238Y-118812865D02*
X91130238Y-118725722D01*
X91130238Y-118725722D02*
X91159286Y-118609531D01*
X91159286Y-118609531D02*
X91188333Y-118551436D01*
X91188333Y-118551436D02*
X91246428Y-118493341D01*
X91246428Y-118493341D02*
X91333571Y-118464293D01*
X91333571Y-118464293D02*
X91391667Y-118464293D01*
X91391667Y-118464293D02*
X91478809Y-118493341D01*
X91478809Y-118493341D02*
X91507857Y-118522388D01*
X92088809Y-119074293D02*
X91740238Y-119074293D01*
X91914524Y-119074293D02*
X91914524Y-118464293D01*
X91914524Y-118464293D02*
X91856428Y-118551436D01*
X91856428Y-118551436D02*
X91798333Y-118609531D01*
X91798333Y-118609531D02*
X91740238Y-118638579D01*
X92669761Y-119074293D02*
X92321190Y-119074293D01*
X92495476Y-119074293D02*
X92495476Y-118464293D01*
X92495476Y-118464293D02*
X92437380Y-118551436D01*
X92437380Y-118551436D02*
X92379285Y-118609531D01*
X92379285Y-118609531D02*
X92321190Y-118638579D01*
X91507857Y-110074293D02*
X91304524Y-109783817D01*
X91159286Y-110074293D02*
X91159286Y-109464293D01*
X91159286Y-109464293D02*
X91391667Y-109464293D01*
X91391667Y-109464293D02*
X91449762Y-109493341D01*
X91449762Y-109493341D02*
X91478809Y-109522388D01*
X91478809Y-109522388D02*
X91507857Y-109580484D01*
X91507857Y-109580484D02*
X91507857Y-109667626D01*
X91507857Y-109667626D02*
X91478809Y-109725722D01*
X91478809Y-109725722D02*
X91449762Y-109754769D01*
X91449762Y-109754769D02*
X91391667Y-109783817D01*
X91391667Y-109783817D02*
X91159286Y-109783817D01*
X91740238Y-109522388D02*
X91769286Y-109493341D01*
X91769286Y-109493341D02*
X91827381Y-109464293D01*
X91827381Y-109464293D02*
X91972619Y-109464293D01*
X91972619Y-109464293D02*
X92030714Y-109493341D01*
X92030714Y-109493341D02*
X92059762Y-109522388D01*
X92059762Y-109522388D02*
X92088809Y-109580484D01*
X92088809Y-109580484D02*
X92088809Y-109638579D01*
X92088809Y-109638579D02*
X92059762Y-109725722D01*
X92059762Y-109725722D02*
X91711190Y-110074293D01*
X91711190Y-110074293D02*
X92088809Y-110074293D01*
X92611666Y-109667626D02*
X92611666Y-110074293D01*
X92466428Y-109435246D02*
X92321190Y-109870960D01*
X92321190Y-109870960D02*
X92698809Y-109870960D01*
X93135238Y-137764293D02*
X93135238Y-138258103D01*
X93135238Y-138258103D02*
X93164285Y-138316198D01*
X93164285Y-138316198D02*
X93193333Y-138345246D01*
X93193333Y-138345246D02*
X93251428Y-138374293D01*
X93251428Y-138374293D02*
X93367619Y-138374293D01*
X93367619Y-138374293D02*
X93425714Y-138345246D01*
X93425714Y-138345246D02*
X93454761Y-138316198D01*
X93454761Y-138316198D02*
X93483809Y-138258103D01*
X93483809Y-138258103D02*
X93483809Y-137764293D01*
X93716190Y-137764293D02*
X94093809Y-137764293D01*
X94093809Y-137764293D02*
X93890476Y-137996674D01*
X93890476Y-137996674D02*
X93977619Y-137996674D01*
X93977619Y-137996674D02*
X94035714Y-138025722D01*
X94035714Y-138025722D02*
X94064762Y-138054769D01*
X94064762Y-138054769D02*
X94093809Y-138112865D01*
X94093809Y-138112865D02*
X94093809Y-138258103D01*
X94093809Y-138258103D02*
X94064762Y-138316198D01*
X94064762Y-138316198D02*
X94035714Y-138345246D01*
X94035714Y-138345246D02*
X93977619Y-138374293D01*
X93977619Y-138374293D02*
X93803333Y-138374293D01*
X93803333Y-138374293D02*
X93745238Y-138345246D01*
X93745238Y-138345246D02*
X93716190Y-138316198D01*
X80298333Y-82774293D02*
X80095000Y-82483817D01*
X79949762Y-82774293D02*
X79949762Y-82164293D01*
X79949762Y-82164293D02*
X80182143Y-82164293D01*
X80182143Y-82164293D02*
X80240238Y-82193341D01*
X80240238Y-82193341D02*
X80269285Y-82222388D01*
X80269285Y-82222388D02*
X80298333Y-82280484D01*
X80298333Y-82280484D02*
X80298333Y-82367626D01*
X80298333Y-82367626D02*
X80269285Y-82425722D01*
X80269285Y-82425722D02*
X80240238Y-82454769D01*
X80240238Y-82454769D02*
X80182143Y-82483817D01*
X80182143Y-82483817D02*
X79949762Y-82483817D01*
X80646904Y-82425722D02*
X80588809Y-82396674D01*
X80588809Y-82396674D02*
X80559762Y-82367626D01*
X80559762Y-82367626D02*
X80530714Y-82309531D01*
X80530714Y-82309531D02*
X80530714Y-82280484D01*
X80530714Y-82280484D02*
X80559762Y-82222388D01*
X80559762Y-82222388D02*
X80588809Y-82193341D01*
X80588809Y-82193341D02*
X80646904Y-82164293D01*
X80646904Y-82164293D02*
X80763095Y-82164293D01*
X80763095Y-82164293D02*
X80821190Y-82193341D01*
X80821190Y-82193341D02*
X80850238Y-82222388D01*
X80850238Y-82222388D02*
X80879285Y-82280484D01*
X80879285Y-82280484D02*
X80879285Y-82309531D01*
X80879285Y-82309531D02*
X80850238Y-82367626D01*
X80850238Y-82367626D02*
X80821190Y-82396674D01*
X80821190Y-82396674D02*
X80763095Y-82425722D01*
X80763095Y-82425722D02*
X80646904Y-82425722D01*
X80646904Y-82425722D02*
X80588809Y-82454769D01*
X80588809Y-82454769D02*
X80559762Y-82483817D01*
X80559762Y-82483817D02*
X80530714Y-82541912D01*
X80530714Y-82541912D02*
X80530714Y-82658103D01*
X80530714Y-82658103D02*
X80559762Y-82716198D01*
X80559762Y-82716198D02*
X80588809Y-82745246D01*
X80588809Y-82745246D02*
X80646904Y-82774293D01*
X80646904Y-82774293D02*
X80763095Y-82774293D01*
X80763095Y-82774293D02*
X80821190Y-82745246D01*
X80821190Y-82745246D02*
X80850238Y-82716198D01*
X80850238Y-82716198D02*
X80879285Y-82658103D01*
X80879285Y-82658103D02*
X80879285Y-82541912D01*
X80879285Y-82541912D02*
X80850238Y-82483817D01*
X80850238Y-82483817D02*
X80821190Y-82454769D01*
X80821190Y-82454769D02*
X80763095Y-82425722D01*
X93007857Y-129374293D02*
X92804524Y-129083817D01*
X92659286Y-129374293D02*
X92659286Y-128764293D01*
X92659286Y-128764293D02*
X92891667Y-128764293D01*
X92891667Y-128764293D02*
X92949762Y-128793341D01*
X92949762Y-128793341D02*
X92978809Y-128822388D01*
X92978809Y-128822388D02*
X93007857Y-128880484D01*
X93007857Y-128880484D02*
X93007857Y-128967626D01*
X93007857Y-128967626D02*
X92978809Y-129025722D01*
X92978809Y-129025722D02*
X92949762Y-129054769D01*
X92949762Y-129054769D02*
X92891667Y-129083817D01*
X92891667Y-129083817D02*
X92659286Y-129083817D01*
X93211190Y-128764293D02*
X93588809Y-128764293D01*
X93588809Y-128764293D02*
X93385476Y-128996674D01*
X93385476Y-128996674D02*
X93472619Y-128996674D01*
X93472619Y-128996674D02*
X93530714Y-129025722D01*
X93530714Y-129025722D02*
X93559762Y-129054769D01*
X93559762Y-129054769D02*
X93588809Y-129112865D01*
X93588809Y-129112865D02*
X93588809Y-129258103D01*
X93588809Y-129258103D02*
X93559762Y-129316198D01*
X93559762Y-129316198D02*
X93530714Y-129345246D01*
X93530714Y-129345246D02*
X93472619Y-129374293D01*
X93472619Y-129374293D02*
X93298333Y-129374293D01*
X93298333Y-129374293D02*
X93240238Y-129345246D01*
X93240238Y-129345246D02*
X93211190Y-129316198D01*
X93792142Y-128764293D02*
X94169761Y-128764293D01*
X94169761Y-128764293D02*
X93966428Y-128996674D01*
X93966428Y-128996674D02*
X94053571Y-128996674D01*
X94053571Y-128996674D02*
X94111666Y-129025722D01*
X94111666Y-129025722D02*
X94140714Y-129054769D01*
X94140714Y-129054769D02*
X94169761Y-129112865D01*
X94169761Y-129112865D02*
X94169761Y-129258103D01*
X94169761Y-129258103D02*
X94140714Y-129316198D01*
X94140714Y-129316198D02*
X94111666Y-129345246D01*
X94111666Y-129345246D02*
X94053571Y-129374293D01*
X94053571Y-129374293D02*
X93879285Y-129374293D01*
X93879285Y-129374293D02*
X93821190Y-129345246D01*
X93821190Y-129345246D02*
X93792142Y-129316198D01*
X99059286Y-132845246D02*
X99146429Y-132874293D01*
X99146429Y-132874293D02*
X99291667Y-132874293D01*
X99291667Y-132874293D02*
X99349762Y-132845246D01*
X99349762Y-132845246D02*
X99378810Y-132816198D01*
X99378810Y-132816198D02*
X99407857Y-132758103D01*
X99407857Y-132758103D02*
X99407857Y-132700007D01*
X99407857Y-132700007D02*
X99378810Y-132641912D01*
X99378810Y-132641912D02*
X99349762Y-132612865D01*
X99349762Y-132612865D02*
X99291667Y-132583817D01*
X99291667Y-132583817D02*
X99175476Y-132554769D01*
X99175476Y-132554769D02*
X99117381Y-132525722D01*
X99117381Y-132525722D02*
X99088334Y-132496674D01*
X99088334Y-132496674D02*
X99059286Y-132438579D01*
X99059286Y-132438579D02*
X99059286Y-132380484D01*
X99059286Y-132380484D02*
X99088334Y-132322388D01*
X99088334Y-132322388D02*
X99117381Y-132293341D01*
X99117381Y-132293341D02*
X99175476Y-132264293D01*
X99175476Y-132264293D02*
X99320715Y-132264293D01*
X99320715Y-132264293D02*
X99407857Y-132293341D01*
X99669286Y-132874293D02*
X99669286Y-132264293D01*
X99669286Y-132264293D02*
X99814524Y-132264293D01*
X99814524Y-132264293D02*
X99901667Y-132293341D01*
X99901667Y-132293341D02*
X99959762Y-132351436D01*
X99959762Y-132351436D02*
X99988809Y-132409531D01*
X99988809Y-132409531D02*
X100017857Y-132525722D01*
X100017857Y-132525722D02*
X100017857Y-132612865D01*
X100017857Y-132612865D02*
X99988809Y-132729055D01*
X99988809Y-132729055D02*
X99959762Y-132787150D01*
X99959762Y-132787150D02*
X99901667Y-132845246D01*
X99901667Y-132845246D02*
X99814524Y-132874293D01*
X99814524Y-132874293D02*
X99669286Y-132874293D01*
X100250238Y-132700007D02*
X100540714Y-132700007D01*
X100192143Y-132874293D02*
X100395476Y-132264293D01*
X100395476Y-132264293D02*
X100598809Y-132874293D01*
X73935238Y-87764293D02*
X73935238Y-88258103D01*
X73935238Y-88258103D02*
X73964285Y-88316198D01*
X73964285Y-88316198D02*
X73993333Y-88345246D01*
X73993333Y-88345246D02*
X74051428Y-88374293D01*
X74051428Y-88374293D02*
X74167619Y-88374293D01*
X74167619Y-88374293D02*
X74225714Y-88345246D01*
X74225714Y-88345246D02*
X74254761Y-88316198D01*
X74254761Y-88316198D02*
X74283809Y-88258103D01*
X74283809Y-88258103D02*
X74283809Y-87764293D01*
X74545238Y-87822388D02*
X74574286Y-87793341D01*
X74574286Y-87793341D02*
X74632381Y-87764293D01*
X74632381Y-87764293D02*
X74777619Y-87764293D01*
X74777619Y-87764293D02*
X74835714Y-87793341D01*
X74835714Y-87793341D02*
X74864762Y-87822388D01*
X74864762Y-87822388D02*
X74893809Y-87880484D01*
X74893809Y-87880484D02*
X74893809Y-87938579D01*
X74893809Y-87938579D02*
X74864762Y-88025722D01*
X74864762Y-88025722D02*
X74516190Y-88374293D01*
X74516190Y-88374293D02*
X74893809Y-88374293D01*
X64907857Y-124874293D02*
X64704524Y-124583817D01*
X64559286Y-124874293D02*
X64559286Y-124264293D01*
X64559286Y-124264293D02*
X64791667Y-124264293D01*
X64791667Y-124264293D02*
X64849762Y-124293341D01*
X64849762Y-124293341D02*
X64878809Y-124322388D01*
X64878809Y-124322388D02*
X64907857Y-124380484D01*
X64907857Y-124380484D02*
X64907857Y-124467626D01*
X64907857Y-124467626D02*
X64878809Y-124525722D01*
X64878809Y-124525722D02*
X64849762Y-124554769D01*
X64849762Y-124554769D02*
X64791667Y-124583817D01*
X64791667Y-124583817D02*
X64559286Y-124583817D01*
X65488809Y-124874293D02*
X65140238Y-124874293D01*
X65314524Y-124874293D02*
X65314524Y-124264293D01*
X65314524Y-124264293D02*
X65256428Y-124351436D01*
X65256428Y-124351436D02*
X65198333Y-124409531D01*
X65198333Y-124409531D02*
X65140238Y-124438579D01*
X65837380Y-124525722D02*
X65779285Y-124496674D01*
X65779285Y-124496674D02*
X65750238Y-124467626D01*
X65750238Y-124467626D02*
X65721190Y-124409531D01*
X65721190Y-124409531D02*
X65721190Y-124380484D01*
X65721190Y-124380484D02*
X65750238Y-124322388D01*
X65750238Y-124322388D02*
X65779285Y-124293341D01*
X65779285Y-124293341D02*
X65837380Y-124264293D01*
X65837380Y-124264293D02*
X65953571Y-124264293D01*
X65953571Y-124264293D02*
X66011666Y-124293341D01*
X66011666Y-124293341D02*
X66040714Y-124322388D01*
X66040714Y-124322388D02*
X66069761Y-124380484D01*
X66069761Y-124380484D02*
X66069761Y-124409531D01*
X66069761Y-124409531D02*
X66040714Y-124467626D01*
X66040714Y-124467626D02*
X66011666Y-124496674D01*
X66011666Y-124496674D02*
X65953571Y-124525722D01*
X65953571Y-124525722D02*
X65837380Y-124525722D01*
X65837380Y-124525722D02*
X65779285Y-124554769D01*
X65779285Y-124554769D02*
X65750238Y-124583817D01*
X65750238Y-124583817D02*
X65721190Y-124641912D01*
X65721190Y-124641912D02*
X65721190Y-124758103D01*
X65721190Y-124758103D02*
X65750238Y-124816198D01*
X65750238Y-124816198D02*
X65779285Y-124845246D01*
X65779285Y-124845246D02*
X65837380Y-124874293D01*
X65837380Y-124874293D02*
X65953571Y-124874293D01*
X65953571Y-124874293D02*
X66011666Y-124845246D01*
X66011666Y-124845246D02*
X66040714Y-124816198D01*
X66040714Y-124816198D02*
X66069761Y-124758103D01*
X66069761Y-124758103D02*
X66069761Y-124641912D01*
X66069761Y-124641912D02*
X66040714Y-124583817D01*
X66040714Y-124583817D02*
X66011666Y-124554769D01*
X66011666Y-124554769D02*
X65953571Y-124525722D01*
X91507857Y-108474293D02*
X91304524Y-108183817D01*
X91159286Y-108474293D02*
X91159286Y-107864293D01*
X91159286Y-107864293D02*
X91391667Y-107864293D01*
X91391667Y-107864293D02*
X91449762Y-107893341D01*
X91449762Y-107893341D02*
X91478809Y-107922388D01*
X91478809Y-107922388D02*
X91507857Y-107980484D01*
X91507857Y-107980484D02*
X91507857Y-108067626D01*
X91507857Y-108067626D02*
X91478809Y-108125722D01*
X91478809Y-108125722D02*
X91449762Y-108154769D01*
X91449762Y-108154769D02*
X91391667Y-108183817D01*
X91391667Y-108183817D02*
X91159286Y-108183817D01*
X91740238Y-107922388D02*
X91769286Y-107893341D01*
X91769286Y-107893341D02*
X91827381Y-107864293D01*
X91827381Y-107864293D02*
X91972619Y-107864293D01*
X91972619Y-107864293D02*
X92030714Y-107893341D01*
X92030714Y-107893341D02*
X92059762Y-107922388D01*
X92059762Y-107922388D02*
X92088809Y-107980484D01*
X92088809Y-107980484D02*
X92088809Y-108038579D01*
X92088809Y-108038579D02*
X92059762Y-108125722D01*
X92059762Y-108125722D02*
X91711190Y-108474293D01*
X91711190Y-108474293D02*
X92088809Y-108474293D01*
X92640714Y-107864293D02*
X92350238Y-107864293D01*
X92350238Y-107864293D02*
X92321190Y-108154769D01*
X92321190Y-108154769D02*
X92350238Y-108125722D01*
X92350238Y-108125722D02*
X92408333Y-108096674D01*
X92408333Y-108096674D02*
X92553571Y-108096674D01*
X92553571Y-108096674D02*
X92611666Y-108125722D01*
X92611666Y-108125722D02*
X92640714Y-108154769D01*
X92640714Y-108154769D02*
X92669761Y-108212865D01*
X92669761Y-108212865D02*
X92669761Y-108358103D01*
X92669761Y-108358103D02*
X92640714Y-108416198D01*
X92640714Y-108416198D02*
X92611666Y-108445246D01*
X92611666Y-108445246D02*
X92553571Y-108474293D01*
X92553571Y-108474293D02*
X92408333Y-108474293D01*
X92408333Y-108474293D02*
X92350238Y-108445246D01*
X92350238Y-108445246D02*
X92321190Y-108416198D01*
X75207857Y-97416198D02*
X75178809Y-97445246D01*
X75178809Y-97445246D02*
X75091667Y-97474293D01*
X75091667Y-97474293D02*
X75033571Y-97474293D01*
X75033571Y-97474293D02*
X74946428Y-97445246D01*
X74946428Y-97445246D02*
X74888333Y-97387150D01*
X74888333Y-97387150D02*
X74859286Y-97329055D01*
X74859286Y-97329055D02*
X74830238Y-97212865D01*
X74830238Y-97212865D02*
X74830238Y-97125722D01*
X74830238Y-97125722D02*
X74859286Y-97009531D01*
X74859286Y-97009531D02*
X74888333Y-96951436D01*
X74888333Y-96951436D02*
X74946428Y-96893341D01*
X74946428Y-96893341D02*
X75033571Y-96864293D01*
X75033571Y-96864293D02*
X75091667Y-96864293D01*
X75091667Y-96864293D02*
X75178809Y-96893341D01*
X75178809Y-96893341D02*
X75207857Y-96922388D01*
X75788809Y-97474293D02*
X75440238Y-97474293D01*
X75614524Y-97474293D02*
X75614524Y-96864293D01*
X75614524Y-96864293D02*
X75556428Y-96951436D01*
X75556428Y-96951436D02*
X75498333Y-97009531D01*
X75498333Y-97009531D02*
X75440238Y-97038579D01*
X76311666Y-97067626D02*
X76311666Y-97474293D01*
X76166428Y-96835246D02*
X76021190Y-97270960D01*
X76021190Y-97270960D02*
X76398809Y-97270960D01*
X98274293Y-126292142D02*
X97983817Y-126495475D01*
X98274293Y-126640713D02*
X97664293Y-126640713D01*
X97664293Y-126640713D02*
X97664293Y-126408332D01*
X97664293Y-126408332D02*
X97693341Y-126350237D01*
X97693341Y-126350237D02*
X97722388Y-126321190D01*
X97722388Y-126321190D02*
X97780484Y-126292142D01*
X97780484Y-126292142D02*
X97867626Y-126292142D01*
X97867626Y-126292142D02*
X97925722Y-126321190D01*
X97925722Y-126321190D02*
X97954769Y-126350237D01*
X97954769Y-126350237D02*
X97983817Y-126408332D01*
X97983817Y-126408332D02*
X97983817Y-126640713D01*
X98274293Y-125711190D02*
X98274293Y-126059761D01*
X98274293Y-125885475D02*
X97664293Y-125885475D01*
X97664293Y-125885475D02*
X97751436Y-125943571D01*
X97751436Y-125943571D02*
X97809531Y-126001666D01*
X97809531Y-126001666D02*
X97838579Y-126059761D01*
X97664293Y-125159285D02*
X97664293Y-125449761D01*
X97664293Y-125449761D02*
X97954769Y-125478809D01*
X97954769Y-125478809D02*
X97925722Y-125449761D01*
X97925722Y-125449761D02*
X97896674Y-125391666D01*
X97896674Y-125391666D02*
X97896674Y-125246428D01*
X97896674Y-125246428D02*
X97925722Y-125188333D01*
X97925722Y-125188333D02*
X97954769Y-125159285D01*
X97954769Y-125159285D02*
X98012865Y-125130238D01*
X98012865Y-125130238D02*
X98158103Y-125130238D01*
X98158103Y-125130238D02*
X98216198Y-125159285D01*
X98216198Y-125159285D02*
X98245246Y-125188333D01*
X98245246Y-125188333D02*
X98274293Y-125246428D01*
X98274293Y-125246428D02*
X98274293Y-125391666D01*
X98274293Y-125391666D02*
X98245246Y-125449761D01*
X98245246Y-125449761D02*
X98216198Y-125478809D01*
X99898333Y-126216198D02*
X99869285Y-126245246D01*
X99869285Y-126245246D02*
X99782143Y-126274293D01*
X99782143Y-126274293D02*
X99724047Y-126274293D01*
X99724047Y-126274293D02*
X99636904Y-126245246D01*
X99636904Y-126245246D02*
X99578809Y-126187150D01*
X99578809Y-126187150D02*
X99549762Y-126129055D01*
X99549762Y-126129055D02*
X99520714Y-126012865D01*
X99520714Y-126012865D02*
X99520714Y-125925722D01*
X99520714Y-125925722D02*
X99549762Y-125809531D01*
X99549762Y-125809531D02*
X99578809Y-125751436D01*
X99578809Y-125751436D02*
X99636904Y-125693341D01*
X99636904Y-125693341D02*
X99724047Y-125664293D01*
X99724047Y-125664293D02*
X99782143Y-125664293D01*
X99782143Y-125664293D02*
X99869285Y-125693341D01*
X99869285Y-125693341D02*
X99898333Y-125722388D01*
X100421190Y-125664293D02*
X100305000Y-125664293D01*
X100305000Y-125664293D02*
X100246904Y-125693341D01*
X100246904Y-125693341D02*
X100217857Y-125722388D01*
X100217857Y-125722388D02*
X100159762Y-125809531D01*
X100159762Y-125809531D02*
X100130714Y-125925722D01*
X100130714Y-125925722D02*
X100130714Y-126158103D01*
X100130714Y-126158103D02*
X100159762Y-126216198D01*
X100159762Y-126216198D02*
X100188809Y-126245246D01*
X100188809Y-126245246D02*
X100246904Y-126274293D01*
X100246904Y-126274293D02*
X100363095Y-126274293D01*
X100363095Y-126274293D02*
X100421190Y-126245246D01*
X100421190Y-126245246D02*
X100450238Y-126216198D01*
X100450238Y-126216198D02*
X100479285Y-126158103D01*
X100479285Y-126158103D02*
X100479285Y-126012865D01*
X100479285Y-126012865D02*
X100450238Y-125954769D01*
X100450238Y-125954769D02*
X100421190Y-125925722D01*
X100421190Y-125925722D02*
X100363095Y-125896674D01*
X100363095Y-125896674D02*
X100246904Y-125896674D01*
X100246904Y-125896674D02*
X100188809Y-125925722D01*
X100188809Y-125925722D02*
X100159762Y-125954769D01*
X100159762Y-125954769D02*
X100130714Y-126012865D01*
X82798333Y-83216198D02*
X82769285Y-83245246D01*
X82769285Y-83245246D02*
X82682143Y-83274293D01*
X82682143Y-83274293D02*
X82624047Y-83274293D01*
X82624047Y-83274293D02*
X82536904Y-83245246D01*
X82536904Y-83245246D02*
X82478809Y-83187150D01*
X82478809Y-83187150D02*
X82449762Y-83129055D01*
X82449762Y-83129055D02*
X82420714Y-83012865D01*
X82420714Y-83012865D02*
X82420714Y-82925722D01*
X82420714Y-82925722D02*
X82449762Y-82809531D01*
X82449762Y-82809531D02*
X82478809Y-82751436D01*
X82478809Y-82751436D02*
X82536904Y-82693341D01*
X82536904Y-82693341D02*
X82624047Y-82664293D01*
X82624047Y-82664293D02*
X82682143Y-82664293D01*
X82682143Y-82664293D02*
X82769285Y-82693341D01*
X82769285Y-82693341D02*
X82798333Y-82722388D01*
X83001666Y-82664293D02*
X83379285Y-82664293D01*
X83379285Y-82664293D02*
X83175952Y-82896674D01*
X83175952Y-82896674D02*
X83263095Y-82896674D01*
X83263095Y-82896674D02*
X83321190Y-82925722D01*
X83321190Y-82925722D02*
X83350238Y-82954769D01*
X83350238Y-82954769D02*
X83379285Y-83012865D01*
X83379285Y-83012865D02*
X83379285Y-83158103D01*
X83379285Y-83158103D02*
X83350238Y-83216198D01*
X83350238Y-83216198D02*
X83321190Y-83245246D01*
X83321190Y-83245246D02*
X83263095Y-83274293D01*
X83263095Y-83274293D02*
X83088809Y-83274293D01*
X83088809Y-83274293D02*
X83030714Y-83245246D01*
X83030714Y-83245246D02*
X83001666Y-83216198D01*
X84398333Y-84874293D02*
X84195000Y-84583817D01*
X84049762Y-84874293D02*
X84049762Y-84264293D01*
X84049762Y-84264293D02*
X84282143Y-84264293D01*
X84282143Y-84264293D02*
X84340238Y-84293341D01*
X84340238Y-84293341D02*
X84369285Y-84322388D01*
X84369285Y-84322388D02*
X84398333Y-84380484D01*
X84398333Y-84380484D02*
X84398333Y-84467626D01*
X84398333Y-84467626D02*
X84369285Y-84525722D01*
X84369285Y-84525722D02*
X84340238Y-84554769D01*
X84340238Y-84554769D02*
X84282143Y-84583817D01*
X84282143Y-84583817D02*
X84049762Y-84583817D01*
X84630714Y-84322388D02*
X84659762Y-84293341D01*
X84659762Y-84293341D02*
X84717857Y-84264293D01*
X84717857Y-84264293D02*
X84863095Y-84264293D01*
X84863095Y-84264293D02*
X84921190Y-84293341D01*
X84921190Y-84293341D02*
X84950238Y-84322388D01*
X84950238Y-84322388D02*
X84979285Y-84380484D01*
X84979285Y-84380484D02*
X84979285Y-84438579D01*
X84979285Y-84438579D02*
X84950238Y-84525722D01*
X84950238Y-84525722D02*
X84601666Y-84874293D01*
X84601666Y-84874293D02*
X84979285Y-84874293D01*
X89807857Y-93716198D02*
X89778809Y-93745246D01*
X89778809Y-93745246D02*
X89691667Y-93774293D01*
X89691667Y-93774293D02*
X89633571Y-93774293D01*
X89633571Y-93774293D02*
X89546428Y-93745246D01*
X89546428Y-93745246D02*
X89488333Y-93687150D01*
X89488333Y-93687150D02*
X89459286Y-93629055D01*
X89459286Y-93629055D02*
X89430238Y-93512865D01*
X89430238Y-93512865D02*
X89430238Y-93425722D01*
X89430238Y-93425722D02*
X89459286Y-93309531D01*
X89459286Y-93309531D02*
X89488333Y-93251436D01*
X89488333Y-93251436D02*
X89546428Y-93193341D01*
X89546428Y-93193341D02*
X89633571Y-93164293D01*
X89633571Y-93164293D02*
X89691667Y-93164293D01*
X89691667Y-93164293D02*
X89778809Y-93193341D01*
X89778809Y-93193341D02*
X89807857Y-93222388D01*
X90388809Y-93774293D02*
X90040238Y-93774293D01*
X90214524Y-93774293D02*
X90214524Y-93164293D01*
X90214524Y-93164293D02*
X90156428Y-93251436D01*
X90156428Y-93251436D02*
X90098333Y-93309531D01*
X90098333Y-93309531D02*
X90040238Y-93338579D01*
X90766428Y-93164293D02*
X90824523Y-93164293D01*
X90824523Y-93164293D02*
X90882619Y-93193341D01*
X90882619Y-93193341D02*
X90911666Y-93222388D01*
X90911666Y-93222388D02*
X90940714Y-93280484D01*
X90940714Y-93280484D02*
X90969761Y-93396674D01*
X90969761Y-93396674D02*
X90969761Y-93541912D01*
X90969761Y-93541912D02*
X90940714Y-93658103D01*
X90940714Y-93658103D02*
X90911666Y-93716198D01*
X90911666Y-93716198D02*
X90882619Y-93745246D01*
X90882619Y-93745246D02*
X90824523Y-93774293D01*
X90824523Y-93774293D02*
X90766428Y-93774293D01*
X90766428Y-93774293D02*
X90708333Y-93745246D01*
X90708333Y-93745246D02*
X90679285Y-93716198D01*
X90679285Y-93716198D02*
X90650238Y-93658103D01*
X90650238Y-93658103D02*
X90621190Y-93541912D01*
X90621190Y-93541912D02*
X90621190Y-93396674D01*
X90621190Y-93396674D02*
X90650238Y-93280484D01*
X90650238Y-93280484D02*
X90679285Y-93222388D01*
X90679285Y-93222388D02*
X90708333Y-93193341D01*
X90708333Y-93193341D02*
X90766428Y-93164293D01*
X92835237Y-91093341D02*
X92777142Y-91064293D01*
X92777142Y-91064293D02*
X92689999Y-91064293D01*
X92689999Y-91064293D02*
X92602856Y-91093341D01*
X92602856Y-91093341D02*
X92544761Y-91151436D01*
X92544761Y-91151436D02*
X92515714Y-91209531D01*
X92515714Y-91209531D02*
X92486666Y-91325722D01*
X92486666Y-91325722D02*
X92486666Y-91412865D01*
X92486666Y-91412865D02*
X92515714Y-91529055D01*
X92515714Y-91529055D02*
X92544761Y-91587150D01*
X92544761Y-91587150D02*
X92602856Y-91645246D01*
X92602856Y-91645246D02*
X92689999Y-91674293D01*
X92689999Y-91674293D02*
X92748095Y-91674293D01*
X92748095Y-91674293D02*
X92835237Y-91645246D01*
X92835237Y-91645246D02*
X92864285Y-91616198D01*
X92864285Y-91616198D02*
X92864285Y-91412865D01*
X92864285Y-91412865D02*
X92748095Y-91412865D01*
X93125714Y-91674293D02*
X93125714Y-91064293D01*
X93125714Y-91064293D02*
X93474285Y-91674293D01*
X93474285Y-91674293D02*
X93474285Y-91064293D01*
X93764762Y-91674293D02*
X93764762Y-91064293D01*
X93764762Y-91064293D02*
X93910000Y-91064293D01*
X93910000Y-91064293D02*
X93997143Y-91093341D01*
X93997143Y-91093341D02*
X94055238Y-91151436D01*
X94055238Y-91151436D02*
X94084285Y-91209531D01*
X94084285Y-91209531D02*
X94113333Y-91325722D01*
X94113333Y-91325722D02*
X94113333Y-91412865D01*
X94113333Y-91412865D02*
X94084285Y-91529055D01*
X94084285Y-91529055D02*
X94055238Y-91587150D01*
X94055238Y-91587150D02*
X93997143Y-91645246D01*
X93997143Y-91645246D02*
X93910000Y-91674293D01*
X93910000Y-91674293D02*
X93764762Y-91674293D01*
X93041904Y-105532388D02*
X92983809Y-105503341D01*
X92983809Y-105503341D02*
X92925714Y-105445246D01*
X92925714Y-105445246D02*
X92838571Y-105358103D01*
X92838571Y-105358103D02*
X92780476Y-105329055D01*
X92780476Y-105329055D02*
X92722380Y-105329055D01*
X92751428Y-105474293D02*
X92693333Y-105445246D01*
X92693333Y-105445246D02*
X92635238Y-105387150D01*
X92635238Y-105387150D02*
X92606190Y-105270960D01*
X92606190Y-105270960D02*
X92606190Y-105067626D01*
X92606190Y-105067626D02*
X92635238Y-104951436D01*
X92635238Y-104951436D02*
X92693333Y-104893341D01*
X92693333Y-104893341D02*
X92751428Y-104864293D01*
X92751428Y-104864293D02*
X92867619Y-104864293D01*
X92867619Y-104864293D02*
X92925714Y-104893341D01*
X92925714Y-104893341D02*
X92983809Y-104951436D01*
X92983809Y-104951436D02*
X93012857Y-105067626D01*
X93012857Y-105067626D02*
X93012857Y-105270960D01*
X93012857Y-105270960D02*
X92983809Y-105387150D01*
X92983809Y-105387150D02*
X92925714Y-105445246D01*
X92925714Y-105445246D02*
X92867619Y-105474293D01*
X92867619Y-105474293D02*
X92751428Y-105474293D01*
X93216190Y-104864293D02*
X93593809Y-104864293D01*
X93593809Y-104864293D02*
X93390476Y-105096674D01*
X93390476Y-105096674D02*
X93477619Y-105096674D01*
X93477619Y-105096674D02*
X93535714Y-105125722D01*
X93535714Y-105125722D02*
X93564762Y-105154769D01*
X93564762Y-105154769D02*
X93593809Y-105212865D01*
X93593809Y-105212865D02*
X93593809Y-105358103D01*
X93593809Y-105358103D02*
X93564762Y-105416198D01*
X93564762Y-105416198D02*
X93535714Y-105445246D01*
X93535714Y-105445246D02*
X93477619Y-105474293D01*
X93477619Y-105474293D02*
X93303333Y-105474293D01*
X93303333Y-105474293D02*
X93245238Y-105445246D01*
X93245238Y-105445246D02*
X93216190Y-105416198D01*
X64907857Y-148774293D02*
X64704524Y-148483817D01*
X64559286Y-148774293D02*
X64559286Y-148164293D01*
X64559286Y-148164293D02*
X64791667Y-148164293D01*
X64791667Y-148164293D02*
X64849762Y-148193341D01*
X64849762Y-148193341D02*
X64878809Y-148222388D01*
X64878809Y-148222388D02*
X64907857Y-148280484D01*
X64907857Y-148280484D02*
X64907857Y-148367626D01*
X64907857Y-148367626D02*
X64878809Y-148425722D01*
X64878809Y-148425722D02*
X64849762Y-148454769D01*
X64849762Y-148454769D02*
X64791667Y-148483817D01*
X64791667Y-148483817D02*
X64559286Y-148483817D01*
X65488809Y-148774293D02*
X65140238Y-148774293D01*
X65314524Y-148774293D02*
X65314524Y-148164293D01*
X65314524Y-148164293D02*
X65256428Y-148251436D01*
X65256428Y-148251436D02*
X65198333Y-148309531D01*
X65198333Y-148309531D02*
X65140238Y-148338579D01*
X65779285Y-148774293D02*
X65895476Y-148774293D01*
X65895476Y-148774293D02*
X65953571Y-148745246D01*
X65953571Y-148745246D02*
X65982619Y-148716198D01*
X65982619Y-148716198D02*
X66040714Y-148629055D01*
X66040714Y-148629055D02*
X66069761Y-148512865D01*
X66069761Y-148512865D02*
X66069761Y-148280484D01*
X66069761Y-148280484D02*
X66040714Y-148222388D01*
X66040714Y-148222388D02*
X66011666Y-148193341D01*
X66011666Y-148193341D02*
X65953571Y-148164293D01*
X65953571Y-148164293D02*
X65837380Y-148164293D01*
X65837380Y-148164293D02*
X65779285Y-148193341D01*
X65779285Y-148193341D02*
X65750238Y-148222388D01*
X65750238Y-148222388D02*
X65721190Y-148280484D01*
X65721190Y-148280484D02*
X65721190Y-148425722D01*
X65721190Y-148425722D02*
X65750238Y-148483817D01*
X65750238Y-148483817D02*
X65779285Y-148512865D01*
X65779285Y-148512865D02*
X65837380Y-148541912D01*
X65837380Y-148541912D02*
X65953571Y-148541912D01*
X65953571Y-148541912D02*
X66011666Y-148512865D01*
X66011666Y-148512865D02*
X66040714Y-148483817D01*
X66040714Y-148483817D02*
X66069761Y-148425722D01*
X93316198Y-111567142D02*
X93345246Y-111596190D01*
X93345246Y-111596190D02*
X93374293Y-111683332D01*
X93374293Y-111683332D02*
X93374293Y-111741428D01*
X93374293Y-111741428D02*
X93345246Y-111828571D01*
X93345246Y-111828571D02*
X93287150Y-111886666D01*
X93287150Y-111886666D02*
X93229055Y-111915713D01*
X93229055Y-111915713D02*
X93112865Y-111944761D01*
X93112865Y-111944761D02*
X93025722Y-111944761D01*
X93025722Y-111944761D02*
X92909531Y-111915713D01*
X92909531Y-111915713D02*
X92851436Y-111886666D01*
X92851436Y-111886666D02*
X92793341Y-111828571D01*
X92793341Y-111828571D02*
X92764293Y-111741428D01*
X92764293Y-111741428D02*
X92764293Y-111683332D01*
X92764293Y-111683332D02*
X92793341Y-111596190D01*
X92793341Y-111596190D02*
X92822388Y-111567142D01*
X93374293Y-110986190D02*
X93374293Y-111334761D01*
X93374293Y-111160475D02*
X92764293Y-111160475D01*
X92764293Y-111160475D02*
X92851436Y-111218571D01*
X92851436Y-111218571D02*
X92909531Y-111276666D01*
X92909531Y-111276666D02*
X92938579Y-111334761D01*
X92822388Y-110753809D02*
X92793341Y-110724761D01*
X92793341Y-110724761D02*
X92764293Y-110666666D01*
X92764293Y-110666666D02*
X92764293Y-110521428D01*
X92764293Y-110521428D02*
X92793341Y-110463333D01*
X92793341Y-110463333D02*
X92822388Y-110434285D01*
X92822388Y-110434285D02*
X92880484Y-110405238D01*
X92880484Y-110405238D02*
X92938579Y-110405238D01*
X92938579Y-110405238D02*
X93025722Y-110434285D01*
X93025722Y-110434285D02*
X93374293Y-110782857D01*
X93374293Y-110782857D02*
X93374293Y-110405238D01*
X95274293Y-126292142D02*
X94983817Y-126495475D01*
X95274293Y-126640713D02*
X94664293Y-126640713D01*
X94664293Y-126640713D02*
X94664293Y-126408332D01*
X94664293Y-126408332D02*
X94693341Y-126350237D01*
X94693341Y-126350237D02*
X94722388Y-126321190D01*
X94722388Y-126321190D02*
X94780484Y-126292142D01*
X94780484Y-126292142D02*
X94867626Y-126292142D01*
X94867626Y-126292142D02*
X94925722Y-126321190D01*
X94925722Y-126321190D02*
X94954769Y-126350237D01*
X94954769Y-126350237D02*
X94983817Y-126408332D01*
X94983817Y-126408332D02*
X94983817Y-126640713D01*
X94722388Y-126059761D02*
X94693341Y-126030713D01*
X94693341Y-126030713D02*
X94664293Y-125972618D01*
X94664293Y-125972618D02*
X94664293Y-125827380D01*
X94664293Y-125827380D02*
X94693341Y-125769285D01*
X94693341Y-125769285D02*
X94722388Y-125740237D01*
X94722388Y-125740237D02*
X94780484Y-125711190D01*
X94780484Y-125711190D02*
X94838579Y-125711190D01*
X94838579Y-125711190D02*
X94925722Y-125740237D01*
X94925722Y-125740237D02*
X95274293Y-126088809D01*
X95274293Y-126088809D02*
X95274293Y-125711190D01*
X94925722Y-125362619D02*
X94896674Y-125420714D01*
X94896674Y-125420714D02*
X94867626Y-125449761D01*
X94867626Y-125449761D02*
X94809531Y-125478809D01*
X94809531Y-125478809D02*
X94780484Y-125478809D01*
X94780484Y-125478809D02*
X94722388Y-125449761D01*
X94722388Y-125449761D02*
X94693341Y-125420714D01*
X94693341Y-125420714D02*
X94664293Y-125362619D01*
X94664293Y-125362619D02*
X94664293Y-125246428D01*
X94664293Y-125246428D02*
X94693341Y-125188333D01*
X94693341Y-125188333D02*
X94722388Y-125159285D01*
X94722388Y-125159285D02*
X94780484Y-125130238D01*
X94780484Y-125130238D02*
X94809531Y-125130238D01*
X94809531Y-125130238D02*
X94867626Y-125159285D01*
X94867626Y-125159285D02*
X94896674Y-125188333D01*
X94896674Y-125188333D02*
X94925722Y-125246428D01*
X94925722Y-125246428D02*
X94925722Y-125362619D01*
X94925722Y-125362619D02*
X94954769Y-125420714D01*
X94954769Y-125420714D02*
X94983817Y-125449761D01*
X94983817Y-125449761D02*
X95041912Y-125478809D01*
X95041912Y-125478809D02*
X95158103Y-125478809D01*
X95158103Y-125478809D02*
X95216198Y-125449761D01*
X95216198Y-125449761D02*
X95245246Y-125420714D01*
X95245246Y-125420714D02*
X95274293Y-125362619D01*
X95274293Y-125362619D02*
X95274293Y-125246428D01*
X95274293Y-125246428D02*
X95245246Y-125188333D01*
X95245246Y-125188333D02*
X95216198Y-125159285D01*
X95216198Y-125159285D02*
X95158103Y-125130238D01*
X95158103Y-125130238D02*
X95041912Y-125130238D01*
X95041912Y-125130238D02*
X94983817Y-125159285D01*
X94983817Y-125159285D02*
X94954769Y-125188333D01*
X94954769Y-125188333D02*
X94925722Y-125246428D01*
X92107857Y-107074293D02*
X91904524Y-106783817D01*
X91759286Y-107074293D02*
X91759286Y-106464293D01*
X91759286Y-106464293D02*
X91991667Y-106464293D01*
X91991667Y-106464293D02*
X92049762Y-106493341D01*
X92049762Y-106493341D02*
X92078809Y-106522388D01*
X92078809Y-106522388D02*
X92107857Y-106580484D01*
X92107857Y-106580484D02*
X92107857Y-106667626D01*
X92107857Y-106667626D02*
X92078809Y-106725722D01*
X92078809Y-106725722D02*
X92049762Y-106754769D01*
X92049762Y-106754769D02*
X91991667Y-106783817D01*
X91991667Y-106783817D02*
X91759286Y-106783817D01*
X92311190Y-106464293D02*
X92688809Y-106464293D01*
X92688809Y-106464293D02*
X92485476Y-106696674D01*
X92485476Y-106696674D02*
X92572619Y-106696674D01*
X92572619Y-106696674D02*
X92630714Y-106725722D01*
X92630714Y-106725722D02*
X92659762Y-106754769D01*
X92659762Y-106754769D02*
X92688809Y-106812865D01*
X92688809Y-106812865D02*
X92688809Y-106958103D01*
X92688809Y-106958103D02*
X92659762Y-107016198D01*
X92659762Y-107016198D02*
X92630714Y-107045246D01*
X92630714Y-107045246D02*
X92572619Y-107074293D01*
X92572619Y-107074293D02*
X92398333Y-107074293D01*
X92398333Y-107074293D02*
X92340238Y-107045246D01*
X92340238Y-107045246D02*
X92311190Y-107016198D01*
X93240714Y-106464293D02*
X92950238Y-106464293D01*
X92950238Y-106464293D02*
X92921190Y-106754769D01*
X92921190Y-106754769D02*
X92950238Y-106725722D01*
X92950238Y-106725722D02*
X93008333Y-106696674D01*
X93008333Y-106696674D02*
X93153571Y-106696674D01*
X93153571Y-106696674D02*
X93211666Y-106725722D01*
X93211666Y-106725722D02*
X93240714Y-106754769D01*
X93240714Y-106754769D02*
X93269761Y-106812865D01*
X93269761Y-106812865D02*
X93269761Y-106958103D01*
X93269761Y-106958103D02*
X93240714Y-107016198D01*
X93240714Y-107016198D02*
X93211666Y-107045246D01*
X93211666Y-107045246D02*
X93153571Y-107074293D01*
X93153571Y-107074293D02*
X93008333Y-107074293D01*
X93008333Y-107074293D02*
X92950238Y-107045246D01*
X92950238Y-107045246D02*
X92921190Y-107016198D01*
X70149762Y-145274293D02*
X70149762Y-144664293D01*
X70149762Y-144664293D02*
X70295000Y-144664293D01*
X70295000Y-144664293D02*
X70382143Y-144693341D01*
X70382143Y-144693341D02*
X70440238Y-144751436D01*
X70440238Y-144751436D02*
X70469285Y-144809531D01*
X70469285Y-144809531D02*
X70498333Y-144925722D01*
X70498333Y-144925722D02*
X70498333Y-145012865D01*
X70498333Y-145012865D02*
X70469285Y-145129055D01*
X70469285Y-145129055D02*
X70440238Y-145187150D01*
X70440238Y-145187150D02*
X70382143Y-145245246D01*
X70382143Y-145245246D02*
X70295000Y-145274293D01*
X70295000Y-145274293D02*
X70149762Y-145274293D01*
X71021190Y-144664293D02*
X70905000Y-144664293D01*
X70905000Y-144664293D02*
X70846904Y-144693341D01*
X70846904Y-144693341D02*
X70817857Y-144722388D01*
X70817857Y-144722388D02*
X70759762Y-144809531D01*
X70759762Y-144809531D02*
X70730714Y-144925722D01*
X70730714Y-144925722D02*
X70730714Y-145158103D01*
X70730714Y-145158103D02*
X70759762Y-145216198D01*
X70759762Y-145216198D02*
X70788809Y-145245246D01*
X70788809Y-145245246D02*
X70846904Y-145274293D01*
X70846904Y-145274293D02*
X70963095Y-145274293D01*
X70963095Y-145274293D02*
X71021190Y-145245246D01*
X71021190Y-145245246D02*
X71050238Y-145216198D01*
X71050238Y-145216198D02*
X71079285Y-145158103D01*
X71079285Y-145158103D02*
X71079285Y-145012865D01*
X71079285Y-145012865D02*
X71050238Y-144954769D01*
X71050238Y-144954769D02*
X71021190Y-144925722D01*
X71021190Y-144925722D02*
X70963095Y-144896674D01*
X70963095Y-144896674D02*
X70846904Y-144896674D01*
X70846904Y-144896674D02*
X70788809Y-144925722D01*
X70788809Y-144925722D02*
X70759762Y-144954769D01*
X70759762Y-144954769D02*
X70730714Y-145012865D01*
X96507857Y-149174293D02*
X96304524Y-148883817D01*
X96159286Y-149174293D02*
X96159286Y-148564293D01*
X96159286Y-148564293D02*
X96391667Y-148564293D01*
X96391667Y-148564293D02*
X96449762Y-148593341D01*
X96449762Y-148593341D02*
X96478809Y-148622388D01*
X96478809Y-148622388D02*
X96507857Y-148680484D01*
X96507857Y-148680484D02*
X96507857Y-148767626D01*
X96507857Y-148767626D02*
X96478809Y-148825722D01*
X96478809Y-148825722D02*
X96449762Y-148854769D01*
X96449762Y-148854769D02*
X96391667Y-148883817D01*
X96391667Y-148883817D02*
X96159286Y-148883817D01*
X96740238Y-148622388D02*
X96769286Y-148593341D01*
X96769286Y-148593341D02*
X96827381Y-148564293D01*
X96827381Y-148564293D02*
X96972619Y-148564293D01*
X96972619Y-148564293D02*
X97030714Y-148593341D01*
X97030714Y-148593341D02*
X97059762Y-148622388D01*
X97059762Y-148622388D02*
X97088809Y-148680484D01*
X97088809Y-148680484D02*
X97088809Y-148738579D01*
X97088809Y-148738579D02*
X97059762Y-148825722D01*
X97059762Y-148825722D02*
X96711190Y-149174293D01*
X96711190Y-149174293D02*
X97088809Y-149174293D01*
X97669761Y-149174293D02*
X97321190Y-149174293D01*
X97495476Y-149174293D02*
X97495476Y-148564293D01*
X97495476Y-148564293D02*
X97437380Y-148651436D01*
X97437380Y-148651436D02*
X97379285Y-148709531D01*
X97379285Y-148709531D02*
X97321190Y-148738579D01*
X79398333Y-92816198D02*
X79369285Y-92845246D01*
X79369285Y-92845246D02*
X79282143Y-92874293D01*
X79282143Y-92874293D02*
X79224047Y-92874293D01*
X79224047Y-92874293D02*
X79136904Y-92845246D01*
X79136904Y-92845246D02*
X79078809Y-92787150D01*
X79078809Y-92787150D02*
X79049762Y-92729055D01*
X79049762Y-92729055D02*
X79020714Y-92612865D01*
X79020714Y-92612865D02*
X79020714Y-92525722D01*
X79020714Y-92525722D02*
X79049762Y-92409531D01*
X79049762Y-92409531D02*
X79078809Y-92351436D01*
X79078809Y-92351436D02*
X79136904Y-92293341D01*
X79136904Y-92293341D02*
X79224047Y-92264293D01*
X79224047Y-92264293D02*
X79282143Y-92264293D01*
X79282143Y-92264293D02*
X79369285Y-92293341D01*
X79369285Y-92293341D02*
X79398333Y-92322388D01*
X79630714Y-92322388D02*
X79659762Y-92293341D01*
X79659762Y-92293341D02*
X79717857Y-92264293D01*
X79717857Y-92264293D02*
X79863095Y-92264293D01*
X79863095Y-92264293D02*
X79921190Y-92293341D01*
X79921190Y-92293341D02*
X79950238Y-92322388D01*
X79950238Y-92322388D02*
X79979285Y-92380484D01*
X79979285Y-92380484D02*
X79979285Y-92438579D01*
X79979285Y-92438579D02*
X79950238Y-92525722D01*
X79950238Y-92525722D02*
X79601666Y-92874293D01*
X79601666Y-92874293D02*
X79979285Y-92874293D01*
X86298333Y-97516198D02*
X86269285Y-97545246D01*
X86269285Y-97545246D02*
X86182143Y-97574293D01*
X86182143Y-97574293D02*
X86124047Y-97574293D01*
X86124047Y-97574293D02*
X86036904Y-97545246D01*
X86036904Y-97545246D02*
X85978809Y-97487150D01*
X85978809Y-97487150D02*
X85949762Y-97429055D01*
X85949762Y-97429055D02*
X85920714Y-97312865D01*
X85920714Y-97312865D02*
X85920714Y-97225722D01*
X85920714Y-97225722D02*
X85949762Y-97109531D01*
X85949762Y-97109531D02*
X85978809Y-97051436D01*
X85978809Y-97051436D02*
X86036904Y-96993341D01*
X86036904Y-96993341D02*
X86124047Y-96964293D01*
X86124047Y-96964293D02*
X86182143Y-96964293D01*
X86182143Y-96964293D02*
X86269285Y-96993341D01*
X86269285Y-96993341D02*
X86298333Y-97022388D01*
X86588809Y-97574293D02*
X86705000Y-97574293D01*
X86705000Y-97574293D02*
X86763095Y-97545246D01*
X86763095Y-97545246D02*
X86792143Y-97516198D01*
X86792143Y-97516198D02*
X86850238Y-97429055D01*
X86850238Y-97429055D02*
X86879285Y-97312865D01*
X86879285Y-97312865D02*
X86879285Y-97080484D01*
X86879285Y-97080484D02*
X86850238Y-97022388D01*
X86850238Y-97022388D02*
X86821190Y-96993341D01*
X86821190Y-96993341D02*
X86763095Y-96964293D01*
X86763095Y-96964293D02*
X86646904Y-96964293D01*
X86646904Y-96964293D02*
X86588809Y-96993341D01*
X86588809Y-96993341D02*
X86559762Y-97022388D01*
X86559762Y-97022388D02*
X86530714Y-97080484D01*
X86530714Y-97080484D02*
X86530714Y-97225722D01*
X86530714Y-97225722D02*
X86559762Y-97283817D01*
X86559762Y-97283817D02*
X86588809Y-97312865D01*
X86588809Y-97312865D02*
X86646904Y-97341912D01*
X86646904Y-97341912D02*
X86763095Y-97341912D01*
X86763095Y-97341912D02*
X86821190Y-97312865D01*
X86821190Y-97312865D02*
X86850238Y-97283817D01*
X86850238Y-97283817D02*
X86879285Y-97225722D01*
X79541904Y-87332388D02*
X79483809Y-87303341D01*
X79483809Y-87303341D02*
X79425714Y-87245246D01*
X79425714Y-87245246D02*
X79338571Y-87158103D01*
X79338571Y-87158103D02*
X79280476Y-87129055D01*
X79280476Y-87129055D02*
X79222380Y-87129055D01*
X79251428Y-87274293D02*
X79193333Y-87245246D01*
X79193333Y-87245246D02*
X79135238Y-87187150D01*
X79135238Y-87187150D02*
X79106190Y-87070960D01*
X79106190Y-87070960D02*
X79106190Y-86867626D01*
X79106190Y-86867626D02*
X79135238Y-86751436D01*
X79135238Y-86751436D02*
X79193333Y-86693341D01*
X79193333Y-86693341D02*
X79251428Y-86664293D01*
X79251428Y-86664293D02*
X79367619Y-86664293D01*
X79367619Y-86664293D02*
X79425714Y-86693341D01*
X79425714Y-86693341D02*
X79483809Y-86751436D01*
X79483809Y-86751436D02*
X79512857Y-86867626D01*
X79512857Y-86867626D02*
X79512857Y-87070960D01*
X79512857Y-87070960D02*
X79483809Y-87187150D01*
X79483809Y-87187150D02*
X79425714Y-87245246D01*
X79425714Y-87245246D02*
X79367619Y-87274293D01*
X79367619Y-87274293D02*
X79251428Y-87274293D01*
X80093809Y-87274293D02*
X79745238Y-87274293D01*
X79919524Y-87274293D02*
X79919524Y-86664293D01*
X79919524Y-86664293D02*
X79861428Y-86751436D01*
X79861428Y-86751436D02*
X79803333Y-86809531D01*
X79803333Y-86809531D02*
X79745238Y-86838579D01*
X91598333Y-141016198D02*
X91569285Y-141045246D01*
X91569285Y-141045246D02*
X91482143Y-141074293D01*
X91482143Y-141074293D02*
X91424047Y-141074293D01*
X91424047Y-141074293D02*
X91336904Y-141045246D01*
X91336904Y-141045246D02*
X91278809Y-140987150D01*
X91278809Y-140987150D02*
X91249762Y-140929055D01*
X91249762Y-140929055D02*
X91220714Y-140812865D01*
X91220714Y-140812865D02*
X91220714Y-140725722D01*
X91220714Y-140725722D02*
X91249762Y-140609531D01*
X91249762Y-140609531D02*
X91278809Y-140551436D01*
X91278809Y-140551436D02*
X91336904Y-140493341D01*
X91336904Y-140493341D02*
X91424047Y-140464293D01*
X91424047Y-140464293D02*
X91482143Y-140464293D01*
X91482143Y-140464293D02*
X91569285Y-140493341D01*
X91569285Y-140493341D02*
X91598333Y-140522388D01*
X92121190Y-140667626D02*
X92121190Y-141074293D01*
X91975952Y-140435246D02*
X91830714Y-140870960D01*
X91830714Y-140870960D02*
X92208333Y-140870960D01*
X84298333Y-85974293D02*
X84095000Y-85683817D01*
X83949762Y-85974293D02*
X83949762Y-85364293D01*
X83949762Y-85364293D02*
X84182143Y-85364293D01*
X84182143Y-85364293D02*
X84240238Y-85393341D01*
X84240238Y-85393341D02*
X84269285Y-85422388D01*
X84269285Y-85422388D02*
X84298333Y-85480484D01*
X84298333Y-85480484D02*
X84298333Y-85567626D01*
X84298333Y-85567626D02*
X84269285Y-85625722D01*
X84269285Y-85625722D02*
X84240238Y-85654769D01*
X84240238Y-85654769D02*
X84182143Y-85683817D01*
X84182143Y-85683817D02*
X83949762Y-85683817D01*
X84850238Y-85364293D02*
X84559762Y-85364293D01*
X84559762Y-85364293D02*
X84530714Y-85654769D01*
X84530714Y-85654769D02*
X84559762Y-85625722D01*
X84559762Y-85625722D02*
X84617857Y-85596674D01*
X84617857Y-85596674D02*
X84763095Y-85596674D01*
X84763095Y-85596674D02*
X84821190Y-85625722D01*
X84821190Y-85625722D02*
X84850238Y-85654769D01*
X84850238Y-85654769D02*
X84879285Y-85712865D01*
X84879285Y-85712865D02*
X84879285Y-85858103D01*
X84879285Y-85858103D02*
X84850238Y-85916198D01*
X84850238Y-85916198D02*
X84821190Y-85945246D01*
X84821190Y-85945246D02*
X84763095Y-85974293D01*
X84763095Y-85974293D02*
X84617857Y-85974293D01*
X84617857Y-85974293D02*
X84559762Y-85945246D01*
X84559762Y-85945246D02*
X84530714Y-85916198D01*
X77498333Y-83974293D02*
X77295000Y-83683817D01*
X77149762Y-83974293D02*
X77149762Y-83364293D01*
X77149762Y-83364293D02*
X77382143Y-83364293D01*
X77382143Y-83364293D02*
X77440238Y-83393341D01*
X77440238Y-83393341D02*
X77469285Y-83422388D01*
X77469285Y-83422388D02*
X77498333Y-83480484D01*
X77498333Y-83480484D02*
X77498333Y-83567626D01*
X77498333Y-83567626D02*
X77469285Y-83625722D01*
X77469285Y-83625722D02*
X77440238Y-83654769D01*
X77440238Y-83654769D02*
X77382143Y-83683817D01*
X77382143Y-83683817D02*
X77149762Y-83683817D01*
X78079285Y-83974293D02*
X77730714Y-83974293D01*
X77905000Y-83974293D02*
X77905000Y-83364293D01*
X77905000Y-83364293D02*
X77846904Y-83451436D01*
X77846904Y-83451436D02*
X77788809Y-83509531D01*
X77788809Y-83509531D02*
X77730714Y-83538579D01*
X78098333Y-88716198D02*
X78069285Y-88745246D01*
X78069285Y-88745246D02*
X77982143Y-88774293D01*
X77982143Y-88774293D02*
X77924047Y-88774293D01*
X77924047Y-88774293D02*
X77836904Y-88745246D01*
X77836904Y-88745246D02*
X77778809Y-88687150D01*
X77778809Y-88687150D02*
X77749762Y-88629055D01*
X77749762Y-88629055D02*
X77720714Y-88512865D01*
X77720714Y-88512865D02*
X77720714Y-88425722D01*
X77720714Y-88425722D02*
X77749762Y-88309531D01*
X77749762Y-88309531D02*
X77778809Y-88251436D01*
X77778809Y-88251436D02*
X77836904Y-88193341D01*
X77836904Y-88193341D02*
X77924047Y-88164293D01*
X77924047Y-88164293D02*
X77982143Y-88164293D01*
X77982143Y-88164293D02*
X78069285Y-88193341D01*
X78069285Y-88193341D02*
X78098333Y-88222388D01*
X78679285Y-88774293D02*
X78330714Y-88774293D01*
X78505000Y-88774293D02*
X78505000Y-88164293D01*
X78505000Y-88164293D02*
X78446904Y-88251436D01*
X78446904Y-88251436D02*
X78388809Y-88309531D01*
X78388809Y-88309531D02*
X78330714Y-88338579D01*
X85996666Y-77464293D02*
X85996666Y-77900007D01*
X85996666Y-77900007D02*
X85967619Y-77987150D01*
X85967619Y-77987150D02*
X85909523Y-78045246D01*
X85909523Y-78045246D02*
X85822381Y-78074293D01*
X85822381Y-78074293D02*
X85764285Y-78074293D01*
X86606666Y-78074293D02*
X86258095Y-78074293D01*
X86432381Y-78074293D02*
X86432381Y-77464293D01*
X86432381Y-77464293D02*
X86374285Y-77551436D01*
X86374285Y-77551436D02*
X86316190Y-77609531D01*
X86316190Y-77609531D02*
X86258095Y-77638579D01*
X91507857Y-98774293D02*
X91304524Y-98483817D01*
X91159286Y-98774293D02*
X91159286Y-98164293D01*
X91159286Y-98164293D02*
X91391667Y-98164293D01*
X91391667Y-98164293D02*
X91449762Y-98193341D01*
X91449762Y-98193341D02*
X91478809Y-98222388D01*
X91478809Y-98222388D02*
X91507857Y-98280484D01*
X91507857Y-98280484D02*
X91507857Y-98367626D01*
X91507857Y-98367626D02*
X91478809Y-98425722D01*
X91478809Y-98425722D02*
X91449762Y-98454769D01*
X91449762Y-98454769D02*
X91391667Y-98483817D01*
X91391667Y-98483817D02*
X91159286Y-98483817D01*
X91711190Y-98164293D02*
X92088809Y-98164293D01*
X92088809Y-98164293D02*
X91885476Y-98396674D01*
X91885476Y-98396674D02*
X91972619Y-98396674D01*
X91972619Y-98396674D02*
X92030714Y-98425722D01*
X92030714Y-98425722D02*
X92059762Y-98454769D01*
X92059762Y-98454769D02*
X92088809Y-98512865D01*
X92088809Y-98512865D02*
X92088809Y-98658103D01*
X92088809Y-98658103D02*
X92059762Y-98716198D01*
X92059762Y-98716198D02*
X92030714Y-98745246D01*
X92030714Y-98745246D02*
X91972619Y-98774293D01*
X91972619Y-98774293D02*
X91798333Y-98774293D01*
X91798333Y-98774293D02*
X91740238Y-98745246D01*
X91740238Y-98745246D02*
X91711190Y-98716198D01*
X92466428Y-98164293D02*
X92524523Y-98164293D01*
X92524523Y-98164293D02*
X92582619Y-98193341D01*
X92582619Y-98193341D02*
X92611666Y-98222388D01*
X92611666Y-98222388D02*
X92640714Y-98280484D01*
X92640714Y-98280484D02*
X92669761Y-98396674D01*
X92669761Y-98396674D02*
X92669761Y-98541912D01*
X92669761Y-98541912D02*
X92640714Y-98658103D01*
X92640714Y-98658103D02*
X92611666Y-98716198D01*
X92611666Y-98716198D02*
X92582619Y-98745246D01*
X92582619Y-98745246D02*
X92524523Y-98774293D01*
X92524523Y-98774293D02*
X92466428Y-98774293D01*
X92466428Y-98774293D02*
X92408333Y-98745246D01*
X92408333Y-98745246D02*
X92379285Y-98716198D01*
X92379285Y-98716198D02*
X92350238Y-98658103D01*
X92350238Y-98658103D02*
X92321190Y-98541912D01*
X92321190Y-98541912D02*
X92321190Y-98396674D01*
X92321190Y-98396674D02*
X92350238Y-98280484D01*
X92350238Y-98280484D02*
X92379285Y-98222388D01*
X92379285Y-98222388D02*
X92408333Y-98193341D01*
X92408333Y-98193341D02*
X92466428Y-98164293D01*
X92474293Y-111592142D02*
X92183817Y-111795475D01*
X92474293Y-111940713D02*
X91864293Y-111940713D01*
X91864293Y-111940713D02*
X91864293Y-111708332D01*
X91864293Y-111708332D02*
X91893341Y-111650237D01*
X91893341Y-111650237D02*
X91922388Y-111621190D01*
X91922388Y-111621190D02*
X91980484Y-111592142D01*
X91980484Y-111592142D02*
X92067626Y-111592142D01*
X92067626Y-111592142D02*
X92125722Y-111621190D01*
X92125722Y-111621190D02*
X92154769Y-111650237D01*
X92154769Y-111650237D02*
X92183817Y-111708332D01*
X92183817Y-111708332D02*
X92183817Y-111940713D01*
X91864293Y-111388809D02*
X91864293Y-111011190D01*
X91864293Y-111011190D02*
X92096674Y-111214523D01*
X92096674Y-111214523D02*
X92096674Y-111127380D01*
X92096674Y-111127380D02*
X92125722Y-111069285D01*
X92125722Y-111069285D02*
X92154769Y-111040237D01*
X92154769Y-111040237D02*
X92212865Y-111011190D01*
X92212865Y-111011190D02*
X92358103Y-111011190D01*
X92358103Y-111011190D02*
X92416198Y-111040237D01*
X92416198Y-111040237D02*
X92445246Y-111069285D01*
X92445246Y-111069285D02*
X92474293Y-111127380D01*
X92474293Y-111127380D02*
X92474293Y-111301666D01*
X92474293Y-111301666D02*
X92445246Y-111359761D01*
X92445246Y-111359761D02*
X92416198Y-111388809D01*
X92067626Y-110488333D02*
X92474293Y-110488333D01*
X91835246Y-110633571D02*
X92270960Y-110778809D01*
X92270960Y-110778809D02*
X92270960Y-110401190D01*
X70415714Y-101064293D02*
X70764285Y-101064293D01*
X70589999Y-101674293D02*
X70589999Y-101064293D01*
X70967619Y-101674293D02*
X70967619Y-101064293D01*
X70967619Y-101354769D02*
X71316190Y-101354769D01*
X71316190Y-101674293D02*
X71316190Y-101064293D01*
X71926190Y-101674293D02*
X71577619Y-101674293D01*
X71751905Y-101674293D02*
X71751905Y-101064293D01*
X71751905Y-101064293D02*
X71693809Y-101151436D01*
X71693809Y-101151436D02*
X71635714Y-101209531D01*
X71635714Y-101209531D02*
X71577619Y-101238579D01*
X88298333Y-87074293D02*
X88095000Y-86783817D01*
X87949762Y-87074293D02*
X87949762Y-86464293D01*
X87949762Y-86464293D02*
X88182143Y-86464293D01*
X88182143Y-86464293D02*
X88240238Y-86493341D01*
X88240238Y-86493341D02*
X88269285Y-86522388D01*
X88269285Y-86522388D02*
X88298333Y-86580484D01*
X88298333Y-86580484D02*
X88298333Y-86667626D01*
X88298333Y-86667626D02*
X88269285Y-86725722D01*
X88269285Y-86725722D02*
X88240238Y-86754769D01*
X88240238Y-86754769D02*
X88182143Y-86783817D01*
X88182143Y-86783817D02*
X87949762Y-86783817D01*
X88501666Y-86464293D02*
X88879285Y-86464293D01*
X88879285Y-86464293D02*
X88675952Y-86696674D01*
X88675952Y-86696674D02*
X88763095Y-86696674D01*
X88763095Y-86696674D02*
X88821190Y-86725722D01*
X88821190Y-86725722D02*
X88850238Y-86754769D01*
X88850238Y-86754769D02*
X88879285Y-86812865D01*
X88879285Y-86812865D02*
X88879285Y-86958103D01*
X88879285Y-86958103D02*
X88850238Y-87016198D01*
X88850238Y-87016198D02*
X88821190Y-87045246D01*
X88821190Y-87045246D02*
X88763095Y-87074293D01*
X88763095Y-87074293D02*
X88588809Y-87074293D01*
X88588809Y-87074293D02*
X88530714Y-87045246D01*
X88530714Y-87045246D02*
X88501666Y-87016198D01*
X92374293Y-121992142D02*
X92083817Y-122195475D01*
X92374293Y-122340713D02*
X91764293Y-122340713D01*
X91764293Y-122340713D02*
X91764293Y-122108332D01*
X91764293Y-122108332D02*
X91793341Y-122050237D01*
X91793341Y-122050237D02*
X91822388Y-122021190D01*
X91822388Y-122021190D02*
X91880484Y-121992142D01*
X91880484Y-121992142D02*
X91967626Y-121992142D01*
X91967626Y-121992142D02*
X92025722Y-122021190D01*
X92025722Y-122021190D02*
X92054769Y-122050237D01*
X92054769Y-122050237D02*
X92083817Y-122108332D01*
X92083817Y-122108332D02*
X92083817Y-122340713D01*
X91822388Y-121759761D02*
X91793341Y-121730713D01*
X91793341Y-121730713D02*
X91764293Y-121672618D01*
X91764293Y-121672618D02*
X91764293Y-121527380D01*
X91764293Y-121527380D02*
X91793341Y-121469285D01*
X91793341Y-121469285D02*
X91822388Y-121440237D01*
X91822388Y-121440237D02*
X91880484Y-121411190D01*
X91880484Y-121411190D02*
X91938579Y-121411190D01*
X91938579Y-121411190D02*
X92025722Y-121440237D01*
X92025722Y-121440237D02*
X92374293Y-121788809D01*
X92374293Y-121788809D02*
X92374293Y-121411190D01*
X91764293Y-121207857D02*
X91764293Y-120801190D01*
X91764293Y-120801190D02*
X92374293Y-121062619D01*
X98149762Y-122474293D02*
X98149762Y-121864293D01*
X98149762Y-121864293D02*
X98295000Y-121864293D01*
X98295000Y-121864293D02*
X98382143Y-121893341D01*
X98382143Y-121893341D02*
X98440238Y-121951436D01*
X98440238Y-121951436D02*
X98469285Y-122009531D01*
X98469285Y-122009531D02*
X98498333Y-122125722D01*
X98498333Y-122125722D02*
X98498333Y-122212865D01*
X98498333Y-122212865D02*
X98469285Y-122329055D01*
X98469285Y-122329055D02*
X98440238Y-122387150D01*
X98440238Y-122387150D02*
X98382143Y-122445246D01*
X98382143Y-122445246D02*
X98295000Y-122474293D01*
X98295000Y-122474293D02*
X98149762Y-122474293D01*
X98701666Y-121864293D02*
X99108333Y-121864293D01*
X99108333Y-121864293D02*
X98846904Y-122474293D01*
X92207857Y-100174293D02*
X92004524Y-99883817D01*
X91859286Y-100174293D02*
X91859286Y-99564293D01*
X91859286Y-99564293D02*
X92091667Y-99564293D01*
X92091667Y-99564293D02*
X92149762Y-99593341D01*
X92149762Y-99593341D02*
X92178809Y-99622388D01*
X92178809Y-99622388D02*
X92207857Y-99680484D01*
X92207857Y-99680484D02*
X92207857Y-99767626D01*
X92207857Y-99767626D02*
X92178809Y-99825722D01*
X92178809Y-99825722D02*
X92149762Y-99854769D01*
X92149762Y-99854769D02*
X92091667Y-99883817D01*
X92091667Y-99883817D02*
X91859286Y-99883817D01*
X92440238Y-99622388D02*
X92469286Y-99593341D01*
X92469286Y-99593341D02*
X92527381Y-99564293D01*
X92527381Y-99564293D02*
X92672619Y-99564293D01*
X92672619Y-99564293D02*
X92730714Y-99593341D01*
X92730714Y-99593341D02*
X92759762Y-99622388D01*
X92759762Y-99622388D02*
X92788809Y-99680484D01*
X92788809Y-99680484D02*
X92788809Y-99738579D01*
X92788809Y-99738579D02*
X92759762Y-99825722D01*
X92759762Y-99825722D02*
X92411190Y-100174293D01*
X92411190Y-100174293D02*
X92788809Y-100174293D01*
X93311666Y-99564293D02*
X93195476Y-99564293D01*
X93195476Y-99564293D02*
X93137380Y-99593341D01*
X93137380Y-99593341D02*
X93108333Y-99622388D01*
X93108333Y-99622388D02*
X93050238Y-99709531D01*
X93050238Y-99709531D02*
X93021190Y-99825722D01*
X93021190Y-99825722D02*
X93021190Y-100058103D01*
X93021190Y-100058103D02*
X93050238Y-100116198D01*
X93050238Y-100116198D02*
X93079285Y-100145246D01*
X93079285Y-100145246D02*
X93137380Y-100174293D01*
X93137380Y-100174293D02*
X93253571Y-100174293D01*
X93253571Y-100174293D02*
X93311666Y-100145246D01*
X93311666Y-100145246D02*
X93340714Y-100116198D01*
X93340714Y-100116198D02*
X93369761Y-100058103D01*
X93369761Y-100058103D02*
X93369761Y-99912865D01*
X93369761Y-99912865D02*
X93340714Y-99854769D01*
X93340714Y-99854769D02*
X93311666Y-99825722D01*
X93311666Y-99825722D02*
X93253571Y-99796674D01*
X93253571Y-99796674D02*
X93137380Y-99796674D01*
X93137380Y-99796674D02*
X93079285Y-99825722D01*
X93079285Y-99825722D02*
X93050238Y-99854769D01*
X93050238Y-99854769D02*
X93021190Y-99912865D01*
X84607857Y-93574293D02*
X84404524Y-93283817D01*
X84259286Y-93574293D02*
X84259286Y-92964293D01*
X84259286Y-92964293D02*
X84491667Y-92964293D01*
X84491667Y-92964293D02*
X84549762Y-92993341D01*
X84549762Y-92993341D02*
X84578809Y-93022388D01*
X84578809Y-93022388D02*
X84607857Y-93080484D01*
X84607857Y-93080484D02*
X84607857Y-93167626D01*
X84607857Y-93167626D02*
X84578809Y-93225722D01*
X84578809Y-93225722D02*
X84549762Y-93254769D01*
X84549762Y-93254769D02*
X84491667Y-93283817D01*
X84491667Y-93283817D02*
X84259286Y-93283817D01*
X84811190Y-92964293D02*
X85188809Y-92964293D01*
X85188809Y-92964293D02*
X84985476Y-93196674D01*
X84985476Y-93196674D02*
X85072619Y-93196674D01*
X85072619Y-93196674D02*
X85130714Y-93225722D01*
X85130714Y-93225722D02*
X85159762Y-93254769D01*
X85159762Y-93254769D02*
X85188809Y-93312865D01*
X85188809Y-93312865D02*
X85188809Y-93458103D01*
X85188809Y-93458103D02*
X85159762Y-93516198D01*
X85159762Y-93516198D02*
X85130714Y-93545246D01*
X85130714Y-93545246D02*
X85072619Y-93574293D01*
X85072619Y-93574293D02*
X84898333Y-93574293D01*
X84898333Y-93574293D02*
X84840238Y-93545246D01*
X84840238Y-93545246D02*
X84811190Y-93516198D01*
X85392142Y-92964293D02*
X85798809Y-92964293D01*
X85798809Y-92964293D02*
X85537380Y-93574293D01*
X98607857Y-143574293D02*
X98404524Y-143283817D01*
X98259286Y-143574293D02*
X98259286Y-142964293D01*
X98259286Y-142964293D02*
X98491667Y-142964293D01*
X98491667Y-142964293D02*
X98549762Y-142993341D01*
X98549762Y-142993341D02*
X98578809Y-143022388D01*
X98578809Y-143022388D02*
X98607857Y-143080484D01*
X98607857Y-143080484D02*
X98607857Y-143167626D01*
X98607857Y-143167626D02*
X98578809Y-143225722D01*
X98578809Y-143225722D02*
X98549762Y-143254769D01*
X98549762Y-143254769D02*
X98491667Y-143283817D01*
X98491667Y-143283817D02*
X98259286Y-143283817D01*
X98840238Y-143022388D02*
X98869286Y-142993341D01*
X98869286Y-142993341D02*
X98927381Y-142964293D01*
X98927381Y-142964293D02*
X99072619Y-142964293D01*
X99072619Y-142964293D02*
X99130714Y-142993341D01*
X99130714Y-142993341D02*
X99159762Y-143022388D01*
X99159762Y-143022388D02*
X99188809Y-143080484D01*
X99188809Y-143080484D02*
X99188809Y-143138579D01*
X99188809Y-143138579D02*
X99159762Y-143225722D01*
X99159762Y-143225722D02*
X98811190Y-143574293D01*
X98811190Y-143574293D02*
X99188809Y-143574293D01*
X99421190Y-143022388D02*
X99450238Y-142993341D01*
X99450238Y-142993341D02*
X99508333Y-142964293D01*
X99508333Y-142964293D02*
X99653571Y-142964293D01*
X99653571Y-142964293D02*
X99711666Y-142993341D01*
X99711666Y-142993341D02*
X99740714Y-143022388D01*
X99740714Y-143022388D02*
X99769761Y-143080484D01*
X99769761Y-143080484D02*
X99769761Y-143138579D01*
X99769761Y-143138579D02*
X99740714Y-143225722D01*
X99740714Y-143225722D02*
X99392142Y-143574293D01*
X99392142Y-143574293D02*
X99769761Y-143574293D01*
X85249762Y-80574293D02*
X85249762Y-79964293D01*
X85249762Y-79964293D02*
X85395000Y-79964293D01*
X85395000Y-79964293D02*
X85482143Y-79993341D01*
X85482143Y-79993341D02*
X85540238Y-80051436D01*
X85540238Y-80051436D02*
X85569285Y-80109531D01*
X85569285Y-80109531D02*
X85598333Y-80225722D01*
X85598333Y-80225722D02*
X85598333Y-80312865D01*
X85598333Y-80312865D02*
X85569285Y-80429055D01*
X85569285Y-80429055D02*
X85540238Y-80487150D01*
X85540238Y-80487150D02*
X85482143Y-80545246D01*
X85482143Y-80545246D02*
X85395000Y-80574293D01*
X85395000Y-80574293D02*
X85249762Y-80574293D01*
X86179285Y-80574293D02*
X85830714Y-80574293D01*
X86005000Y-80574293D02*
X86005000Y-79964293D01*
X86005000Y-79964293D02*
X85946904Y-80051436D01*
X85946904Y-80051436D02*
X85888809Y-80109531D01*
X85888809Y-80109531D02*
X85830714Y-80138579D01*
X83207857Y-78174293D02*
X83004524Y-77883817D01*
X82859286Y-78174293D02*
X82859286Y-77564293D01*
X82859286Y-77564293D02*
X83091667Y-77564293D01*
X83091667Y-77564293D02*
X83149762Y-77593341D01*
X83149762Y-77593341D02*
X83178809Y-77622388D01*
X83178809Y-77622388D02*
X83207857Y-77680484D01*
X83207857Y-77680484D02*
X83207857Y-77767626D01*
X83207857Y-77767626D02*
X83178809Y-77825722D01*
X83178809Y-77825722D02*
X83149762Y-77854769D01*
X83149762Y-77854769D02*
X83091667Y-77883817D01*
X83091667Y-77883817D02*
X82859286Y-77883817D01*
X83788809Y-78174293D02*
X83440238Y-78174293D01*
X83614524Y-78174293D02*
X83614524Y-77564293D01*
X83614524Y-77564293D02*
X83556428Y-77651436D01*
X83556428Y-77651436D02*
X83498333Y-77709531D01*
X83498333Y-77709531D02*
X83440238Y-77738579D01*
X84369761Y-78174293D02*
X84021190Y-78174293D01*
X84195476Y-78174293D02*
X84195476Y-77564293D01*
X84195476Y-77564293D02*
X84137380Y-77651436D01*
X84137380Y-77651436D02*
X84079285Y-77709531D01*
X84079285Y-77709531D02*
X84021190Y-77738579D01*
X93186667Y-150245246D02*
X93273810Y-150274293D01*
X93273810Y-150274293D02*
X93419048Y-150274293D01*
X93419048Y-150274293D02*
X93477143Y-150245246D01*
X93477143Y-150245246D02*
X93506191Y-150216198D01*
X93506191Y-150216198D02*
X93535238Y-150158103D01*
X93535238Y-150158103D02*
X93535238Y-150100007D01*
X93535238Y-150100007D02*
X93506191Y-150041912D01*
X93506191Y-150041912D02*
X93477143Y-150012865D01*
X93477143Y-150012865D02*
X93419048Y-149983817D01*
X93419048Y-149983817D02*
X93302857Y-149954769D01*
X93302857Y-149954769D02*
X93244762Y-149925722D01*
X93244762Y-149925722D02*
X93215715Y-149896674D01*
X93215715Y-149896674D02*
X93186667Y-149838579D01*
X93186667Y-149838579D02*
X93186667Y-149780484D01*
X93186667Y-149780484D02*
X93215715Y-149722388D01*
X93215715Y-149722388D02*
X93244762Y-149693341D01*
X93244762Y-149693341D02*
X93302857Y-149664293D01*
X93302857Y-149664293D02*
X93448096Y-149664293D01*
X93448096Y-149664293D02*
X93535238Y-149693341D01*
X93738571Y-149664293D02*
X93883809Y-150274293D01*
X93883809Y-150274293D02*
X94000000Y-149838579D01*
X94000000Y-149838579D02*
X94116190Y-150274293D01*
X94116190Y-150274293D02*
X94261429Y-149664293D01*
X94813333Y-150274293D02*
X94464762Y-150274293D01*
X94639048Y-150274293D02*
X94639048Y-149664293D01*
X94639048Y-149664293D02*
X94580952Y-149751436D01*
X94580952Y-149751436D02*
X94522857Y-149809531D01*
X94522857Y-149809531D02*
X94464762Y-149838579D01*
X77107857Y-97474293D02*
X76904524Y-97183817D01*
X76759286Y-97474293D02*
X76759286Y-96864293D01*
X76759286Y-96864293D02*
X76991667Y-96864293D01*
X76991667Y-96864293D02*
X77049762Y-96893341D01*
X77049762Y-96893341D02*
X77078809Y-96922388D01*
X77078809Y-96922388D02*
X77107857Y-96980484D01*
X77107857Y-96980484D02*
X77107857Y-97067626D01*
X77107857Y-97067626D02*
X77078809Y-97125722D01*
X77078809Y-97125722D02*
X77049762Y-97154769D01*
X77049762Y-97154769D02*
X76991667Y-97183817D01*
X76991667Y-97183817D02*
X76759286Y-97183817D01*
X77311190Y-96864293D02*
X77688809Y-96864293D01*
X77688809Y-96864293D02*
X77485476Y-97096674D01*
X77485476Y-97096674D02*
X77572619Y-97096674D01*
X77572619Y-97096674D02*
X77630714Y-97125722D01*
X77630714Y-97125722D02*
X77659762Y-97154769D01*
X77659762Y-97154769D02*
X77688809Y-97212865D01*
X77688809Y-97212865D02*
X77688809Y-97358103D01*
X77688809Y-97358103D02*
X77659762Y-97416198D01*
X77659762Y-97416198D02*
X77630714Y-97445246D01*
X77630714Y-97445246D02*
X77572619Y-97474293D01*
X77572619Y-97474293D02*
X77398333Y-97474293D01*
X77398333Y-97474293D02*
X77340238Y-97445246D01*
X77340238Y-97445246D02*
X77311190Y-97416198D01*
X78269761Y-97474293D02*
X77921190Y-97474293D01*
X78095476Y-97474293D02*
X78095476Y-96864293D01*
X78095476Y-96864293D02*
X78037380Y-96951436D01*
X78037380Y-96951436D02*
X77979285Y-97009531D01*
X77979285Y-97009531D02*
X77921190Y-97038579D01*
X88535238Y-98364293D02*
X88535238Y-98858103D01*
X88535238Y-98858103D02*
X88564285Y-98916198D01*
X88564285Y-98916198D02*
X88593333Y-98945246D01*
X88593333Y-98945246D02*
X88651428Y-98974293D01*
X88651428Y-98974293D02*
X88767619Y-98974293D01*
X88767619Y-98974293D02*
X88825714Y-98945246D01*
X88825714Y-98945246D02*
X88854761Y-98916198D01*
X88854761Y-98916198D02*
X88883809Y-98858103D01*
X88883809Y-98858103D02*
X88883809Y-98364293D01*
X89464762Y-98364293D02*
X89174286Y-98364293D01*
X89174286Y-98364293D02*
X89145238Y-98654769D01*
X89145238Y-98654769D02*
X89174286Y-98625722D01*
X89174286Y-98625722D02*
X89232381Y-98596674D01*
X89232381Y-98596674D02*
X89377619Y-98596674D01*
X89377619Y-98596674D02*
X89435714Y-98625722D01*
X89435714Y-98625722D02*
X89464762Y-98654769D01*
X89464762Y-98654769D02*
X89493809Y-98712865D01*
X89493809Y-98712865D02*
X89493809Y-98858103D01*
X89493809Y-98858103D02*
X89464762Y-98916198D01*
X89464762Y-98916198D02*
X89435714Y-98945246D01*
X89435714Y-98945246D02*
X89377619Y-98974293D01*
X89377619Y-98974293D02*
X89232381Y-98974293D01*
X89232381Y-98974293D02*
X89174286Y-98945246D01*
X89174286Y-98945246D02*
X89145238Y-98916198D01*
X76147143Y-78478919D02*
X76147143Y-77858919D01*
X76147143Y-77858919D02*
X76294762Y-77858919D01*
X76294762Y-77858919D02*
X76383333Y-77888443D01*
X76383333Y-77888443D02*
X76442381Y-77947491D01*
X76442381Y-77947491D02*
X76471904Y-78006538D01*
X76471904Y-78006538D02*
X76501428Y-78124634D01*
X76501428Y-78124634D02*
X76501428Y-78213205D01*
X76501428Y-78213205D02*
X76471904Y-78331300D01*
X76471904Y-78331300D02*
X76442381Y-78390348D01*
X76442381Y-78390348D02*
X76383333Y-78449396D01*
X76383333Y-78449396D02*
X76294762Y-78478919D01*
X76294762Y-78478919D02*
X76147143Y-78478919D01*
X77091904Y-78478919D02*
X76737619Y-78478919D01*
X76914762Y-78478919D02*
X76914762Y-77858919D01*
X76914762Y-77858919D02*
X76855714Y-77947491D01*
X76855714Y-77947491D02*
X76796666Y-78006538D01*
X76796666Y-78006538D02*
X76737619Y-78036062D01*
X77682380Y-78478919D02*
X77328095Y-78478919D01*
X77505238Y-78478919D02*
X77505238Y-77858919D01*
X77505238Y-77858919D02*
X77446190Y-77947491D01*
X77446190Y-77947491D02*
X77387142Y-78006538D01*
X77387142Y-78006538D02*
X77328095Y-78036062D01*
X93207857Y-126774293D02*
X93004524Y-126483817D01*
X92859286Y-126774293D02*
X92859286Y-126164293D01*
X92859286Y-126164293D02*
X93091667Y-126164293D01*
X93091667Y-126164293D02*
X93149762Y-126193341D01*
X93149762Y-126193341D02*
X93178809Y-126222388D01*
X93178809Y-126222388D02*
X93207857Y-126280484D01*
X93207857Y-126280484D02*
X93207857Y-126367626D01*
X93207857Y-126367626D02*
X93178809Y-126425722D01*
X93178809Y-126425722D02*
X93149762Y-126454769D01*
X93149762Y-126454769D02*
X93091667Y-126483817D01*
X93091667Y-126483817D02*
X92859286Y-126483817D01*
X93440238Y-126222388D02*
X93469286Y-126193341D01*
X93469286Y-126193341D02*
X93527381Y-126164293D01*
X93527381Y-126164293D02*
X93672619Y-126164293D01*
X93672619Y-126164293D02*
X93730714Y-126193341D01*
X93730714Y-126193341D02*
X93759762Y-126222388D01*
X93759762Y-126222388D02*
X93788809Y-126280484D01*
X93788809Y-126280484D02*
X93788809Y-126338579D01*
X93788809Y-126338579D02*
X93759762Y-126425722D01*
X93759762Y-126425722D02*
X93411190Y-126774293D01*
X93411190Y-126774293D02*
X93788809Y-126774293D01*
X94166428Y-126164293D02*
X94224523Y-126164293D01*
X94224523Y-126164293D02*
X94282619Y-126193341D01*
X94282619Y-126193341D02*
X94311666Y-126222388D01*
X94311666Y-126222388D02*
X94340714Y-126280484D01*
X94340714Y-126280484D02*
X94369761Y-126396674D01*
X94369761Y-126396674D02*
X94369761Y-126541912D01*
X94369761Y-126541912D02*
X94340714Y-126658103D01*
X94340714Y-126658103D02*
X94311666Y-126716198D01*
X94311666Y-126716198D02*
X94282619Y-126745246D01*
X94282619Y-126745246D02*
X94224523Y-126774293D01*
X94224523Y-126774293D02*
X94166428Y-126774293D01*
X94166428Y-126774293D02*
X94108333Y-126745246D01*
X94108333Y-126745246D02*
X94079285Y-126716198D01*
X94079285Y-126716198D02*
X94050238Y-126658103D01*
X94050238Y-126658103D02*
X94021190Y-126541912D01*
X94021190Y-126541912D02*
X94021190Y-126396674D01*
X94021190Y-126396674D02*
X94050238Y-126280484D01*
X94050238Y-126280484D02*
X94079285Y-126222388D01*
X94079285Y-126222388D02*
X94108333Y-126193341D01*
X94108333Y-126193341D02*
X94166428Y-126164293D01*
X91507857Y-116974293D02*
X91304524Y-116683817D01*
X91159286Y-116974293D02*
X91159286Y-116364293D01*
X91159286Y-116364293D02*
X91391667Y-116364293D01*
X91391667Y-116364293D02*
X91449762Y-116393341D01*
X91449762Y-116393341D02*
X91478809Y-116422388D01*
X91478809Y-116422388D02*
X91507857Y-116480484D01*
X91507857Y-116480484D02*
X91507857Y-116567626D01*
X91507857Y-116567626D02*
X91478809Y-116625722D01*
X91478809Y-116625722D02*
X91449762Y-116654769D01*
X91449762Y-116654769D02*
X91391667Y-116683817D01*
X91391667Y-116683817D02*
X91159286Y-116683817D01*
X91711190Y-116364293D02*
X92088809Y-116364293D01*
X92088809Y-116364293D02*
X91885476Y-116596674D01*
X91885476Y-116596674D02*
X91972619Y-116596674D01*
X91972619Y-116596674D02*
X92030714Y-116625722D01*
X92030714Y-116625722D02*
X92059762Y-116654769D01*
X92059762Y-116654769D02*
X92088809Y-116712865D01*
X92088809Y-116712865D02*
X92088809Y-116858103D01*
X92088809Y-116858103D02*
X92059762Y-116916198D01*
X92059762Y-116916198D02*
X92030714Y-116945246D01*
X92030714Y-116945246D02*
X91972619Y-116974293D01*
X91972619Y-116974293D02*
X91798333Y-116974293D01*
X91798333Y-116974293D02*
X91740238Y-116945246D01*
X91740238Y-116945246D02*
X91711190Y-116916198D01*
X92321190Y-116422388D02*
X92350238Y-116393341D01*
X92350238Y-116393341D02*
X92408333Y-116364293D01*
X92408333Y-116364293D02*
X92553571Y-116364293D01*
X92553571Y-116364293D02*
X92611666Y-116393341D01*
X92611666Y-116393341D02*
X92640714Y-116422388D01*
X92640714Y-116422388D02*
X92669761Y-116480484D01*
X92669761Y-116480484D02*
X92669761Y-116538579D01*
X92669761Y-116538579D02*
X92640714Y-116625722D01*
X92640714Y-116625722D02*
X92292142Y-116974293D01*
X92292142Y-116974293D02*
X92669761Y-116974293D01*
X84249762Y-98674293D02*
X84249762Y-98064293D01*
X84249762Y-98064293D02*
X84395000Y-98064293D01*
X84395000Y-98064293D02*
X84482143Y-98093341D01*
X84482143Y-98093341D02*
X84540238Y-98151436D01*
X84540238Y-98151436D02*
X84569285Y-98209531D01*
X84569285Y-98209531D02*
X84598333Y-98325722D01*
X84598333Y-98325722D02*
X84598333Y-98412865D01*
X84598333Y-98412865D02*
X84569285Y-98529055D01*
X84569285Y-98529055D02*
X84540238Y-98587150D01*
X84540238Y-98587150D02*
X84482143Y-98645246D01*
X84482143Y-98645246D02*
X84395000Y-98674293D01*
X84395000Y-98674293D02*
X84249762Y-98674293D01*
X84801666Y-98064293D02*
X85179285Y-98064293D01*
X85179285Y-98064293D02*
X84975952Y-98296674D01*
X84975952Y-98296674D02*
X85063095Y-98296674D01*
X85063095Y-98296674D02*
X85121190Y-98325722D01*
X85121190Y-98325722D02*
X85150238Y-98354769D01*
X85150238Y-98354769D02*
X85179285Y-98412865D01*
X85179285Y-98412865D02*
X85179285Y-98558103D01*
X85179285Y-98558103D02*
X85150238Y-98616198D01*
X85150238Y-98616198D02*
X85121190Y-98645246D01*
X85121190Y-98645246D02*
X85063095Y-98674293D01*
X85063095Y-98674293D02*
X84888809Y-98674293D01*
X84888809Y-98674293D02*
X84830714Y-98645246D01*
X84830714Y-98645246D02*
X84801666Y-98616198D01*
X76307857Y-171574293D02*
X76104524Y-171283817D01*
X75959286Y-171574293D02*
X75959286Y-170964293D01*
X75959286Y-170964293D02*
X76191667Y-170964293D01*
X76191667Y-170964293D02*
X76249762Y-170993341D01*
X76249762Y-170993341D02*
X76278809Y-171022388D01*
X76278809Y-171022388D02*
X76307857Y-171080484D01*
X76307857Y-171080484D02*
X76307857Y-171167626D01*
X76307857Y-171167626D02*
X76278809Y-171225722D01*
X76278809Y-171225722D02*
X76249762Y-171254769D01*
X76249762Y-171254769D02*
X76191667Y-171283817D01*
X76191667Y-171283817D02*
X75959286Y-171283817D01*
X76888809Y-171574293D02*
X76540238Y-171574293D01*
X76714524Y-171574293D02*
X76714524Y-170964293D01*
X76714524Y-170964293D02*
X76656428Y-171051436D01*
X76656428Y-171051436D02*
X76598333Y-171109531D01*
X76598333Y-171109531D02*
X76540238Y-171138579D01*
X77092142Y-170964293D02*
X77498809Y-170964293D01*
X77498809Y-170964293D02*
X77237380Y-171574293D01*
X98507857Y-140874293D02*
X98304524Y-140583817D01*
X98159286Y-140874293D02*
X98159286Y-140264293D01*
X98159286Y-140264293D02*
X98391667Y-140264293D01*
X98391667Y-140264293D02*
X98449762Y-140293341D01*
X98449762Y-140293341D02*
X98478809Y-140322388D01*
X98478809Y-140322388D02*
X98507857Y-140380484D01*
X98507857Y-140380484D02*
X98507857Y-140467626D01*
X98507857Y-140467626D02*
X98478809Y-140525722D01*
X98478809Y-140525722D02*
X98449762Y-140554769D01*
X98449762Y-140554769D02*
X98391667Y-140583817D01*
X98391667Y-140583817D02*
X98159286Y-140583817D01*
X98740238Y-140322388D02*
X98769286Y-140293341D01*
X98769286Y-140293341D02*
X98827381Y-140264293D01*
X98827381Y-140264293D02*
X98972619Y-140264293D01*
X98972619Y-140264293D02*
X99030714Y-140293341D01*
X99030714Y-140293341D02*
X99059762Y-140322388D01*
X99059762Y-140322388D02*
X99088809Y-140380484D01*
X99088809Y-140380484D02*
X99088809Y-140438579D01*
X99088809Y-140438579D02*
X99059762Y-140525722D01*
X99059762Y-140525722D02*
X98711190Y-140874293D01*
X98711190Y-140874293D02*
X99088809Y-140874293D01*
X99292142Y-140264293D02*
X99669761Y-140264293D01*
X99669761Y-140264293D02*
X99466428Y-140496674D01*
X99466428Y-140496674D02*
X99553571Y-140496674D01*
X99553571Y-140496674D02*
X99611666Y-140525722D01*
X99611666Y-140525722D02*
X99640714Y-140554769D01*
X99640714Y-140554769D02*
X99669761Y-140612865D01*
X99669761Y-140612865D02*
X99669761Y-140758103D01*
X99669761Y-140758103D02*
X99640714Y-140816198D01*
X99640714Y-140816198D02*
X99611666Y-140845246D01*
X99611666Y-140845246D02*
X99553571Y-140874293D01*
X99553571Y-140874293D02*
X99379285Y-140874293D01*
X99379285Y-140874293D02*
X99321190Y-140845246D01*
X99321190Y-140845246D02*
X99292142Y-140816198D01*
D11*
%TO.C,J4*%
X95570000Y-101405000D02*
G75*
G02*
X95370000Y-101405000I-100000J0D01*
G01*
X95370000Y-101405000D02*
G75*
G02*
X95570000Y-101405000I100000J0D01*
G01*
D13*
%TO.C,D5*%
X65800000Y-119900000D02*
X65800000Y-122600000D01*
X65800000Y-119900000D02*
X66250000Y-119400000D01*
X69400000Y-119400000D02*
X66250000Y-119400000D01*
X69400000Y-122600000D02*
X65800000Y-122600000D01*
%TO.C,R4*%
X84220000Y-91653641D02*
X84220000Y-91346359D01*
X84980000Y-91653641D02*
X84980000Y-91346359D01*
%TO.C,R10*%
X80271359Y-78420000D02*
X80578641Y-78420000D01*
X80271359Y-79180000D02*
X80578641Y-79180000D01*
%TO.C,D8*%
X93800000Y-143900000D02*
X93800000Y-146600000D01*
X93800000Y-143900000D02*
X94250000Y-143400000D01*
X97400000Y-143400000D02*
X94250000Y-143400000D01*
X97400000Y-146600000D02*
X93800000Y-146600000D01*
%TO.C,D9*%
X65300000Y-136600000D02*
X65300000Y-130500000D01*
X66400000Y-136600000D02*
X65300000Y-136600000D01*
X70700000Y-130500000D02*
X70700000Y-135500000D01*
%TO.C,R14*%
X96520000Y-124253641D02*
X96520000Y-123946359D01*
X97280000Y-124253641D02*
X97280000Y-123946359D01*
%TO.C,U4*%
X93815000Y-114400000D02*
X93815000Y-112200000D01*
X93815000Y-114400000D02*
X93815000Y-118200000D01*
X93815000Y-118200000D02*
X94400000Y-118200000D01*
X100585000Y-114400000D02*
X100585000Y-112200000D01*
X100585000Y-114400000D02*
X100585000Y-116600000D01*
%TO.C,R13*%
X99056359Y-119420000D02*
X99363641Y-119420000D01*
X99056359Y-120180000D02*
X99363641Y-120180000D01*
%TO.C,C13*%
X92807836Y-113840000D02*
X92592164Y-113840000D01*
X92807836Y-114560000D02*
X92592164Y-114560000D01*
%TO.C,R6*%
X83446359Y-81220000D02*
X83753641Y-81220000D01*
X83446359Y-81980000D02*
X83753641Y-81980000D01*
%TO.C,R12*%
X69920000Y-104453641D02*
X69920000Y-104146359D01*
X70680000Y-104453641D02*
X70680000Y-104146359D01*
%TO.C,R16*%
X81072936Y-93265000D02*
X81527064Y-93265000D01*
X81072936Y-94735000D02*
X81527064Y-94735000D01*
%TO.C,U1*%
X80340000Y-85050000D02*
X81910000Y-85050000D01*
X80545000Y-83250000D02*
X81905000Y-83250000D01*
X80225000Y-83250000D02*
X79945000Y-83250000D01*
X80225000Y-82970000D01*
X80225000Y-83250000D01*
G36*
X80225000Y-83250000D02*
G01*
X79945000Y-83250000D01*
X80225000Y-82970000D01*
X80225000Y-83250000D01*
G37*
%TO.C,R29*%
X95520000Y-124253641D02*
X95520000Y-123946359D01*
X96280000Y-124253641D02*
X96280000Y-123946359D01*
%TO.C,R36*%
X84220000Y-89346359D02*
X84220000Y-89653641D01*
X84980000Y-89346359D02*
X84980000Y-89653641D01*
%TO.C,C5*%
X94992164Y-141940000D02*
X95207836Y-141940000D01*
X94992164Y-142660000D02*
X95207836Y-142660000D01*
%TO.C,Q2*%
X81862500Y-85440000D02*
X81212500Y-85440000D01*
X81862500Y-85440000D02*
X82512500Y-85440000D01*
X81862500Y-88560000D02*
X81212500Y-88560000D01*
X81862500Y-88560000D02*
X82512500Y-88560000D01*
X83265000Y-88840000D02*
X82785000Y-88840000D01*
X83025000Y-88510000D01*
X83265000Y-88840000D01*
G36*
X83265000Y-88840000D02*
G01*
X82785000Y-88840000D01*
X83025000Y-88510000D01*
X83265000Y-88840000D01*
G37*
%TO.C,R39*%
X98065000Y-138172936D02*
X98065000Y-138627064D01*
X99535000Y-138172936D02*
X99535000Y-138627064D01*
%TO.C,D2*%
X78915000Y-79565000D02*
X78915000Y-81035000D01*
X78915000Y-81035000D02*
X81200000Y-81035000D01*
D14*
X80200000Y-80300000D02*
X80500000Y-80100000D01*
X80500000Y-80100000D02*
X80500000Y-80500000D01*
X80500000Y-80500000D02*
X80200000Y-80300000D01*
D13*
X81200000Y-79565000D02*
X78915000Y-79565000D01*
%TO.C,D10*%
X93300000Y-136600000D02*
X93300000Y-130500000D01*
X94400000Y-136600000D02*
X93300000Y-136600000D01*
X98700000Y-130500000D02*
X98700000Y-135500000D01*
%TO.C,R9*%
X73853641Y-95920000D02*
X73546359Y-95920000D01*
X73853641Y-96680000D02*
X73546359Y-96680000D01*
%TO.C,R7*%
X68620000Y-100753641D02*
X68620000Y-100446359D01*
X69380000Y-100753641D02*
X69380000Y-100446359D01*
%TO.C,C8*%
X97192164Y-118440000D02*
X97407836Y-118440000D01*
X97192164Y-119160000D02*
X97407836Y-119160000D01*
%TO.C,R38*%
X68965000Y-138372936D02*
X68965000Y-138827064D01*
X70435000Y-138372936D02*
X70435000Y-138827064D01*
%TO.C,C7*%
X99345336Y-118440000D02*
X99129664Y-118440000D01*
X99345336Y-119160000D02*
X99129664Y-119160000D01*
%TO.C,D4*%
X79800000Y-167900000D02*
X79800000Y-170600000D01*
X79800000Y-167900000D02*
X80250000Y-167400000D01*
X83400000Y-167400000D02*
X80250000Y-167400000D01*
X83400000Y-170600000D02*
X79800000Y-170600000D01*
%TO.C,C11*%
X93627836Y-118440000D02*
X93412164Y-118440000D01*
X93627836Y-119160000D02*
X93412164Y-119160000D01*
%TO.C,R24*%
X93446359Y-109520000D02*
X93753641Y-109520000D01*
X93446359Y-110280000D02*
X93753641Y-110280000D01*
D14*
%TO.C,U3*%
X94300000Y-141159467D02*
X94300000Y-138159467D01*
X94300000Y-141759467D02*
X94300000Y-141159467D01*
X94500000Y-141759467D02*
X94300000Y-141559467D01*
X95000000Y-141759467D02*
X94300000Y-141759467D01*
X97300000Y-141159467D02*
X97300000Y-138159467D01*
D13*
%TO.C,R8*%
X80553641Y-81220000D02*
X80246359Y-81220000D01*
X80553641Y-81980000D02*
X80246359Y-81980000D01*
%TO.C,R33*%
X93553641Y-127820000D02*
X93246359Y-127820000D01*
X93553641Y-128580000D02*
X93246359Y-128580000D01*
%TO.C,U2*%
X71840000Y-92100000D02*
X71840000Y-90150000D01*
X71840000Y-92100000D02*
X71840000Y-94050000D01*
X76960000Y-92100000D02*
X76960000Y-90150000D01*
X76960000Y-92100000D02*
X76960000Y-94050000D01*
X71935000Y-94800000D02*
X71605000Y-95040000D01*
X71605000Y-94560000D01*
X71935000Y-94800000D01*
G36*
X71935000Y-94800000D02*
G01*
X71605000Y-95040000D01*
X71605000Y-94560000D01*
X71935000Y-94800000D01*
G37*
%TO.C,R18*%
X66365000Y-124827064D02*
X66365000Y-124372936D01*
X67835000Y-124827064D02*
X67835000Y-124372936D01*
%TO.C,R25*%
X93146359Y-108520000D02*
X93453641Y-108520000D01*
X93146359Y-109280000D02*
X93453641Y-109280000D01*
%TO.C,C14*%
X75707836Y-95940000D02*
X75492164Y-95940000D01*
X75707836Y-96660000D02*
X75492164Y-96660000D01*
%TO.C,R15*%
X97520000Y-124253641D02*
X97520000Y-123946359D01*
X98280000Y-124253641D02*
X98280000Y-123946359D01*
%TO.C,C6*%
X98765000Y-123838748D02*
X98765000Y-124361252D01*
X100235000Y-123838748D02*
X100235000Y-124361252D01*
%TO.C,C3*%
X82465000Y-84142164D02*
X82465000Y-84357836D01*
X83185000Y-84142164D02*
X83185000Y-84357836D01*
%TO.C,R2*%
X84653641Y-83320000D02*
X84346359Y-83320000D01*
X84653641Y-84080000D02*
X84346359Y-84080000D01*
%TO.C,C10*%
X90307836Y-93990000D02*
X90092164Y-93990000D01*
X90307836Y-94710000D02*
X90092164Y-94710000D01*
%TO.C,TP1*%
X92550000Y-90200000D02*
G75*
G02*
X89650000Y-90200000I-1450000J0D01*
G01*
X89650000Y-90200000D02*
G75*
G02*
X92550000Y-90200000I1450000J0D01*
G01*
%TO.C,Q3*%
X91490000Y-103000000D02*
X91490000Y-102350000D01*
X91490000Y-103000000D02*
X91490000Y-103650000D01*
X94610000Y-103000000D02*
X94610000Y-102350000D01*
X94610000Y-103000000D02*
X94610000Y-103650000D01*
X94890000Y-102077500D02*
X94560000Y-101837500D01*
X94890000Y-101597500D01*
X94890000Y-102077500D01*
G36*
X94890000Y-102077500D02*
G01*
X94560000Y-101837500D01*
X94890000Y-101597500D01*
X94890000Y-102077500D01*
G37*
%TO.C,R19*%
X66365000Y-148727064D02*
X66365000Y-148272936D01*
X67835000Y-148727064D02*
X67835000Y-148272936D01*
%TO.C,C12*%
X92815000Y-112692164D02*
X92815000Y-112907836D01*
X93535000Y-112692164D02*
X93535000Y-112907836D01*
%TO.C,R28*%
X94520000Y-124253641D02*
X94520000Y-123946359D01*
X95280000Y-124253641D02*
X95280000Y-123946359D01*
%TO.C,R35*%
X93320000Y-107246359D02*
X93320000Y-107553641D01*
X94080000Y-107246359D02*
X94080000Y-107553641D01*
%TO.C,D6*%
X65800000Y-143900000D02*
X65800000Y-146600000D01*
X65800000Y-143900000D02*
X66250000Y-143400000D01*
X69400000Y-143400000D02*
X66250000Y-143400000D01*
X69400000Y-146600000D02*
X65800000Y-146600000D01*
%TO.C,R21*%
X97114564Y-146865000D02*
X96660436Y-146865000D01*
X97114564Y-148335000D02*
X96660436Y-148335000D01*
%TO.C,C2*%
X77430000Y-94136252D02*
X77430000Y-93613748D01*
X78900000Y-94136252D02*
X78900000Y-93613748D01*
%TO.C,C9*%
X86040000Y-95942164D02*
X86040000Y-96157836D01*
X86760000Y-95942164D02*
X86760000Y-96157836D01*
%TO.C,Q1*%
X81862500Y-88940000D02*
X81212500Y-88940000D01*
X81862500Y-88940000D02*
X82512500Y-88940000D01*
X81862500Y-92060000D02*
X81212500Y-92060000D01*
X81862500Y-92060000D02*
X82512500Y-92060000D01*
X80700000Y-88990000D02*
X80460000Y-88660000D01*
X80940000Y-88660000D01*
X80700000Y-88990000D01*
G36*
X80700000Y-88990000D02*
G01*
X80460000Y-88660000D01*
X80940000Y-88660000D01*
X80700000Y-88990000D01*
G37*
%TO.C,C4*%
X92439999Y-141011252D02*
X92439999Y-140488748D01*
X93909999Y-141011252D02*
X93909999Y-140488748D01*
%TO.C,R5*%
X83920000Y-87053641D02*
X83920000Y-86746359D01*
X84680000Y-87053641D02*
X84680000Y-86746359D01*
%TO.C,R1*%
X76590000Y-80272936D02*
X76590000Y-81727064D01*
X78410000Y-80272936D02*
X78410000Y-81727064D01*
%TO.C,C1*%
X77430000Y-90063748D02*
X77430000Y-90586252D01*
X78900000Y-90063748D02*
X78900000Y-90586252D01*
D15*
%TO.C,J1*%
X77530000Y-70400000D02*
X77530000Y-71155000D01*
X77530000Y-74955000D02*
X77530000Y-73545000D01*
X86470000Y-70400000D02*
X86470000Y-71155000D01*
X86470000Y-74955000D02*
X86470000Y-73545000D01*
D13*
%TO.C,R30*%
X91220000Y-97353641D02*
X91220000Y-97046359D01*
X91980000Y-97353641D02*
X91980000Y-97046359D01*
%TO.C,R34*%
X91820000Y-112953641D02*
X91820000Y-112646359D01*
X92580000Y-112953641D02*
X92580000Y-112646359D01*
%TO.C,TH1*%
X70962742Y-101977500D02*
X71437258Y-101977500D01*
X70962742Y-103022500D02*
X71437258Y-103022500D01*
%TO.C,R3*%
X86846359Y-86420000D02*
X87153641Y-86420000D01*
X86846359Y-87180000D02*
X87153641Y-87180000D01*
%TO.C,R27*%
X95553641Y-118420000D02*
X95246359Y-118420000D01*
X95553641Y-119180000D02*
X95246359Y-119180000D01*
%TO.C,D7*%
X93800000Y-119900000D02*
X93800000Y-122600000D01*
X93800000Y-119900000D02*
X94250000Y-119400000D01*
X97400000Y-119400000D02*
X94250000Y-119400000D01*
X97400000Y-122600000D02*
X93800000Y-122600000D01*
%TO.C,R26*%
X93620000Y-99746359D02*
X93620000Y-100053641D01*
X94380000Y-99746359D02*
X94380000Y-100053641D01*
%TO.C,R37*%
X84620000Y-94346359D02*
X84620000Y-94653641D01*
X85380000Y-94346359D02*
X85380000Y-94653641D01*
%TO.C,R22*%
X98846359Y-142020000D02*
X99153641Y-142020000D01*
X98846359Y-142780000D02*
X99153641Y-142780000D01*
%TO.C,D1*%
X82800000Y-81035000D02*
X85085000Y-81035000D01*
D14*
X83500000Y-80100000D02*
X83800000Y-80300000D01*
X83500000Y-80500000D02*
X83500000Y-80100000D01*
X83800000Y-80300000D02*
X83500000Y-80500000D01*
D13*
X85085000Y-79565000D02*
X82800000Y-79565000D01*
X85085000Y-81035000D02*
X85085000Y-79565000D01*
%TO.C,R11*%
X83753641Y-78420000D02*
X83446359Y-78420000D01*
X83753641Y-79180000D02*
X83446359Y-79180000D01*
%TO.C,SW1*%
X92300000Y-152900000D02*
X92300000Y-166400000D01*
X92300000Y-166400000D02*
X95700000Y-166400000D01*
X93635000Y-152900000D02*
X92965000Y-151500000D01*
X94365000Y-152900000D02*
X95035000Y-151500000D01*
X95700000Y-152900000D02*
X92300000Y-152900000D01*
X95700000Y-166400000D02*
X95700000Y-152900000D01*
%TO.C,R31*%
X77653641Y-95920000D02*
X77346359Y-95920000D01*
X77653641Y-96680000D02*
X77346359Y-96680000D01*
%TO.C,U5*%
X89000000Y-94990000D02*
X88200000Y-94990000D01*
X89000000Y-94990000D02*
X89800000Y-94990000D01*
X89000000Y-98110000D02*
X88200000Y-98110000D01*
X89000000Y-98110000D02*
X89800000Y-98110000D01*
X87700000Y-95040000D02*
X87460000Y-94710000D01*
X87940000Y-94710000D01*
X87700000Y-95040000D01*
G36*
X87700000Y-95040000D02*
G01*
X87460000Y-94710000D01*
X87940000Y-94710000D01*
X87700000Y-95040000D01*
G37*
%TO.C,D11*%
X79310000Y-77390000D02*
X77900000Y-77390000D01*
X79310000Y-78610000D02*
X77900000Y-78610000D01*
X79310000Y-78610000D02*
X79310000Y-77390000D01*
%TO.C,R20*%
X92665000Y-124627064D02*
X92665000Y-124172936D01*
X94135000Y-124627064D02*
X94135000Y-124172936D01*
%TO.C,R32*%
X92720000Y-117463641D02*
X92720000Y-117156359D01*
X93480000Y-117463641D02*
X93480000Y-117156359D01*
%TO.C,D3*%
X79800000Y-95900000D02*
X79800000Y-98600000D01*
X79800000Y-95900000D02*
X80250000Y-95400000D01*
X83400000Y-95400000D02*
X80250000Y-95400000D01*
X83400000Y-98600000D02*
X79800000Y-98600000D01*
%TO.C,R17*%
X77965000Y-171527064D02*
X77965000Y-171072936D01*
X79435000Y-171527064D02*
X79435000Y-171072936D01*
%TO.C,R23*%
X98846359Y-141020000D02*
X99153641Y-141020000D01*
X98846359Y-141780000D02*
X99153641Y-141780000D01*
D16*
%TO.C,G\u002A\u002A\u002A*%
G36*
X68040000Y-109324452D02*
G01*
X68040000Y-109788904D01*
X68188617Y-109761023D01*
X68392679Y-109700707D01*
X68528327Y-109607259D01*
X68596113Y-109493955D01*
X68622446Y-109332569D01*
X68598667Y-109174378D01*
X68530220Y-109050482D01*
X68516038Y-109036416D01*
X68451118Y-108960235D01*
X68449924Y-108912102D01*
X68492516Y-108900000D01*
X68556076Y-108930000D01*
X68641858Y-109005636D01*
X68728651Y-109105359D01*
X68795112Y-109207371D01*
X68835182Y-109350157D01*
X68841394Y-109532160D01*
X68816097Y-109721262D01*
X68761642Y-109885342D01*
X68742962Y-109920000D01*
X68605953Y-110087170D01*
X68427564Y-110193758D01*
X68196145Y-110246645D01*
X68188710Y-110247428D01*
X67960000Y-110246295D01*
X67929205Y-110246142D01*
X67714313Y-110182141D01*
X67535689Y-110052669D01*
X67506972Y-110022450D01*
X67371843Y-109826848D01*
X67299637Y-109619035D01*
X67294621Y-109521347D01*
X67400000Y-109521347D01*
X67437746Y-109625968D01*
X67550266Y-109704463D01*
X67736482Y-109756134D01*
X67770000Y-109761425D01*
X67960000Y-109789084D01*
X67960000Y-109544542D01*
X67960000Y-109300000D01*
X67768900Y-109300000D01*
X67590709Y-109321700D01*
X67466359Y-109383157D01*
X67404948Y-109478913D01*
X67400000Y-109521347D01*
X67294621Y-109521347D01*
X67289052Y-109412874D01*
X67338786Y-109222230D01*
X67447537Y-109060965D01*
X67608092Y-108945765D01*
X67742346Y-108893584D01*
X67871773Y-108863178D01*
X67912628Y-108860000D01*
X68040000Y-108860000D01*
X68040000Y-109324452D01*
G37*
G36*
X67651337Y-106210363D02*
G01*
X67732136Y-106290630D01*
X67755689Y-106404568D01*
X67715879Y-106535945D01*
X67676126Y-106595840D01*
X67623249Y-106676787D01*
X67615107Y-106736221D01*
X67658632Y-106777201D01*
X67760751Y-106802784D01*
X67928396Y-106816028D01*
X68168496Y-106819991D01*
X68184135Y-106820000D01*
X68390000Y-106819551D01*
X68529671Y-106816430D01*
X68616955Y-106807980D01*
X68665659Y-106791543D01*
X68689588Y-106764461D01*
X68702549Y-106724076D01*
X68703574Y-106720000D01*
X68733564Y-106632692D01*
X68759196Y-106621115D01*
X68779268Y-106681064D01*
X68792577Y-106808330D01*
X68797921Y-106998709D01*
X68797901Y-107050000D01*
X68796227Y-107237762D01*
X68792033Y-107356329D01*
X68783259Y-107416506D01*
X68767842Y-107429095D01*
X68743722Y-107404901D01*
X68733023Y-107390000D01*
X68703364Y-107353568D01*
X68664716Y-107328567D01*
X68602871Y-107312853D01*
X68503625Y-107304283D01*
X68352770Y-107300713D01*
X68136528Y-107300000D01*
X67919929Y-107300765D01*
X67769585Y-107304392D01*
X67671758Y-107312883D01*
X67612707Y-107328238D01*
X67578694Y-107352459D01*
X67557701Y-107384295D01*
X67512970Y-107436027D01*
X67481537Y-107434295D01*
X67449571Y-107375719D01*
X67409006Y-107271661D01*
X67367329Y-107146231D01*
X67332032Y-107023541D01*
X67310601Y-106927701D01*
X67310310Y-106883023D01*
X67364319Y-106864925D01*
X67426917Y-106860000D01*
X67520501Y-106860000D01*
X67400250Y-106693999D01*
X67330113Y-106581095D01*
X67286780Y-106480367D01*
X67279999Y-106442899D01*
X67312734Y-106314315D01*
X67397349Y-106219250D01*
X67513456Y-106180090D01*
X67519411Y-106180000D01*
X67651337Y-106210363D01*
G37*
G36*
X67638605Y-107524553D02*
G01*
X67723958Y-107594362D01*
X67755892Y-107701447D01*
X67728007Y-107829985D01*
X67672895Y-107919948D01*
X67617535Y-107996036D01*
X67610799Y-108039109D01*
X67650535Y-108077971D01*
X67660540Y-108085342D01*
X67728995Y-108112187D01*
X67853184Y-108129578D01*
X68042111Y-108138416D01*
X68206883Y-108140000D01*
X68407161Y-108139490D01*
X68541612Y-108136057D01*
X68624407Y-108126847D01*
X68669716Y-108109009D01*
X68691714Y-108079687D01*
X68703574Y-108040000D01*
X68733687Y-107953173D01*
X68759799Y-107941894D01*
X68780491Y-108001752D01*
X68794347Y-108128337D01*
X68799948Y-108317238D01*
X68800000Y-108340000D01*
X68796680Y-108507903D01*
X68787730Y-108641102D01*
X68774661Y-108722667D01*
X68764279Y-108740000D01*
X68720552Y-108708168D01*
X68705534Y-108680000D01*
X68683203Y-108655560D01*
X68630271Y-108638555D01*
X68534949Y-108627774D01*
X68385450Y-108622007D01*
X68169985Y-108620043D01*
X68121255Y-108620000D01*
X67895116Y-108621198D01*
X67737502Y-108625605D01*
X67636963Y-108634447D01*
X67582048Y-108648948D01*
X67561306Y-108670331D01*
X67560000Y-108680000D01*
X67545510Y-108741384D01*
X67508706Y-108739139D01*
X67459584Y-108682821D01*
X67408140Y-108581985D01*
X67382159Y-108510000D01*
X67340144Y-108378319D01*
X67306005Y-108274344D01*
X67290574Y-108230000D01*
X67307070Y-108190418D01*
X67369053Y-108180000D01*
X67463399Y-108169492D01*
X67486475Y-108132285D01*
X67440894Y-108059857D01*
X67414836Y-108030649D01*
X67322784Y-107893016D01*
X67289940Y-107755551D01*
X67313462Y-107634526D01*
X67390504Y-107546212D01*
X67506230Y-107507840D01*
X67638605Y-107524553D01*
G37*
G36*
X67638605Y-115364553D02*
G01*
X67723958Y-115434362D01*
X67755892Y-115541447D01*
X67728007Y-115669985D01*
X67672895Y-115759948D01*
X67617535Y-115836036D01*
X67610799Y-115879109D01*
X67650535Y-115917971D01*
X67660540Y-115925342D01*
X67728995Y-115952187D01*
X67853184Y-115969578D01*
X68042111Y-115978416D01*
X68206883Y-115980000D01*
X68407161Y-115979490D01*
X68541612Y-115976057D01*
X68624407Y-115966847D01*
X68669716Y-115949009D01*
X68691714Y-115919687D01*
X68703574Y-115880000D01*
X68733687Y-115793173D01*
X68759799Y-115781894D01*
X68780491Y-115841752D01*
X68794347Y-115968337D01*
X68799948Y-116157238D01*
X68800000Y-116180000D01*
X68796680Y-116347903D01*
X68787730Y-116481102D01*
X68774661Y-116562667D01*
X68764279Y-116580000D01*
X68720552Y-116548168D01*
X68705534Y-116520000D01*
X68683203Y-116495560D01*
X68630271Y-116478555D01*
X68534949Y-116467774D01*
X68385450Y-116462007D01*
X68169985Y-116460043D01*
X68121255Y-116460000D01*
X67895116Y-116461198D01*
X67737502Y-116465605D01*
X67636963Y-116474447D01*
X67582048Y-116488948D01*
X67561306Y-116510331D01*
X67560000Y-116520000D01*
X67545510Y-116581384D01*
X67508706Y-116579139D01*
X67459584Y-116522821D01*
X67408140Y-116421985D01*
X67382159Y-116350000D01*
X67340144Y-116218319D01*
X67306005Y-116114344D01*
X67290574Y-116070000D01*
X67307070Y-116030418D01*
X67369053Y-116020000D01*
X67463399Y-116009492D01*
X67486475Y-115972285D01*
X67440894Y-115899857D01*
X67414836Y-115870649D01*
X67322784Y-115733016D01*
X67289940Y-115595551D01*
X67313462Y-115474526D01*
X67390504Y-115386212D01*
X67506230Y-115347840D01*
X67638605Y-115364553D01*
G37*
G36*
X68773848Y-116870000D02*
G01*
X68847550Y-117192862D01*
X68841568Y-117522644D01*
X68823654Y-117625582D01*
X68729802Y-117886408D01*
X68567370Y-118106692D01*
X68392910Y-118249440D01*
X68298443Y-118304069D01*
X68199739Y-118338739D01*
X68071934Y-118359421D01*
X67890164Y-118372082D01*
X67880024Y-118372573D01*
X67697996Y-118378318D01*
X67567520Y-118372064D01*
X67460540Y-118349728D01*
X67348999Y-118307225D01*
X67309598Y-118289540D01*
X67080860Y-118143000D01*
X66908445Y-117940347D01*
X66817070Y-117750082D01*
X66780894Y-117595349D01*
X66764854Y-117407705D01*
X66767611Y-117209491D01*
X66787827Y-117023049D01*
X66824166Y-116870721D01*
X66875290Y-116774849D01*
X66875459Y-116774675D01*
X66926578Y-116754528D01*
X67028468Y-116732140D01*
X67090000Y-116722224D01*
X67220173Y-116714463D01*
X67277303Y-116737053D01*
X67261261Y-116787429D01*
X67171917Y-116863024D01*
X67099435Y-116909648D01*
X66986200Y-116991295D01*
X66899860Y-117077183D01*
X66874409Y-117116295D01*
X66846163Y-117267702D01*
X66880561Y-117433760D01*
X66970724Y-117589545D01*
X67019616Y-117642229D01*
X67159156Y-117745370D01*
X67328613Y-117813204D01*
X67542019Y-117849064D01*
X67813400Y-117856284D01*
X67908294Y-117853360D01*
X68194755Y-117826322D01*
X68413591Y-117769490D01*
X68572681Y-117679515D01*
X68679902Y-117553048D01*
X68698551Y-117517404D01*
X68758389Y-117317588D01*
X68742220Y-117138682D01*
X68652736Y-116987252D01*
X68492633Y-116869862D01*
X68419569Y-116837710D01*
X68314746Y-116791133D01*
X68250052Y-116749782D01*
X68240000Y-116734566D01*
X68276312Y-116716225D01*
X68370585Y-116703692D01*
X68476691Y-116700000D01*
X68713383Y-116700000D01*
X68773848Y-116870000D01*
G37*
G36*
X67415484Y-104646166D02*
G01*
X67418813Y-104656261D01*
X67432518Y-104686383D01*
X67459348Y-104715416D01*
X67508365Y-104747427D01*
X67588631Y-104786484D01*
X67709211Y-104836655D01*
X67879165Y-104902008D01*
X68107557Y-104986610D01*
X68360000Y-105078731D01*
X68695829Y-105203712D01*
X68960488Y-105308710D01*
X69159602Y-105396150D01*
X69298798Y-105468456D01*
X69363466Y-105511265D01*
X69455830Y-105619772D01*
X69508609Y-105757629D01*
X69517032Y-105898048D01*
X69476326Y-106014242D01*
X69457142Y-106037143D01*
X69362249Y-106089465D01*
X69250373Y-106096909D01*
X69154987Y-106060921D01*
X69121407Y-106022630D01*
X69084141Y-105916013D01*
X69103737Y-105817679D01*
X69181791Y-105705166D01*
X69283583Y-105584193D01*
X69191791Y-105526262D01*
X69086776Y-105471006D01*
X69013205Y-105442487D01*
X68944942Y-105448487D01*
X68818888Y-105483144D01*
X68649399Y-105540554D01*
X68450832Y-105614813D01*
X68237547Y-105700016D01*
X68023899Y-105790259D01*
X67824246Y-105879638D01*
X67652946Y-105962250D01*
X67524356Y-106032190D01*
X67452833Y-106083553D01*
X67451918Y-106084529D01*
X67385237Y-106150242D01*
X67343216Y-106179865D01*
X67341918Y-106180000D01*
X67332717Y-106142826D01*
X67325418Y-106042590D01*
X67320949Y-105896225D01*
X67320000Y-105780000D01*
X67323967Y-105586428D01*
X67335276Y-105452091D01*
X67353032Y-105385647D01*
X67361255Y-105380000D01*
X67409965Y-105411966D01*
X67425534Y-105440000D01*
X67444669Y-105475415D01*
X67476854Y-105492065D01*
X67534924Y-105487586D01*
X67631711Y-105459613D01*
X67780051Y-105405780D01*
X67935385Y-105346030D01*
X68330770Y-105192541D01*
X67900093Y-105039098D01*
X67713130Y-104973622D01*
X67586811Y-104933697D01*
X67506881Y-104916762D01*
X67459088Y-104920254D01*
X67429178Y-104941610D01*
X67420298Y-104952828D01*
X67369732Y-105008560D01*
X67338880Y-105002644D01*
X67323673Y-104928881D01*
X67320000Y-104800000D01*
X67328422Y-104667592D01*
X67350417Y-104593056D01*
X67381074Y-104583534D01*
X67415484Y-104646166D01*
G37*
G36*
X68320721Y-110405363D02*
G01*
X68544055Y-110480912D01*
X68705719Y-110605839D01*
X68804686Y-110779333D01*
X68839928Y-111000587D01*
X68840000Y-111012118D01*
X68832365Y-111153020D01*
X68813047Y-111276345D01*
X68801528Y-111315980D01*
X68783623Y-111407634D01*
X68801528Y-111440945D01*
X68823549Y-111493266D01*
X68834067Y-111598291D01*
X68832972Y-111729539D01*
X68820158Y-111860529D01*
X68803561Y-111940000D01*
X68775097Y-112040000D01*
X68726141Y-111950000D01*
X68708114Y-111920631D01*
X68683321Y-111898465D01*
X68641339Y-111882490D01*
X68571742Y-111871693D01*
X68464106Y-111865059D01*
X68308006Y-111861574D01*
X68093018Y-111860226D01*
X67808717Y-111860001D01*
X67800580Y-111860000D01*
X67518019Y-111860503D01*
X67511797Y-111860514D01*
X67292832Y-111862569D01*
X67133506Y-111866942D01*
X67023641Y-111874406D01*
X66953058Y-111885737D01*
X66911579Y-111901708D01*
X66889025Y-111923093D01*
X66884987Y-111929667D01*
X66850006Y-111973913D01*
X66818822Y-111963559D01*
X66786243Y-111890949D01*
X66747076Y-111748424D01*
X66738743Y-111713985D01*
X66701824Y-111557749D01*
X66689763Y-111459721D01*
X66714554Y-111406393D01*
X66788194Y-111384257D01*
X66922676Y-111379803D01*
X67035321Y-111380000D01*
X67390642Y-111380000D01*
X67331718Y-111210000D01*
X67329252Y-111197981D01*
X67456238Y-111197981D01*
X67477991Y-111274717D01*
X67518019Y-111380000D01*
X68077022Y-111380000D01*
X68302331Y-111378920D01*
X68460659Y-111374666D01*
X68565010Y-111365722D01*
X68628386Y-111350570D01*
X68663789Y-111327692D01*
X68676796Y-111310000D01*
X68716148Y-111184076D01*
X68678323Y-111065725D01*
X68624469Y-111000833D01*
X68515347Y-110924131D01*
X68365863Y-110878650D01*
X68163500Y-110861990D01*
X67936559Y-110868954D01*
X67707046Y-110902347D01*
X67550444Y-110968355D01*
X67466820Y-111066918D01*
X67456238Y-111197981D01*
X67329252Y-111197981D01*
X67284309Y-110978970D01*
X67308490Y-110778032D01*
X67399811Y-110612428D01*
X67553822Y-110487395D01*
X67766071Y-110408176D01*
X68032107Y-110380008D01*
X68036746Y-110380000D01*
X68320721Y-110405363D01*
G37*
G36*
X68688218Y-113756799D02*
G01*
X68749482Y-113817926D01*
X68750304Y-113818808D01*
X68820347Y-113942250D01*
X68843311Y-114091342D01*
X68818909Y-114235274D01*
X68755134Y-114335948D01*
X68670269Y-114415012D01*
X68755134Y-114522901D01*
X68822041Y-114663903D01*
X68842094Y-114834980D01*
X68815115Y-115002539D01*
X68758266Y-115113119D01*
X68653428Y-115198776D01*
X68538090Y-115242998D01*
X68403773Y-115237935D01*
X68376110Y-115236892D01*
X68235846Y-115156609D01*
X68120670Y-115005840D01*
X68033955Y-114788276D01*
X68002602Y-114657007D01*
X67972318Y-114503077D01*
X68080000Y-114503077D01*
X68112152Y-114595050D01*
X68191550Y-114695065D01*
X68292603Y-114778072D01*
X68389720Y-114819023D01*
X68403773Y-114820000D01*
X68499425Y-114794608D01*
X68587599Y-114733969D01*
X68637234Y-114661396D01*
X68640000Y-114642701D01*
X68618711Y-114578571D01*
X68577731Y-114508901D01*
X68525111Y-114455064D01*
X68448204Y-114428188D01*
X68321259Y-114420099D01*
X68297731Y-114420000D01*
X68171696Y-114423375D01*
X68106334Y-114438384D01*
X68082434Y-114472358D01*
X68080000Y-114503077D01*
X67972318Y-114503077D01*
X67955974Y-114420000D01*
X67766887Y-114420000D01*
X67599061Y-114439494D01*
X67476790Y-114492990D01*
X67412775Y-114573014D01*
X67407724Y-114631428D01*
X67437844Y-114690823D01*
X67518923Y-114735884D01*
X67616028Y-114764959D01*
X67762817Y-114813450D01*
X67844765Y-114874340D01*
X67877019Y-114961263D01*
X67879387Y-115002001D01*
X67848623Y-115105087D01*
X67768121Y-115165730D01*
X67658319Y-115179896D01*
X67539655Y-115143550D01*
X67460961Y-115084599D01*
X67363899Y-114938251D01*
X67305869Y-114748757D01*
X67288997Y-114542826D01*
X67315404Y-114347165D01*
X67387217Y-114188484D01*
X67389457Y-114185431D01*
X67462887Y-114101593D01*
X67547763Y-114043789D01*
X67660015Y-114007458D01*
X67815576Y-113988041D01*
X68030376Y-113980978D01*
X68105102Y-113980590D01*
X68316366Y-113977955D01*
X68461390Y-113967680D01*
X68553872Y-113945224D01*
X68607512Y-113906046D01*
X68636009Y-113845603D01*
X68645999Y-113801266D01*
X68660220Y-113752338D01*
X68688218Y-113756799D01*
G37*
G36*
X68768649Y-112115133D02*
G01*
X68788387Y-112203271D01*
X68798718Y-112360272D01*
X68800000Y-112460000D01*
X68794637Y-112649052D01*
X68779313Y-112771002D01*
X68755172Y-112822213D01*
X68723361Y-112799047D01*
X68705534Y-112760000D01*
X68683586Y-112735929D01*
X68631534Y-112719058D01*
X68537767Y-112708232D01*
X68390677Y-112702299D01*
X68178652Y-112700103D01*
X68102017Y-112700000D01*
X67875966Y-112700352D01*
X67717286Y-112702740D01*
X67613350Y-112709163D01*
X67551530Y-112721621D01*
X67519198Y-112742111D01*
X67503725Y-112772634D01*
X67497507Y-112795692D01*
X67499442Y-112903780D01*
X67537772Y-113015692D01*
X67602054Y-113140000D01*
X68120688Y-113140000D01*
X68334754Y-113139046D01*
X68482895Y-113134863D01*
X68579173Y-113125474D01*
X68637654Y-113108898D01*
X68672402Y-113083158D01*
X68689282Y-113060000D01*
X68739590Y-112997678D01*
X68769621Y-112980000D01*
X68782675Y-113017099D01*
X68792918Y-113116814D01*
X68798964Y-113261776D01*
X68800000Y-113360000D01*
X68796010Y-113539241D01*
X68784903Y-113667984D01*
X68767972Y-113733945D01*
X68760000Y-113740000D01*
X68723801Y-113707921D01*
X68720000Y-113684280D01*
X68709451Y-113644131D01*
X68670494Y-113615550D01*
X68592165Y-113596697D01*
X68463498Y-113585734D01*
X68273528Y-113580823D01*
X68098135Y-113580000D01*
X67890397Y-113580912D01*
X67748320Y-113585124D01*
X67657574Y-113594849D01*
X67603828Y-113612303D01*
X67572752Y-113639698D01*
X67558166Y-113663426D01*
X67525169Y-113713018D01*
X67495095Y-113717940D01*
X67460459Y-113669557D01*
X67413777Y-113559232D01*
X67373448Y-113450266D01*
X67322654Y-113297235D01*
X67306448Y-113203466D01*
X67325841Y-113155613D01*
X67381843Y-113140325D01*
X67396920Y-113140000D01*
X67435741Y-113133745D01*
X67441907Y-113103391D01*
X67413337Y-113031561D01*
X67374559Y-112953221D01*
X67303295Y-112783341D01*
X67284362Y-112641277D01*
X67315424Y-112496435D01*
X67335697Y-112444129D01*
X67382437Y-112362305D01*
X67451948Y-112302421D01*
X67555781Y-112261364D01*
X67705486Y-112236019D01*
X67912614Y-112223274D01*
X68167224Y-112220000D01*
X68385993Y-112218415D01*
X68537051Y-112212750D01*
X68632639Y-112201640D01*
X68685000Y-112183720D01*
X68705534Y-112160000D01*
X68740650Y-112099497D01*
X68768649Y-112115133D01*
G37*
%TD*%
M02*
